<svg width="11" height="11" viewBox="0 0 11 11" fill="none" xmlns="http://www.w3.org/2000/svg">
<path d="M8.81465 0.561598L6.51942 3.96781C6.43396 4.07769 6.45838 4.2242 6.56826 4.30966C6.66593 4.38291 6.80022 4.3707 6.88568 4.28524L9.14428 2.31964C9.18091 2.28302 9.24195 2.28302 9.26637 2.31964C9.27858 2.33185 9.29079 2.35627 9.29079 2.38069V8.52164C9.29079 8.57048 9.25416 8.6071 9.19312 8.6071C9.1687 8.6071 9.14428 8.59489 9.11987 8.57048L2.28302 0.390677C2.07547 0.158713 1.75805 0 1.404 0H1.17203C0.524972 0 0 0.524972 0 1.17203V9.81576C0 10.4628 0.524972 10.9878 1.17203 10.9878C1.57492 10.9878 1.95339 10.7802 2.17314 10.4262L4.46837 7.01998C4.55383 6.9101 4.52941 6.7636 4.41953 6.67814C4.32186 6.60488 4.18757 6.61709 4.10211 6.70255L1.84351 8.65594C1.80688 8.69256 1.74584 8.69256 1.72142 8.65594C1.70921 8.64373 1.697 8.61931 1.697 8.59489V2.45394C1.697 2.40511 1.73363 2.36848 1.79467 2.36848C1.81909 2.36848 1.84351 2.38069 1.86792 2.40511L8.70477 10.5849C8.92453 10.8535 9.25416 11 9.596 11H9.84018C10.4872 11 11 10.475 11 9.82797V1.17203C10.9878 0.524972 10.4628 0 9.81576 0C9.41287 0 9.03441 0.207547 8.81465 0.561598Z" fill="#343A40"/>
</svg>
