<?xml version="1.0" encoding="UTF-8" standalone="no"?>
<svg xmlns:dc="http://purl.org/dc/elements/1.1/" xmlns:cc="http://creativecommons.org/ns#" xmlns:rdf="http://www.w3.org/1999/02/22-rdf-syntax-ns#" xmlns:svg="http://www.w3.org/2000/svg" xmlns="http://www.w3.org/2000/svg" xmlns:xlink="http://www.w3.org/1999/xlink" xmlns:sodipodi="http://sodipodi.sourceforge.net/DTD/sodipodi-0.dtd" xmlns:inkscape="http://www.inkscape.org/namespaces/inkscape" width="500" height="500" id="svg2" version="1.1" inkscape:version="0.48.4 r9939" sodipodi:docname="alaska.svg">
  
  <sodipodi:namedview pagecolor="#ffffff" bordercolor="#666666" borderopacity="1" objecttolerance="10" gridtolerance="10" guidetolerance="10" inkscape:pageopacity="0" inkscape:pageshadow="2" inkscape:window-width="1366" inkscape:window-height="705" id="namedview38" showgrid="false" inkscape:zoom="0.6675088" inkscape:cx="453.52994" inkscape:cy="332.56488" inkscape:window-x="0" inkscape:window-y="26" inkscape:window-maximized="1" inkscape:current-layer="svg2"/>
  <title id="title4">Flag of Alaska</title>
  <defs id="defs6">
    <g id="star5" style="fill:#ffb612">
      <g id="cone">
        <polygon id="triangle" points="0.5,1 0,0 0,1 " transform="matrix(0.95105652,0.30901699,-0.30901699,0.95105652,0,-1)"/>
        <use xlink:href="#triangle" transform="scale(-1,1)" id="use11" x="0" y="0" width="1416" height="1000"/>
      </g>
      <use xlink:href="#cone" transform="matrix(0.30901699,0.95105652,-0.95105652,0.30901699,0,0)" id="use13" x="0" y="0" width="1416" height="1000"/>
      <use xlink:href="#cone" transform="matrix(0.30901699,-0.95105652,0.95105652,0.30901699,0,0)" id="use15" x="0" y="0" width="1416" height="1000"/>
      <use xlink:href="#cone" transform="matrix(-0.80901699,0.58778525,-0.58778525,-0.80901699,0,0)" id="use17" x="0" y="0" width="1416" height="1000"/>
      <use xlink:href="#cone" transform="matrix(-0.80901699,-0.58778525,0.58778525,-0.80901699,0,0)" id="use19" x="0" y="0" width="1416" height="1000"/>
    </g>
    <clipPath clipPathUnits="userSpaceOnUse" id="clipPath3007">
      <rect style="fill:#808080;fill-opacity:1;stroke:none" id="rect3009" width="1387.6801" height="980" x="14.159991" y="-370" ry="106.72537"/>
    </clipPath>
  </defs>
  <g id="g3036" transform="matrix(0.35310734,0,0,0.5,2.1186427,191.28077)" clip-path="url(#clipPath3007)">
    <rect style="fill:#356ba0" y="-380" x="0" id="rect21" height="1000" width="1416"/>
    <use height="1000" width="1416" y="0" x="0" id="use23" transform="matrix(52,0,0,52,1158,-198)" xlink:href="#star5" style="fill:#e5b731;stroke:none"/>
    <use height="1000" width="1416" y="0" x="0" transform="matrix(31,0,0,31,229,16)" xlink:href="#star5" id="star" style="fill:#e5b731"/>
    <use height="1000" width="1416" id="use26" y="62" x="167" xlink:href="#star" style="fill:#e5b731"/>
    <use height="1000" width="1416" id="use28" y="151" x="250" xlink:href="#star" style="fill:#e5b731"/>
    <use height="1000" width="1416" id="use30" y="244" x="334" xlink:href="#star" style="fill:#e5b731"/>
    <use height="1000" width="1416" id="use32" y="333" x="584" xlink:href="#star" style="fill:#e5b731"/>
    <use height="1000" width="1416" id="use34" y="375" x="323" xlink:href="#star" style="fill:#e5b731"/>
    <use height="1000" width="1416" id="use36" y="437" x="511" xlink:href="#star" style="fill:#e5b731"/>
  </g>

	<metadata>
		<rdf:RDF xmlns:rdf="http://www.w3.org/1999/02/22-rdf-syntax-ns#" xmlns:rdfs="http://www.w3.org/2000/01/rdf-schema#" xmlns:dc="http://purl.org/dc/elements/1.1/">
			<rdf:Description about="https://iconscout.com/legal#licenses" dc:title="alaska" dc:description="alaska" dc:publisher="Iconscout" dc:date="2017-05-28" dc:format="image/svg+xml" dc:language="en">
				<dc:creator>
					<rdf:Bag>
						<rdf:li>Vignesh Oviyan</rdf:li>
					</rdf:Bag>
				</dc:creator>
			</rdf:Description>
		</rdf:RDF>
    </metadata></svg>
