<?xml version="1.0" encoding="UTF-8" standalone="no"?>
<svg xmlns:dc="http://purl.org/dc/elements/1.1/" xmlns:cc="http://creativecommons.org/ns#" xmlns:rdf="http://www.w3.org/1999/02/22-rdf-syntax-ns#" xmlns:svg="http://www.w3.org/2000/svg" xmlns="http://www.w3.org/2000/svg" xmlns:xlink="http://www.w3.org/1999/xlink" xmlns:sodipodi="http://sodipodi.sourceforge.net/DTD/sodipodi-0.dtd" xmlns:inkscape="http://www.inkscape.org/namespaces/inkscape" viewBox="0 0 240 240" width="500" height="500" version="1.1" id="svg2" inkscape:version="0.48.4 r9939" sodipodi:docname="maryland.svg">
  
  <sodipodi:namedview pagecolor="#ffffff" bordercolor="#666666" borderopacity="1" objecttolerance="10" gridtolerance="10" guidetolerance="10" inkscape:pageopacity="0" inkscape:pageshadow="2" inkscape:window-width="1366" inkscape:window-height="705" id="namedview29" showgrid="false" showguides="true" inkscape:guide-bbox="true" inkscape:zoom="0.46666667" inkscape:cx="375" inkscape:cy="250" inkscape:window-x="0" inkscape:window-y="26" inkscape:window-maximized="1" inkscape:current-layer="svg2"/>
  <defs id="defs4">
    <path id="cross" transform="scale(0.24,0.24)" d="m 0,215 a 32,32 0 0 0 32,-32 v -16 h 31 a 32,32 0 0 0 0,-64 H 32 V 32 h 199 v 31 a 32,32 0 0 0 64,0 V 32 h 28 A 32,32 0 0 0 355,0 L 0,0 z" inkscape:connector-curvature="0"/>
    <clipPath clipPathUnits="userSpaceOnUse" id="clipPath3004">
      <rect style="fill:#808080;fill-opacity:1;stroke:none" id="rect3006" width="423.35999" height="282.23999" x="4.9371457" y="4.9371448" ry="30.736908"/>
    </clipPath>
  </defs>
  <g id="g2996" transform="scale(0.55555556,0.83333333)" clip-path="url(#clipPath3004)">
    <g transform="matrix(1.2,0,0,1.2,0,-57.6)" id="g3008">
      <g id="q1" transform="translate(0,48)">
        <rect width="180" height="120" id="rect8" x="0" y="0"/>
        <path d="M 0,120 V 20 l 30,20 v 80 H 60 V 0 h 30 v 120 h 30 V 0 h 30 v 120 h 30 V 100 L 30,0 v 40 l 120,80 z" id="path10" inkscape:connector-curvature="0" style="fill:#e5b731"/>
      </g>
      <g id="q2" transform="translate(0,48)">
        <rect x="180" width="180" height="120" id="rect13" y="0" style="fill:#ffffff"/>
        <path d="m 270,0 h 90 V 60 H 180 v 60 h 90 z" id="path15" inkscape:connector-curvature="0" style="fill:#ca4638"/>
        <g transform="translate(270,60)" id="g17">
          <use xlink:href="#cross" id="use19" style="fill:#ca4638" x="0" y="0" width="360" height="240"/>
          <use transform="scale(-1,1)" xlink:href="#cross" id="use21" style="fill:#ffffff" x="0" y="0" width="360" height="240"/>
          <use transform="scale(1,-1)" xlink:href="#cross" id="use23" style="fill:#ffffff" x="0" y="0" width="360" height="240"/>
          <use transform="scale(-1,-1)" xlink:href="#cross" id="use25" style="fill:#ca4638" x="0" y="0" width="360" height="240"/>
        </g>
      </g>
      <use id="q3" x="-180" y="120" xlink:href="#q2" width="360" height="240"/>
      <use id="q4" x="180" y="120" xlink:href="#q1" width="360" height="240"/>
    </g>
  </g>

	<metadata>
		<rdf:RDF xmlns:rdf="http://www.w3.org/1999/02/22-rdf-syntax-ns#" xmlns:rdfs="http://www.w3.org/2000/01/rdf-schema#" xmlns:dc="http://purl.org/dc/elements/1.1/">
			<rdf:Description about="https://iconscout.com/legal#licenses" dc:title="maryland" dc:description="maryland" dc:publisher="Iconscout" dc:date="2017-05-28" dc:format="image/svg+xml" dc:language="en">
				<dc:creator>
					<rdf:Bag>
						<rdf:li>Vignesh Oviyan</rdf:li>
					</rdf:Bag>
				</dc:creator>
			</rdf:Description>
		</rdf:RDF>
    </metadata></svg>
