<?xml version="1.0" encoding="UTF-8" standalone="no"?>
<svg xmlns:dc="http://purl.org/dc/elements/1.1/" xmlns:cc="http://creativecommons.org/ns#" xmlns:rdf="http://www.w3.org/1999/02/22-rdf-syntax-ns#" xmlns:svg="http://www.w3.org/2000/svg" xmlns="http://www.w3.org/2000/svg" xmlns:sodipodi="http://sodipodi.sourceforge.net/DTD/sodipodi-0.dtd" xmlns:inkscape="http://www.inkscape.org/namespaces/inkscape" version="1.0" width="500" height="500" id="svg166" inkscape:version="0.48.4 r9939" sodipodi:docname="north_carolina.svg">
  
  <sodipodi:namedview pagecolor="#ffffff" bordercolor="#666666" borderopacity="1" objecttolerance="10" gridtolerance="10" guidetolerance="10" inkscape:pageopacity="0" inkscape:pageshadow="2" inkscape:window-width="1366" inkscape:window-height="705" id="namedview56" showgrid="false" inkscape:zoom="0.52200001" inkscape:cx="138.32985" inkscape:cy="179.2277" inkscape:window-x="0" inkscape:window-y="26" inkscape:window-maximized="1" inkscape:current-layer="svg166"/>
  <defs id="defs168">
    <clipPath clipPathUnits="userSpaceOnUse" id="clipPath3041">
      <rect style="fill:#808080;fill-opacity:1;stroke:none" id="rect3043" width="938.75238" height="938.75238" x="1.3817936" y="-265.81189" ry="102.23336"/>
    </clipPath>
    <clipPath clipPathUnits="userSpaceOnUse" id="clipPath3045">
      <rect style="fill:#808080;fill-opacity:1;stroke:none" id="rect3047" width="490" height="490" x="4.0421453" y="5.9578509" ry="53.362686"/>
    </clipPath>
    <clipPath clipPathUnits="userSpaceOnUse" id="clipPath3049">
      <rect style="fill:#808080;fill-opacity:1;stroke:none" id="rect3051" width="490" height="490" x="4.0421453" y="5.9578509" ry="53.362686"/>
    </clipPath>
    <clipPath clipPathUnits="userSpaceOnUse" id="clipPath3053">
      <rect style="fill:#808080;fill-opacity:1;stroke:none" id="rect3055" width="490" height="490" x="4.0421453" y="5.9578509" ry="53.362686"/>
    </clipPath>
  </defs>
  <rect width="333.31186" height="250.0647" x="166.68813" y="0.042924244" style="font-size:12px;fill:#ca4638;fill-opacity:1;fill-rule:evenodd;stroke-width:1.01768994" id="rect172" clip-path="url(#clipPath3053)"/>
  <rect width="166.68753" height="500" x="-3.227846e-10" y="1.5258789e-05" style="font-size:12px;fill:#356ba0;fill-opacity:1;fill-rule:evenodd;stroke-width:1pt" id="rect170" clip-path="url(#clipPath3049)"/>
  <rect width="333.2486" height="249.82845" x="166.71539" y="250.16898" style="font-size:12px;fill:#ffffff;fill-rule:evenodd;stroke-width:1.01768994" id="rect603" clip-path="url(#clipPath3045)"/>
  <g transform="matrix(0.52196939,0,0,0.52196939,3.3208913,144.70352)" id="g3033" clip-path="url(#clipPath3041)">
    <path id="path607" style="font-size:12px;fill:#e5b731;fill-opacity:1;fill-rule:evenodd;stroke:#356ba0;stroke-width:1.16719413;stroke-linejoin:miter;stroke-miterlimit:4;stroke-opacity:1;stroke-dasharray:none" d="M 52.157953,42.0379 C 33.913573,52.22587 30.605523,56.47486 20.606424,64.28806 l 22.174189,0.46402 c -0.26398,2.06503 -5.10465,27.77411 -5.56362,29.58839 16.69413,-11.09388 24.61549,-16.17921 47.39245,-22.59592 9.05003,-2.51289 -0.71175,-11.70776 -1.65356,-14.15372 -6.18763,2.79276 -10.94557,6.10895 -15.50689,10.17263" inkscape:connector-curvature="0"/>
    <path id="path628" style="font-size:12px;fill:#e5b731;fill-opacity:1;fill-rule:evenodd;stroke:#356ba0;stroke-width:1.16719413;stroke-miterlimit:4;stroke-opacity:1;stroke-dasharray:none" d="M 67.744443,67.54835 C 101.75552,36.39183 214.29463,37.13647 245.63861,68.51104 246.64982,68.14737 266.92771,33.93738 265.91651,34.30106 204.37816,-8.809253 94.111993,-1.423713 47.833033,32.59785 l 0.54896,2.0307 19.36245,32.9198 z" inkscape:connector-curvature="0"/>
    <path id="path613" style="font-size:12px;fill:none;stroke:#356ba0;stroke-width:3.64747858;stroke-linecap:round;stroke-linejoin:round;stroke-opacity:1;stroke-dasharray:none" d="m 73.590303,54.02913 c -0.16892,-0.44506 -9.88888,-18.54558 -9.88888,-18.54558 l 15.90976,14.02088 -3.70186,-20.48671 10.41971,17.52948" inkscape:connector-curvature="0"/>
    <path id="path618" style="font-size:12px;fill:none;stroke:#356ba0;stroke-width:3.64747858;stroke-linecap:round;stroke-linejoin:round;stroke-opacity:1;stroke-dasharray:none" d="m 131.29197,22.76302 c 0.0693,-5.53408 4.50433,-5.90689 7.55697,-4.94937 1.79074,1.36595 2.73091,5.81729 0.58471,8.35461 l -4.30972,3.67302 c -1.49021,1.86299 -3.14032,3.98994 -3.0334,6.33169 l 9.73688,-0.37183" inkscape:connector-curvature="0"/>
    <path id="path621" style="font-size:12px;fill:none;stroke:#356ba0;stroke-width:3.64747858;stroke-linecap:round;stroke-linejoin:round;stroke-opacity:1;stroke-dasharray:none" d="m 148.96528,16.85331 c -1.77821,0.86887 -2.37642,2.24349 -2.7887,4.27894 -0.26587,2.34077 -0.14738,7.87584 0.33138,10.16365 0.42672,1.70309 0.85057,2.82051 2.12886,3.93792 1.49019,0.85155 3.13933,0.69261 4.04481,0.10697 1.22338,-0.69164 2.07493,-2.12888 2.5007,-3.83195 0.69162,-2.18188 0.63865,-8.56752 0.15894,-10.90927 -0.44311,-1.56052 -0.99315,-2.8022 -2.23482,-3.72505 -1.49021,-0.63865 -3.23664,-0.49994 -4.14117,-0.0213 z" inkscape:connector-curvature="0"/>
    <path id="path629" style="font-size:12px;fill:none;stroke:#356ba0;stroke-width:3.64747715;stroke-linecap:round;stroke-linejoin:round;stroke-opacity:1;stroke-dasharray:none" d="m 195.4671,22.17002 c 1.85347,-0.77412 3.26268,-1.72156 4.80771,-3.53646 l -2.73515,19.27108" inkscape:connector-curvature="0"/>
    <path id="path630" style="font-size:12px;fill:none;stroke:#356ba0;stroke-width:3.6474824;stroke-linecap:round;stroke-linejoin:round;stroke-opacity:1;stroke-dasharray:none" d="m 209.70642,21.18324 c 0.22239,0.0841 9.25588,2.71067 9.25588,2.71067 -4.40533,5.50363 -8.0173,10.39256 -10.96151,16.60588" inkscape:connector-curvature="0"/>
    <path id="path631" style="font-size:12px;fill:none;stroke:#356ba0;stroke-width:3.64748597;stroke-linecap:round;stroke-linejoin:round;stroke-opacity:1;stroke-dasharray:none" d="m 226.85365,25.98473 8.95468,4.41686 c -5.31654,3.80005 -9.68806,8.58146 -13.55685,14.17293" inkscape:connector-curvature="0"/>
    <path id="path632" style="font-size:12px;fill:none;stroke:#356ba0;stroke-width:3.64748049;stroke-linecap:round;stroke-linejoin:round;stroke-opacity:1;stroke-dasharray:none" d="m 249.55626,37.57043 -5.86535,-3.43918 -5.18735,7.02363 c 3.72608,-0.73463 6.23022,0.39083 7.30152,3.77219 0.65728,4.98061 -2.32767,7.82364 -5.55371,7.91256 -3.39462,-0.0772 -5.14672,-1.94139 -5.62442,-5.85329" inkscape:connector-curvature="0"/>
    <path id="path614" style="font-size:12px;fill:none;stroke:#356ba0;stroke-width:3.64748311;stroke-linecap:round;stroke-linejoin:round;stroke-opacity:1;stroke-dasharray:none" d="m 91.309553,44.03898 c 0,0 0.56628,-20.92174 0.77784,-20.89869 0.0923,-0.84653 11.813867,17.34602 11.813867,17.34602 l 0,0" inkscape:connector-curvature="0"/>
    <path id="path615" style="font-size:12px;fill:none;stroke:#356ba0;stroke-width:3.64748311;stroke-linecap:round;stroke-linejoin:round;stroke-opacity:1;stroke-dasharray:none" d="m 91.693203,36.58662 7.96346,-2.34369" inkscape:connector-curvature="0"/>
    <path id="path678" style="font-size:12px;fill:#e5b731;fill-opacity:1;fill-rule:evenodd;stroke:none" d="m 45.205713,241.4301 11.63557,0.15653 -0.36764,-50.40815 22.30284,50.67406 12.1066,-0.001 0,-74.1442 -11.81767,0.15852 0.17968,46.87811 -20.84629,-46.66837 -13.01341,0.15753 -0.17968,73.19697 z" inkscape:connector-curvature="0"/>
    <path id="path680" style="font-size:12px;fill:#e5b731;fill-opacity:1;fill-rule:evenodd;stroke:none" d="m 257.85968,191.23195 12.39224,0 -0.14951,-6.53331 c -0.3512,-4.2204 -1.94563,-9.56766 -6.10883,-13.52118 -2.77144,-3.08452 -6.05162,-4.82648 -10.30713,-5.98944 -3.61232,-1.41785 -12.45847,-1.00042 -16.94778,1.51116 -5.3091,2.96513 -9.79339,8.25318 -12.78659,16.77328 -3.92738,14.34599 -2.15333,32.31034 0.33515,40.76421 2.96309,8.9596 7.61094,13.74093 13.79702,16.75724 3.85013,1.29341 10.56704,2.28077 16.85245,0.57796 6.84736,-2.58984 9.97702,-7.08618 12.69629,-11.88157 1.65065,-3.24609 3.54508,-9.46833 3.21497,-16.36489 l -12.93009,0.15754 c 0.008,2.52362 -0.50269,5.43657 -1.14389,7.96018 -1.46298,3.52806 -3.72269,5.88912 -9.33984,5.88811 -3.76484,-0.003 -6.30951,-1.55431 -8.4167,-4.33279 -2.84369,-2.74539 -3.58924,-8.89138 -3.77889,-10.6283 -0.85691,-7.84479 -0.881,-15.61131 1.3797,-23.79627 0.86095,-3.3073 2.57278,-6.36674 4.81243,-7.85683 3.62936,-1.96773 7.38417,-1.67573 9.5074,-1.05561 2.78751,0.86096 5.35929,2.94406 6.16202,5.70248 0.62411,2.59385 0.72345,4.17124 0.75958,5.86803 z" inkscape:connector-curvature="0"/>
    <path id="polygon693" style="font-size:12px;fill:#ffffff;fill-rule:evenodd;stroke:none" d="m 185.92032,243.86461 -27.77764,-21.58693 -28.50979,21.45318 11.29677,-33.59745 -28.90378,-21.26846 34.75944,0.82254 10.64627,-34.5978 10.18578,34.10582 35.48352,-0.11416 -28.4643,20.25602 11.28373,34.52724 z" inkscape:connector-curvature="0"/>
    <path id="path668" style="fill:none;stroke:#000000;stroke-width:1.16719408pt;stroke-linecap:butt;stroke-linejoin:miter;stroke-opacity:1" d="m 67.754943,67.67103 c 0,0 0,0 0,0" inkscape:connector-curvature="0"/>
    <path id="path679" style="fill:none;stroke:#356ba0;stroke-width:1.16719413;stroke-linecap:butt;stroke-linejoin:miter;stroke-miterlimit:4;stroke-opacity:1;stroke-dasharray:none" d="m 67.840833,67.56762 c 1.22349,1.25127 3.64229,0.94047 6.97986,0.30766 2.66466,-0.32164 5.70107,-0.4439 8.09044,-0.71966 3.95521,0.32306 6.22105,1.2487 4.59521,3.12503" inkscape:connector-curvature="0"/>
    <path id="path685" style="font-size:12px;fill:#e5b731;fill-opacity:1;fill-rule:evenodd;stroke:#356ba0;stroke-width:1.16719413;stroke-linejoin:miter;stroke-miterlimit:4;stroke-opacity:1;stroke-dasharray:none" d="m 261.37752,43.13804 c 18.24438,10.18797 21.55242,14.43698 31.55151,22.25016 l -22.17418,0.46402 c 0.26398,2.06504 5.10466,27.77411 5.56361,29.5884 -16.69412,-11.09389 -24.61549,-16.17921 -47.39245,-22.59593 -9.05002,-2.51289 1.0384,-11.87079 1.98021,-14.31677 6.18753,2.7928 11.43553,6.10877 15.18025,10.33566" inkscape:connector-curvature="0"/>
    <path id="path689" style="fill:none;stroke:#000000;stroke-width:1.16719408pt;stroke-linecap:butt;stroke-linejoin:miter;stroke-opacity:1" d="m 245.77937,68.77126 c 0,0 0,0 0,0" inkscape:connector-curvature="0"/>
    <path id="path690" style="fill:none;stroke:#356ba0;stroke-width:1.16719413;stroke-linecap:butt;stroke-linejoin:miter;stroke-miterlimit:4;stroke-opacity:1;stroke-dasharray:none" d="m 245.43349,68.66785 c -2.0482,0.94681 -4.16227,0.52824 -6.71987,0.30765 -2.42701,-0.35317 -5.18109,-0.76694 -7.90691,-0.85881 -4.56932,0.0316 -6.22107,1.93938 -4.77874,3.26419" inkscape:connector-curvature="0"/>
    <path id="path622" style="font-size:12px;fill:none;stroke:#356ba0;stroke-width:2.62618351;stroke-linecap:round;stroke-linejoin:round;stroke-opacity:1;stroke-dasharray:none" d="m 159.51552,24.01658 c 3.53184,0.0643 6.94818,0.20326 6.94818,0.20326" inkscape:connector-curvature="0"/>
    <path id="path624" style="font-size:12px;fill:none;stroke:#356ba0;stroke-width:2.62619209;stroke-linecap:round;stroke-linejoin:round;stroke-opacity:1;stroke-dasharray:none" d="m 170.36161,19.40074 -0.41179,16.83427" inkscape:connector-curvature="0"/>
    <path id="path627" style="font-size:12px;fill:none;stroke:#356ba0;stroke-width:2.62619209;stroke-linecap:round;stroke-linejoin:round;stroke-opacity:1;stroke-dasharray:none" d="m 177.6896,36.99803 c 0.98476,-12.08284 -0.59668,-12.51379 -6.43316,-12.48717" inkscape:connector-curvature="0"/>
    <path id="path661" style="fill:none;stroke:#356ba0;stroke-width:2.62618685;stroke-linecap:round;stroke-linejoin:round;stroke-opacity:1;stroke-dasharray:none" d="m 162.27051,18.79125 -0.26001,13.99337 c -0.0376,2.65479 0.78824,3.4109 3.0976,3.4109" inkscape:connector-curvature="0"/>
    <path id="path616" style="font-size:12px;fill:none;stroke:#356ba0;stroke-width:3.6474843;stroke-linecap:round;stroke-linejoin:round;stroke-opacity:1" d="m 102.58741,20.62074 8.65045,8.77608 1.56235,9.52929" inkscape:connector-curvature="0"/>
    <path id="path617" style="font-size:12px;fill:none;stroke:#356ba0;stroke-width:3.6474843;stroke-linecap:round;stroke-linejoin:round;stroke-opacity:1" d="m 116.18242,17.60579 -4.7403,12.21128" inkscape:connector-curvature="0"/>
    <path id="path671" style="font-size:12px;fill:#e5b731;fill-opacity:1;fill-rule:evenodd;stroke:#356ba0;stroke-width:1.16719413;stroke-linejoin:miter;stroke-miterlimit:4;stroke-opacity:1;stroke-dasharray:none" d="m 52.893223,357.34627 c -18.24437,-9.9625 -21.55242,-14.11746 -31.551505,-21.75775 l 22.174185,-0.45375 c -0.26399,-2.01932 -5.10466,-27.15943 -5.56363,-28.93354 16.69413,10.84836 24.61551,15.82114 47.39245,22.09583 9.05003,2.45729 -0.71175,11.44867 -1.65356,13.84049 -6.18764,-2.73095 -10.94556,-5.97376 -15.50689,-9.9475" inkscape:connector-curvature="0"/>
    <path id="path683" style="font-size:12px;fill:#e5b731;fill-opacity:1;fill-rule:evenodd;stroke:#356ba0;stroke-width:1.16719413;stroke-miterlimit:4;stroke-opacity:1;stroke-dasharray:none" d="m 68.479733,332.40012 c 34.011077,30.46702 146.550167,29.73886 177.894147,-0.94139 1.0112,0.35563 21.28913,33.80853 20.27791,33.4529 -61.53835,42.15626 -171.804507,34.93416 -218.083477,1.66552 l 0.54896,-1.98577 19.36246,-32.19126 z" inkscape:connector-curvature="0"/>
    <path id="path686" style="fill:none;stroke:#000000;stroke-width:1.15420618pt;stroke-linecap:butt;stroke-linejoin:miter;stroke-opacity:1" d="m 67.754943,332.64793 c 0,0 0,0 0,0" inkscape:connector-curvature="0"/>
    <path id="path687" style="fill:none;stroke:#356ba0;stroke-width:1.16719413;stroke-linecap:butt;stroke-linejoin:miter;stroke-miterlimit:4;stroke-opacity:1;stroke-dasharray:none" d="m 68.576103,332.3814 c 1.2235,-1.22357 3.64227,-0.91965 6.97987,-0.30083 2.66466,0.31452 5.70107,0.43405 8.09042,0.70372 3.95523,-0.3159 6.22108,-1.22107 4.59521,-3.05587" inkscape:connector-curvature="0"/>
    <path id="path693" style="font-size:12px;fill:#e5b731;fill-opacity:1;fill-rule:evenodd;stroke:#356ba0;stroke-width:1.16719413;stroke-linejoin:miter;stroke-miterlimit:4;stroke-opacity:1;stroke-dasharray:none" d="m 262.11175,356.27051 c 18.24436,-9.9625 21.55243,-14.11746 31.5515,-21.75774 l -22.17419,-0.45375 c 0.26398,-2.01933 5.10466,-27.15943 5.56364,-28.93355 -16.69413,10.84836 -24.61551,15.82114 -47.39247,22.09584 -9.05003,2.45728 1.03839,11.60809 1.98021,13.99991 6.18753,-2.73098 11.43555,-5.97357 15.18024,-10.10691" inkscape:connector-curvature="0"/>
    <path id="path694" style="fill:none;stroke:#000000;stroke-width:1.15420618pt;stroke-linecap:butt;stroke-linejoin:miter;stroke-opacity:1" d="m 245.77937,331.57217 c 0,0 0,0 0,0" inkscape:connector-curvature="0"/>
    <path id="path695" style="fill:none;stroke:#356ba0;stroke-width:1.16719413;stroke-linecap:butt;stroke-linejoin:miter;stroke-miterlimit:4;stroke-opacity:1;stroke-dasharray:none" d="m 246.16872,331.30564 c -2.0482,-0.92585 -4.16228,-0.51653 -6.71988,-0.30083 -2.42702,0.34536 -5.18109,0.74997 -7.90692,0.83981 -4.56933,-0.0309 -6.22107,-1.89645 -4.77873,-3.19195" inkscape:connector-curvature="0"/>
    <path id="path646" style="font-size:12px;fill:none;stroke:#356ba0;stroke-width:3.64748168;stroke-linecap:round;stroke-linejoin:round;stroke-opacity:1;stroke-dasharray:none" d="m 156.42169,372.35514 c 1.46505,-5.02727 4.80374,-4.41208 7.78081,-3.72324 2.39059,1.64054 2.73319,6.11081 0.44951,8.71241 l -4.19027,3.19092 c -1.77183,1.17685 -3.531,3.36054 -3.46435,5.8015 l 10.14797,-0.20138" inkscape:connector-curvature="0"/>
    <path id="path657" style="font-size:12px;fill:none;stroke:#356ba0;stroke-width:3.64747977;stroke-linecap:round;stroke-linejoin:round;stroke-opacity:1;stroke-dasharray:none" d="m 146.17613,371.67565 c 1.83831,-0.9992 2.2793,-1.39514 3.68734,-3.44005 l -0.78581,18.1805" inkscape:connector-curvature="0"/>
    <path id="path676" style="font-size:12px;fill:none;stroke:#356ba0;stroke-width:3.6474824;stroke-linecap:round;stroke-opacity:1;stroke-dasharray:none" d="m 123.7954,363.6784 c -0.003,0.11139 -3.09291,18.98961 -3.22587,19.76179 l 9.83146,1.38993" inkscape:connector-curvature="0"/>
    <path id="path675" style="font-size:12px;fill:none;stroke:#356ba0;stroke-width:3.64748049;stroke-linecap:round;stroke-linejoin:round;stroke-opacity:1;stroke-dasharray:none" d="m 112.25208,382.43365 3.02582,-20.59351" inkscape:connector-curvature="0"/>
    <path id="path672" style="font-size:12px;fill:none;stroke:#356ba0;stroke-width:3.64748049;stroke-linecap:round;stroke-opacity:1;stroke-dasharray:none" d="m 77.129963,371.63689 7.50101,-19.04394 c 2.24658,1.12636 5.14122,1.57078 7.63768,3.79795 1.62105,2.69504 0.87432,8.2226 -3.77023,8.74707 -2.55938,-0.34153 -4.69793,-1.58104 -6.9417,-2.59707" inkscape:connector-curvature="0"/>
    <path id="path654" style="font-size:12px;fill:none;stroke:#356ba0;stroke-width:3.5999856;stroke-linecap:round;stroke-linejoin:round;stroke-opacity:1;stroke-dasharray:none" d="m 199.82374,367.78086 c 1.48353,-1.44169 2.49219,-2.89587 3.3402,-5.26451 l 3.83492,20.21347" inkscape:connector-curvature="0"/>
    <path id="path655" style="font-size:12px;fill:none;stroke:#356ba0;stroke-width:3.6474843;stroke-linecap:round;stroke-linejoin:round;stroke-opacity:1;stroke-dasharray:none" d="m 208.47883,361.96427 c 0.23983,-0.062 9.81818,-3.4118 9.81818,-3.4118 -0.44069,7.33012 -0.57742,14.36596 0.33918,20.87187" inkscape:connector-curvature="0"/>
    <path id="path656" style="font-size:12px;fill:none;stroke:#356ba0;stroke-width:3.64747787;stroke-linecap:round;stroke-linejoin:round;stroke-opacity:1;stroke-dasharray:none" d="m 223.32695,356.81945 9.82049,-3.84339 c -0.42204,7.43202 -0.88196,15.34573 0.48366,20.92151" inkscape:connector-curvature="0"/>
    <path id="path677" style="font-size:12px;fill:none;stroke:#356ba0;stroke-width:3.64747691;stroke-linecap:round;stroke-linejoin:round;stroke-opacity:1;stroke-dasharray:none" d="m 246.66184,349.1213 c -1.12167,-1.85658 -2.83629,-2.53817 -5.24539,-1.90499 -2.23393,1.9602 -2.6495,3.50643 -2.80768,5.89086 0.0919,2.95494 0.90511,5.87204 2.24687,8.47926 0.92055,2.43043 2.91069,4.16584 4.40971,4.54712 1.69742,0.62587 2.96903,0.46588 4.33037,-0.71165 1.03861,-1.31048 1.51094,-3.51048 1.4151,-5.16815 -0.32311,-2.19993 -1.31634,-4.19284 -3.55957,-5.35998 -1.73607,-0.71161 -2.45341,-0.85726 -4.02069,-0.19102 -2.37985,1.40602 -2.81241,4.00933 -2.45905,6.6639" inkscape:connector-curvature="0"/>
    <path id="path706" style="font-size:12px;fill:none;stroke:#356ba0;stroke-width:2.62618518;stroke-linecap:round;stroke-linejoin:round;stroke-opacity:1;stroke-dasharray:none" d="m 169.58577,373.98699 c 3.52865,-0.16374 6.94683,-0.24544 6.94683,-0.24544" inkscape:connector-curvature="0"/>
    <path id="path709" style="fill:none;stroke:#356ba0;stroke-width:2.6261878;stroke-linecap:round;stroke-linejoin:round;stroke-opacity:1;stroke-dasharray:none" d="m 171.99785,368.59469 0.64341,13.98099 c 0.13367,2.65171 1.00665,3.35293 3.31121,3.20393" inkscape:connector-curvature="0"/>
    <path id="path707" style="font-size:12px;fill:none;stroke:#356ba0;stroke-width:2.62619114;stroke-linecap:round;stroke-linejoin:round;stroke-opacity:1;stroke-dasharray:none" d="m 178.84055,368.44918 1.93804,16.72742" inkscape:connector-curvature="0"/>
    <path id="path708" style="font-size:12px;fill:none;stroke:#356ba0;stroke-width:2.62619114;stroke-linecap:round;stroke-linejoin:round;stroke-opacity:1;stroke-dasharray:none" d="m 188.5497,384.85363 c -0.70858,-12.10221 -2.33463,-12.30858 -8.11046,-11.4689" inkscape:connector-curvature="0"/>
    <path id="path659" style="font-size:12px;fill:none;stroke:#356ba0;stroke-width:3.64748311;stroke-linecap:round;stroke-linejoin:round;stroke-opacity:1;stroke-dasharray:none" d="m 59.584763,363.13483 c 0,0 15.02784,-15.79451 15.17546,-15.62916 0.66169,-0.59076 -2.95443,21.66094 -2.95443,21.66094 l 0,0" inkscape:connector-curvature="0"/>
    <path id="path660" style="font-size:12px;fill:none;stroke:#356ba0;stroke-width:3.64748311;stroke-linecap:round;stroke-linejoin:round;stroke-opacity:1;stroke-dasharray:none" d="m 65.078493,357.63567 7.79655,3.73978" inkscape:connector-curvature="0"/>
    <path id="path673" style="font-size:12px;fill:none;stroke:#356ba0;stroke-width:3.64748049;stroke-linecap:round;stroke-opacity:1;stroke-dasharray:none" d="m 93.485363,378.46532 c -0.003,-0.1114 5.46956,-20.43374 5.46956,-20.43374 2.343347,0.56884 4.791897,0.91316 7.030017,1.70752 1.56575,0.5143 3.94374,2.45036 3.02515,5.57829 -0.43242,1.89701 -1.31375,3.58263 -2.65525,4.61442" inkscape:connector-curvature="0"/>
    <path id="path674" style="font-size:12px;fill:none;stroke:#356ba0;stroke-width:3.64748049;stroke-linecap:round;stroke-linejoin:round;stroke-opacity:1;stroke-dasharray:none" d="m 96.545623,367.96265 7.479017,1.91793 c 2.01456,0.72474 2.50287,2.48694 2.50566,2.5973 0.37467,1.65471 -0.88585,8.78323 -0.88585,8.78323" inkscape:connector-curvature="0"/>
  </g>

	<metadata>
		<rdf:RDF xmlns:rdf="http://www.w3.org/1999/02/22-rdf-syntax-ns#" xmlns:rdfs="http://www.w3.org/2000/01/rdf-schema#" xmlns:dc="http://purl.org/dc/elements/1.1/">
			<rdf:Description about="https://iconscout.com/legal#licenses" dc:title="north_carolina" dc:description="north_carolina" dc:publisher="Iconscout" dc:date="2017-05-28" dc:format="image/svg+xml" dc:language="en">
				<dc:creator>
					<rdf:Bag>
						<rdf:li>Vignesh Oviyan</rdf:li>
					</rdf:Bag>
				</dc:creator>
			</rdf:Description>
		</rdf:RDF>
    </metadata></svg>
