<?xml version="1.0" encoding="UTF-8" standalone="no"?>
<svg xmlns:dc="http://purl.org/dc/elements/1.1/" xmlns:cc="http://creativecommons.org/ns#" xmlns:rdf="http://www.w3.org/1999/02/22-rdf-syntax-ns#" xmlns:svg="http://www.w3.org/2000/svg" xmlns="http://www.w3.org/2000/svg" xmlns:xlink="http://www.w3.org/1999/xlink" xmlns:sodipodi="http://sodipodi.sourceforge.net/DTD/sodipodi-0.dtd" xmlns:inkscape="http://www.inkscape.org/namespaces/inkscape" width="900" height="600" viewBox="0 0 45 30" id="svg2" version="1.1" inkscape:version="0.48.4 r9939" sodipodi:docname="Flag_of_Ohio.svg">
  
  <sodipodi:namedview pagecolor="#ffffff" bordercolor="#666666" borderopacity="1" objecttolerance="10" gridtolerance="10" guidetolerance="10" inkscape:pageopacity="0" inkscape:pageshadow="2" inkscape:window-width="1366" inkscape:window-height="705" id="namedview57" showgrid="false" inkscape:zoom="0.67307692" inkscape:cx="366.22701" inkscape:cy="160" inkscape:window-x="0" inkscape:window-y="26" inkscape:window-maximized="1" inkscape:current-layer="svg2"/>
  <defs id="defs4">
    <g id="s">
      <g id="f">
        <g id="t">
          <path d="M 0,-4.625 V -4 h 0.3 z" transform="matrix(0.95105652,0.30901699,-0.30901699,0.95105652,-1.4292036,-0.22636361)" id="o" inkscape:connector-curvature="0" style="fill:#ffffff"/>
          <use xlink:href="#o" transform="scale(-1,1)" id="use10" x="0" y="0" width="26" height="16"/>
        </g>
        <use xlink:href="#t" transform="matrix(0.30901699,0.95105652,-0.95105652,0.30901699,-3.8042261,-2.763932)" id="use12" x="0" y="0" width="26" height="16"/>
      </g>
      <use xlink:href="#t" transform="matrix(0.30901699,-0.95105652,0.95105652,0.30901699,3.8042261,-2.763932)" id="use14" x="0" y="0" width="26" height="16"/>
      <use xlink:href="#f" transform="matrix(-0.80901699,0.58778525,-0.58778525,-0.80901699,-2.351141,-7.236068)" id="use16" x="0" y="0" width="26" height="16"/>
    </g>
    <clipPath id="c">
      <path d="M 0,16 V 0 l 26,3 -6,5 6,5 z" id="path19" inkscape:connector-curvature="0"/>
    </clipPath>
  </defs>
  
  <g id="g3036" transform="matrix(1.7307692,0,0,1.875,0,-26.25)">
    <g transform="translate(0,14)" style="fill:#ffffff;stroke:#ca4638" id="g21" clip-path="url(#c)">
      <path style="stroke:#ca4638;stroke-width:4" inkscape:connector-curvature="0" id="path23" d="M 26,3 0,0 v 16 l 26,-3"/>
      <path style="stroke:#ca4638;stroke-width:2" inkscape:connector-curvature="0" id="path25" d="M 0,8 H 26"/>
    </g>
    <path style="fill:#356ba0" inkscape:connector-curvature="0" id="path27" d="M 0,14 V 30 L 16,22 z"/>
    <g id="g29" transform="translate(4.944272,22)">
      <circle style="fill:#ffffff" sodipodi:ry="3" sodipodi:rx="3" sodipodi:cy="0" sodipodi:cx="0" cy="0" cx="0" d="M 3,0 C 3,1.6568542 1.6568542,3 0,3 -1.6568542,3 -3,1.6568542 -3,0 c 0,-1.6568542 1.3431458,-3 3,-3 1.6568542,0 3,1.3431458 3,3 z" id="circle31" r="3" transform="matrix(0.84011645,0,0,0.77549206,0.25000006,0)"/>
      <circle style="fill:#ca4638" sodipodi:ry="2" sodipodi:rx="2" sodipodi:cy="0" sodipodi:cx="0" cy="0" cx="0" d="M 2,0 C 2,1.1045695 1.1045695,2 0,2 -1.1045695,2 -2,1.1045695 -2,0 c 0,-1.1045695 0.8954305,-2 2,-2 1.1045695,0 2,0.8954305 2,2 z" id="circle33" r="2" transform="matrix(0.84011645,0,0,0.77549206,0.25000006,0)"/>
      <g id="g">
        <use height="16" width="26" y="0" x="0" id="use36" xlink:href="#s"/>
        <use height="16" width="26" y="0" x="0" id="use38" transform="matrix(0.8660254,0.5,-0.5,0.8660254,0,0)" xlink:href="#s"/>
        <use height="16" width="26" y="0" x="0" id="use40" transform="matrix(0.5,-0.8660254,0.8660254,0.5,0,0)" xlink:href="#s"/>
        <g id="h">
          <use height="16" width="26" y="0" x="0" id="use43" transform="matrix(0.8660254,-0.5,0.5,0.8660254,0,0)" xlink:href="#s"/>
          
          <use height="16" width="26" x="0" id="use45" transform="matrix(0.77095379,-0.63689108,0.63689108,0.77095379,0,0)" y="-2" xlink:href="#s"/>
          <use height="16" width="26" x="0" id="use47" transform="matrix(0.93704075,-0.34922003,0.34922003,0.93704075,0,0)" y="-2" xlink:href="#s"/>
        </g>
      </g>
      <use height="16" width="26" y="0" x="0" id="use49" transform="matrix(-0.5,-0.8660254,0.8660254,-0.5,0,0)" xlink:href="#g"/>
      <use height="16" width="26" y="0" x="0" id="use51" transform="matrix(-0.5,0.8660254,-0.8660254,-0.5,0,0)" xlink:href="#h"/>
      <use height="16" width="26" y="0" x="0" id="use53" transform="matrix(-0.8660254,0.5,-0.5,-0.8660254,0,0)" xlink:href="#s"/>
      <use height="16" width="26" x="0" id="use55" transform="matrix(0,1,-1,0,0,0)" y="-4" xlink:href="#s"/>
    </g>
  </g>

	<metadata>
		<rdf:RDF xmlns:rdf="http://www.w3.org/1999/02/22-rdf-syntax-ns#" xmlns:rdfs="http://www.w3.org/2000/01/rdf-schema#" xmlns:dc="http://purl.org/dc/elements/1.1/">
			<rdf:Description about="https://iconscout.com/legal#licenses" dc:title="Ohio" dc:description="Ohio" dc:publisher="Iconscout" dc:date="2017-05-28" dc:format="image/svg+xml" dc:language="en">
				<dc:creator>
					<rdf:Bag>
						<rdf:li>Vignesh Oviyan</rdf:li>
					</rdf:Bag>
				</dc:creator>
			</rdf:Description>
		</rdf:RDF>
    </metadata></svg>
