<?xml version="1.0" encoding="UTF-8" standalone="no"?>
<svg xmlns:dc="http://purl.org/dc/elements/1.1/" xmlns:cc="http://creativecommons.org/ns#" xmlns:rdf="http://www.w3.org/1999/02/22-rdf-syntax-ns#" xmlns:svg="http://www.w3.org/2000/svg" xmlns="http://www.w3.org/2000/svg" xmlns:sodipodi="http://sodipodi.sourceforge.net/DTD/sodipodi-0.dtd" xmlns:inkscape="http://www.inkscape.org/namespaces/inkscape" version="1.0" width="500" height="500" id="svg2" sodipodi:version="0.32" inkscape:version="0.48.4 r9939" sodipodi:docname="oregon_reverse.svg" inkscape:output_extension="org.inkscape.output.svg.inkscape">
  
  <sodipodi:namedview inkscape:window-height="705" inkscape:window-width="1366" inkscape:pageshadow="2" inkscape:pageopacity="0.0" guidetolerance="10.0" gridtolerance="10.0" objecttolerance="10.0" borderopacity="1.0" bordercolor="#666666" pagecolor="#ffffff" id="base" inkscape:zoom="0.37892915" inkscape:cx="96.246946" inkscape:cy="294.04708" inkscape:window-x="0" inkscape:window-y="26" inkscape:current-layer="svg2" showgrid="false" inkscape:window-maximized="1"/>
  <defs id="defs5">
    <clipPath clipPathUnits="userSpaceOnUse" id="clipPath3057">
      <rect style="fill:#808080;fill-opacity:1;stroke:none" id="rect3059" width="212.60782" height="212.60782" x="74.760635" y="1.942944" ry="23.153723"/>
    </clipPath>
    <clipPath clipPathUnits="userSpaceOnUse" id="clipPath3061">
      <rect style="fill:#808080;fill-opacity:1;stroke:none" id="rect3063" width="490" height="490" x="8.3455133" y="4.2935009" ry="53.362686"/>
    </clipPath>
  </defs>
  <rect style="fill:#356ba0;fill-opacity:1;fill-rule:nonzero;stroke:none" id="rect7152" width="500" height="500" x="0" y="0" clip-path="url(#clipPath3061)"/>
  <g transform="matrix(2.304713,0,0,2.304713,-163.9563,-0.18442748)" id="g3079" clip-path="url(#clipPath3057)">
    <path inkscape:connector-curvature="0" sodipodi:nodetypes="cscccsccc" id="path2161" style="fill:#e5b731;fill-opacity:1;fill-rule:evenodd;stroke:#356ba0;stroke-width:1px;stroke-linecap:butt;stroke-linejoin:miter;stroke-opacity:1" d="m 243.68738,133.75804 c 1.456,-0.19165 -1.31669,-3.54492 -2.02567,-6.88726 -0.70898,-3.34234 -0.20256,-4.70966 -0.81026,-6.48212 -2.37369,-1.93395 -8.92057,-1.39069 -12.15399,-0.40513 -2.65286,2.11142 -3.81644,3.76075 -6.48212,4.45646 -0.74487,0.49658 -49.25199,-0.12638 -70.69567,0.20257 -6.01701,0.0923 -13.77452,9.92575 -13.77452,9.92575 0,0 0.43127,1.15886 1.2154,1.2154 34.49128,2.47234 92.24521,-0.38277 104.72683,-2.02567 z"/>
    <path inkscape:connector-curvature="0" sodipodi:nodetypes="csccsccccc" id="path2159" d="m 162.06702,109.8749 c 0,0 -4.03111,5.18285 -5.10059,8.55582 -1.06948,3.37297 0.82268,5.26512 0.82268,5.26512 l 34.71689,0.16454 c 0,0 0.20567,-1.64535 -3.2907,-2.30349 -3.49637,-0.65814 -10.69478,-0.32907 -10.69478,-0.32907 l -0.32907,-1.64536 17.93432,-2.63256 -6.25233,-15.79536 -27.80642,8.72036 z" style="fill:#e5b731;fill-opacity:1;fill-rule:evenodd;stroke:#e5b731;stroke-width:1px;stroke-linecap:butt;stroke-linejoin:miter;stroke-opacity:1"/>
    <path inkscape:connector-curvature="0" sodipodi:nodetypes="cssccscc" id="path2162" d="m 207.64322,110.3685 c 0,0 -2.87936,1.80989 -2.63256,6.74594 0.16479,3.29583 -0.94608,4.68925 1.64535,6.41687 2.59143,1.72762 8.72036,0.4936 8.72036,0.4936 -1.55581,-0.89767 -2.99411,-1.67783 -4.11337,-2.13895 0,0 -1.39856,-1.72763 -0.32908,-4.60699 1.06948,-2.87936 5.75874,-6.74593 5.75874,-6.74593 l -9.04944,-0.16454 z" style="fill:#e5b731;fill-opacity:1;fill-rule:evenodd;stroke:#e5b731;stroke-width:1px;stroke-linecap:butt;stroke-linejoin:miter;stroke-opacity:1"/>
    <path inkscape:connector-curvature="0" sodipodi:nodetypes="csssscssssscsccs" id="path2164" d="m 240.71477,110.8621 c -1.60422,-3.90771 -5.19714,-6.6192 -9.21397,-9.37849 -2.63892,-1.812763 -6.49913,-0.61702 -9.70756,-2.303495 -3.20843,-1.686484 -4.36018,-4.19564 -5.42966,-5.429652 -6.63616,-7.657097 -12.94866,-14.614944 -29.78084,-14.643619 -23.98098,-0.04113 -36.52678,26.325606 -36.52678,26.325606 0,0 -2.21665,4.92133 -9.8721,6.74594 -7.93882,1.89215 -16.07294,0.93572 -19.90874,3.45523 -1.36139,0.89422 -5.67645,4.9772 -5.10059,9.04943 0.74145,5.24324 5.89013,12.55539 14.11688,10.95117 8.22675,-1.60422 15.17487,-11.88278 18.46106,-16.7099 1.23923,-1.82032 8.55582,-0.32907 8.55582,-0.32907 0,0 22.45904,2.38576 39.65295,2.13896 17.19391,-0.2468 29.1227,-3.12617 29.1227,-3.12617 l 8.06221,-1.15174 c 0,0 9.17284,-1.68649 7.56862,-5.5942 z" style="fill:#e5b731;fill-opacity:1;fill-rule:evenodd;stroke:#e5b731;stroke-width:1px;stroke-linecap:butt;stroke-linejoin:miter;stroke-opacity:1"/>
    <path inkscape:connector-curvature="0" id="path2166" d="m 145.44898,115.46909 -12.34013,6.0878" style="fill:none;stroke:#356ba0;stroke-width:1px;stroke-linecap:butt;stroke-linejoin:miter;stroke-opacity:1"/>
    <path inkscape:connector-curvature="0" sodipodi:nodetypes="cc" id="path2168" d="m 130.96989,120.89875 -2.99477,-3.37617" style="fill:none;stroke:#356ba0;stroke-width:1px;stroke-linecap:butt;stroke-linejoin:miter;stroke-opacity:1"/>
    <path inkscape:connector-curvature="0" id="path2170" d="m 133.10885,120.07607 -2.7971,-3.61977" style="fill:none;stroke:#356ba0;stroke-width:1px;stroke-linecap:butt;stroke-linejoin:miter;stroke-opacity:1"/>
    <path inkscape:connector-curvature="0" id="path2172" d="m 132.61524,116.62083 1.80989,1.80989" style="fill:none;stroke:#356ba0;stroke-width:1px;stroke-linecap:butt;stroke-linejoin:miter;stroke-opacity:1"/>
    <path inkscape:connector-curvature="0" id="path2174" d="m 123.56582,120.89875 1.97442,2.30349" style="fill:none;stroke:#356ba0;stroke-width:1px;stroke-linecap:butt;stroke-linejoin:miter;stroke-opacity:1"/>
    <path inkscape:connector-curvature="0" id="path2176" d="m 123.73035,124.84759 c 0,-0.0549 0,-0.10969 0,0 z" style="fill:none;stroke:#356ba0;stroke-width:1px;stroke-linecap:butt;stroke-linejoin:miter;stroke-opacity:1"/>
    <path inkscape:connector-curvature="0" id="path2178" d="m 120.43965,120.07607 3.2907,4.44245" style="fill:none;stroke:#356ba0;stroke-width:1px;stroke-linecap:butt;stroke-linejoin:miter;stroke-opacity:1"/>
    <path inkscape:connector-curvature="0" id="path2180" d="m 121.92047,125.8348 -2.7971,-3.78431" style="fill:none;stroke:#356ba0;stroke-width:1px;stroke-linecap:butt;stroke-linejoin:miter;stroke-opacity:1"/>
    <path inkscape:connector-curvature="0" id="path2182" d="m 118.95884,126.82201 -1.31628,-3.12617" style="fill:none;stroke:#356ba0;stroke-width:1px;stroke-linecap:butt;stroke-linejoin:miter;stroke-opacity:1"/>
    <path inkscape:connector-curvature="0" id="path2184" d="m 124.55303,133.07434 -2.63256,-2.7971" style="fill:none;stroke:#356ba0;stroke-width:1px;stroke-linecap:butt;stroke-linejoin:miter;stroke-opacity:1"/>
    <path inkscape:connector-curvature="0" id="path2186" d="m 120.93326,128.46736 7.89768,-4.11338" style="fill:none;stroke:#356ba0;stroke-width:1px;stroke-linecap:butt;stroke-linejoin:miter;stroke-opacity:1"/>
    <path inkscape:connector-curvature="0" id="path2188" d="m 126.69198,132.25166 -2.79709,-2.63256" style="fill:none;stroke:#356ba0;stroke-width:1px;stroke-linecap:butt;stroke-linejoin:miter;stroke-opacity:1"/>
    <path inkscape:connector-curvature="0" id="path2190" d="m 129.32454,131.42899 c -0.0548,0 -0.10969,0 0,0 z" style="fill:none;stroke:#356ba0;stroke-width:1px;stroke-linecap:butt;stroke-linejoin:miter;stroke-opacity:1"/>
    <path inkscape:connector-curvature="0" id="path2192" d="m 125.70477,129.1255 2.7971,2.63256" style="fill:none;stroke:#356ba0;stroke-width:1px;stroke-linecap:butt;stroke-linejoin:miter;stroke-opacity:1"/>
    <path inkscape:connector-curvature="0" id="path2194" d="m 130.31175,130.44178 -2.30349,-2.30349" style="fill:none;stroke:#356ba0;stroke-width:1px;stroke-linecap:butt;stroke-linejoin:miter;stroke-opacity:1"/>
    <path inkscape:connector-curvature="0" id="path2196" d="m 135.24781,126.49294 -1.80989,-2.13896" style="fill:none;stroke:#356ba0;stroke-width:1px;stroke-linecap:butt;stroke-linejoin:miter;stroke-opacity:1"/>
    <path inkscape:connector-curvature="0" id="path2198" d="m 137.71583,125.67026 -2.63256,-2.63256" style="fill:none;stroke:#356ba0;stroke-width:1px;stroke-linecap:butt;stroke-linejoin:miter;stroke-opacity:1"/>
    <path inkscape:connector-curvature="0" id="path2200" d="m 139.85479,124.68305 -2.63256,-2.63256" style="fill:none;stroke:#356ba0;stroke-width:1px;stroke-linecap:butt;stroke-linejoin:miter;stroke-opacity:1"/>
    <path inkscape:connector-curvature="0" sodipodi:nodetypes="cc" id="path2202" d="m 160.125,108.125 c -3.34416,3.45833 -4.34258,7.66667 -4.75,11.125" style="fill:none;stroke:#356ba0;stroke-width:1px;stroke-linecap:butt;stroke-linejoin:miter;stroke-opacity:1"/>
    <path inkscape:connector-curvature="0" sodipodi:nodetypes="cc" id="path2206" d="m 161.5,111.25 c -4.60867,2.3683 -4.54529,5.2038 -6.125,7.875" style="fill:none;stroke:#356ba0;stroke-width:1px;stroke-linecap:butt;stroke-linejoin:miter;stroke-opacity:1"/>
    <path inkscape:connector-curvature="0" sodipodi:nodetypes="cc" id="path2208" d="m 215.875,112.625 c -3.06816,2.45303 -5.00715,5.1319 -4.75,8.25" style="fill:none;stroke:#356ba0;stroke-width:1px;stroke-linecap:butt;stroke-linejoin:miter;stroke-opacity:1"/>
    <path inkscape:connector-curvature="0" sodipodi:nodetypes="cc" id="path2210" d="m 206.625,110.5 c -4.27592,4.05259 -2.4253,9.59424 -2.76037,10.59025" style="fill:none;stroke:#356ba0;stroke-width:1px;stroke-linecap:butt;stroke-linejoin:miter;stroke-opacity:1"/>
    <path inkscape:connector-curvature="0" sodipodi:nodetypes="cc" id="path2212" d="m 159.375,99.375 c -5.46587,2.68009 -5.88214,3.98301 -8,5.75" style="fill:none;stroke:#356ba0;stroke-width:1px;stroke-linecap:butt;stroke-linejoin:miter;stroke-opacity:1"/>
    <path inkscape:connector-curvature="0" sodipodi:nodetypes="cc" id="path2214" d="m 162.875,95.625 c -8.03246,1.791667 -8.2198,6.33333 -11.625,9.5" style="fill:none;stroke:#356ba0;stroke-width:1px;stroke-linecap:butt;stroke-linejoin:miter;stroke-opacity:1"/>
    <path inkscape:connector-curvature="0" sodipodi:nodetypes="cc" id="path2216" d="m 165.875,92.5 c -4.87867,0.928047 -6.95022,2.257112 -9.625,3.5" style="fill:none;stroke:#356ba0;stroke-width:1px;stroke-linecap:butt;stroke-linejoin:miter;stroke-opacity:1"/>
    <path inkscape:connector-curvature="0" sodipodi:nodetypes="cc" id="path2218" d="m 169.5,89.375 c -5.13345,0.508303 -7.87128,2.521762 -9,3.125" style="fill:none;stroke:#356ba0;stroke-width:1px;stroke-linecap:butt;stroke-linejoin:miter;stroke-opacity:1"/>
    <path inkscape:connector-curvature="0" sodipodi:nodetypes="cc" id="path2220" d="m 175.25,86.375 c -6.06517,0.282266 -9.08399,1.783072 -11.875,3.375" style="fill:none;stroke:#356ba0;stroke-width:1px;stroke-linecap:butt;stroke-linejoin:miter;stroke-opacity:1"/>
    <path inkscape:connector-curvature="0" sodipodi:nodetypes="cc" id="path2222" d="m 178.625,83.875 c -7.43004,-0.347861 -9.70213,2.478558 -12,3.75" style="fill:none;stroke:#356ba0;stroke-width:1px;stroke-linecap:butt;stroke-linejoin:miter;stroke-opacity:1"/>
    <path inkscape:connector-curvature="0" sodipodi:nodetypes="cc" id="path2224" d="m 213,93.375 c -1.56584,-1.104938 -3.22724,-1.636582 -5.125,-0.75" style="fill:none;stroke:#356ba0;stroke-width:1px;stroke-linecap:butt;stroke-linejoin:miter;stroke-opacity:1"/>
    <path inkscape:connector-curvature="0" sodipodi:nodetypes="cc" id="path2226" d="m 225.625,103.75 c -0.13121,-1.92039 -5.51917,-0.69483 -1.25,2.125" style="fill:none;stroke:#356ba0;stroke-width:1px;stroke-linecap:butt;stroke-linejoin:miter;stroke-opacity:1"/>
    <path inkscape:connector-curvature="0" sodipodi:nodetypes="cc" id="path2228" d="m 210.125,89.5 c -3.16731,-1.126133 -5.66602,-1.0822 -7.5,0.125" style="fill:none;stroke:#356ba0;stroke-width:1px;stroke-linecap:butt;stroke-linejoin:miter;stroke-opacity:1"/>
    <path inkscape:connector-curvature="0" sodipodi:nodetypes="cc" id="path2230" d="m 207.5,87.75 c -3.55426,-1.948151 -6.14776,-1.494401 -8.375,-0.125" style="fill:none;stroke:#356ba0;stroke-width:1px;stroke-linecap:butt;stroke-linejoin:miter;stroke-opacity:1"/>
    <path inkscape:connector-curvature="0" sodipodi:nodetypes="cc" id="path2232" d="m 202.625,85.5 c -1.74711,-1.627892 -5.71785,-1.032146 -9,-1.125" style="fill:none;stroke:#356ba0;stroke-width:1px;stroke-linecap:butt;stroke-linejoin:miter;stroke-opacity:1"/>
    <path inkscape:connector-curvature="0" sodipodi:nodetypes="cc" id="path2234" d="m 200.5,82.375 c -3.91651,-0.95786 -7.50016,-0.91714 -10.75,0.125" style="fill:none;stroke:#356ba0;stroke-width:1px;stroke-linecap:butt;stroke-linejoin:miter;stroke-opacity:1"/>
    <path inkscape:connector-curvature="0" id="path2236" d="m 143.375,133.5 3.25,0.125" style="fill:none;stroke:#356ba0;stroke-width:1px;stroke-linecap:butt;stroke-linejoin:miter;stroke-opacity:1"/>
    <path inkscape:connector-curvature="0" id="path2238" d="m 146.5,130.375 6,0" style="fill:none;stroke:#356ba0;stroke-width:1px;stroke-linecap:butt;stroke-linejoin:miter;stroke-opacity:1"/>
    <path inkscape:connector-curvature="0" id="path2240" d="m 148.5,127.5 7.25,0" style="fill:none;stroke:#356ba0;stroke-width:1px;stroke-linecap:butt;stroke-linejoin:miter;stroke-opacity:1"/>
    <path inkscape:connector-curvature="0" id="path2246" d="m 172.625,129.375 3.875,0" style="fill:none;stroke:#356ba0;stroke-width:1px;stroke-linecap:butt;stroke-linejoin:miter;stroke-opacity:1"/>
    <path inkscape:connector-curvature="0" id="path2248" d="m 168.75,129.5 2.125,-0.125" style="fill:none;stroke:#356ba0;stroke-width:1px;stroke-linecap:butt;stroke-linejoin:miter;stroke-opacity:1"/>
    <path inkscape:connector-curvature="0" sodipodi:nodetypes="cc" id="path2252" d="m 184.5,129.625 c -0.58898,-0.48423 -0.98014,-1.0344 -3.5,-0.875" style="fill:none;stroke:#356ba0;stroke-width:1px;stroke-linecap:butt;stroke-linejoin:miter;stroke-opacity:1"/>
    <path inkscape:connector-curvature="0" sodipodi:nodetypes="cc" id="path2256" d="m 197,128 c 2.7397,0.0309 5.34338,0.46986 7.75,1.5" style="fill:none;stroke:#356ba0;stroke-width:1px;stroke-linecap:butt;stroke-linejoin:miter;stroke-opacity:1"/>
    <path inkscape:connector-curvature="0" id="path2258" d="m 222.125,127.375 3.375,0" style="fill:none;stroke:#356ba0;stroke-width:1px;stroke-linecap:butt;stroke-linejoin:miter;stroke-opacity:1"/>
    <path inkscape:connector-curvature="0" id="path2260" d="m 232.25,124.375 7.375,0.25" style="fill:none;stroke:#356ba0;stroke-width:1px;stroke-linecap:butt;stroke-linejoin:miter;stroke-opacity:1"/>
    <path inkscape:connector-curvature="0" sodipodi:nodetypes="cc" id="path2262" d="m 238.375,127.75 c -2.31124,-0.23443 -4.42986,-0.21204 -5.75,0.875" style="fill:none;stroke:#356ba0;stroke-width:1px;stroke-linecap:butt;stroke-linejoin:miter;stroke-opacity:1"/>
    <path inkscape:connector-curvature="0" sodipodi:nodetypes="cc" id="path2264" d="m 239.625,131.75 c -1.38609,-0.61761 -2.87862,-1.16425 -5.25,-1.125" style="fill:none;stroke:#356ba0;stroke-width:1px;stroke-linecap:butt;stroke-linejoin:miter;stroke-opacity:1"/>
    <path inkscape:connector-curvature="0" id="path2268" d="m 187.75,106.625 -2.625,0" style="fill:none;stroke:#356ba0;stroke-width:1px;stroke-linecap:butt;stroke-linejoin:miter;stroke-opacity:1"/>
    <path inkscape:connector-curvature="0" id="path2270" d="m 179.75,109.5 3.75,0" style="fill:none;stroke:#356ba0;stroke-width:1px;stroke-linecap:butt;stroke-linejoin:miter;stroke-opacity:1"/>
    <path inkscape:connector-curvature="0" id="path2272" d="m 180.625,111.5 2.25,-0.125" style="fill:none;stroke:#356ba0;stroke-width:1px;stroke-linecap:butt;stroke-linejoin:miter;stroke-opacity:1"/>
    <path inkscape:connector-curvature="0" id="path2274" d="m 186.875,108.375 -2.75,-0.125" style="fill:none;stroke:#356ba0;stroke-width:1px;stroke-linecap:butt;stroke-linejoin:miter;stroke-opacity:1"/>
    <path inkscape:connector-curvature="0" id="path2276" d="m 186,110.75 -2.75,-0.25" style="fill:none;stroke:#356ba0;stroke-width:1px;stroke-linecap:butt;stroke-linejoin:miter;stroke-opacity:1"/>
    <path inkscape:connector-curvature="0" id="path2278" d="m 184.875,112.625 -2.625,-0.25" style="fill:none;stroke:#356ba0;stroke-width:1px;stroke-linecap:butt;stroke-linejoin:miter;stroke-opacity:1"/>
    <path inkscape:connector-curvature="0" id="path2280" d="m 177.5,113.5 5,0" style="fill:none;stroke:#356ba0;stroke-width:1px;stroke-linecap:butt;stroke-linejoin:miter;stroke-opacity:1"/>
    <path inkscape:connector-curvature="0" id="path2282" d="m 176.125,115.5 4.375,-0.125" style="fill:none;stroke:#356ba0;stroke-width:1px;stroke-linecap:butt;stroke-linejoin:miter;stroke-opacity:1"/>
    <path inkscape:connector-curvature="0" id="path2284" d="m 180.75,116.75 -4.5,-0.25" style="fill:none;stroke:#356ba0;stroke-width:1px;stroke-linecap:butt;stroke-linejoin:miter;stroke-opacity:1"/>
    <path inkscape:connector-curvature="0" id="path2286" d="m 175.625,118.5 3.75,-0.25" style="fill:none;stroke:#356ba0;stroke-width:1px;stroke-linecap:butt;stroke-linejoin:miter;stroke-opacity:1"/>
    <path inkscape:connector-curvature="0" id="path2288" d="m 230.875,111.625 -6.75,-1.375" style="fill:none;stroke:#356ba0;stroke-width:1px;stroke-linecap:butt;stroke-linejoin:miter;stroke-opacity:1"/>
    <path inkscape:connector-curvature="0" sodipodi:nodetypes="ccc" id="path2290" d="m 224.125,117.75 c 2.83333,-1.30052 4.91667,-1.98331 7.75,-3.875 L 223.625,113" style="fill:none;stroke:#356ba0;stroke-width:1px;stroke-linecap:butt;stroke-linejoin:miter;stroke-opacity:1"/>
    <path transform="matrix(1.3684211,0,0,1.25,-85.625,-27.03125)" d="m 232.75,108.125 c 0,0.55228 -0.53166,1 -1.1875,1 -0.65584,0 -1.1875,-0.44772 -1.1875,-1 0,-0.55228 0.53166,-1 1.1875,-1 0.65584,0 1.1875,0.44772 1.1875,1 z" sodipodi:ry="1" sodipodi:rx="1.1875" sodipodi:cy="108.125" sodipodi:cx="231.5625" id="path2292" style="fill:#356ba0;fill-opacity:1;fill-rule:nonzero;stroke:#356ba0;stroke-width:0.2;stroke-linecap:round;stroke-linejoin:round;stroke-miterlimit:4;stroke-opacity:1;stroke-dasharray:none" sodipodi:type="arc"/>
    <path inkscape:connector-curvature="0" sodipodi:nodetypes="csccccccccccc" id="path3264" d="m 163.25,136.5 c 0,0 -0.4375,-0.46875 -1.25,-1.75 -0.8125,-1.28125 -2,-3.375 -2,-3.375 l 1.625,-0.125 2.375,1.875 c 0.12851,-0.78815 -0.1985,-2.03183 -0.375,-3.125 l 1.375,0.25 0.375,3 c 0.60316,-0.5504 0.92689,-1.21258 3.125,-1.125 l -1.625,2.125 -0.125,3.75 -2.875,-0.25 -0.625,-1.25 z" style="fill:#356ba0;fill-opacity:1;fill-rule:evenodd;stroke:#356ba0;stroke-width:1px;stroke-linecap:butt;stroke-linejoin:miter;stroke-opacity:1"/>
    <path inkscape:connector-curvature="0" id="path3266" d="m 228.125,135.5 -3.125,-4.25 2,0.125 0.875,0.875 1.625,-2 0.125,1.625 -1,0.625 0.75,3.5 -1.25,-0.5 z" style="fill:#356ba0;fill-opacity:1;fill-rule:evenodd;stroke:#356ba0;stroke-width:1px;stroke-linecap:butt;stroke-linejoin:miter;stroke-opacity:1"/>
    <path inkscape:connector-curvature="0" id="path3268" d="m 214.75,135.875 -2,-3.5 2.25,1.125 0.5,-3.75 0.75,3.875 2.5,-1.25 -1.125,1.375 0.375,3 -3.25,-0.875 z" style="fill:#356ba0;fill-opacity:1;fill-rule:evenodd;stroke:#356ba0;stroke-width:1px;stroke-linecap:butt;stroke-linejoin:miter;stroke-opacity:1"/>
    <path inkscape:connector-curvature="0" id="path3270" d="m 187.625,137.25 -0.5,-3.25 -2.625,-1.375 0.125,-1.375 0.875,1.25 2.125,-0.25 -1.375,-2 1.5,0.125 0.625,1.25 1.125,-1.625 0.625,2.5 2.5,-1.25 -1.375,3.5 -0.375,2.75 -3.25,-0.25 z" style="fill:#356ba0;fill-opacity:1;fill-rule:evenodd;stroke:#356ba0;stroke-width:1px;stroke-linecap:butt;stroke-linejoin:miter;stroke-opacity:1"/>
    <path inkscape:connector-curvature="0" id="path4241" d="m 237.75,113.25 c 0,0.625 0.375,4 0.375,4 l -0.875,-0.25 -1,-3.875 1.5,0.125 z" style="fill:#e5b731;fill-opacity:1;fill-rule:evenodd;stroke:#e5b731;stroke-width:1px;stroke-linecap:butt;stroke-linejoin:miter;stroke-opacity:1"/>
  </g>

	<metadata>
		<rdf:RDF xmlns:rdf="http://www.w3.org/1999/02/22-rdf-syntax-ns#" xmlns:rdfs="http://www.w3.org/2000/01/rdf-schema#" xmlns:dc="http://purl.org/dc/elements/1.1/">
			<rdf:Description about="https://iconscout.com/legal#licenses" dc:title="oregon_reverse" dc:description="oregon_reverse" dc:publisher="Iconscout" dc:date="2017-05-28" dc:format="image/svg+xml" dc:language="en">
				<dc:creator>
					<rdf:Bag>
						<rdf:li>Vignesh Oviyan</rdf:li>
					</rdf:Bag>
				</dc:creator>
			</rdf:Description>
		</rdf:RDF>
    </metadata></svg>
