<?xml version="1.0" encoding="UTF-8" standalone="no"?>
<svg xmlns:dc="http://purl.org/dc/elements/1.1/" xmlns:cc="http://creativecommons.org/ns#" xmlns:rdf="http://www.w3.org/1999/02/22-rdf-syntax-ns#" xmlns:svg="http://www.w3.org/2000/svg" xmlns="http://www.w3.org/2000/svg" xmlns:sodipodi="http://sodipodi.sourceforge.net/DTD/sodipodi-0.dtd" xmlns:inkscape="http://www.inkscape.org/namespaces/inkscape" color-interpolation="auto" color-rendering="auto" font-size="12" font-style="normal" font-weight="normal" height="500" image-rendering="auto" shape-rendering="auto" stroke-miterlimit="10" text-rendering="auto" width="500" id="svg2" sodipodi:version="0.32" inkscape:version="0.48.4 r9939" sodipodi:docname="rhode_island.svg" inkscape:output_extension="org.inkscape.output.svg.inkscape" version="1.0" style="font-size:12px;font-style:normal;font-weight:normal;fill:#000000;fill-opacity:1;stroke:#000000;stroke-width:1;stroke-linecap:square;stroke-linejoin:miter;stroke-miterlimit:10;stroke-opacity:1;stroke-dasharray:none;stroke-dashoffset:0;font-family:Dialog">
  
  <sodipodi:namedview inkscape:window-height="705" inkscape:window-width="1366" inkscape:pageshadow="2" inkscape:pageopacity="0.0" guidetolerance="10.0" gridtolerance="10.0" objecttolerance="10.0" borderopacity="1.0" bordercolor="#666666" pagecolor="#ffffff" id="base" showgrid="false" inkscape:zoom="0.70710678" inkscape:cx="352.48991" inkscape:cy="289.53861" inkscape:current-layer="g12512" inkscape:window-x="0" inkscape:window-y="26" inkscape:window-maximized="1" fit-margin-top="0" fit-margin-left="0" fit-margin-right="0" fit-margin-bottom="0"/>
  
  <defs id="genericDefs">
    <inkscape:perspective sodipodi:type="inkscape:persp3d" inkscape:vp_x="0 : 268 : 1" inkscape:vp_y="0 : 1000 : 0" inkscape:vp_z="800 : 268 : 1" inkscape:persp3d-origin="400 : 178.66667 : 1" id="perspective1434"/>
    <defs id="defs1">
      <clipPath id="clipPath1" clipPathUnits="userSpaceOnUse">
        <path id="path9" d="M 0,0 800,0 800,536 0,536 0,0 z" inkscape:connector-curvature="0"/>
      </clipPath>
    </defs>
    <clipPath clipPathUnits="userSpaceOnUse" id="clipPath3313">
      <path style="fill:none;stroke:#646464;stroke-width:0.58683354;stroke-linecap:round;stroke-linejoin:round;stroke-miterlimit:10;stroke-opacity:1;stroke-dasharray:none" d="m 32.411466,256.45614 -0.0052,23.06127 0.148447,2.16355 -0.167887,27.69427 -0.01398,78.13025 114.715524,0.0464 47.43109,-0.25781 64.25378,0.002 12.71674,0.12357 3.38894,-0.12485 48.45497,0.0943 40.47725,0.33525 56.76007,0.0101 31.30527,-0.19931 11.54476,-0.015 5.5084,-0.0113 83.91768,-0.11897 1.61219,0.0106 1.50598,-3.62939 1.47474,-2.49674 2.1255,-2.69614 2.41981,-2.33231 1.98199,-1.48784 2.65301,-1.54806 2.31745,-0.98699 2.12153,-0.65497 3.17953,-0.66025 2.68309,-0.27027 1.4064,0.12349 1.92058,-0.045 2.29865,0.29814 2.58661,0.58539 3.48897,1.25263 2.37206,1.17196 2.94951,1.97958 1.83125,-1.22107 4.84263,-4.20693 1.39009,-0.88071 2.03927,-0.53294 5.61415,0.10533 2.86633,-0.70086 1.83432,-0.61566 0.89179,-0.46436 2.93321,-2.3139 1.46589,-0.62597 3.3813,-0.19726 1.46948,-0.9231 0.79672,-1.77474 0.19825,-1.5391 -0.80031,-2.28499 -0.0815,-2.01729 0.28274,-1.61968 0.87986,-1.02885 2.57598,-1.50764 1.81051,-0.38932 1.12509,-0.41984 1.25748,-1.14075 0.66957,-1.62523 1.21009,-1.79086 1.41646,-0.75399 2.30808,-0.72627 4.319,-4.04138 3.85983,-2.5005 1.63096,-0.7337 1.84335,0.0622 3.27703,-1.30807 1.73573,-0.5007 0.78633,-1.40104 2.06188,-1.45654 1.13702,-3.05509 1.10651,-0.40578 1.76642,0.71288 1.67812,0.31803 3.29885,-2.06999 1.43021,-0.0281 1.84994,-1.60664 0.30728,-1.08966 -0.0824,-0.95526 -1.6371,-2.41154 -1.88125,-1.08565 -0.69326,-1.95708 -1.11122,-2.28541 -2.70651,-2.07126 -3.14662,-1.72851 -2.02455,-1.28565 -2.00057,-4.86769 -0.84889,-1.51736 -1.36436,-1.4858 -1.73829,-1.35702 -1.30942,-0.25713 -3.4547,-3.01398 -0.52883,-1.00813 -0.1442,-1.42967 -0.33808,-1.4261 -0.75741,-2.13891 -1.18458,-2.58927 -1.82398,-0.92063 -1.40038,-0.82639 -1.27441,0.39809 -1.71466,0.55767 -1.25413,-0.33899 -1.22106,-1.08745 -1.02309,-0.34003 -0.77122,-1.14918 -0.45234,-3.02302 -0.52064,-1.64673 0.40296,-1.21622 -0.0769,-1.19439 0.5557,-0.96703 0.01,-1.94777 -0.24927,-1.34696 -0.0286,-3.27264 -0.41069,-2.28627 -1.0135,-0.77965 -2.39621,-2.78876 -1.72835,-0.78017 -2.71042,-0.35861 -0.90747,0.47843 -1.16844,1.02493 -1.38431,0.0891 -1.55913,-0.65984 -1.06736,-1.39787 0.63854,-1.29195 -0.19262,-1.1172 -0.0934,-1.02622 -0.61615,-2.3793 1.02457,-0.75656 -0.40671,-2.31056 -0.89957,-1.20223 1.05622,-1.81688 0.89116,-0.57659 0.57877,-0.94579 -0.33808,-0.96676 -1.10196,-0.002 -1.13776,-0.87448 -0.33001,-0.85668 1.89028,-3.99866 0.0757,-0.88447 0.0299,-1.65482 -1.1989,-1.55173 0.537,-1.10006 1.57533,-1.19925 0.64804,-1.93132 0.87349,-0.0916 1.56999,0.51435 1.97074,-0.1663 0.92167,-1.54226 1.60437,-0.62103 0.8477,-1.24325 0.0645,-1.12377 1.06673,-1.17836 0.55025,-2.02445 -1.32777,-1.85089 0.72866,-0.87782 1.57095,-0.0983 1.45067,0.0596 0.46854,-0.94912 0.90332,-1.36563 -0.28989,-1.14245 -2.3853,-2.9293 -0.082,-1.83887 -0.35206,-0.9781 -1.78647,-1.46594 -1.16839,-2.21727 -1.27839,-1.90607 -0.0637,-1.52315 -0.46837,-0.92515 -1.33055,-0.26983 0.23933,-1.31337 0.58592,-1.81686 1.98944,-1.44963 1.49163,-0.68167 0.76571,-0.8785 1.98744,-0.51367 3.96467,-2.59064 0.95923,-0.43579 0.005,-0.95594 0.93407,-1.28461 1.19509,-1.72212 1.2685,-1.28701 1.34845,-0.37371 1.48169,-1.09008 -0.57388,-1.09435 -1.36271,-0.81624 0.9989,-1.56069 0.86957,-0.3929 1.1373,-0.58904 1.07026,-0.71766 0.73281,-1.04019 0.93764,-0.4578 1.13651,-0.78307 1.00219,-0.9765 0.73525,-0.97537 0.73201,-1.42883 0.46587,-0.97436 1.0031,-0.91159 0.8007,-1.16947 0.39785,-1.29801 0.6665,-1.29903 0.46581,-0.90896 0.66826,-1.04027 0.13012,-1.03704 -0.60866,-0.90563 0.26529,-1.03806 0.33161,-1.03815 0.53382,-0.90946 1.0056,-0.78145 0.26517,-1.03806 0.39871,-1.10347 0.26529,-0.97324 0.60178,-1.03918 0.73622,-1.0402 1.00639,-0.78093 0.93923,-0.71603 1.27425,-0.91109 0.33404,-0.97376 0.0638,-0.97213 0.87389,-0.26217 0.87457,-0.0675 1.07526,-0.45669 0.53467,-1.10348 0.87213,-1.16939 0.87378,-0.32639 1.07691,-0.13184 1.27839,-0.003 0.94184,-0.39068 1.07606,-0.45669 0.85281,-0.42991 0.24819,-0.15547 0.58126,-1.42909 -1.90812,-1.65116 -1.36794,-2.25531 -1.67352,-0.52969 -0.53467,-0.9602 0.25069,-1.19183 0.34819,-2.00031 -0.91344,-0.45277 -2.18705,1.00319 -1.04946,-0.39129 -1.22118,0.565 -1.21645,-0.22608 -0.45661,-1.04429 -0.88411,-1.6509 -1.14561,0.33456 -0.88411,1.25263 -1.19748,0.0159 -1.28584,-1.22193 -1.76977,-0.5448 -1.70374,0.62069 -1.78511,-0.3616 0.80582,-1.29502 -0.65945,-0.99209 -1.30021,-0.4201 -0.67161,-2.1099 -1.22135,-0.17671 -0.93434,-0.74068 -1.70477,0.24254 -1.11998,0.60414 -1.27924,-0.1489 -1.72818,-1.20343 0.37706,-1.80321 -0.60257,-1.46448 -1.76705,-0.34002 -0.0159,-1.84758 -1.21782,-1.04948 -0.89105,-0.24971 -0.19586,-0.95057 0.95219,-0.63494 -0.26188,-1.07933 -1.24191,-1.46382 -0.36894,-0.43484 -1.14594,-1.25417 -0.34978,-1.34064 -1.45794,-1.07926 -0.76389,-1.23063 -0.51842,-1.4389 1.31384,-0.18574 -0.041,-0.95432 1.40823,0.24152 0.41103,-1.12122 -0.5607,-1.44861 -0.0685,-1.15438 0.0182,-0.94818 0.0476,-1.1167 -0.13609,-0.89121 -1.03554,-1.3948 0.88543,-1.09153 -0.15972,-1.20446 -1.59983,-2.43432 0.67127,-1.07148 1.2447,-0.0535 -0.54519,-3.122461 0.22115,-1.365211 -0.0461,-0.990984 -1.2843,-2.146144 -1.33084,-0.708959 -1.73971,0.469651 -1.30157,-0.834491 0.3495,-1.962445 1.44516,-1.370325 1.2585,-0.139357 0.51848,-1.401195 -0.64758,-0.970518 -1.25657,0.505129 -1.30021,-1.055378 -1.52322,-1.188587 -0.21524,-2.596782 -1.52709,0.04545 -1.09526,-1.00395 -1.52828,0.554426 -0.88281,-0.327147 -0.61087,-1.080532 -0.14154,-1.827867 -1.08901,0.252434 -1.02293,1.130085 -0.60445,-0.860418 -1.05838,-0.368511 -1.20669,0.345396 -0.96417,1.427469 -0.86679,-0.286128 -1.29084,-1.059639 -0.86383,0.690964 -1.02651,-0.251417 -0.36177,-0.993802 0.68775,-0.907238 -0.33655,-0.953461 -1.17395,-0.510759 -0.16336,-1.393355 0.57383,-1.420133 -0.98907,-2.164742 -0.27967,-2.386901 -1.13202,-0.567641 -0.22518,-1.369388 -1.07849,0.51093 -1.0039,-0.01595 -0.85934,-0.746222 -0.46382,-1.065271 -0.72576,-0.960965 -1.45482,-0.635957 0.50632,-1.975242 -0.46933,-0.937426 -1.94858,-0.88319 -13.62459,0.03411 -30.55455,0.20229 -23.64745,-0.149487 -43.8523,0.06088 -50.67586,-0.531907 -32.07965,0.388546 -41.63832,-0.09372 -35.54612,0.25866 -18.60568,-0.07129 -13.99699,-0.24178 -16.11499,0.211841 -35.80549,-0.129884 -30.59748,0.331152 -27.50602,-0.278275 -38.25431,0.178841 -31.77823,-0.07897 0.13317,-38.607619 -2.41062,1.050555 -5.62555,3.580686 -2.13036,0.929073 -1.71144,0.198881 -2.59625,1.919291 -3.530405,1.638543 -3.386141,2.10666 -5.002696,3.534975 -1.269174,0.817354 -4.199406,2.253259 -1.107169,0.366204 -1.756042,-0.749805 -0.287003,0.869201 -1.443799,1.495777 -1.41515,0.415751 -2.126178,1.590105 -1.839089,0.722005 0.639577,-1.702847 0.111696,-1.370495 1.10376,-1.513774 0.569062,-1.050598 1.532728,0.507267 1.401764,-0.186858 0.706766,-1.076272 1.564621,0.542232 -0.556443,-1.536716 0.274468,-1.230464 -0.852821,0.05237 -2.630692,0.875089 -1.964946,1.730137 -1.523517,2.311079 -0.693294,2.060351 -1.066844,2.073398 -3.284592,2.317052 -3.67144,2.003121 -1.141529,0.399466 -7.442822,4.07115 -8.281397,3.412853 -8.573436,3.306593 -0.952754,0.738892 -5.754818,1.945387 -0.869621,0.553653" id="path3315" inkscape:connector-curvature="0"/>
    </clipPath>
    <inkscape:perspective id="perspective3748" inkscape:persp3d-origin="0.5 : 0.33333333 : 1" inkscape:vp_z="1 : 0.5 : 1" inkscape:vp_y="0 : 1000 : 0" inkscape:vp_x="0 : 0.5 : 1" sodipodi:type="inkscape:persp3d"/>
    <inkscape:perspective id="perspective3775" inkscape:persp3d-origin="0.5 : 0.33333333 : 1" inkscape:vp_z="1 : 0.5 : 1" inkscape:vp_y="0 : 1000 : 0" inkscape:vp_x="0 : 0.5 : 1" sodipodi:type="inkscape:persp3d"/>
    <clipPath clipPathUnits="userSpaceOnUse" id="clipPath3123">
      <rect style="fill:#808080;fill-opacity:1;stroke:none" id="rect3125" width="278.41742" height="278.41742" x="126.70722" y="119.64621" ry="30.320616"/>
    </clipPath>
    <clipPath clipPathUnits="userSpaceOnUse" id="clipPath3123-6">
      <rect style="fill:#808080;fill-opacity:1;stroke:none" id="rect3125-7" width="278.41742" height="278.41742" x="126.70722" y="119.64621" ry="30.320616"/>
    </clipPath>
  </defs>
  <path style="font-size:12px;font-style:normal;font-weight:normal;fill:#000000;fill-opacity:1;stroke:none;font-family:Dialog" d="m -4737.3837,4142.7867 0,0 0,0 0,0" id="path8" inkscape:connector-curvature="0"/>
  <g style="font-size:12px;font-style:normal;font-weight:normal;fill:#000000;fill-opacity:1;stroke:#000000;stroke-width:1.00002992;stroke-linecap:square;stroke-linejoin:miter;stroke-miterlimit:10;stroke-opacity:1;stroke-dasharray:none;stroke-dashoffset:0;font-family:Dialog" id="g12512" transform="matrix(1.7599473,0,0,1.7599473,-214.85379,-201.64418)">
    <path style="fill:#fcd116;fill-opacity:1;fill-rule:evenodd;stroke:none" d="m 122.01549,114.53528 284.09942,0 0,284.09942 -284.09942,0 z" id="rect606" inkscape:connector-curvature="0" clip-path="url(#clipPath3123)"/>
    <path transform="matrix(0.9538216,0,0,0.9538216,3.4404691,12.757068)" style="font-size:12px;font-style:normal;font-weight:normal;fill:#ffffff;fill-opacity:1;fill-rule:evenodd;stroke:none;font-family:Dialog" d="m 122.01549,114.53528 284.09942,0 0,284.09942 -284.09942,0 z" id="rect606-5" inkscape:connector-curvature="0" clip-path="url(#clipPath3123-6)"/>
    <g transform="matrix(0.65810075,0,0,0.65810075,17.918669,110.18392)" style="font-size:12px;font-style:normal;font-weight:normal;fill:#000000;fill-opacity:1;stroke:#000000;stroke-width:1.00002992;stroke-linecap:square;stroke-linejoin:miter;stroke-miterlimit:10;stroke-opacity:1;stroke-dasharray:none;stroke-dashoffset:0;font-family:Dialog" id="g3019">
      <path style="font-size:12px;font-style:normal;font-weight:normal;fill:#356ba0;fill-opacity:1;fill-rule:evenodd;stroke:#ffffff;stroke-width:0.45035303;stroke-linecap:butt;stroke-linejoin:miter;stroke-miterlimit:4;stroke-opacity:1;stroke-dasharray:none;stroke-dashoffset:0;font-family:Dialog" id="path641" d="m 319.96067,270.89774 c 0,0 9.16063,10.46936 13.08664,12.43229 3.92598,1.96301 22.90159,12.4323 22.90159,12.4323 l -0.65435,15.04967 c 0,0 -11.12359,-2.61738 -23.55588,-9.815 -12.4323,-7.19761 -23.55594,-18.97561 -23.55594,-18.97561 l 13.08659,0.65434 -1.30865,-11.77799 z" inkscape:connector-curvature="0"/>
      <path style="font-size:12px;font-style:normal;font-weight:normal;fill:#356ba0;fill-opacity:1;fill-rule:evenodd;stroke:#ffffff;stroke-width:0.45035303;stroke-linecap:butt;stroke-linejoin:miter;stroke-miterlimit:4;stroke-opacity:1;stroke-dasharray:none;stroke-dashoffset:0;font-family:Dialog" id="path642" d="m 395.86308,310.15763 c 0,0 15.04969,-3.27165 25.51896,-11.12365 10.46928,-7.85197 20.93863,-17.01259 20.93863,-17.01259 l -12.43229,1.30864 1.30864,-12.43229 c 0,0 -9.81498,9.81499 -16.3583,14.3953 -6.54333,4.58032 -20.28427,8.50635 -20.28427,8.50635 l 1.30863,16.35824 z" inkscape:connector-curvature="0"/>
      <path style="font-size:12px;font-style:normal;font-weight:normal;fill:#356ba0;fill-opacity:1;fill-rule:evenodd;stroke:#ffffff;stroke-width:0.45035303;stroke-linecap:butt;stroke-linejoin:miter;stroke-miterlimit:4;stroke-opacity:1;stroke-dasharray:none;stroke-dashoffset:0;font-family:Dialog" id="path643" d="m 342.86224,278.74971 c 0,0 17.01269,9.16063 31.40792,8.50634 14.39532,-0.65436 32.71658,-8.50634 32.71658,-8.50634 l 0.65436,20.93865 c 0,0 -20.28427,7.19762 -32.71656,7.19762 -12.43231,0 -32.0623,-7.19762 -32.0623,-7.19762 l 0,-20.93865 z" inkscape:connector-curvature="0"/>
      <path style="font-size:12px;font-style:normal;font-weight:normal;fill:none;stroke:#ffffff;stroke-width:0.45035303;stroke-linecap:butt;stroke-linejoin:miter;stroke-miterlimit:4;stroke-opacity:1;stroke-dasharray:none;stroke-dashoffset:0;font-family:Dialog" sodipodi:nodetypes="cc" id="path644" d="m 342.87965,299.5648 12.29141,11.03485" inkscape:connector-curvature="0"/>
      <path style="font-size:12px;font-style:normal;font-weight:normal;fill:none;stroke:#ffffff;stroke-width:0.45035303;stroke-linecap:butt;stroke-linejoin:miter;stroke-miterlimit:4;stroke-opacity:1;stroke-dasharray:none;stroke-dashoffset:0;font-family:Dialog" sodipodi:nodetypes="cc" id="path646" d="m 407.39409,299.68836 -11.40745,10.13338" inkscape:connector-curvature="0"/>
      <path style="font-size:12px;font-style:normal;font-weight:normal;fill:#fcd116;fill-opacity:1;fill-rule:evenodd;stroke:none;font-family:Dialog" sodipodi:nodetypes="ccccccccccccc" id="path647" d="m 347.15749,285.88067 -0.21234,11.67811 3.39731,1.27399 -8e-5,-4.6713 5.0959,0.21233 -0.21235,5.52059 3.39724,0.63695 0.21235,-12.31506 -2.97257,-0.21226 -0.42467,3.82185 -4.88356,-0.4246 0,-4.67123 -3.39723,-0.84937 z" inkscape:connector-curvature="0"/>
      <path style="font-size:12px;font-style:normal;font-weight:normal;fill:#fcd116;fill-opacity:1;fill-rule:evenodd;stroke:none;font-family:Dialog" sodipodi:nodetypes="ccccccccccccc" id="path650" d="m 395.35599,300.53134 -0.21233,-13.37668 9.13007,-2.76022 0,2.97255 -5.94519,1.911 8e-5,2.76021 5.73282,-2.12326 -0.21232,3.1849 -5.52058,1.27396 -0.21226,3.18492 6.15745,-2.33554 0.21232,2.12326 -9.13006,3.1849 z" inkscape:connector-curvature="0"/>
      <path style="font-size:12px;font-style:normal;font-weight:normal;fill:#fcd116;fill-opacity:1;fill-rule:evenodd;stroke:none;font-family:Dialog" id="path654" d="m 366.69169,296.07247 c 0,0 -0.21233,-4.45887 2.76022,-4.45887 2.97264,0 3.39731,3.39723 3.18497,4.88348 -0.21233,1.48631 -0.63702,4.03426 -2.76028,4.2466 -2.12326,0.21235 -2.97263,-1.48631 -3.18491,-4.67121 z m 2.97263,7.21915 c 3.81495,-0.10033 5.73277,-2.54801 5.73277,-7.4315 0,-4.6712 -3.39723,-6.79448 -5.94518,-6.79448 -2.54794,0 -5.73285,3.1849 -5.73285,7.00683 0,3.82192 1.69177,7.33107 5.94526,7.21915 z" inkscape:connector-curvature="0"/>
      <path style="font-size:12px;font-style:normal;font-weight:normal;fill:#fcd116;fill-opacity:1;fill-rule:evenodd;stroke:none;font-family:Dialog" id="path658" d="m 383.89038,291.82587 0,3.18489 c 0,0 4.45885,0.21233 4.45885,-1.91092 0,-2.12335 -3.8219,-1.06171 -4.45885,-1.27397 z m -2.9727,11.46575 -0.42469,-13.16434 5.0959,-0.42467 c 2.32748,-0.19396 5.73275,0.84928 5.52058,2.97262 -0.21235,2.12326 -0.45404,4.00979 -3.822,4.45887 l -3.18489,0.42468 -0.21235,5.52051 -2.97255,0.21233 z" inkscape:connector-curvature="0"/>
      <path style="font-size:12px;font-style:normal;font-weight:normal;fill:#fcd116;fill-opacity:1;fill-rule:evenodd;stroke:#fcd116;stroke-width:0.75058832pt;stroke-linecap:butt;stroke-linejoin:miter;stroke-miterlimit:10;stroke-opacity:1;stroke-dasharray:none;stroke-dashoffset:0;font-family:Dialog" sodipodi:nodetypes="ccccccccccccccccccccccccccc" id="path630" d="m 372.30714,164.24176 c 0,0 -0.65427,71.97639 -0.65427,77.21108 0,5.23467 0,12.43229 -5.88897,11.12364 -5.88897,-1.30865 -13.08666,-1.30865 -23.55595,-8.50634 -10.46928,-7.19762 -10.46928,-8.50627 -10.46928,-8.50627 l 9.81492,-3.27167 c 0,0 -9.81492,-1.963 -16.35824,-6.54332 -6.54333,-4.58032 -11.77801,-8.50628 -11.77801,-8.50628 0,0 -0.65435,9.81492 2.61738,17.01262 3.27165,7.19762 9.81492,13.74094 9.81492,13.74094 l 0,-8.50634 c 0,0 9.16063,8.50634 12.43229,10.46936 3.27166,1.96293 16.35833,7.19761 21.593,10.46927 5.2346,3.27167 15.70389,12.4323 15.70389,12.4323 0,0 9.16071,-10.46928 15.70395,-13.08659 6.54333,-2.61737 15.04968,-6.54339 18.97563,-9.16069 3.92603,-2.61731 14.3953,-12.4323 14.3953,-12.4323 l 0,11.12364 c 0,0 7.19769,-8.50634 9.16063,-14.3953 1.96301,-5.88898 2.6173,-16.35825 2.6173,-16.35825 0,0 -5.23461,3.92594 -9.81491,5.88896 -4.58032,1.96301 -17.66698,7.19761 -17.66698,7.19761 l 10.46929,2.61739 c 0,0 -17.01261,13.08657 -22.90158,15.70396 -5.88896,2.6173 -18.32126,3.92595 -18.32126,-2.61739 0,-6.54332 0.65429,-83.10003 0.65429,-83.10003 l -6.54334,0 z" inkscape:connector-curvature="0"/>
      <rect y="140.03148" x="372.96152" width="4.5803227" style="font-size:12px;font-style:normal;font-weight:normal;fill:#fcd116;fill-opacity:1;fill-rule:evenodd;stroke:#fec500;stroke-width:0.75058836;stroke-linecap:square;stroke-linejoin:miter;stroke-miterlimit:10;stroke-opacity:1;stroke-dasharray:none;stroke-dashoffset:0;font-family:Dialog" id="rect631" height="19.62993"/>
      <path style="font-size:12px;font-style:normal;font-weight:normal;fill:#fcd116;fill-opacity:1;fill-rule:evenodd;stroke:#ffffff;stroke-width:0.75058832pt;stroke-linecap:butt;stroke-linejoin:miter;stroke-miterlimit:10;stroke-opacity:1;stroke-dasharray:none;stroke-dashoffset:0;font-family:Dialog" id="path629" d="m 340.24494,159.66144 c 0,0 18.32126,-3.92602 35.33388,-3.92602 17.0126,0 34.67958,3.92602 34.67958,3.92602 l 0,7.19762 c 0,0 -23.55595,3.27167 -37.29688,3.27167 -13.74094,0 -33.37088,-3.92604 -33.37088,-3.92604 l 0.6543,-6.54325 z" inkscape:connector-curvature="0"/>
      <path style="font-size:12px;font-style:normal;font-weight:normal;fill:#fcd116;fill-opacity:1;fill-rule:evenodd;stroke:#ffffff;stroke-width:0.9382354;stroke-linecap:square;stroke-linejoin:miter;stroke-miterlimit:10;stroke-opacity:1;stroke-dasharray:none;stroke-dashoffset:0;font-family:Dialog" id="path640" d="m 382.12215,156.38971 c 0,4.33653 -3.07609,7.85198 -6.87053,7.85198 -3.79443,0 -6.8705,-3.51545 -6.8705,-7.85198 0,-4.33653 3.07607,-7.85198 6.8705,-7.85198 3.79444,0 6.87053,3.51545 6.87053,7.85198 z m 3.27166,-0.3271 c 0,5.96274 -4.68728,10.79645 -10.46927,10.79645 -5.78209,0 -10.46936,-4.83371 -10.46936,-10.79645 0,-5.96276 4.68727,-10.79647 10.46936,-10.79647 5.78199,0 10.46927,4.83371 10.46927,10.79647 z" inkscape:connector-curvature="0"/>
      <path id="polygon616" d="m 375.88808,83.713711 5.69034,13.923478 15.23644,1.395192 -11.75179,9.607009 3.35454,14.6342 -12.95335,-7.98601 -13.16323,7.64923 3.74617,-14.54263 -11.48985,-9.906706 15.26861,-1.001847 z" style="font-size:12px;font-style:normal;font-weight:normal;fill:#fcd116;fill-opacity:1;fill-rule:evenodd;stroke:none;font-family:Dialog" inkscape:connector-curvature="0"/>
      <path id="polygon617" d="m 443.30011,100.18679 -2.0058,14.90703 12.51406,8.80306 -14.97623,2.4721 -4.38507,14.3591 -7.25003,-13.3792 -15.22419,0.0714 10.49547,-10.74091 -5.02398,-14.31499 13.73657,6.74096 z" style="font-size:12px;font-style:normal;font-weight:normal;fill:#fcd116;fill-opacity:1;fill-rule:evenodd;stroke:none;font-family:Dialog" inkscape:connector-curvature="0"/>
      <path id="polygon618" d="m 492.93275,145.30452 -8.26704,12.56579 7.46387,13.35612 -14.56845,-4.2613 -10.17394,11.04101 -0.73677,-15.19943 -13.75169,-6.53239 14.11311,-5.13247 1.67493,-15.07824 9.45916,12.02738 z" style="font-size:12px;font-style:normal;font-weight:normal;fill:#fcd116;fill-opacity:1;fill-rule:evenodd;stroke:none;font-family:Dialog" inkscape:connector-curvature="0"/>
      <path id="polygon619" d="m 516.53488,211.19734 -13.07662,7.43266 0.57462,15.28938 -11.03771,-10.41958 -14.08168,5.20757 6.25495,-13.87232 -9.27758,-12.07094 14.90348,1.84602 8.34781,-12.6678 2.95593,15.01321 z" style="font-size:12px;font-style:normal;font-weight:normal;fill:#fcd116;fill-opacity:1;fill-rule:evenodd;stroke:none;font-family:Dialog" inkscape:connector-curvature="0"/>
      <path id="polygon620" d="m 509.60377,279.71526 -15.03069,0.56676 -6.53909,13.83241 -4.99084,-14.33493 -14.89668,-1.87112 11.94619,-9.42623 -2.66756,-14.98882 12.37397,8.5092 13.24805,-7.39248 -4.29866,14.6852 z" style="font-size:12px;font-style:normal;font-weight:normal;fill:#fcd116;fill-opacity:1;fill-rule:evenodd;stroke:none;font-family:Dialog" inkscape:connector-curvature="0"/>
      <path id="polygon621" d="m 308.28272,100.0339 11.23159,10.00473 14.29872,-5.44451 -6.33241,13.79492 9.44598,11.66988 -15.14523,-1.479 -8.46077,12.65689 -3.02787,-14.70898 -14.67502,-3.84749 13.2739,-7.61167 z" style="font-size:12px;font-style:normal;font-weight:normal;fill:#fcd116;fill-opacity:1;fill-rule:evenodd;stroke:none;font-family:Dialog" inkscape:connector-curvature="0"/>
      <path id="polygon622" d="m 411.23068,326.60074 0.21518,15.03982 13.67578,6.86071 -14.44772,4.6543 -2.21888,14.84889 -9.14437,-12.16333 -15.0471,2.31642 8.79618,-12.17166 -7.08075,-13.41726 14.58072,4.64082 z" style="font-size:12px;font-style:normal;font-weight:normal;fill:#fcd116;fill-opacity:1;fill-rule:evenodd;stroke:none;font-family:Dialog" inkscape:connector-curvature="0"/>
      <path id="polygon623" d="m 281.06035,137.69112 1.23947,14.99022 14.11147,5.91292 -14.097,5.62794 -1.20195,14.96556 -9.9519,-11.51196 -14.8543,3.33633 7.94637,-12.74273 -7.97851,-12.90362 14.86305,3.63652 z" style="font-size:12px;font-style:normal;font-weight:normal;fill:#fcd116;fill-opacity:1;fill-rule:evenodd;stroke:none;font-family:Dialog" inkscape:connector-curvature="0"/>
      <path id="polygon624" d="m 250.37908,191.97963 8.24079,12.58304 15.22292,-1.53561 -9.70437,11.67153 6.08332,13.7261 -14.23841,-5.36964 -11.46319,10.01879 0.90454,-14.99013 -13.16799,-7.53415 14.79745,-3.89479 z" style="font-size:12px;font-style:normal;font-weight:normal;fill:#fcd116;fill-opacity:1;fill-rule:evenodd;stroke:none;font-family:Dialog" inkscape:connector-curvature="0"/>
      <path id="polygon625" d="m 247.96776,253.75449 13.30725,7.01145 12.57066,-8.72205 -2.83064,14.91263 11.97426,9.05701 -15.05668,2.20507 -5.17015,14.31958 -6.4749,-13.54981 -15.1696,-0.20704 11.05497,-10.5793 z" style="font-size:12px;font-style:normal;font-weight:normal;fill:#fcd116;fill-opacity:1;fill-rule:evenodd;stroke:none;font-family:Dialog" inkscape:connector-curvature="0"/>
      <path id="polygon626" d="m 296.98557,297.17537 4.07999,14.47744 14.98106,3.10857 -12.76242,8.21703 1.67882,14.9196 -11.96761,-9.39907 -13.94351,6.11226 5.36604,-14.02595 -10.29636,-11.14202 15.28399,0.73054 z" style="font-size:12px;font-style:normal;font-weight:normal;fill:#fcd116;fill-opacity:1;fill-rule:evenodd;stroke:none;font-family:Dialog" inkscape:connector-curvature="0"/>
      <path id="polygon627" d="m 362.10223,332.94548 -6.92863,13.35056 8.79998,12.51622 -14.92994,-2.73792 -8.98245,12.03032 -2.29857,-15.04269 -14.35141,-5.08108 13.50933,-6.55897 0.11281,-15.1706 10.6478,10.98903 z" style="font-size:12px;font-style:normal;font-weight:normal;fill:#fcd116;fill-opacity:1;fill-rule:evenodd;stroke:none;font-family:Dialog" inkscape:connector-curvature="0"/>
      <path id="polygon628" d="m 453.57403,297.84994 7.6005,12.97981 15.28072,-0.77154 -10.27652,11.17104 5.38853,14.01344 -13.95175,-6.07574 -11.95041,9.43231 1.65387,-14.92604 -12.77429,-8.18395 14.9739,-3.14907 z" style="font-size:12px;font-style:normal;font-weight:normal;fill:#fcd116;fill-opacity:1;fill-rule:evenodd;stroke:none;font-family:Dialog" inkscape:connector-curvature="0"/>
    </g>
  </g>

	<metadata>
		<rdf:RDF xmlns:rdf="http://www.w3.org/1999/02/22-rdf-syntax-ns#" xmlns:rdfs="http://www.w3.org/2000/01/rdf-schema#" xmlns:dc="http://purl.org/dc/elements/1.1/">
			<rdf:Description about="https://iconscout.com/legal#licenses" dc:title="rhode_island" dc:description="rhode_island" dc:publisher="Iconscout" dc:date="2017-05-28" dc:format="image/svg+xml" dc:language="en">
				<dc:creator>
					<rdf:Bag>
						<rdf:li>Vignesh Oviyan</rdf:li>
					</rdf:Bag>
				</dc:creator>
			</rdf:Description>
		</rdf:RDF>
    </metadata></svg>
