<?xml version="1.0" encoding="UTF-8" standalone="no"?>
<svg xmlns:dc="http://purl.org/dc/elements/1.1/" xmlns:cc="http://creativecommons.org/ns#" xmlns:rdf="http://www.w3.org/1999/02/22-rdf-syntax-ns#" xmlns:svg="http://www.w3.org/2000/svg" xmlns="http://www.w3.org/2000/svg" xmlns:sodipodi="http://sodipodi.sourceforge.net/DTD/sodipodi-0.dtd" xmlns:inkscape="http://www.inkscape.org/namespaces/inkscape" version="1.1" width="500" height="500" id="svg548" inkscape:version="0.48.4 r9939" sodipodi:docname="south_carolina.svg">
  <sodipodi:namedview pagecolor="#ffffff" bordercolor="#666666" borderopacity="1" objecttolerance="10" gridtolerance="10" guidetolerance="10" inkscape:pageopacity="0" inkscape:pageshadow="2" inkscape:window-width="1366" inkscape:window-height="705" id="namedview8" showgrid="false" inkscape:zoom="0.46666667" inkscape:cx="337.5" inkscape:cy="250" inkscape:window-x="0" inkscape:window-y="26" inkscape:window-maximized="1" inkscape:current-layer="svg548"/>
  
  <defs id="defs550">
    <clipPath clipPathUnits="userSpaceOnUse" id="clipPath2992">
      <rect style="fill:#808080;fill-opacity:1;stroke:none" id="rect2994" width="704.2276" height="704.2276" x="-21.704796" y="-63.228157" ry="76.69281"/>
    </clipPath>
    <clipPath clipPathUnits="userSpaceOnUse" id="clipPath2996">
      <rect style="fill:#808080;fill-opacity:1;stroke:none" id="rect2998" width="490" height="490" x="5.714283" y="4.2857161" ry="53.362686"/>
    </clipPath>
  </defs>
  <rect width="500" height="500" x="0" y="0" id="rect552" style="fill:#003366" clip-path="url(#clipPath2996)"/>
  <g transform="matrix(0.69579777,0,0,0.69579777,20.816431,48.279728)" id="g2984" clip-path="url(#clipPath2992)">
    <path inkscape:connector-curvature="0" style="fill:#ffffff;fill-opacity:1;fill-rule:evenodd;stroke:none" id="path557" d="M 49.824353,112.01472 C 24.446788,196.61678 126.48698,264.97649 195.99346,203.63827 268.88629,127.10014 187.54021,23.725704 103.0645,56.72442 164.71874,46.12344 201.46873,117.36061 160.01084,161.8108 119.96605,202.71725 46.939504,175.8359 49.824353,112.01472 z"/>
    <path inkscape:connector-curvature="0" style="fill:#ffffff;fill-opacity:1;fill-rule:evenodd;stroke:none" id="path554" d="m 495.07579,101.52625 c -3.23415,1.50329 -5.62261,5.87781 -6.98713,9.33016 -3.23824,9.63809 -6.56833,19.25606 -9.82284,28.87706 -1.69844,4.32673 -3.3375,8.72904 -5.04826,13.02181 -3.13974,-0.42351 1.23896,-5.78755 0.99731,-8.08272 1.03773,-4.71133 3.34387,-9.3167 3.54165,-14.12479 -0.7893,-3.60036 0.0802,-8.27285 -1.70758,-11.20272 -2.66762,6.1557 -6.04734,12.05232 -8.34312,18.34731 -1.72646,7.55354 -4.04419,14.97266 -5.01253,22.68016 -0.57856,3.98987 -1.27983,7.92407 -2.57556,11.74937 -3.19471,-0.29808 -2.35096,-5.92819 -4.23001,-8.24925 -1.70524,-5.42247 -5.13882,-10.11424 -7.62042,-15.20427 -1.26809,-1.26065 -4.18222,-10.12385 -4.12961,-5.1846 -0.28517,3.56874 -0.53068,7.14077 -0.85721,10.70608 -7.09992,-13.26876 -14.22134,-26.52601 -21.32969,-39.79027 0.5784,4.30887 -0.018,8.95348 1.54782,13.02433 3.44773,7.43228 6.59788,14.99882 9.89093,22.5 -1.73284,1.63989 -2.08188,-1.07044 -2.94778,-2.17204 -6.56774,-11.59561 -13.13547,-23.19123 -19.70322,-34.78686 -2.65258,1.86358 -0.80551,5.2989 -1.14733,7.98583 1.08327,3.76731 3.57988,7.14077 5.27995,10.70898 3.1083,5.81558 6.30316,11.60312 9.49574,17.35804 -2.28827,2.52238 -3.53368,-4.61998 -5.17198,-6.22902 -5.93924,-10.30284 -11.81675,-20.64329 -17.93206,-30.84312 -2.67951,0.92596 -3.5084,2.88875 -3.05787,5.48562 -0.44315,2.60143 0.63446,4.81435 2.13971,6.9052 4.59526,7.95337 9.23373,15.88174 13.86699,23.81304 -1.57009,1.8228 -2.04996,-0.83955 -2.96474,-1.9053 -7.45554,-11.79779 -14.91109,-23.59558 -22.36663,-35.39336 -1.81434,-0.81616 -4.37964,-2.9935 -3.79932,0.62183 -0.8623,4.52568 4.05608,7.68967 5.66442,11.6041 6.63156,10.25967 13.46487,20.57541 20.06863,30.73548 -1.38255,1.86323 -2.01642,-0.51621 -2.90807,-1.53928 -4.19004,-5.94243 -8.38008,-11.88488 -12.57012,-17.82733 -1.56433,-0.40705 -3.57445,-1.42334 -2.98364,1.11491 -0.1038,1.61157 -0.53338,3.31124 0.83461,4.52492 6.70263,10.05955 13.53089,20.06808 20.15574,30.15918 2.14934,4.39631 4.10795,8.92509 6.37487,13.23975 3.8275,3.93897 7.655,7.87796 11.48251,11.81694 -2.74747,2.21218 -5.53121,-4.80981 -8.26762,-6.07802 -2.89825,-3.26206 -6.79621,-5.86912 -8.43282,-10.04583 -1.98795,-3.10782 -3.12881,-6.81873 -6.19587,-9.09174 -3.39698,-2.54896 -6.0074,-7.19188 -9.94766,-8.34565 -1.27332,2.80855 -0.23463,9.12656 3.58023,11.29687 0.38022,1.04719 5.72941,4.64976 2.79293,3.91086 -5.75958,-0.63255 -11.16914,-2.64774 -16.5661,-4.63726 -3.2612,3.12843 7.786,5.63267 1.58557,6.90856 -4.48482,0.0612 -7.94394,-4.00529 -12.04279,-5.51175 -10.21709,-5.58688 -20.68494,-10.73277 -31.13195,-15.85594 -2.16882,-0.65428 -4.33765,-1.30857 -6.50647,-1.96284 -0.60342,3.7835 5.30822,4.85092 7.27253,7.52649 7.92522,4.27945 16.04475,8.33457 23.98586,12.63289 -0.2543,2.38702 -2.40859,0.58214 -3.8492,0.35181 -14.86207,-4.7859 -29.72413,-9.57179 -44.58621,-14.35768 -2.49634,-0.59682 -2.0612,0.71329 -1.05108,2.39743 0.24886,1.94747 2.18381,2.04449 3.69414,2.60751 11.66645,3.91477 23.32235,7.86269 34.99536,11.75681 0.45962,1.83901 0.84501,3.69666 1.24581,5.54949 -2.65179,-2.18453 -5.26571,-4.68251 -8.89818,-4.9187 -7.5984,-1.88197 -15.42811,-0.28648 -23.13156,-0.19857 -4.11077,-0.98522 -4.64363,2.33283 -0.54995,3.04094 3.2898,2.55643 7.53071,1.121 11.355,1.32408 6.21971,-0.18599 12.43903,-0.38516 18.65758,-0.60681 1.10116,3.54354 -6.07238,1.17201 -6.34446,4.04969 -0.71718,3.417 5.731,3.41768 8.05831,2.71894 3.55709,0.0596 6.02237,-5.21276 9.04538,-4.31477 -0.79002,3.38177 -6.72777,4.13727 -7.40147,7.63614 -0.44703,3.50509 6.70595,2.47327 8.76342,0.97598 2.38728,-1.98338 6.49725,-4.97816 6.71691,0.33503 0.69473,4.80113 7.04315,2.94222 10.49496,4.56796 6.15248,0.93824 12.45203,1.32776 18.54848,2.33547 5.83228,2.64689 11.68437,5.27371 17.50438,7.93299 -1.19698,3.30273 -6.32686,-1.70464 -8.98491,-1.51007 -4.40457,-1.22933 -8.46189,-3.72948 -13.13992,-3.77555 -4.04499,-0.74255 -8.10699,-0.6563 -12.16683,-0.18379 -12.29801,1.02756 -24.62067,1.86092 -36.90331,3.00966 -11.43166,1.93046 -22.89164,3.77943 -34.32097,5.66863 -2.90339,0.90161 -9.21625,2.60302 -3.17115,3.77518 12.97811,-0.60926 25.92959,-1.70139 38.88423,-2.68038 0.93647,2.26569 -1.84697,1.49238 -3.24085,1.85427 -10.77375,1.09332 -21.54748,2.18664 -32.32122,3.27996 -3.31649,2.45257 -7.74321,3.80236 -9.55118,7.81459 0.51957,5.71161 7.66972,0.48834 11.21225,0.8683 9.32219,-1.56733 18.60817,-3.05116 27.59647,-5.92702 2.67785,0.21395 9.37236,-4.56808 9.77769,-1.13254 -10.16321,3.13519 -20.35182,6.31339 -30.60103,9.15414 -2.18222,0.50985 -4.36442,1.01972 -6.54663,1.52958 -0.63709,5.24599 7.29739,2.18631 10.53273,3.02013 7.11255,-1.66325 13.89067,-4.53315 20.92063,-6.52688 3.74849,-0.30826 9.42697,-4.70235 12.14309,-2.89789 -2.41318,2.46414 -8.01843,3.76407 -11.52286,5.80303 -7.2325,3.16391 -14.56726,6.06971 -21.61637,9.66201 -4.64291,4.70398 4.93326,4.27217 7.28463,1.83653 7.53098,-3.45441 14.96862,-7.1015 22.38819,-10.82143 1.81878,1.50426 -0.85529,2.22353 -1.80263,3.25592 -4.20326,3.29008 -8.30336,6.69375 -12.99043,9.28136 -1.81526,1.45812 -4.78431,1.96735 -5.13983,4.63974 4.11735,2.34123 8.05097,-0.49806 11.74078,-2.34062 9.64554,-6.24478 19.40227,-12.35305 29.2198,-18.30955 4.24485,-1.90101 8.5995,-3.5471 12.91107,-5.28524 1.66608,1.66292 -1.05661,2.16795 -2.08907,3.14383 -4.73764,3.17039 -9.49311,6.31906 -14.21966,9.50298 -5.16721,5.34452 -9.84553,11.22211 -15.94748,15.56014 -2.84565,2.38024 -5.75007,4.52344 -7.99906,7.14807 -4.46182,4.48799 -9.08212,8.81637 -13.50312,13.34465 -1.37921,4.5743 -4.31839,8.87429 -3.99349,13.78168 0.0565,5.28374 -0.54401,10.6254 -0.0462,15.87332 0.54223,2.18052 1.8005,7.15255 2.22656,2.1822 0.23962,-2.27258 1.8082,-10.10892 3.49147,-4.61024 0.92528,2.05701 1.83522,8.25812 2.93152,7.18246 1.60597,-3.18264 1.90336,-7.64726 4.48824,-10.0596 2.30261,1.34379 4.12228,4.65956 6.31632,0.84483 2.78423,-3.24171 2.37164,-8.11408 3.75695,-12.06095 1.19376,-5.12126 2.39132,-10.24162 3.59285,-15.36106 2.18174,-0.63153 1.66516,2.01063 2.20876,3.36654 0.69832,3.15635 1.39662,6.31269 2.09493,9.46904 4.76286,-2.0641 2.81832,-8.50212 4.35391,-12.5753 0.30503,-3.05223 1.2757,-11.08972 4.5538,-4.95472 1.92586,4.61826 7.2613,-0.70574 7.09899,-4.06395 1.08921,-5.32153 2.13211,-10.65266 3.24665,-15.96895 1.42912,2.5469 2.9195,5.0587 4.3792,7.58808 4.97301,-0.23058 6.68386,-5.21824 9.91,-8.17484 2.89881,-3.00953 5.48428,-6.49673 8.70158,-9.11542 3.6661,-1.88948 7.10126,-4.41391 10.87248,-6.04027 3.67927,3.40115 -1.87367,7.99279 -3.96393,10.91023 -4.66502,5.76373 -10.42307,10.51157 -15.3071,16.0921 -1.92783,2.22523 -4.94385,4.09311 -4.13501,7.4051 2.45059,1.09258 5.00641,2.08548 7.47482,3.19324 -3.72798,1.86885 -7.73486,3.47587 -11.17449,5.73825 -3.33072,2.88115 -6.92638,5.4384 -10.41946,8.11661 -0.94309,2.53476 -1.55239,5.39702 2.19726,4.34305 2.67721,-0.461 9.88611,0.68352 4.22052,3.32055 -5.32493,3.4804 -11.49039,5.65278 -16.76174,9.09814 -1.45974,1.94892 -5.37811,5.00765 -0.60403,4.86998 3.18858,-0.45863 7.96173,-5.31755 10.33066,-2.85766 -3.35154,3.7034 -7.69531,7.27682 -11.36326,10.97676 -1.86784,1.44546 -6.01092,5.46484 -3.55851,6.5945 5.81136,-2.77834 9.89434,-8.00024 14.84502,-11.979 1.7398,-2.76358 6.4017,-5.21874 4.92558,0.16896 -5.74779,7.15599 -11.30394,14.5154 -17.21808,21.48402 0.5956,6.99828 5.09557,-2.00841 7.31226,-3.88627 3.45684,-4.0806 6.67053,-8.45297 11.18904,-11.43669 1.56859,-0.34074 5.70537,-6.23459 5.92403,-3.82518 -0.10548,2.00373 0.51332,4.2405 -1.1895,5.79993 -3.57392,4.81753 -5.96267,10.32832 -8.89019,15.53781 -0.48345,2.24882 -0.98426,8.71066 2.2651,5.66275 3.86855,-7.21463 8.58866,-13.96193 11.63443,-21.60143 3.12194,-6.55236 5.22844,-13.58543 7.84543,-20.30293 2.20234,-3.28672 3.2788,-2.17269 2.97201,1.263 0.35541,3.19554 0.22033,10.03236 2.42648,10.51551 4.01023,-9.16207 9.04392,-17.82679 13.31932,-26.85255 1.47978,-4.40374 3.23799,-8.72898 5.06575,-13.01321 2.30335,-0.24142 1.24529,2.25906 1.47231,3.7113 -0.1549,2.91336 0.30843,5.9279 -0.22668,8.77906 -2.48452,7.13395 -4.34734,14.49171 -7.81188,21.24507 -2.10058,4.34274 -5.06887,8.25659 -7.09986,12.62363 -2.03551,2.65109 -1.28007,2.67084 1.0134,1.11245 4.05618,-1.85717 6.7798,-5.33943 9.59228,-8.65272 4.42374,-3.54763 1.13931,4.51934 0.11976,6.23047 -2.40603,6.82086 -3.96297,13.97753 -6.68597,20.71416 -0.034,2.04139 -0.74183,6.73439 1.85909,3.14164 4.8821,-3.81687 6.65926,-9.93131 9.57967,-15.14667 1.7708,2.58742 5.10241,4.08243 6.71625,0.89218 -0.27104,-4.02919 -2.12925,-8.20516 -0.31514,-12.10758 1.7914,-6.45472 3.26276,-13.03132 4.27318,-19.64731 0.48619,-4.02274 0.75727,-8.0903 1.25523,-12.0987 2.23852,-1.1528 1.29235,2.40019 1.47232,3.74905 0,3.06659 0,6.13319 0,9.19977 2.19246,0.24093 6.21642,-3.64464 7.36158,-1.09479 -2.21314,1.89596 -5.59276,3.06984 -7.59678,5.13206 -0.0852,2.56785 -0.17038,5.13568 -0.25557,7.70351 2.73071,-1.66108 5.46141,-3.32215 8.19212,-4.98323 1.93638,1.36203 -0.63012,2.30455 -1.5082,3.43049 -2.24056,2.09057 -4.48111,4.18112 -6.72167,6.27169 -0.0378,1.81209 -0.0755,3.62416 -0.11328,5.43624 1.89833,-0.59665 3.81138,-1.15163 5.70051,-1.77432 1.55708,1.77264 -1.12907,2.17216 -2.24267,3.09623 -1.25969,1.16982 -4.09079,1.37096 -3.68191,3.57083 -0.14278,5.53106 -0.34548,11.0588 -0.56872,16.58797 0.998,-1.97665 4.52009,-6.73571 4.00507,-7.0059 -1.15422,2.25953 -5.35571,2.41094 -2.495,0.0596 1.18925,-1.44462 7.6719,-6.05903 5.38261,-1.44796 -2.23122,3.21794 -4.17001,7.50184 -6.51242,10.1451 -0.66626,-0.0647 -1.46568,4.66541 0.55356,3.7311 1.67624,1.14059 6.84904,1.66065 3.27656,3.64601 -1.52908,1.53495 -3.44312,2.90068 -4.7389,4.53816 0.10608,4.62895 -1.06066,12.33869 -0.15483,15.02721 1.36555,-1.9193 5.85967,-5.38509 4.91641,-6.29166 -1.89539,0.90554 -7.67114,0.47394 -3.62903,-0.99645 2.46231,-0.93303 9.34108,-1.1967 4.94547,2.68037 -2.34226,4.17469 -7.91842,5.48831 -6.86591,10.05486 0.0215,3.36954 -1.35863,5.42747 2.7651,4.81104 4.72002,-0.41322 5.04863,4.18618 0.79419,5.44405 -2.92569,1.70736 -5.48265,1.59583 -3.7152,5.47445 0.91128,2.54858 7.20488,4.26887 5.625,6.90856 -0.23562,-2.97734 -0.9046,1.14858 -2.53359,-1.83844 -2.0043,-1.59848 -4.58452,-5.39857 -3.73684,-0.35796 -0.3683,9.61667 -0.7488,19.23287 -1.12889,28.84908 1.98413,-0.60724 5.5026,2.17207 5.53742,3.45956 -2.04546,1.897 -6.92916,-6.3883 -5.65898,0.17268 0.0684,2.95503 -0.70906,8.41622 -0.1074,9.79205 0.98448,-0.82844 2.54734,1.54001 3.75569,1.94892 1.37896,0.95362 2.75793,1.90723 4.13689,2.86085 -0.75974,2.34362 -2.37712,-0.0722 -3.67136,-0.6948 -1.5195,-1.05196 -3.039,-2.10392 -4.5585,-3.15588 0.35644,3.9101 -1.36103,11.10304 0.21292,13.1255 1.79419,1.3223 6.48108,5.12495 6.36583,7.25045 -2.31969,0.61945 -5.6694,-6.3017 -7.12965,-5.90661 -0.22575,5.83519 -0.43486,11.67102 -0.65715,17.50634 2.43619,0.81721 7.37004,3.98876 8.65621,5.98591 -2.20054,1.86508 -6.8473,-5.06031 -8.75194,-4.18075 -0.34558,4.7141 -0.0622,9.53262 -0.73743,14.1915 -0.89352,3.38762 8.43836,2.55164 6.42041,6.01256 -3.44214,-1.13476 -8.21841,-6.05902 -8.24584,0.30467 -0.73507,5.07225 -5.35308,10.25259 -1.75836,15.06027 1.38334,3.9031 5.81677,5.5659 9.13591,7.55034 3.92004,-0.61842 7.68321,-2.55628 11.7655,-2.70887 6.01699,-0.9325 12.13691,-1.26797 18.13382,-2.23661 2.5342,-1.84808 5.67477,-3.59071 1.85473,-5.96083 -3.04113,-3.73287 -2.31836,-9.05349 -4.08207,-13.29252 -0.004,-3.45001 -0.71329,-4.94963 -3.74833,-2.45861 -2.37935,0.47111 -6.07751,5.54498 -7.42617,2.3831 3.55518,-1.72072 6.78154,-3.95838 10.38171,-5.625 -0.42575,-4.51495 -1.29814,-9.00475 -1.20806,-13.55284 -2.84428,1.83468 -7.04505,5.6489 -9.77551,5.1223 1.11345,-2.54042 6.55277,-3.65818 8.86948,-6.33037 1.68386,-0.0227 0.58352,-2.41107 0.87021,-3.82236 -0.0384,-3.9356 -0.0768,-7.87122 -0.1152,-11.80682 -2.63482,2.97427 -5.78924,5.09535 -9.77768,5.73825 -2.96659,-2.59353 4.52813,-1.65901 5.49626,-3.86718 1.79343,-2.02664 5.10928,-3.28863 4.22093,-6.4566 -0.0301,-3.47988 -0.0604,-6.95977 -0.0905,-10.43965 -2.31847,1.5391 -6.56661,7.06093 -8.80567,4.77365 2.42116,-2.15723 7.66181,-4.22084 8.75964,-7.44793 -0.0476,-4.51965 -0.0952,-9.03929 -0.14273,-13.55893 -2.4992,3.33886 -5.91021,5.62572 -9.94665,6.67813 -1.98096,2.19746 -6.02274,0.24587 -1.99464,-0.85363 3.93014,-1.30296 7.89885,-2.7264 10.34302,-6.29871 2.22148,-1.19045 1.47478,-3.30605 1.55457,-5.49793 -0.0358,-3.21902 -0.0715,-6.43804 -0.10728,-9.65706 -4.69419,4.16213 -8.93443,8.77631 -13.59061,12.98658 -2.45153,-2.58716 4.55522,-4.83167 5.5495,-7.39933 2.31731,-2.77708 6.24738,-5.46156 8.03573,-7.8483 -0.036,-3.51226 -0.0719,-7.02451 -0.10788,-10.53677 -1.78895,1.65486 -4.68635,3.75264 -1.01929,1.77433 1.64159,1.84809 -1.24013,2.0361 -2.44766,2.83855 -1.66238,0.77939 -3.33039,1.54712 -4.98942,2.33343 -1.73548,-3.25883 5.61586,-4.85625 7.08164,-7.7232 1.98406,0.48696 1.24862,-1.38195 1.33885,-3.31173 -0.0258,-2.45005 -0.0516,-4.90009 -0.0774,-7.35014 -2.45238,4.46534 -7.33949,1.87604 -11.23922,1.0653 -2.88029,-0.23544 -0.16985,-1.1139 1.02665,-1.82588 3.0896,-1.65922 6.17919,-3.31845 9.26878,-4.97768 1.74212,1.75822 -1.1318,2.09186 -2.29645,2.953 -1.82681,0.96617 -3.6536,1.93235 -5.4804,2.89852 3.42484,1.91882 7.62507,0.6908 8.67557,-2.63656 0.01,-5.88445 -0.1604,-11.66761 -0.4457,-17.56058 -2.70712,2.72017 -4.26111,5.6954 -7.62584,6.90855 1.57391,-0.72765 8.06397,0.21709 3.69966,1.35906 -2.50318,0.50016 -10.86034,0.81891 -5.01211,-2.37002 2.98647,-1.17307 4.92603,-3.35419 6.82529,-5.86025 2.25816,-1.30074 2.23675,-2.18231 1.93106,-4.84039 -0.15327,-3.6213 -0.30656,-7.2426 -0.45984,-10.8639 -1.37042,1.68536 -7.20858,6.29869 -5.71947,6.29431 1.74776,-1.10131 8.59787,-1.42088 4.52504,0.55661 -2.61194,-0.16539 -8.25835,3.47249 -9.18728,0.28415 3.63968,-2.08992 6.31539,-5.35282 9.35495,-8.22981 1.77998,0.2284 0.60667,-2.38854 0.83065,-4.00616 -0.43798,-10.87101 -0.87597,-21.74202 -1.31395,-32.61303 -1.7097,1.51823 -8.86976,7.3038 -6.25217,1.56087 1.75505,-2.0113 3.54349,-5.52972 5.49266,-6.21371 1.27554,-0.65464 0.11112,-3.02851 0.40859,-4.37228 0.29432,-3.32766 -1.73498,-6.16187 -2.72754,-9.21624 -0.069,-1.248 -2.40847,-3.42929 -0.41932,-3.79888 2.16562,1.83922 3.19032,6.83365 4.94561,9.78922 2.66851,6.17713 5.71621,12.21864 8.06559,18.5178 1.29846,5.24158 2.6811,10.46606 2.86912,15.89346 1.33277,-0.48578 3.81974,0.31831 3.72762,-1.75985 0.31113,-2.04465 1.78803,-4.1526 0.49076,-6.10991 -5.84663,-15.91099 -12.49521,-31.50452 -18.67727,-47.28545 1.46664,-1.5227 1.95182,0.55373 2.52715,1.79013 3.59614,7.16889 5.94499,14.8795 8.94119,22.3145 3.04076,8.06174 6.23874,16.0778 9.89911,23.87776 5.63266,-3.27698 0.9747,-9.14534 0.1793,-13.91296 -2.63232,-8.71978 -6.19118,-17.13227 -9.24158,-25.71338 -0.90542,-1.525 -2.88443,-2.24054 -4.2015,-3.45516 -1.93932,-1.43019 -3.92746,-2.87944 -5.83856,-4.29686 1.58907,-3.00021 5.11574,2.2742 7.55342,2.53481 4.19252,4.41769 5.22521,-2.37225 8.94508,-3.15257 1.04282,3.82806 -6.02843,6.92596 -2.2632,11.34671 2.71347,9.25681 5.14803,18.60721 8.7419,27.57377 0.5952,1.6161 1.1962,3.23006 1.78789,4.84745 -1.21573,1.74753 0.51553,9.22614 2.99399,7.29785 0.84965,-4.03697 3.43147,-8.03273 1.23847,-12.11324 -3.21853,-12.30142 -7.63724,-24.25084 -11.35651,-36.40688 0.049,-4.4306 2.81663,1.88839 3.12542,3.7929 4.27589,11.61233 8.90184,23.11794 12.68152,34.90001 -0.80336,3.46087 -0.77795,10.78032 3.73741,6.64429 0.20244,-4.62065 0.56314,-9.35254 -1.35906,-13.70386 -3.90932,-10.40384 -7.01675,-21.11233 -10.49496,-31.67366 -1.98672,2.16113 -5.72327,0.0913 -6.30356,-2.29528 0.66702,-5.24778 -3.66571,-5.10094 -7.57901,-4.76428 -1.71179,-0.1667 2.9875,-2.61922 3.53861,-3.5109 2.11388,-1.16217 6.61945,-4.71824 2.27477,-5.67215 -1.38796,-0.63755 -2.7687,-1.2909 -4.16236,-1.91595 2.07322,-3.5682 4.22126,-7.07068 6.96808,-10.1762 1.69222,-3.08497 0.40656,-8.61976 -2.87615,-10.50083 -2.38127,-1.30839 -2.11317,-4.32494 -3.05496,-6.56025 -1.24267,-1.3164 0.004,-3.85264 0.99494,-1.94438 0.61884,2.12655 1.23768,4.2531 1.85652,6.37965 3.58559,1.92392 5.24986,5.08135 5.16684,9.06185 1.63554,3.71536 -2.67452,5.96899 -4.26431,8.78132 -0.94731,1.37752 -1.74678,2.86188 -2.63911,4.27932 1.99617,0.94066 4.03457,1.79602 6.00252,2.79362 0.41304,3.75142 -6.06153,6.23183 -5.58725,7.51258 6.28426,-1.68652 2.4695,7.07183 7.21287,7.78966 1.61197,-0.0157 3.01361,-1.61894 4.53936,-2.2854 2.72198,0.5145 -1.14216,1.78262 -0.50159,2.99898 5.07202,13.79161 10.2807,27.59464 15.10003,41.44224 -0.45956,5.01024 4.31355,5.66422 7.28608,7.73908 0.4119,2.671 1.68966,7.74352 4.50775,6.65421 0.12098,-7.14541 0.5689,-14.33236 0.58872,-21.45286 0.40794,-2.43937 -3.73655,-8.35075 -0.33977,-8.64513 1.90732,5.58732 4.43193,11.03454 5.74145,16.78543 0.92258,3.73559 -0.91598,9.80411 4.44178,10.35978 2.3643,0.96137 0.53442,-7.62445 3.06762,-5.287 1.39681,1.10739 2.79362,2.21477 4.19043,3.32215 5.66994,0.13606 1.45423,-6.081 1.54782,-9.24915 -1.78358,-4.43339 -3.4758,-8.92085 -5.24749,-13.3641 2.63974,-1.09222 -1.41814,0.38651 -0.65366,-2.44469 -0.60948,-4.3838 -3.45003,-7.68082 -5.99316,-11.10805 -1.07847,-2.32265 -1.00617,-5.07391 -3.02064,-1.77507 -2.39681,1.98486 -1.34099,5.25886 0.34087,7.3516 2.73398,4.2326 2.46365,9.82576 5.87853,13.65239 1.50197,2.46528 3.51729,4.95163 2.99505,8.00959 0.13374,1.408 0.24528,4.2066 -1.51007,2.85148 -0.2345,-2.38874 0.6416,-4.97246 -0.83678,-6.87057 -1.81025,-3.55953 -4.40831,-5.78084 -5.12799,-9.77994 -0.78485,-4.02087 -3.0273,-7.45789 -4.71896,-11.09899 0.37897,-0.8838 -5.64097,0.48496 -5.17399,-1.39681 1.66509,-0.23367 1.36994,-0.96729 4.19245,-0.33977 2.13661,-1.80673 2.1159,-5.2101 0.67953,-7.47482 -2.83527,-6.3535 -7.20225,-11.92302 -10.38171,-18.08306 -0.80184,-4.02033 0.79538,-8.96997 -3.05997,-11.77136 -3.98384,-3.87932 -5.99965,-9.11188 -8.22778,-14.08854 -2.55964,-3.56728 -6.72696,-5.66891 -9.70218,-8.9094 -1.61992,0.51293 -7.72702,0.70332 -4.69446,-1.12577 4.17897,-1.67149 7.05428,0.71333 9.71542,3.54189 3.03252,2.35762 6.25304,4.79596 7.26917,8.66804 1.89126,4.5209 4.35313,8.70299 7.85671,12.17182 3.08692,2.89844 1.49266,7.53168 2.3154,11.24906 3.79955,6.89214 8.88203,13.18396 11.43876,20.68792 -0.55245,3.28194 0.90672,-1.05026 2.46544,-0.6677 -0.14785,-3.71652 1.14643,-8.7415 -1.25738,-12.20563 -2.50979,-4.66598 -5.43215,-9.16441 -7.70135,-13.93037 -1.57923,-3.40174 -3.51201,-7.65613 -5.27241,-11.36865 -1.84798,-4.29035 -4.53308,-8.1414 -7.07239,-12.03738 2.53116,-2.64763 3.84966,4.97905 5.81376,6.30452 4.42107,7.82011 7.20325,16.45914 12.03617,24.05898 1.41008,3.33629 4.39919,6.26266 5.03108,9.81531 0.48592,2.12414 -0.8429,9.00393 0.88103,8.43342 0.86085,-1.65814 1.73668,-3.30862 2.58863,-4.97129 1.37754,-0.65314 4.10372,-0.23674 4.43488,-1.74463 0.47725,-4.6365 -4.19187,-8.01182 -4.66138,-12.56326 -1.31948,-6.20833 -3.80772,-12.07962 -6.89496,-17.6032 -3.31308,-7.27311 -8.17615,-13.73318 -10.79808,-21.32546 -0.69402,-4.4288 2.89757,1.22532 2.97277,3.29266 2.5497,5.80173 6.27291,11.0138 8.90651,16.79791 2.50915,4.70525 4.90831,9.45033 6.2874,14.6318 0.94422,4.87234 2.95457,9.37656 5.49112,13.64421 0.43579,1.94718 -0.0574,3.46454 1.60258,3.64146 0.76708,1.78928 -2.95933,0.88378 -1.4862,3.6248 0.42425,1.7162 -0.44538,8.19866 -1.73133,4.50955 0.11292,-3.04231 1.54673,-7.98959 -2.79919,-5.65988 -1.15766,1.00275 -1.60016,2.91565 -2.48943,4.25996 -0.73226,1.82781 -3.46861,1.69885 -1.60547,4.29263 2.43695,3.6297 5.68041,6.85996 6.31785,11.37894 0.51686,4.02986 3.864,6.75932 5.88921,10.24139 2.19599,2.25613 4.77075,9.16448 6.97335,7.92432 0.98433,-4.2898 -2.78329,-7.15231 -4.1611,-10.87933 -2.94704,-6.30426 -5.62122,-12.73584 -8.4356,-19.10146 2.28741,1.64993 5.20211,2.61113 6.50623,5.31838 5.2362,6.97458 10.38439,14.02018 15.76726,20.88128 5.63884,2.70803 2.17597,-4.32074 0.45302,-6.53104 -4.30045,-8.6788 -10.18808,-16.44246 -15.26896,-24.67393 -1.10365,-1.12566 -4.63293,-6.60204 -1.33725,-4.91613 5.79966,7.15782 11.59933,14.31564 17.39899,21.47346 1.95984,1.33874 5.49844,2.45392 4.32102,-0.8802 -4.97378,-9.08246 -11.30608,-17.32881 -16.84392,-26.07518 -5.7898,-8.23609 -10.70824,-17.04012 -15.90412,-25.67047 2.73416,-2.21257 6.32207,3.34253 9.36933,4.06903 4.87413,2.66222 9.21848,6.06288 13.209,9.90635 6.72529,5.84789 13.1901,12.03643 20.17848,17.55802 3.48299,1.9076 6.19871,5.24001 9.94454,6.48254 0.0622,-1.25813 -3.83022,-5.98323 -2.19491,-5.95272 3.92553,1.10587 7.63678,2.73601 11.26289,4.54897 2.42968,1.19595 10.03111,4.05538 6.22145,-0.8991 -1.21162,-2.47861 -6.98592,-3.82071 -6.04336,-6.51001 1.07205,-0.57654 2.81206,1.23414 4.14123,1.57602 3.05039,1.83382 6.47963,2.66569 9.98099,3.15966 5.11809,-0.22913 1.90218,-5.55919 -1.55468,-5.59407 -7.93371,-4.22616 -15.80535,-8.57697 -23.7012,-12.8665 1.63715,-3.31554 6.99262,1.94846 10.0797,1.77433 1.804,-0.56748 8.43057,0.79488 6.11129,-2.33313 -0.98114,-1.202 -3.01031,-1.24215 -4.41555,-1.97398 -10.81852,-3.91853 -21.65784,-7.7885 -32.46335,-11.73736 -4.61039,-3.10534 -9.29713,-6.11583 -13.93037,-9.17365 0.70835,-2.83897 5.35352,0.81885 7.66358,0.52853 4.04742,1.0575 8.1157,1.93084 12.32048,1.88004 2.70055,0.0744 8.36336,0.76104 9.346,0.31168 -1.7885,-0.96538 -9.6789,-3.249 -5.17453,-4.47968 2.25972,-0.13924 9.3609,-0.28182 3.30708,-0.50718 -4.29441,-0.44604 -8.78147,-0.29269 -12.92822,-1.43305 0.53027,-1.53422 2.6763,-0.95624 5.47783,-0.65839 3.05863,1.04852 9.2547,-0.74818 10.45043,1.81771 3.03584,0.97187 8.36827,-0.27645 12.2757,-0.0401 5.40679,-0.47535 11.35487,0.27072 16.41995,-1.06449 1.7663,-2.75099 7.04792,-3.64319 6.95109,-7.21318 -0.35231,-3.31298 -0.39073,-6.72787 -0.93521,-9.97846 -1.1248,-1.22839 -1.36303,-3.72554 -3.26839,-3.83686 -5.10567,-0.8378 -9.98826,-2.24126 -14.82945,-3.98015 -10.07573,-0.24571 -20.19206,-0.15505 -30.23909,-0.75503 -3.25619,-0.21193 -7.13196,2.73655 -10.87249,2.52936 -5.77872,0.58079 -11.68142,0.10356 -17.28623,1.8902 -2.16094,1.67543 -5.16574,-0.74169 -1.70286,-1.17291 4.32911,-1.14582 8.70914,-1.92965 13.20225,-1.86148 4.56814,-0.146 9.16132,-0.48697 13.39629,-2.35735 2.59687,-1.76158 3.17142,1.231 3.68011,-2.03563 2.37595,-0.90083 9.98185,-0.26322 8.19031,-2.7682 -9.3845,0.31849 -18.77472,0.43197 -28.16275,0.60403 -3.37648,-0.33399 -7.68242,1.75256 -11.02349,3.3599 -3.91563,1.58338 -0.68511,-2.38626 1.73657,-2.49161 4.15643,-2.46477 9.32748,-1.85365 13.3641,-4.53021 6.30905,-2.9399 12.23723,-6.6604 18.38507,-9.89094 1.59717,-1.41354 6.042,-3.61694 1.33927,-4.07426 -3.68957,-0.85079 -7.63403,1.27453 -11.45672,1.31839 -5.04071,0.89046 0.006,-3.50246 1.90077,-4.34905 5.88695,-3.0265 11.6472,-6.33604 17.27707,-9.84558 1.78624,-1.36318 7.05748,-2.29297 5.36074,-4.56796 -4.77266,1.594 -9.49748,3.8753 -14.38338,5.20974 -1.65205,0.39384 -9.14776,1.32027 -5.4455,-1.60201 7.19617,-4.75261 14.27923,-9.68001 21.41445,-14.51796 2.37717,-3.19311 0.65502,-3.275 -2.19777,-1.97133 -3.30405,1.00573 -5.76658,3.707 -8.84409,5.27772 -1.05644,1.85192 -6.97706,3.42007 -3.83346,0.21148 3.18742,-2.76993 6.30149,-5.63275 9.62784,-8.23682 1.6813,-2.34089 3.40552,-7.91563 -1.16154,-5.289 -2.94318,1.54993 -6.72823,1.78092 -8.77937,4.64365 -3.624,3.76716 -7.3168,7.50743 -10.89801,11.29132 -2.61808,-2.45501 4.15352,-5.16252 4.98775,-7.76226 2.9414,-3.36843 6.03854,-6.64355 8.67835,-10.24529 0.55815,-2.95355 0.68742,-5.03312 -2.31029,-2.97512 -1.45724,0.62677 -2.9145,1.25355 -4.37175,1.88032 0.43837,3.04664 -6.02735,6.22833 -8.07886,9.24916 -3.47268,2.9642 -8.19481,4.2094 -11.25,7.7391 -2.44131,-2.6062 4.2756,-4.58495 6.00251,-6.11578 4.88339,-2.37614 8.18682,-6.85147 12.1183,-10.45722 -4.30235,0.87276 -9.25925,0.6952 -11.77853,4.98323 -6.51355,6.19135 -12.85206,12.60055 -19.51762,18.61158 -8.12691,5.63521 -16.38613,11.15761 -24.72734,16.42198 -3.8149,1.53648 -9.23677,0.27371 -11.04372,4.87451 -3.18667,4.48212 -6.96099,8.4918 -10.51249,12.68001 3.818,-0.84073 7.44358,0.0317 10.89144,1.72434 3.31393,1.1595 6.13053,3.45069 9.30571,4.88221 -0.70825,3.15491 -5.06049,5.54646 -8.48658,4.96767 -2.15254,-0.0587 -4.09318,-1.51381 -6.16108,-2.13629 0.20477,-2.48216 2.31005,-0.47932 3.71538,-0.12828 2.7595,1.49418 6.50305,0.91183 8.53625,-1.5366 -1.06092,-2.17854 -6.69065,-4.3787 -9.95827,-5.5958 -2.9655,-1.78209 -6.36351,-0.55572 -9.57943,-0.51617 -3.8041,0.86345 1.06221,-2.50626 1.62415,-3.82266 4.2101,-4.73159 8.23842,-9.6106 11.89095,-14.78892 -0.2653,-3.82229 3.97331,-6.52277 5.38377,-10.04946 4.15326,-6.11995 6.29682,-13.33301 9.48186,-19.98289 1.35549,-2.77412 0.65633,-6.01482 1.00893,-9.01666 -0.10128,-1.62883 0.47596,-3.40409 -0.0943,-4.93169 -2.95572,5.43789 -5.99581,10.87079 -8.83388,16.34647 -3.49728,0.20199 -0.36053,-5.34049 0.64766,-6.77966 2.68786,-5.43256 5.71966,-10.77271 8.23229,-16.24672 0.0727,-2.29099 0.14547,-4.58197 0.2182,-6.87295 -2.26397,-1.96845 -3.40468,4.74713 -5.20249,6.32069 -3.93474,6.55142 -7.56864,13.3207 -11.67078,19.74918 -0.40252,2.17362 -4.74801,3.75287 -3.00576,0.67414 5.86215,-10.78337 11.88098,-21.52749 17.89414,-32.19771 2.41629,-4.28472 1.64057,-9.28755 1.98489,-13.98841 -2.31669,-3.66067 -3.93369,1.97039 -5.78951,3.42476 -2.3743,2.94904 -3.24784,6.82182 -5.07182,10.13406 -2.95928,6.42645 -6.02754,12.81179 -9.03381,19.20964 -3.36349,-1.38581 1.94065,-6.409 1.98533,-9.234 2.88365,-7.45111 5.75303,-14.90773 8.6229,-22.36416 -1.43802,-2.99064 -4.66666,4.90082 -6.19128,6.71981 -2.73838,6.11861 -5.91745,12.03003 -8.94714,18.00755 -3.23935,-1.41178 1.97617,-6.38644 1.83493,-9.0948 1.56832,-4.52884 3.63227,-9.0144 5.14913,-13.48071 -0.22801,-1.68596 2.16079,-6.06851 0.0378,-6.15353 z m 20.76342,81.24161 c 0.74551,2.97899 -3.74215,4.3367 -5.58725,6.6443 -2.31964,0.86573 -10.6137,2.9014 -7.0435,4.76661 2.35975,-1.25037 4.7249,-2.49059 7.08126,-3.74731 3.01518,2.86191 7.57722,5.92516 7.22078,10.29584 -2.86561,0.7187 -1.6425,-5.61535 -5.05376,-6.20448 -1.57256,-2.72 -3.56171,-2.02565 -5.6789,-0.52886 -1.68285,0.90697 -3.40046,1.75108 -5.05776,2.70427 -2.81655,-3.84661 0.305,-6.95518 4.35729,-7.41415 4.01893,-0.62733 6.35935,-4.09029 9.38432,-6.40296 l 0.0832,-0.0685 0.29436,-0.0448 z m 21.36745,8.30537 c 0.27878,3.36211 -5.63389,1.89581 -7.22766,4.7321 -2.57917,1.24709 -5.18817,5.07816 -7.49148,5.04559 -2.54304,-0.49554 3.05608,-2.95191 3.94804,-4.33485 3.22294,-2.58343 6.51302,-4.96366 10.7711,-5.44284 z m 27.40772,13.13759 c -0.65386,0.62554 -0.19505,0.50096 0,0 z m -77.4287,3.2844 c 3.50348,1.31782 7.23714,2.15527 10.20366,4.57683 3.83268,1.35604 4.01408,5.73939 5.12644,9.049 0.10752,2.13195 -1.73504,8.91644 -3.66842,7.46492 0.78094,-3.12728 3.555,-6.9809 1.21165,-10.55804 -0.30899,-3.93217 -4.39143,-5.02491 -7.15572,-6.92071 -2.08205,-0.7384 -4.16409,-1.4768 -6.24612,-2.21519 0.17617,-0.4656 0.35234,-0.93121 0.52851,-1.39681 z m 98.68289,0.37752 c 7.11677,0.29149 14.29303,0.6025 21.36745,1.28355 0.78838,0.83321 -1.4215,0.88335 -1.0948,1.32131 -9.16496,-0.41735 -18.32889,-1.53152 -27.50372,-0.77188 -4.29564,-0.5523 -8.0474,2.72907 -12.39758,1.80279 -2.31838,0.45375 -7.65566,-0.78437 -4.0039,-1.7482 4.16668,0.46686 8.4088,0.51765 12.29644,-1.2689 3.68346,-0.67061 7.58498,-0.22251 11.33611,-0.61867 z m -10.94798,5.96475 c 7.35216,1.04682 14.73663,1.699 22.16852,1.60967 4.68317,0.26201 10.1613,-0.20652 14.36855,0.5401 -0.69922,3.11835 -7.23908,0.11016 -10.03346,1.04163 -8.25398,-0.0982 -16.52442,-0.097 -24.69154,-1.45482 -1.58064,0.0446 -2.07054,-0.20426 -1.81207,-1.73658 z m 7.9656,8.22987 c 3.02521,3.15153 7.35573,3.71875 11.7099,3.01153 5.1227,-0.33161 10.37142,1.05589 15.3405,-0.85167 4.32068,-0.40191 -0.31488,2.4317 -2.577,2.14994 -5.02115,1.05404 -10.15279,-0.33965 -15.22425,0.2959 -4.05136,1.43346 -7.37107,-1.98184 -10.27946,-2.74196 -2.17542,1.2851 -4.5651,1.56401 -7.02244,1.3829 -3.5322,0 -7.06438,0 -10.59658,0 -0.71523,-2.355 1.9981,-1.28146 3.40928,-1.51006 3.53062,-0.0254 7.07372,0.0506 10.59659,-0.0378 1.53039,-0.59867 3.0186,-1.39005 4.64346,-1.69883 z m -144.32466,4.79446 c 3.67928,1.51457 -2.9904,5.15769 -1.90409,7.55348 0.16388,2.51331 0.4603,4.29902 1.63982,0.8274 0.53986,-1.62376 1.03916,-3.26126 1.62333,-4.86996 1.48692,2.45308 3.44191,3.82588 6.26677,3.85066 1.20744,2.07116 1.78537,6.76458 3.05684,2.42859 1.16367,-2.23806 2.06294,-4.82358 3.73847,-6.65677 2.72351,1.55558 -0.37707,7.09326 0.41526,9.92869 -0.22401,4.469 0.72574,8.94145 0.0931,13.42142 0.39095,2.66722 -2.24028,9.45559 2.50102,6.21898 1.63673,-0.77854 1.85142,-3.08535 2.85453,-4.54481 1.81552,-3.51314 1.14461,-7.79263 2.32817,-11.50919 3.51816,-0.90191 0.32389,9.77439 3.71815,6.38729 0.98974,-3.61279 -1.68708,-6.65624 -1.98158,-10.65323 0,-2.36577 0,-4.73154 0,-7.09731 2.355,-0.71523 1.28147,1.9981 1.51007,3.40928 -0.17339,2.84474 0.12539,5.67318 1.35906,8.29374 3.8784,2.09333 3.25544,-5.11918 6.34229,-6.56879 3.36037,-1.34311 1.47286,-8.35097 4.86996,-7.58809 -0.31599,4.31884 -2.72108,7.89122 -5.70051,10.83473 -1.22071,2.05819 -1.78883,7.02435 -5.28523,5.02098 2.53637,2.60108 -0.34252,8.05769 -3.47315,7.13507 -0.69223,-2.31182 -0.74754,-5.01862 -1.11638,-1.06607 -0.10944,3.29753 -2.41522,5.90707 -3.60258,8.88066 -2.8507,1.56534 -7.97707,3.28034 -6.10248,-2.02287 0.34767,-5.68184 0.76008,-11.36896 0.0622,-17.04172 -0.0664,-1.86356 0.94869,-7.72458 0.0234,-6.57208 -1.30993,2.6505 -2.56264,5.34877 -3.87402,8.00664 -1.62262,-2.42837 -0.97681,-8.16132 -4.82031,-7.58018 -2.13136,-0.42347 -2.88422,-2.96762 -3.40956,0.48286 -0.94381,1.02021 -2.1164,6.72374 -3.81291,4.15269 -0.41355,-3.13798 -0.154,-8.01069 -3.73743,-4.19044 -0.65845,-2.55029 -1.28138,-5.10961 -1.92532,-7.66359 2.11224,-1.28182 1.73787,1.60915 2.29918,2.92996 -0.12132,4.33575 4.51606,0.11028 5.06238,-2.13717 0.32468,-0.66819 0.65202,-1.33505 0.98156,-2.00085 z m 59.19463,19.1401 c 4.02374,8.1544 8.2889,16.21439 12.60906,24.23658 2.33309,5.6925 5.15153,11.25157 6.13453,17.37833 -0.92243,2.90893 5.93549,6.8558 2.5861,7.61328 -3.69813,-2.88988 -4.07928,-7.48044 -5.09647,-11.70301 -2.41568,-7.5338 -5.89823,-14.71592 -9.76394,-21.62175 -2.78722,-4.95751 -5.15442,-10.11065 -7.75284,-15.14839 0.42785,-0.25168 0.85571,-0.50336 1.28356,-0.75504 z m -8.22986,8.9094 c 3.84702,0.44077 -3.49563,4.44302 1.28882,4.8938 2.47792,0.40626 1.8388,3.90954 4.08406,4.49866 5.65135,0.32291 -0.61187,8.36255 5.19758,7.18052 2.78824,2.1949 -0.14302,7.87622 4.22819,9.32468 3.63291,1.74649 2.60311,6.05233 4.30117,9.03622 0.40375,2.28737 1.71312,1.94252 3.29197,0.81443 1.17478,-0.77809 3.52461,-1.9908 3.08221,0.15695 -2.04812,1.01867 -4.0985,2.03284 -6.14515,3.05447 -1.63104,-3.16026 -3.08372,-6.41771 -3.43541,-10.0042 -3.19916,-2.40642 -6.09782,-5.08319 -5.59653,-9.47961 0.76019,-3.37148 -5.66261,0.0625 -3.96705,-4.18127 2.22524,-4.31247 -2.75487,-3.75765 -3.7829,-6.65205 -0.28428,-2.90325 -4.63856,-2.42919 -4.88758,-4.98069 0.71598,-1.26091 1.61854,-2.40397 2.34062,-3.66191 z m -23.06628,41.6401 c -0.63154,1.87747 -6.67324,7.51594 -2.20592,3.95262 2.31076,-1.39798 2.64065,-0.48884 2.2229,-3.58764 l -0.0122,-0.26196 -0.005,-0.10296 z m -0.90604,13.40185 c 4.36652,0.74354 -5.42953,4.94583 -3.32596,5.05151 1.28176,-0.93062 4.02035,-0.8117 2.59814,0.80324 -2.12316,0.65328 -4.24634,1.30656 -6.3695,1.95984 -1.58226,-3.3902 5.37479,-5.08166 7.02182,-7.73909 l 0.0755,-0.0755 z m 0.45301,14.45889 c 3.58481,0.11124 -1.96338,3.73326 -2.98238,5.28524 -3.91101,3.17942 4.65054,-3.15238 3.96393,-0.008 -1.63808,1.14954 -7.58482,4.89044 -9.63964,2.8199 2.57162,-2.92696 6.25804,-4.83775 8.65809,-8.0971 z m -21.51845,12.94882 c -0.19873,2.75896 -0.72553,6.22776 1.92839,2.79722 2.95251,-1.81219 -0.30942,-1.73127 -1.92839,-2.79722 z m -1.28356,33.41024 c -0.0644,2.592 -1.04336,6.71614 2.37836,3.47315 2.53364,-1.10161 4.42972,-3.09096 0.35446,-3.05637 -0.9093,-0.14782 -1.82402,-0.27551 -2.73282,-0.41678 z m -0.64178,28.31375 c 2.27783,1.38928 8.09646,1.73676 7.94901,4.33206 -1.63067,-0.25358 -7.66146,-1.64375 -7.94901,-3.60875 0,-0.2411 0,-0.4822 0,-0.72331 z m -10.38171,95.39849 c -8.91683,0.2456 -17.86371,-0.0426 -26.76594,0.26426 -3.84689,2.45204 -8.29276,4.06288 -11.30219,7.61074 -2.27708,3.20074 3.82447,5.94217 6.96074,5.22484 1.58109,1.05015 7.22638,-1.0045 6.26679,1.96309 -1.47743,4.28462 -6.29609,5.03754 -9.47567,7.62583 -1.96139,4.07348 2.69322,9.13348 6.19127,5.24749 2.07323,-1.96925 3.86216,-2.19566 5.33088,0.2344 2.42711,1.90302 -1.70045,7.02625 3.61627,6.74966 3.47333,-1.74955 6.57264,-4.80552 9.83485,-7.12207 2.16457,-2.76722 5.66789,-5.84399 7.04015,-0.61703 3.17855,2.71848 7.16562,2.04316 10.96386,1.79205 4.66528,-0.15954 9.80168,-0.7858 12.48292,-5.18087 4.36087,-2.08342 8.5183,2.17076 10.71729,5.58471 2.94423,1.93378 7.85404,2.18922 6.35309,-2.70939 -1.15654,-3.20559 -0.15619,-6.59479 3.69698,-4.52931 4.2209,0.80591 7.49627,4.00286 11.54508,5.11832 -0.24507,-3.07778 -0.28732,-8.87471 3.98481,-4.93581 3.60177,2.6095 7.36388,5.14044 11.71989,6.29487 0.15543,-1.81826 -0.32391,-3.80708 0.26427,-5.51175 2.79947,-2.87771 8.40081,5.56435 7.17282,-0.86828 0.58334,-2.20804 -2.44068,-7.09005 0.64177,-6.75756 4.255,1.7948 8.74501,3.03549 13.2886,3.85068 -3.00795,-5.00196 -8.3784,-7.74941 -12.94883,-11.09899 -4.4131,-1.83694 -9.07732,-3.29366 -13.9054,-3.20228 -5.21036,-0.47502 -10.54825,-0.25782 -15.68964,-1.02072 -2.20179,-1.59985 -1.83875,-0.17146 -1.43684,0.29681 -3.07378,4.40562 -8.56536,3.55245 -13.21515,4.38425 -6.49651,0.62096 -13.05968,1.27061 -19.21354,3.58136 -4.25307,0.55334 -8.01579,-3.19867 -11.09456,-5.81524 -1.35295,-1.87457 -1.99384,-4.33738 -3.02457,-6.45406 z"/>
  </g>

	<metadata>
		<rdf:RDF xmlns:rdf="http://www.w3.org/1999/02/22-rdf-syntax-ns#" xmlns:rdfs="http://www.w3.org/2000/01/rdf-schema#" xmlns:dc="http://purl.org/dc/elements/1.1/">
			<rdf:Description about="https://iconscout.com/legal#licenses" dc:title="south_carolina" dc:description="south_carolina" dc:publisher="Iconscout" dc:date="2017-05-28" dc:format="image/svg+xml" dc:language="en">
				<dc:creator>
					<rdf:Bag>
						<rdf:li>Vignesh Oviyan</rdf:li>
					</rdf:Bag>
				</dc:creator>
			</rdf:Description>
		</rdf:RDF>
    </metadata></svg>
