<?xml version="1.0" encoding="UTF-8" standalone="no"?>
<svg xmlns:dc="http://purl.org/dc/elements/1.1/" xmlns:cc="http://creativecommons.org/ns#" xmlns:rdf="http://www.w3.org/1999/02/22-rdf-syntax-ns#" xmlns:svg="http://www.w3.org/2000/svg" xmlns="http://www.w3.org/2000/svg" xmlns:xlink="http://www.w3.org/1999/xlink" xmlns:sodipodi="http://sodipodi.sourceforge.net/DTD/sodipodi-0.dtd" xmlns:inkscape="http://www.inkscape.org/namespaces/inkscape" version="1.0" width="500" height="500" viewBox="0 0 240 240" id="svg2" inkscape:version="0.48.4 r9939" sodipodi:docname="tennessee.svg">
  
  <defs id="defs37">
    <clipPath clipPathUnits="userSpaceOnUse" id="clipPath3005">
      <rect style="fill:#808080;fill-opacity:1;stroke:none" id="rect3007" width="178.65776" height="178.65776" x="-84.120201" y="-90.370613" ry="19.456446"/>
    </clipPath>
    <clipPath clipPathUnits="userSpaceOnUse" id="clipPath3009">
      <rect style="fill:#808080;fill-opacity:1;stroke:none" id="rect3011" width="235.2" height="235.2" x="4.4571447" y="3.0857162" ry="25.61409"/>
    </clipPath>
    <clipPath clipPathUnits="userSpaceOnUse" id="clipPath3013">
      <rect style="fill:#808080;fill-opacity:1;stroke:none" id="rect3015" width="235.2" height="235.2" x="4.4571447" y="3.0857162" ry="25.61409"/>
    </clipPath>
    <clipPath clipPathUnits="userSpaceOnUse" id="clipPath3017">
      <rect style="fill:#808080;fill-opacity:1;stroke:none" id="rect3019" width="235.2" height="235.2" x="4.4571447" y="3.0857162" ry="25.61409"/>
    </clipPath>
  </defs>
  <sodipodi:namedview pagecolor="#ffffff" bordercolor="#666666" borderopacity="1" objecttolerance="10" gridtolerance="10" guidetolerance="10" inkscape:pageopacity="0" inkscape:pageshadow="2" inkscape:window-width="1366" inkscape:window-height="705" id="namedview35" showgrid="false" inkscape:zoom="0.35" inkscape:cx="-142.85714" inkscape:cy="150.59025" inkscape:window-x="0" inkscape:window-y="26" inkscape:window-maximized="1" inkscape:current-layer="svg2"/>
  <desc id="desc4">Flag of Tenessee, United States</desc>
  <rect width="222" height="240" id="rect6" x="0" y="2.1316282e-14" style="fill:#ca4638" clip-path="url(#clipPath3017)"/>
  <rect x="222" width="3" height="240" id="rect8" y="2.1316282e-14" style="fill:#ffffff" clip-path="url(#clipPath3013)"/>
  <rect x="225" width="15" height="240" id="rect10" y="2.1316282e-14" style="fill:#356ba0" clip-path="url(#clipPath3009)"/>
  <g transform="matrix(1.3164835,0,0,1.3164835,115.2,122.05714)" id="g12" clip-path="url(#clipPath3005)">
    <circle style="fill:#ffffff" sodipodi:ry="39" sodipodi:rx="39" sodipodi:cy="0" sodipodi:cx="0" cy="0" cx="0" r="39" id="circle14" d="M 39,0 C 39,21.539105 21.539105,39 0,39 -21.539105,39 -39,21.539105 -39,0 c 0,-21.539105 17.460895,-39 39,-39 21.539105,0 39,17.460895 39,39 z"/>
    <circle style="fill:#356ba0" sodipodi:ry="36" sodipodi:rx="36" sodipodi:cy="0" sodipodi:cx="0" cy="0" cx="0" r="36" id="circle16" d="M 36,0 C 36,19.882251 19.882251,36 0,36 -19.882251,36 -36,19.882251 -36,0 c 0,-19.882251 16.117749,-36 36,-36 19.882251,0 36,16.117749 36,36 z"/>
    <g style="fill:#ffffff" id="star" transform="matrix(0.95105652,0.30901699,-0.30901699,0.95105652,-5.7168144,17.594546)">
      <g id="c">
        <path inkscape:connector-curvature="0" id="t" d="M 0,-17 V 0 h 8.5" transform="matrix(0.95105652,0.30901699,-0.30901699,0.95105652,-5.2532889,-0.83203922)"/>
        <use height="1052.3622" width="744.09448" y="0" x="0" xlink:href="#t" transform="scale(-1,1)" id="use21"/>
      </g>
      <use height="1052.3622" width="744.09448" y="0" x="0" xlink:href="#c" transform="matrix(0.30901699,0.95105652,-0.95105652,0.30901699,0,0)" id="use23"/>
      <use height="1052.3622" width="744.09448" y="0" x="0" xlink:href="#c" transform="matrix(-0.80901699,0.58778525,-0.58778525,-0.80901699,0,0)" id="use25"/>
      <use height="1052.3622" width="744.09448" y="0" x="0" xlink:href="#c" transform="matrix(-0.80901699,-0.58778525,0.58778525,-0.80901699,0,0)" id="use27"/>
      <use height="1052.3622" width="744.09448" y="0" x="0" xlink:href="#c" transform="matrix(0.30901699,-0.95105652,0.95105652,0.30901699,0,0)" id="use29"/>
    </g>
    <use height="1052.3622" width="744.09448" y="0" x="0" xlink:href="#star" transform="matrix(-0.5,0.8660254,-0.8660254,-0.5,0,0)" id="use31"/>
    <use height="1052.3622" width="744.09448" y="0" x="0" xlink:href="#star" transform="matrix(-0.5,-0.8660254,0.8660254,-0.5,0,0)" id="use33"/>
  </g>

	<metadata>
		<rdf:RDF xmlns:rdf="http://www.w3.org/1999/02/22-rdf-syntax-ns#" xmlns:rdfs="http://www.w3.org/2000/01/rdf-schema#" xmlns:dc="http://purl.org/dc/elements/1.1/">
			<rdf:Description about="https://iconscout.com/legal#licenses" dc:title="tennessee" dc:description="tennessee" dc:publisher="Iconscout" dc:date="2017-05-28" dc:format="image/svg+xml" dc:language="en">
				<dc:creator>
					<rdf:Bag>
						<rdf:li>Vignesh Oviyan</rdf:li>
					</rdf:Bag>
				</dc:creator>
			</rdf:Description>
		</rdf:RDF>
    </metadata></svg>
