<?xml version="1.0" encoding="UTF-8" standalone="no"?>
<svg xmlns:dc="http://purl.org/dc/elements/1.1/" xmlns:cc="http://creativecommons.org/ns#" xmlns:rdf="http://www.w3.org/1999/02/22-rdf-syntax-ns#" xmlns:svg="http://www.w3.org/2000/svg" xmlns="http://www.w3.org/2000/svg" xmlns:xlink="http://www.w3.org/1999/xlink" xmlns:sodipodi="http://sodipodi.sourceforge.net/DTD/sodipodi-0.dtd" xmlns:inkscape="http://www.inkscape.org/namespaces/inkscape" version="1.0" width="500" height="500" id="svg2" inkscape:version="0.48.4 r9939" sodipodi:docname="texas.svg">
  
  <defs id="defs26">
    <clipPath clipPathUnits="userSpaceOnUse" id="clipPath2999">
      <rect style="fill:#808080;fill-opacity:1;stroke:none" id="rect3001" width="957.60034" height="957.60034" x="-154.72749" y="-478.89917" ry="104.28597"/>
    </clipPath>
    <clipPath clipPathUnits="userSpaceOnUse" id="clipPath3003">
      <rect style="fill:#808080;fill-opacity:1;stroke:none" id="rect3005" width="490" height="490" x="3.7399585" y="4.0780988" ry="53.362686"/>
    </clipPath>
    <clipPath clipPathUnits="userSpaceOnUse" id="clipPath3007">
      <rect style="fill:#808080;fill-opacity:1;stroke:none" id="rect3009" width="490" height="490" x="3.7399585" y="4.0780988" ry="53.362686"/>
    </clipPath>
    <clipPath clipPathUnits="userSpaceOnUse" id="clipPath3011">
      <rect style="fill:#808080;fill-opacity:1;stroke:none" id="rect3013" width="490" height="490" x="3.7399585" y="4.0780988" ry="53.362686"/>
    </clipPath>
  </defs>
  <sodipodi:namedview pagecolor="#ffffff" bordercolor="#666666" borderopacity="1" objecttolerance="10" gridtolerance="10" guidetolerance="10" inkscape:pageopacity="0" inkscape:pageshadow="2" inkscape:window-width="1366" inkscape:window-height="705" id="namedview24" showgrid="false" inkscape:zoom="0.45830994" inkscape:cx="540" inkscape:cy="71.948202" inkscape:window-x="0" inkscape:window-y="26" inkscape:window-maximized="1" inkscape:current-layer="svg2" showguides="true" inkscape:guide-bbox="true"/>
  <rect width="500" height="500" id="rect4" x="0" y="-2.8421709e-14" style="fill:#ffffff" clip-path="url(#clipPath3011)"/>
  <rect y="250" width="500" height="250" id="rect6" style="fill:#ca4638" x="0" clip-path="url(#clipPath3007)"/>
  <rect width="166.66667" height="500" id="rect8" style="fill:#356ba0" x="0" y="-2.8421709e-14" clip-path="url(#clipPath3003)"/>
  <g transform="matrix(0.51169574,0,0,0.51169574,82.913361,249.12877)" id="g10" style="fill:#ffffff" clip-path="url(#clipPath2999)">
    <g id="c">
      <path id="t" d="M 0,-135 V 0 h 67.5" transform="matrix(0.95105652,0.30901699,-0.30901699,0.95105652,-41.717294,-6.6073703)" inkscape:connector-curvature="0"/>
      <use xlink:href="#t" transform="scale(-1,1)" id="use14" x="0" y="0" width="1080" height="720"/>
    </g>
    <use xlink:href="#c" transform="matrix(0.30901699,0.95105652,-0.95105652,0.30901699,0,0)" id="use16" x="0" y="0" width="1080" height="720"/>
    <use xlink:href="#c" transform="matrix(-0.80901699,0.58778525,-0.58778525,-0.80901699,0,0)" id="use18" x="0" y="0" width="1080" height="720"/>
    <use xlink:href="#c" transform="matrix(-0.80901699,-0.58778525,0.58778525,-0.80901699,0,0)" id="use20" x="0" y="0" width="1080" height="720"/>
    <use xlink:href="#c" transform="matrix(0.30901699,-0.95105652,0.95105652,0.30901699,0,0)" id="use22" x="0" y="0" width="1080" height="720"/>
  </g>

	<metadata>
		<rdf:RDF xmlns:rdf="http://www.w3.org/1999/02/22-rdf-syntax-ns#" xmlns:rdfs="http://www.w3.org/2000/01/rdf-schema#" xmlns:dc="http://purl.org/dc/elements/1.1/">
			<rdf:Description about="https://iconscout.com/legal#licenses" dc:title="texas" dc:description="texas" dc:publisher="Iconscout" dc:date="2017-05-28" dc:format="image/svg+xml" dc:language="en">
				<dc:creator>
					<rdf:Bag>
						<rdf:li>Vignesh Oviyan</rdf:li>
					</rdf:Bag>
				</dc:creator>
			</rdf:Description>
		</rdf:RDF>
    </metadata></svg>
