<?xml version="1.0" encoding="UTF-8" standalone="no"?>
<svg xmlns:dc="http://purl.org/dc/elements/1.1/" xmlns:cc="http://creativecommons.org/ns#" xmlns:rdf="http://www.w3.org/1999/02/22-rdf-syntax-ns#" xmlns:svg="http://www.w3.org/2000/svg" xmlns="http://www.w3.org/2000/svg" xmlns:sodipodi="http://sodipodi.sourceforge.net/DTD/sodipodi-0.dtd" xmlns:inkscape="http://www.inkscape.org/namespaces/inkscape" width="500" height="500" style="fill-rule:evenodd" viewBox="0 0 1500 1500" id="svg2" version="1.1" inkscape:version="0.48.4 r9939" sodipodi:docname="wyoming.svg">
  
  <sodipodi:namedview pagecolor="#ffffff" bordercolor="#666666" borderopacity="1" objecttolerance="10" gridtolerance="10" guidetolerance="10" inkscape:pageopacity="0" inkscape:pageshadow="2" inkscape:window-width="1366" inkscape:window-height="705" id="namedview189" showgrid="false" inkscape:zoom="0.33714286" inkscape:cx="428.81356" inkscape:cy="317.37288" inkscape:window-x="0" inkscape:window-y="26" inkscape:window-maximized="1" inkscape:current-layer="svg2"/>
  <defs id="defs4">
    <style type="text/css" id="style6">
    .str0 {stroke:#002868;stroke-width:4}
    .str1 {stroke:#002868;stroke-width:4;stroke-linejoin:bevel}
    .fil4 {fill:none}
    .fil3 {fill:#002868}
    .fil2 {fill:#002868}
    .fil0 {fill:#BF0A30}
    .fil1 {fill:white}
   </style>
    <clipPath clipPathUnits="userSpaceOnUse" id="clipPath3745">
      <rect style="fill:#808080;fill-opacity:1;stroke:none" id="rect3747" width="1470" height="1470" x="21.355923" y="26.440706" ry="160.08806"/>
    </clipPath>
    <clipPath clipPathUnits="userSpaceOnUse" id="clipPath3745-7">
      <rect style="fill:#808080;fill-opacity:1;stroke:none" id="rect3747-0" width="1470" height="1470" x="21.355923" y="26.440706" ry="160.08806"/>
    </clipPath>
    <clipPath clipPathUnits="userSpaceOnUse" id="clipPath3745-7-1">
      <rect style="fill:#808080;fill-opacity:1;stroke:none" id="rect3747-0-9" width="1470" height="1470" x="21.355923" y="26.440706" ry="160.08806"/>
    </clipPath>
  </defs>
  <rect id="rect2289" class="fil0" width="1500" height="1500" x="0" y="0" style="fill: #ca4638;" clip-path="url(#clipPath3745)"/>
  <rect transform="matrix(0.9031477,0,0,0.9031477,73.254813,73.747263)" id="rect2289-8" class="fil0" width="1500" height="1500" x="0" y="0" style="fill: #ffffff; fill-rule: evenodd;" clip-path="url(#clipPath3745-7)"/>
  <rect transform="matrix(0.80629539,0,0,0.80629539,146.50963,147.49451)" id="rect2289-8-9" class="fil0" width="1500" height="1500" x="0" y="0" style="fill: #356ba0; fill-rule: evenodd;" clip-path="url(#clipPath3745-7-1)"/>
  <g style="fill-rule:evenodd" id="g3712" transform="matrix(0.85640035,0,0,0.85640035,108.61242,86.48105)">
    <path style="fill: #ffffff; fill-rule: evenodd;" inkscape:connector-curvature="0" d="m 411.36265,888.47167 c -6.94671,-33.07755 -28.94323,-60.64259 -35.89002,-62.84792 -6.94593,-2.20447 -19.68172,-5.51243 -19.68172,-5.51243 0,0 9.26236,-6.61607 4.63207,-18.7445 -4.63207,-12.12858 -25.47073,-45.2069 -26.62851,-63.95062 -1.15693,-18.74442 4.63122,-43.0015 0,-58.43796 -4.63036,-15.43576 -21.99644,-28.66689 -23.15422,-57.33541 -1.15779,-28.66689 48.62417,-68.36036 77.5684,-69.46314 28.94331,-1.10263 55.57011,8.82055 71.7784,7.71862 16.20829,-1.1034 35.88916,-20.94975 48.62495,-25.36041 12.73494,-4.40988 18.52308,2.20533 26.62688,-1.10185 8.10449,-3.30803 74.0956,-55.13078 140.08538,-55.13078 65.99103,0 115.77298,23.15508 130.8245,23.15508 15.04965,0 42.83509,-6.61599 63.6746,0 20.83951,6.61521 46.30852,36.38551 76.41053,44.10343 30.10023,7.71861 203.76001,37.48891 223.44091,67.25827 19.6817,29.77037 32.4167,72.77133 32.4167,93.72177 0,20.94897 -5.7882,77.18152 -5.7882,88.2074 0,11.0251 5.7882,25.35971 3.4726,39.69354 -2.3156,14.33306 -9.2616,19.84635 -9.2616,19.84635 0,0 -4.6312,-24.25701 -5.7882,-38.59076 -1.1586,-14.33391 9.2607,-54.02738 8.1038,-77.18153 -1.1578,-23.15515 -11.5772,-51.82204 -11.5772,-51.82204 0,0 -6.9467,33.07755 -12.7357,54.02738 -5.7882,20.94897 -23.1543,80.48963 -23.1543,114.6702 0,34.18017 10.4193,83.7972 10.4193,83.7972 0,0 -28.9432,47.41215 -31.2588,66.15584 -2.3148,18.7444 -6.9451,62.8486 -5.7881,68.3617 1.1578,5.5126 -6.946,-2.2053 -9.2616,4.4099 -2.3156,6.616 -1.1578,15.4357 -1.1578,15.4357 l -26.6285,-2.2046 c 0,0 1.1586,-11.0266 5.789,-18.7445 4.6311,-7.7178 11.5772,-13.2311 10.4201,-23.1544 -1.1577,-9.9231 1.157,-52.92463 1.157,-52.92463 0,0 -19.6809,31.97573 -25.4699,44.10423 -5.789,12.1285 -5.789,27.565 -8.1038,33.0783 -2.3156,5.5126 -6.9459,5.5126 -9.2616,12.1277 -2.3164,6.616 -5.7889,6.616 -5.7889,6.616 l -20.8395,1.1019 c 0,0 40.5211,-94.82249 42.8368,-119.07981 2.3147,-24.25776 -25.4707,-73.87394 -31.2589,-90.41287 -5.789,-16.53916 -5.789,-29.77037 -11.578,-36.3855 -5.7881,-6.616 -25.4699,-14.33384 -32.41579,-11.02666 -6.94679,3.30796 -45.15167,37.48899 -53.25537,47.41216 -8.1045,9.92318 -28.94323,28.66689 -28.94323,28.66689 0,0 -46.30946,-24.25708 -70.62123,-29.77037 -24.31217,-5.51251 -84.51419,-9.92317 -84.51419,-9.92317 0,0 4.63114,84.90059 2.31471,98.13133 -2.31471,13.23113 -13.89272,17.64179 -13.89272,26.46234 0,8.82056 0,20.94986 0,27.56506 0,6.6159 -18.523,8.8212 -23.15352,14.3338 -4.63192,5.5133 0,9.9232 -5.78885,17.6418 -5.78908,7.7179 -13.89272,5.5125 -17.36623,9.9225 -3.47335,4.4114 -1.15771,30.8737 -1.15771,30.8737 l -46.30938,-1.1034 c 0,0 18.52394,-36.3848 17.36608,-57.3346 -1.15786,-20.949 -19.68087,-51.82203 -23.15422,-68.36104 -3.47336,-16.53839 -13.89272,-41.89886 -27.78544,-41.89886 -13.89288,0 -25.46995,6.61599 -25.46995,6.61599 0,0 3.47335,-55.13008 -16.20837,-78.2843 -19.68165,-23.15438 -67.14811,-20.94975 -82.19846,-17.64179 -15.05136,3.30725 -31.25888,24.25708 -37.0478,26.46233 -5.789,2.20533 -10.41937,0 -19.68173,3.30726 -9.26072,3.30804 -20.83865,12.12936 -28.94244,18.7445 z" class="fil1" id="path2288"/>
    <g transform="matrix(0.69919244,0,0,0.66589757,-292.4304,88.941783)" id="g3286" style="fill-rule:evenodd">
      <g id="g1883">
        <path style="stroke: #002868; stroke-width: 4; fill: #ffffff;" inkscape:connector-curvature="0" d="m 1307.59,689.937 c 0,-13.6394 11.7591,-9.87638 23.048,-15.052 11.289,-5.17323 21.1665,-12.7004 21.1665,-12.7004 l 0.4713,35.2795 -43.2756,0 -1.4103,-7.52717 z" class="fil1 str0" id="path1825"/>
        <path style="stroke: #002868; stroke-width: 4; fill: #ffffff;" inkscape:connector-curvature="0" d="m 1494.32,723.806 c -11.7591,7.05591 -14.5807,0.47008 -22.1067,-6.58583 -7.526,-7.05472 -30.1051,-23.5181 -30.1051,-23.5181 l 60.2091,9.87756 -7.9972,20.2264 z" class="fil1 str0" id="path1826"/>
        <path style="stroke: #002868; stroke-linejoin: bevel; stroke-width: 4; fill: #ffffff;" inkscape:connector-curvature="0" d="m 1307.66,687.855 c -1.4457,13.5248 -0.522,23.3303 6.5091,29.8346 7.0547,6.58583 12.6992,4.23425 17.8736,3.29291 5.1744,-0.94134 68.2039,-26.3409 87.4902,-26.3409 19.285,0 45.6319,0.93425 60.2079,14.5819 6.5598,6.14173 13.1705,10.8177 12.2291,14.5819 -0.9414,3.76299 23.5193,-13.1717 23.048,-23.9894 -0.4689,-10.8189 -34.337,-32.4555 -70.5555,-37.6311 -36.2185,-5.17323 -84.5693,23.9929 -119.476,26.8122 -12.5268,1.19291 -17.3433,3.02953 -17.3268,-1.14213 z" class="fil1 str1" id="path1824"/>
        <path style="fill: #002868;" inkscape:connector-curvature="0" d="m 1493.26,703.22 c -1.2283,1.70787 -0.7535,3.36142 0.8693,4.67126 1.102,0.88937 2.9315,1.75276 4.0441,0.37441 1.024,-1.27087 0.124,-2.4437 -0.7217,-3.51732 -0.8598,-1.08661 -2.0563,-2.29488 -2.4827,-3.6189 -0.6696,-2.08701 1.3335,-4.01457 3.3154,-4.14803 2.3563,-0.16181 4.8224,2.06693 5.4543,4.23307 0.3331,1.10787 0.046,2.22638 -0.8622,3.35079 l -1.2886,-1.03937 c 0.3685,-0.59646 0.5563,-1.1315 0.5658,-1.60276 0.014,-1.54724 -2.074,-3.54094 -3.6425,-3.40512 -1.1445,0.098 -2.2347,1.1374 -1.7457,2.34449 0.515,1.24134 1.7126,2.4378 2.5524,3.50433 1.1681,1.4811 1.6854,3.1252 0.3685,4.7563 -1.852,2.29606 -4.5886,1.46102 -6.587,-0.15236 -2.1993,-1.7752 -3.065,-4.45039 -1.128,-6.79134 l 1.2886,1.04055 z" class="fil3" id="text1827"/>
        <polygon style="fill: #002868;" points="1490.25,692.013 1483.62,701.356 1482.16,700.322 1488.79,690.979 1485.21,688.444 1486.11,687.182 1494.72,693.281 1493.82,694.546 " class="fil3" id="path1848"/>
        <polygon style="fill: #002868;" points="1466.73,692.968 1465.11,692.229 1470.53,680.407 1472.14,681.146 1469.91,686.031 1476.06,688.847 1478.29,683.961 1479.91,684.702 1474.5,696.524 1472.88,695.784 1475.41,690.255 1469.26,687.439 " class="fil3" id="path1847"/>
        <path style="fill: #002868;" inkscape:connector-curvature="0" d="m 1457.32,677.092 c 1.1835,0.30118 2.1484,0.79016 2.8949,1.46811 1.0854,0.97559 1.559,2.32323 1.4197,4.04055 l -1.689,-0.42992 c 0.027,-0.97205 -0.228,-1.75039 -0.7677,-2.3315 -0.5386,-0.58819 -1.3004,-1.00748 -2.2831,-1.25669 -1.1669,-0.29764 -2.2618,-0.10984 -3.2846,0.56102 -1.0182,0.67323 -1.7469,1.87559 -2.1874,3.60827 -0.3815,1.49882 -0.3638,2.80276 0.054,3.91417 0.4193,1.10551 1.3712,1.84724 2.8594,2.22402 1.1374,0.29055 2.1626,0.20079 3.0721,-0.26811 0.9177,-0.47362 1.5732,-1.44449 1.9653,-2.91496 l -3.946,-1.00394 0.3614,-1.41496 5.5311,1.40669 -1.7138,6.74173 -1.0972,-0.27992 0,-1.72559 c -0.7394,0.48898 -1.363,0.79843 -1.8709,0.93071 -0.8575,0.23268 -1.8638,0.20197 -3.0189,-0.0909 -1.4917,-0.38032 -2.6528,-1.18937 -3.4819,-2.43071 -0.8646,-1.50945 -1.0275,-3.32244 -0.489,-5.43898 0.5363,-2.10945 1.5355,-3.64252 2.9965,-4.59921 1.389,-0.91181 2.9468,-1.14921 4.6748,-0.70985 z" class="fil3" id="path1846"/>
        <polygon style="fill: #002868;" points="1443.49,687.969 1441.72,687.787 1443.05,674.852 1444.82,675.034 " class="fil3" id="path1844"/>
        <path style="fill: #002868;" inkscape:connector-curvature="0" d="m 1433.04,680.066 c 0.8256,0.0449 1.4858,-0.085 1.9807,-0.38976 0.5008,-0.30355 0.7748,-0.88465 0.8209,-1.74567 0.051,-0.92481 -0.2516,-1.57441 -0.9047,-1.94528 -0.3497,-0.19725 -0.8245,-0.31063 -1.4256,-0.34371 l -4.2957,-0.23267 -0.2398,4.43622 4.0642,0.22086 m -5.5016,-6.26339 6.0095,0.32481 c 0.9897,0.0543 1.7988,0.2433 2.426,0.56575 1.1893,0.62007 1.7433,1.67598 1.6618,3.16535 -0.041,0.77834 -0.2374,1.40669 -0.5882,1.88386 -0.3461,0.47716 -0.815,0.85039 -1.4079,1.11969 0.4949,0.23385 0.8599,0.52559 1.0949,0.87519 0.2409,0.34961 0.3555,0.90355 0.3449,1.65827 l -0.032,1.74567 c -0.01,0.49488 0.012,0.86575 0.064,1.11024 0.084,0.41929 0.2574,0.69331 0.522,0.82559 l -0.015,0.29292 -2.1567,-0.11811 c -0.053,-0.11457 -0.092,-0.26221 -0.1181,-0.43937 -0.026,-0.17953 -0.037,-0.52323 -0.033,-1.0311 l 0.012,-2.16969 c 0,-0.85158 -0.2799,-1.4374 -0.8528,-1.75748 -0.3283,-0.17717 -0.8504,-0.28583 -1.5697,-0.32481 l -4.0027,-0.21614 -0.3024,5.56654 -1.7586,-0.0945 0.7027,-12.9827 z" class="fil3" id="path1842"/>
        <polygon style="fill: #002868;" points="1388.16,693.57 1380,695.306 1377.29,682.589 1379.02,682.222 1381.4,693.424 1387.84,692.055 " class="fil3" id="path1840"/>
        <path style="fill: #002868;" inkscape:connector-curvature="0" d="m 1369.57,693.318 -3.4051,-5.02913 -0.5244,6.09331 3.9295,-1.06417 m -4.7976,-6.65197 1.9228,-0.51969 7.9476,11.3197 -1.8614,0.50315 -2.2901,-3.41575 -4.9642,1.34291 -0.3414,4.12795 -1.7433,0.47127 1.33,-13.82951 z" class="fil3" id="path1839"/>
        <path style="fill: #002868;" inkscape:connector-curvature="0" d="m 1348.55,692.766 1.6347,7.86732 c 0.1913,0.92362 0.5244,1.65709 0.9992,2.19685 0.7063,0.8185 1.6689,1.10079 2.8878,0.84685 1.461,-0.30472 2.3515,-1.01102 2.6693,-2.1189 0.17,-0.60118 0.1594,-1.36299 -0.031,-2.28071 l -1.6358,-7.8685 1.7504,-0.36378 1.4858,7.14921 c 0.326,1.56614 0.3638,2.81457 0.1181,3.74528 -0.4547,1.69724 -1.7563,2.76969 -3.9059,3.21614 -2.1484,0.44646 -3.7665,-0.0189 -4.8555,-1.39488 -0.5964,-0.75709 -1.0571,-1.91811 -1.383,-3.48189 l -1.4859,-7.15039 1.7516,-0.3626 z" class="fil3" id="path1836"/>
        <polygon style="fill: #002868;" points="1330.29,712.324 1321.15,715.283 1317.14,702.914 1326.16,699.996 1326.65,701.51 1319.27,703.9 1320.48,707.656 1327.31,705.445 1327.77,706.878 1320.94,709.088 1322.3,713.282 1329.81,710.851 " class="fil3" id="path1832"/>
        <path style="fill: #002868;" inkscape:connector-curvature="0" d="m 1345.81,707.363 -0.5858,1.25906 -2.3315,-0.97205 c -0.8717,0.82559 -1.9217,1.41142 -3.0827,1.71496 -1.9524,0.51142 -3.6484,0.27284 -5.0917,-0.71574 -1.3016,-0.98859 -2.1981,-2.41772 -2.6882,-4.29094 -0.4465,-1.70079 -0.4051,-3.26693 0.1216,-4.69843 0.678,-1.83661 2.0788,-3.03425 4.2024,-3.58937 2.2205,-0.58229 4.05,-0.29882 5.4921,0.84685 1.1256,0.89527 1.9146,2.20984 2.3693,3.94488 0.4795,1.82717 0.4902,3.93661 -0.4878,5.60906 l 2.0823,0.89173 m -5.2181,0.0945 c 0.2941,-0.13111 0.5374,-0.29882 0.7287,-0.50197 l -1.6606,-0.71811 0.5787,-1.27677 1.9784,0.84567 c 0.6874,-1.37953 0.6425,-2.99882 0.2586,-4.45984 -0.3874,-1.47874 -1.0866,-2.56772 -2.1,-3.26575 -1.0063,-0.69922 -2.1815,-0.87402 -3.522,-0.52323 -1.3595,0.35669 -2.3209,1.07362 -2.8878,2.14843 -0.5669,1.07008 -0.6154,2.50276 -0.1441,4.30157 0.3968,1.51299 1.0925,2.61732 2.0858,3.31417 1.4398,1.00276 3.1595,0.71929 4.6843,0.13582 z" class="fil3" id="path1849"/>
      </g>
      <g id="use1823">
        <path style="stroke: #002868; stroke-width: 4; fill: #ffffff;" inkscape:connector-curvature="0" d="m 1476.77,1013.57 c 0,0 -11.1094,-9.0284 -13.8874,-13.1941 -2.7779,-4.16693 -10.415,-17.3587 -10.415,-17.3587 l 19.4421,-20.1378 c 0,0 14.5819,18.0543 14.5819,21.5268 0,3.47126 -9.7217,29.1638 -9.7217,29.1638 z" class="fil1 str0" id="path2293"/>
        <path style="stroke: #002868; stroke-width: 4; fill: #ffffff;" inkscape:connector-curvature="0" d="m 1479.55,915.667 c 0,0 -24.3024,-20.1378 -26.387,-24.998 -2.0823,-4.86142 -2.7768,-22.2201 -2.7768,-22.2201 l 11.8051,-2.77677 c 0,0 4.8591,4.16575 11.1094,7.63701 6.2492,3.47244 15.2764,4.16693 15.2764,4.16693 l -9.0271,38.1909 z" class="fil1 str0" id="path2294"/>
        <path style="stroke: #002868; stroke-width: 4; fill: #ffffff;" inkscape:connector-curvature="0" d="m 1496.38,741.431 c 0,0 -0.3189,-7.96654 -0.4783,-11.6315 -0.1595,-3.66496 -5.2571,-8.28543 -5.2571,-8.28543 0,0 -6.0544,5.89488 -6.3744,8.12717 -0.3189,2.22992 -0.4772,13.2236 -0.4772,13.2236 l 12.587,-1.43386 z" class="fil1 str0" id="path2295"/>
        <polygon style="stroke: #002868; stroke-width: 4; fill: #ffffff;" points="1476.34,789.177 1472.87,1023.88 1505.78,1022.14 1501.45,788.313 " class="fil1 str0" id="path2296"/>
        <path style="stroke: #002868; stroke-width: 4; fill: none;" inkscape:connector-curvature="0" d="m 1481.3,1024.39 2.2181,-243.656 m -2.2181,243.656 0,0 0,0 z" class="fil4 str0" id="path2297"/>
        <path style="stroke: #002868; stroke-width: 4; fill: none;" inkscape:connector-curvature="0" d="m 1476.86,1024.39 0.4441,-243.656 m -0.4441,243.656 0,0 0,0 z" class="fil4 str0" id="path2298"/>
        <path style="stroke: #002868; stroke-width: 4; fill: none;" inkscape:connector-curvature="0" d="m 1494.61,1025.72 1.774,-245.875 m -1.774,245.875 0,0 0,0 z" class="fil4 str0" id="path2299"/>
        <path style="stroke: #002868; stroke-width: 4; fill: none;" inkscape:connector-curvature="0" d="m 1487.96,1025.28 c -0.4429,-2.2193 1.7752,-245.876 1.7752,-245.876 m -1.7752,245.876 0,0 0,0 z" class="fil4 str0" id="path2300"/>
        <path style="stroke: #002868; stroke-width: 4; fill: none;" inkscape:connector-curvature="0" d="m 1502.16,1026.16 0.4429,-246.763 m -0.4429,246.763 0,0 0,0 z" class="fil4 str0" id="path2301"/>
        <polygon style="stroke: #002868; stroke-width: 4; fill: #ffffff;" points="1467.68,1025.61 1469.41,1041.2 1510.98,1039.46 1510.98,1024.74 1506.65,1021.28 1475.47,1021.28 " class="fil1 str0" id="path2302"/>
        <polygon style="stroke: #002868; stroke-width: 4; fill: #ffffff;" points="1480.13,746.53 1476.47,753.7 1504.83,753.86 1500.21,746.53 1509.45,738.405 1472,737.766 " class="fil1 str0" id="path2303"/>
        <path style="stroke: #002868; stroke-width: 4; fill: #ffffff;" inkscape:connector-curvature="0" d="m 1501.72,776.963 -6.9307,-7.17047 c 0,0 15.137,-14.3398 17.2087,-14.3398 2.0716,0 3.3461,3.34606 5.576,3.18661 2.2311,-0.15945 3.5055,-1.11496 3.5055,-3.50551 0,-2.38937 -2.2299,-3.50551 -5.576,-3.34606 l -49.076,-0.63661 c -3.5055,0.15826 -4.6217,2.22992 -4.461,3.98268 0.1582,1.75276 2.5488,3.50551 4.6204,3.34606 2.0717,-0.15945 2.7083,-3.50551 4.9394,-3.34606 2.2311,0.15944 11.7909,13.3843 11.7909,14.3398 l -7.9665,7.64882 26.3693,-0.15945 z" class="fil1 str0" id="path2304"/>
        <path style="stroke: #002868; stroke-width: 4; fill: #ffffff;" inkscape:connector-curvature="0" d="m 1507.44,784.468 c 6.8102,7.60394 11.3445,12.3803 10.9984,24.2646 0,12.4996 -17.0634,31.4823 -29.7839,42.926 -12.861,11.5736 -35.5382,19.8283 -35.5382,30.0083 0,9.89291 1.9654,11.1543 4.4102,14.3197 -2.0149,-2.30197 -12.6921,-9.48307 -12.6921,-26.1484 0,-16.6642 13.8874,-34.7185 29.8583,-44.4402 15.9697,-9.72165 35.413,-22.9146 35.413,-29.8583 0.4264,-6.18661 -2.6657,-11.0717 -2.6657,-11.0717 z" class="fil1 str0" id="path2305"/>
        <path style="stroke: #002868; stroke-width: 4; fill: #ffffff;" inkscape:connector-curvature="0" d="m 1504.07,889.256 c 0.2374,6.82559 0,12.5244 0.4819,18.0791 0.6059,6.56102 -20.1378,20.1378 -28.4693,28.4693 -8.3327,8.33268 -29.1638,17.3598 -30.5528,29.8583 -1.389,12.4984 10.9406,24.1346 13.8177,28.8815 -3.1642,-6.61772 4.0169,-14.2996 12.2551,-20.9799 7.2567,-5.88543 22.9169,-14.5547 30.8657,-23.178 7.8815,-8.55118 16.6654,-22.2201 16.6654,-35.413 0,-13.1929 -8.8146,-23.6339 -15.0638,-25.7173 z" class="fil1 str0" id="path2306"/>
        <polygon style="stroke: #002868; stroke-width: 4; fill: #ffffff;" points="1475.99,776.963 1501.72,776.963 1510.16,782.46 1501.4,788.914 1475.99,789.711 1467.54,782.7 " class="fil1 str0" id="path2307"/>
      </g>
      <g id="g1930">
        <path style="stroke: #002868; stroke-width: 4; fill: #ffffff;" inkscape:connector-curvature="0" d="m 1387.51,720.102 c -17.9445,2.87126 -22.2508,25.8402 -22.2508,25.8402 0,0 7.8945,1.43504 7.8945,8.6126 0,7.17756 0.7181,15.7902 0.7181,15.7902 l 15.7913,-17.2264 -2.1532,-33.0165 z" class="fil1 str0" id="path1927"/>
        <path style="stroke: #002868; stroke-width: 4; fill: #ffffff;" inkscape:connector-curvature="0" d="m 1366.69,745.224 c -6.4594,6.45945 -9.3307,14.3551 -9.3307,14.3551 0,0 -8.6126,-19.3795 -6.4595,-23.687 2.1532,-4.3063 7.8945,-9.33071 7.1776,-13.637 -0.7181,-4.3063 -4.3063,-5.02441 -8.6126,-4.3063 -4.3075,0.71811 -4.3075,25.122 -4.3075,31.5815 0,6.45945 1.4362,17.9433 5.0244,22.2496 3.5894,4.3063 6.4595,10.7657 10.0488,11.4839 3.5882,0.71811 13.637,-14.3551 13.637,-14.3551 0,0 1.4351,-14.3539 -0.7181,-17.9433 -2.1531,-3.58819 -6.4594,-5.74134 -6.4594,-5.74134 z" class="fil1 str0" id="path1928"/>
        <path style="stroke: #002868; stroke-width: 4; fill: #ffffff;" inkscape:connector-curvature="0" d="m 1433.44,726.561 c 23.6858,13.6382 20.8157,32.2996 20.0976,38.7591 -0.7181,6.45945 0,10.7657 0,10.7657 0,0 10.0488,10.0488 14.3551,16.5083 4.3063,6.46063 16.5071,25.122 16.5071,25.122 l -4.3063,4.3063 c 0,0 -17.9433,-12.9201 -25.1209,-21.5327 -7.1764,-8.61378 -38.7579,-60.2906 -38.7579,-60.2906 l 17.2252,-13.6382 z" class="fil1 str0" id="path1926"/>
        <path style="stroke: #002868; stroke-width: 4; fill: none;" inkscape:connector-curvature="0" d="m 1373.87,964.854 -17.9433,-252.819 m 17.9433,252.819 0,0 0,0 z" class="fil4 str0" id="path1929"/>
        <path style="stroke: #002868; stroke-width: 4; fill: #ffffff;" inkscape:connector-curvature="0" d="m 1436.1,960.737 -62.1378,-0.0555 c 0,-1.7126 8.4472,-210.04 8.4472,-221.532 0,-11.4921 -1.7102,-20.2949 0.7335,-22.9843 2.4461,-2.68937 24.2079,-1.95591 29.0976,0 4.8898,1.95591 19.8047,6.60236 21.0272,9.29173 1.2236,2.68937 -2.9327,18.8268 -2.9327,24.4512 0,5.62323 6.3555,20.7827 5.8677,28.6063 -0.4889,7.8248 6.3733,88.3949 6.3733,93.7736 0,6.6378 -5.4449,-3.4063 -7.9028,-0.2315 -2.9516,3.81142 8.6043,85.4516 1.4268,88.6807 z" class="fil1 str0" id="path1905"/>
        <g id="g1911">
          <path style="stroke: #002868; stroke-width: 4; fill: #ffffff;" inkscape:connector-curvature="0" d="m 1400.26,697.583 c 0,0 -0.7335,15.4039 -0.7335,19.5614 0,4.1563 6.8457,11.2465 11.2476,11.9799 4.4008,0.73347 9.0473,-4.1563 8.5583,-11.0031 -0.4902,-6.84567 -2.6905,-5.86772 -2.6905,-13.9358 0,-8.07047 -1.467,-13.9382 -1.467,-13.9382 l -14.915,7.33583 z" class="fil1 str0" id="path1904"/>
          <path style="stroke: #002868; stroke-width: 4; fill: #ffffff;" inkscape:connector-curvature="0" d="m 1397.08,679.245 c -1.2224,6.84567 -0.9791,18.0933 -0.2457,20.7827 0.7347,2.68937 0.7347,10.0252 5.1355,10.7587 4.4008,0.73346 11.7366,-8.80276 13.9382,-12.9591 2.1992,-4.1563 3.1771,-9.29173 3.1771,-9.29173 l -11.7354,-17.1154 -10.2697,7.8248 z" class="fil1 str0" id="path1899"/>
          <path style="stroke: #002868; stroke-width: 4; fill: #ffffff;" inkscape:connector-curvature="0" d="m 1397.57,703.695 6.6024,-0.48898 m -6.6024,0.48898 0,0 0,0 z" class="fil1 str0" id="path1902"/>
          <path style="stroke: #002868; stroke-width: 4; fill: #ffffff;" inkscape:connector-curvature="0" d="m 1404.41,688.78 c 1.7126,0 5.1354,0 5.1354,0 m -5.1354,0 0,0 0,0 z" class="fil1 str0" id="path1903"/>
          <path style="stroke: #002868; stroke-width: 4; fill: #ffffff;" inkscape:connector-curvature="0" d="m 1395.86,679.489 c -2.2004,-4.64646 0.7335,-13.6937 9.0472,-13.4492 8.3126,0.24567 17.3587,12.2256 17.3587,18.3378 0,6.11457 -1.7102,11.7366 -3.1783,11.7366 -1.4669,0 -8.3126,-19.3157 -13.937,-19.5602 -5.6232,-0.24449 -5.1343,3.17835 -9.2906,2.93504 z" class="fil1 str0" id="path1898"/>
        </g>
        <path style="stroke: #002868; stroke-width: 4; fill: #ffffff;" inkscape:connector-curvature="0" d="m 1411.75,751.375 c -12.4701,24.45 -22.0051,33.0083 -26.4071,33.2539 -4.402,0.24331 -10.0252,-0.49016 -10.0252,-0.49016 l 2.4839,50.739 35.6787,0.94489 m -1.7303,-84.4476 0,0 0,0 z" class="fil1 str0" id="path1906"/>
        <path style="stroke: #002868; stroke-width: 4; fill: #ffffff;" inkscape:connector-curvature="0" d="m 1422.51,752.108 c -12.2256,48.4122 -49.8803,73.8413 -49.8803,73.8413 l 4.663,75.378 37.0358,-36.7417 m 8.1815,-112.478 0,0 0,0 z" class="fil1 str0" id="path1907"/>
        <path style="stroke: #002868; stroke-width: 4; fill: #ffffff;" inkscape:connector-curvature="0" d="m 1416.4,788.541 c -10.0252,78.2433 -44.5004,65.772 -44.5004,65.772 l 1.9039,69.3531 c 28.7787,-6.90118 30.9319,-29.8689 30.9319,-29.8689 0,0 10.0476,2.87008 17.2252,-4.30748 7.1776,-7.17638 0.7182,-30.8622 2.8713,-41.6291 2.1532,-10.7657 2.8713,-22.2496 2.8713,-22.2496 m -11.3031,-37.0701 0,0 0,0 z" class="fil1 str0" id="path1908"/>
        <path style="stroke: #002868; stroke-width: 4; fill: none;" inkscape:connector-curvature="0" d="m 1424.83,794.029 c -2.8713,12.2031 -5.7425,38.0409 -5.7425,38.0409 m 5.7425,-38.0409 0,0 0,0 z" class="fil4 str0" id="path1919"/>
        <path style="stroke: #002868; stroke-width: 4; fill: none;" inkscape:connector-curvature="0" d="m 1384.63,833.506 c 12.2008,-5.74252 27.274,-44.5016 27.274,-44.5016 m -27.274,44.5016 0,0 0,0 z" class="fil4 str0" id="path1920"/>
        <path style="stroke: #002868; stroke-width: 4; fill: none;" inkscape:connector-curvature="0" d="m 1415.5,862.217 c -1.435,7.89449 0.7181,18.6602 0.7181,18.6602 m -0.7181,-18.6602 0,0 0,0 z" class="fil4 str0" id="path1921"/>
        <path style="stroke: #002868; stroke-width: 4; fill: none;" inkscape:connector-curvature="0" d="m 1416.21,913.894 c 0.7169,-17.9445 -1.4362,-20.0976 -1.4362,-20.0976 m 1.4362,20.0976 0,0 0,0 z" class="fil4 str0" id="path1922"/>
        <path style="stroke: #002868; stroke-width: 4; fill: none;" inkscape:connector-curvature="0" d="m 1421.24,743.07 c 4.3063,-7.17874 5.0232,-20.0976 5.0232,-20.0976 m -5.0232,20.0976 0,0 0,0 z" class="fil4 str0" id="path1923"/>
        <path style="stroke: #002868; stroke-width: 4; fill: none;" inkscape:connector-curvature="0" d="m 1437.03,871.546 c -7.8957,-3.58819 -12.202,-6.45945 -12.202,-6.45945 m 12.202,6.45945 0,0 0,0 z" class="fil4 str0" id="path1925"/>
      </g>
      <g id="g1775">
        <path style="stroke: #002868; stroke-width: 4; fill: #ffffff;" inkscape:connector-curvature="0" d="m 1336.12,1015.2 c 0,0 11.1106,-9.0272 13.8874,-13.1941 2.7779,-4.16575 10.4161,-17.3598 10.4161,-17.3598 l -19.4421,-20.1354 c 0,0 -14.5831,18.0531 -14.5831,21.5244 0,3.47244 9.7216,29.165 9.7216,29.165 z" class="fil1 str0" id="path1773"/>
        <path style="stroke: #002868; stroke-width: 4; fill: #ffffff;" inkscape:connector-curvature="0" d="m 1333.34,917.295 c 0,0 24.3047,-20.1366 26.387,-24.998 2.0835,-4.86024 2.7768,-22.2201 2.7768,-22.2201 l -11.8028,-2.77795 c 0,0 -4.8614,4.16693 -11.1106,7.63937 -6.2504,3.47126 -15.2764,4.16575 -15.2764,4.16575 l 9.0259,38.1909 z" class="fil1 str0" id="path1774"/>
        <path style="stroke: #002868; stroke-width: 4; fill: #ffffff;" inkscape:connector-curvature="0" d="m 1316.51,743.059 c 0,0 0.3189,-7.96654 0.4772,-11.6303 0.1594,-3.66496 5.2594,-8.28661 5.2594,-8.28661 0,0 6.0543,5.89606 6.3732,8.12598 0.3189,2.23228 0.4772,13.226 0.4772,13.226 l -12.587,-1.43504 z" class="fil1 str0" id="path1764"/>
        <polygon style="stroke: #002868; stroke-width: 4; fill: #ffffff;" points="1336.56,790.806 1340.02,1025.5 1307.11,1023.77 1311.44,789.939 " class="fil1 str0" id="path1760"/>
        <path style="stroke: #002868; stroke-width: 4; fill: none;" inkscape:connector-curvature="0" d="m 1331.6,1026.02 -2.2193,-243.656 m 2.2193,243.656 0,0 0,0 z" class="fil4 str0" id="path1765"/>
        <path style="stroke: #002868; stroke-width: 4; fill: none;" inkscape:connector-curvature="0" d="m 1336.04,1026.02 -0.4429,-243.656 m 0.4429,243.656 0,0 0,0 z" class="fil4 str0" id="path1769"/>
        <path style="stroke: #002868; stroke-width: 4; fill: none;" inkscape:connector-curvature="0" d="m 1318.28,1027.35 -1.7752,-245.876 m 1.7752,245.876 0,0 0,0 z" class="fil4 str0" id="path1767"/>
        <path style="stroke: #002868; stroke-width: 4; fill: none;" inkscape:connector-curvature="0" d="m 1324.94,1026.9 c 0.4429,-2.2193 -1.7764,-245.875 -1.7764,-245.875 m 1.7764,245.875 0,0 0,0 z" class="fil4 str0" id="path1766"/>
        <path style="stroke: #002868; stroke-width: 4; fill: none;" inkscape:connector-curvature="0" d="m 1310.74,1027.79 -0.4441,-246.762 m 0.4441,246.762 0,0 0,0 z" class="fil4 str0" id="path1768"/>
        <polygon style="stroke: #002868; stroke-width: 4; fill: #ffffff;" points="1345.22,1027.24 1343.49,1042.82 1301.92,1041.09 1301.92,1026.37 1306.25,1022.91 1337.42,1022.91 " class="fil1 str0" id="path1759"/>
        <polygon style="stroke: #002868; stroke-width: 4; fill: #ffffff;" points="1332.77,748.157 1336.43,755.328 1308.07,755.487 1312.69,748.157 1303.45,740.031 1340.89,739.395 " class="fil1 str0" id="path1763"/>
        <path style="stroke: #002868; stroke-width: 4; fill: #ffffff;" inkscape:connector-curvature="0" d="m 1311.26,778.114 6.8528,-6.69213 c 0,0 -15.137,-14.3409 -17.2087,-14.3409 -2.0717,0 -3.3461,3.34724 -5.576,3.18661 -2.2323,-0.15945 -3.5067,-1.11496 -3.5067,-3.50551 0,-2.38937 2.2311,-3.50433 5.5772,-3.34606 l 49.076,-0.63779 c 3.5055,0.16063 4.6204,2.23227 4.461,3.98386 -0.1595,1.75276 -2.5488,3.50551 -4.6205,3.34606 -2.0716,-0.15945 -2.7094,-3.50551 -4.9394,-3.34606 -2.2311,0.15944 -11.7909,13.3854 -11.7909,14.3409 l 7.9666,7.64764 -26.2913,-0.63662 z" class="fil1 str0" id="path1762"/>
        <path style="stroke: #002868; stroke-width: 4; fill: #ffffff;" inkscape:connector-curvature="0" d="m 1305.92,786.441 c -6.8102,8.3315 -11.6114,12.1831 -11.465,23.9197 0,12.4996 17.0634,31.4811 29.7827,42.9272 12.8622,11.5724 35.5394,19.8272 35.5394,30.0083 0,9.89291 -1.9642,11.1543 -4.4114,14.3197 2.0149,-2.30315 12.6933,-9.48425 12.6933,-26.1496 0,-16.6654 -13.8874,-34.7185 -29.8583,-44.4402 -15.9709,-9.72047 -35.413,-22.9146 -35.413,-29.8583 -0.1795,-6.00591 3.1323,-10.7268 3.1323,-10.7268 z" class="fil1 str0" id="path1770"/>
        <path style="stroke: #002868; stroke-width: 4; fill: #ffffff;" inkscape:connector-curvature="0" d="m 1308.83,890.883 c -0.2386,6.82559 0,12.5244 -0.4819,18.0803 -0.6071,6.56102 20.1378,20.1354 28.4693,28.4681 8.3327,8.33268 29.1638,17.3598 30.5528,29.8583 1.389,12.4996 -10.9406,24.1346 -13.8189,28.8827 3.1654,-6.6189 -4.0157,-14.3008 -12.2539,-20.9811 -7.2567,-5.88425 -22.9181,-14.5535 -30.8657,-23.1768 -7.8815,-8.55236 -16.6654,-22.2201 -16.6654,-35.4142 0,-13.1929 8.8146,-23.6339 15.0638,-25.7173 z" class="fil1 str0" id="path1772"/>
        <polygon style="stroke: #002868; stroke-width: 4; fill: #ffffff;" points="1336.91,778.591 1311.18,778.591 1302.73,784.089 1311.49,790.541 1336.91,791.339 1345.35,784.326 " class="fil1 str0" id="path1761"/>
      </g>
      <path style="fill: #002868;" inkscape:connector-curvature="0" d="m 1360.05,859.923 0.9768,0.86339 -3.1914,3.60354 6.7949,-0.41221 1.3831,1.22362 -5.713,0.25748 -0.7465,7.21181 -1.3027,-1.15394 0.6956,-5.99882 -2.185,0.085 -2.2807,2.57598 -0.9768,-0.86339 6.5457,-7.39252 m -4.0736,-3.96614 c 0.9354,0.82796 1.4433,1.71732 1.5236,2.66811 0.079,0.95079 -0.1287,1.76457 -0.6284,2.44252 l -0.9755,-0.86338 c 0.3118,-0.5752 0.424,-1.14803 0.3377,-1.72087 -0.081,-0.57047 -0.4216,-1.1185 -1.0181,-1.64764 -0.7287,-0.64488 -1.5448,-0.90827 -2.4484,-0.7937 -0.8976,0.11456 -1.8153,0.70039 -2.7508,1.75748 -0.7665,0.86575 -1.187,1.74685 -1.2626,2.64331 -0.07,0.89645 0.2965,1.69843 1.0984,2.40945 0.7382,0.65315 1.5508,0.86811 2.439,0.64252 0.4689,-0.11811 0.9697,-0.37559 1.5012,-0.77244 l 0.9768,0.86338 c -0.7772,0.70276 -1.6441,1.09961 -2.5996,1.19173 -1.1481,0.11457 -2.2205,-0.26929 -3.2173,-1.15157 -0.8587,-0.76063 -1.35,-1.65945 -1.4729,-2.69646 -0.1606,-1.36772 0.3969,-2.76969 1.6677,-4.20591 0.965,-1.09016 2.0457,-1.72913 3.241,-1.91575 1.2945,-0.20551 2.4909,0.17717 3.5882,1.14921 m -0.202,-0.17834 0,0 m -7.735,-6.84921 c 1.3051,1.1563 1.9004,2.43189 1.7846,3.82441 -0.089,1.08898 -0.5846,2.14252 -1.4882,3.16299 -0.9767,1.10315 -2.0704,1.77283 -3.2775,2.00787 -1.4185,0.27637 -2.7355,-0.12402 -3.9532,-1.20236 -1.1374,-1.0063 -1.6996,-2.17441 -1.6854,-3.50197 0.061,-1.2378 0.5823,-2.41181 1.5626,-3.5185 0.8858,-1.00039 1.8909,-1.63583 3.0165,-1.90748 1.4457,-0.34725 2.7933,0.0307 4.0406,1.13504 m -6.0213,7.00394 c 0.8823,0.78189 1.7988,1.0311 2.7496,0.74763 0.9579,-0.28346 1.8,-0.8374 2.5276,-1.65945 0.7701,-0.86811 1.161,-1.76929 1.174,-2.70354 0.016,-0.9307 -0.3697,-1.74685 -1.1575,-2.4437 -0.7653,-0.67677 -1.6228,-0.96614 -2.5724,-0.86692 -0.9461,0.0945 -1.8732,0.65551 -2.7791,1.67717 -0.7241,0.81968 -1.1304,1.6937 -1.2166,2.62205 -0.079,0.92834 0.3449,1.80354 1.2744,2.62677 m 6.052,-6.97677 0,0 m -4.3205,-3.46535 -0.7795,0.8811 -2.4909,-2.2063 -5.7662,6.5126 -1.0157,-0.90118 5.7649,-6.51142 -2.4909,-2.20512 0.7795,-0.88111 5.9988,5.31142 m -15.8811,-5.12835 c -0.3484,0.43937 -0.5515,0.86693 -0.6082,1.28268 -0.1016,0.78544 0.2681,1.54843 1.1055,2.29134 0.3767,0.33189 0.7653,0.58111 1.1693,0.74646 0.7819,0.32126 1.4102,0.21378 1.885,-0.32244 0.3567,-0.40276 0.4843,-0.80197 0.385,-1.19528 -0.1074,-0.39331 -0.3767,-0.89409 -0.8114,-1.49764 l -0.8008,-1.11378 c -0.5232,-0.72638 -0.8421,-1.29921 -0.9567,-1.7185 -0.196,-0.72402 -0.022,-1.39252 0.5209,-2.00787 0.5882,-0.66378 1.3016,-1.00512 2.1378,-1.0252 0.8374,-0.0189 1.676,0.3437 2.5193,1.09016 0.7736,0.68622 1.265,1.4563 1.4728,2.31024 0.2138,0.85276 -0.044,1.69134 -0.77,2.51339 l -0.9414,-0.83386 c 0.2988,-0.43937 0.4618,-0.83858 0.4843,-1.19646 0.037,-0.65433 -0.3118,-1.3063 -1.0429,-1.95472 -0.5906,-0.52204 -1.1256,-0.77362 -1.6028,-0.75472 -0.4783,0.0189 -0.8622,0.1937 -1.1539,0.52323 -0.3213,0.36141 -0.4052,0.76063 -0.2516,1.19528 0.1027,0.28228 0.4323,0.81378 0.9874,1.59213 l 0.8279,1.15512 c 0.3993,0.5563 0.6461,1.05354 0.743,1.49291 0.1641,0.76063 -0.046,1.47047 -0.6272,2.12835 -0.7264,0.8185 -1.5425,1.13976 -2.452,0.96259 -0.9059,-0.17362 -1.7527,-0.60944 -2.5405,-1.3063 -0.9201,-0.81378 -1.4315,-1.68661 -1.5355,-2.61732 -0.1063,-0.92598 0.1973,-1.78465 0.9154,-2.57362 l 0.9413,0.83386 m 6.6331,-3.41811 0,0 m -9.6236,-8.1626 5.3905,4.77283 -0.8031,0.90591 -4.4126,-3.90709 -1.9878,2.24409 4.0819,3.61299 -0.7571,0.8563 -4.0819,-3.61417 -2.2193,2.5063 4.4894,3.97441 -0.7796,0.8811 -5.4649,-4.84016 6.5445,-7.39252 m 2.733,2.42008 0,0 m -9.15,-8.1 -3.45,8.17559 7.6725,-4.4374 1.1232,0.99331 -9.2433,5.00433 -1.0618,-0.94016 3.8528,-9.77598 1.1066,0.98031 m -3.2149,-2.84764 1.011,0.89528 -6.5445,7.3937 -1.011,-0.89646 6.5445,-7.39252 m 0.5079,0.45 0,0 m -6.4311,-5.69409 1.0003,0.88701 -5.7637,6.51142 3.7441,3.31535 -0.7808,0.8811 -4.7444,-4.20236 6.5444,-7.39252 z" class="fil3" id="text1791"/>
      <path style="fill: #002868;" inkscape:connector-curvature="0" d="m 1340.62,951.483 1.1823,1.04764 -1.5685,9.29409 5.3019,-5.98819 0.952,0.84213 -6.5457,7.39134 -1.1232,-0.99331 1.5095,-9.3378 -5.2985,5.98346 -0.9555,-0.84567 6.5457,-7.3937 m 2.8677,2.54055 0,0 m -5.5004,-4.86969 1.011,0.89409 -6.5444,7.39252 -1.0122,-0.89527 6.5456,-7.39134 m 0.5091,0.44882 0,0 m -7.7291,0.94252 1.7704,-4.26024 -4.0854,2.20984 2.315,2.05039 m 2.2181,-5.82047 1.1315,1.00276 -3.8634,9.76654 -1.0961,-0.97205 1.2095,-2.87717 -2.9221,-2.58898 -2.7614,1.50591 -1.0264,-0.90945 9.3284,-4.92756 m 0.5185,0.45827 0,0 m -9.5764,-2.43661 c 0.4689,0.41575 0.9236,0.65079 1.3618,0.70275 0.4405,0.0555 0.8787,-0.16063 1.3122,-0.65078 0.4665,-0.52796 0.5929,-1.05591 0.3803,-1.58504 -0.1157,-0.2811 -0.3449,-0.57402 -0.6874,-0.87638 l -2.4461,-2.16614 -2.2358,2.52638 2.315,2.04921 m -0.3177,-6.32244 3.4216,3.02953 c 0.5634,0.49842 0.9555,0.99213 1.1764,1.4811 0.4146,0.92953 0.2468,1.8189 -0.5055,2.66811 -0.3921,0.44291 -0.8044,0.72283 -1.239,0.84213 -0.4311,0.12165 -0.8858,0.12165 -1.3665,0.002 0.1854,0.37323 0.2645,0.71811 0.2397,1.03701 -0.021,0.32244 -0.2149,0.70512 -0.5775,1.15039 l -0.8422,1.02165 c -0.2409,0.29055 -0.4027,0.52086 -0.4878,0.69094 -0.1476,0.28937 -0.1736,0.53504 -0.078,0.73819 l -0.1476,0.16654 -1.2284,-1.08661 c 0.024,-0.0933 0.07,-0.19961 0.1394,-0.31772 0.069,-0.11929 0.2244,-0.32953 0.4653,-0.62953 l 1.0323,-1.28622 c 0.4028,-0.50315 0.5114,-0.98622 0.3201,-1.44803 -0.111,-0.25866 -0.3709,-0.57047 -0.7795,-0.93307 l -2.2808,-2.01732 -2.8063,3.17008 -1.0015,-0.88701 6.5456,-7.39252 m -4.6878,-4.49173 c 0.6957,0.61536 1.1776,1.2815 1.4457,1.99843 0.3921,1.03583 0.2445,2.10945 -0.4464,3.22205 l -0.9922,-0.87756 c 0.3579,-0.64724 0.4559,-1.26142 0.2929,-1.84134 -0.1594,-0.58346 -0.5279,-1.1315 -1.1043,-1.64291 -0.6838,-0.6059 -1.4894,-0.85984 -2.413,-0.76299 -0.9212,0.1004 -1.8319,0.66024 -2.7307,1.67598 -0.7795,0.87874 -1.2201,1.76575 -1.324,2.66102 -0.1016,0.89173 0.2846,1.72441 1.1563,2.49685 0.6673,0.59055 1.3902,0.88583 2.1673,0.88583 0.7855,0 1.565,-0.42756 2.3421,-1.28386 l -2.3149,-2.05039 0.7346,-0.83032 3.2457,2.87362 -3.502,3.95551 -0.6448,-0.56929 0.6011,-1.16575 c -0.6685,0.072 -1.1976,0.065 -1.5874,-0.0224 -0.659,-0.14173 -1.3275,-0.51023 -2.0055,-1.11024 -0.8752,-0.77598 -1.3771,-1.72559 -1.5059,-2.85236 -0.058,-1.31929 0.463,-2.60079 1.5614,-3.84213 1.0961,-1.2378 2.3032,-1.9252 3.6213,-2.0622 1.2555,-0.13464 2.3905,0.24803 3.4028,1.14449 m -0.156,-0.1559 0,0 z" class="fil3" id="text1794"/>
      <path style="fill: #002868;" inkscape:connector-curvature="0" d="m 1490.2,832.63 c 0.3921,0.45827 0.8008,0.76181 1.2284,0.90709 0.8066,0.27165 1.6889,0.0401 2.6456,-0.68977 0.4299,-0.32834 0.7736,-0.6874 1.0323,-1.07835 0.5008,-0.75708 0.5161,-1.44331 0.05,-2.0563 -0.352,-0.45945 -0.7453,-0.67795 -1.1811,-0.65433 -0.437,0.0307 -1.0205,0.2126 -1.7492,0.54331 l -1.3406,0.61535 c -0.8763,0.4004 -1.546,0.6189 -2.0114,0.65315 -0.8043,0.0567 -1.4752,-0.26574 -2.0102,-0.96732 -0.5776,-0.75945 -0.7914,-1.5815 -0.6366,-2.46732 0.1523,-0.88701 0.711,-1.69724 1.6724,-2.43189 0.8847,-0.67559 1.7988,-1.03346 2.7425,-1.0748 0.9461,-0.0484 1.7752,0.39685 2.4922,1.33465 l -1.0748,0.81969 c -0.4028,-0.40748 -0.789,-0.66024 -1.1611,-0.75827 -0.685,-0.17481 -1.4444,0.0567 -2.2807,0.69449 -0.6732,0.51378 -1.0488,1.02402 -1.1291,1.53425 -0.078,0.50787 0.026,0.9496 0.3118,1.3252 0.3165,0.41338 0.7193,0.58464 1.2106,0.51378 0.3189,-0.0508 0.9473,-0.28701 1.8851,-0.71103 l 1.389,-0.63307 c 0.6696,-0.30591 1.2472,-0.46417 1.7303,-0.4748 0.8374,-0.0154 1.5425,0.35315 2.1141,1.10433 0.7134,0.93543 0.8823,1.86378 0.5091,2.78622 -0.372,0.9189 -1.0075,1.72323 -1.9075,2.40945 -1.05,0.80078 -2.0764,1.15984 -3.0803,1.07717 -0.998,-0.0803 -1.8413,-0.57992 -2.5252,-1.50118 l 1.0748,-0.81969 m -2.2287,-7.70906 0,0 m -10.6087,8.45906 6.1523,-4.69488 0.7902,1.03346 -5.0398,3.84449 1.9559,2.56299 4.6607,-3.55512 0.7452,0.97677 -4.6606,3.5563 2.1839,2.86063 5.1248,-3.91063 0.7677,1.00512 -6.241,4.76102 -6.4393,-8.44016 m 3.1193,-2.37992 0,0 m -11.6634,8.89961 1.35,-1.0311 9.4807,3.58583 -5.217,-6.83858 1.0855,-0.82795 6.4405,8.44134 -1.2803,0.97677 -9.5409,-3.53031 5.2134,6.83268 -1.0914,0.8315 -6.4405,-8.44016 m 3.274,-2.49921 0,0 m -6.2799,4.79173 1.1551,-0.8811 6.4405,8.44016 -1.1539,0.88228 -6.4417,-8.44134 m 0.5811,-0.44173 0,0 m -10.728,8.18504 1.637,-1.24961 7.8709,5.28661 -3.0378,-8.97402 1.6204,-1.23543 6.4406,8.44016 -1.0854,0.82913 -3.802,-4.98307 c -0.1323,-0.17126 -0.3449,-0.45945 -0.6425,-0.86456 -0.2953,-0.40394 -0.6178,-0.83386 -0.9662,-1.28976 l 3.026,8.9563 -1.1327,0.86338 -7.8567,-5.2689 0.1973,0.25866 c 0.1571,0.2067 0.4027,0.51969 0.7346,0.94016 0.3331,0.4122 0.5764,0.71811 0.7276,0.91653 l 3.8008,4.98307 -1.0914,0.8315 -6.4405,-8.44016 z" class="fil3" id="text1797"/>
      <path style="fill: #002868;" inkscape:connector-curvature="0" d="m 1467.74,951.25 1.1433,-0.87284 5.674,7.43504 4.2744,-3.2622 0.7678,1.0063 -5.4189,4.13386 -6.4406,-8.44016 m -3.0059,2.29252 1.1551,-0.8811 6.4406,8.44016 -1.154,0.88229 -6.4417,-8.44134 m 0.5811,-0.44292 0,0 m -6.5185,4.61102 c 1.4894,-1.1374 2.9575,-1.5 4.4055,-1.08898 1.128,0.32008 2.1378,1.06299 3.026,2.22756 0.9626,1.25906 1.4421,2.55236 1.4397,3.8752 0,1.55315 -0.7003,2.86063 -2.0905,3.92126 -1.298,0.99095 -2.6457,1.34055 -4.0441,1.05 -1.2945,-0.32126 -2.4224,-1.11496 -3.3874,-2.37992 -0.8716,-1.13976 -1.3335,-2.33386 -1.3866,-3.57756 -0.067,-1.59803 0.6118,-2.94094 2.0374,-4.02756 m 6.1382,7.80709 c 1.0086,-0.7689 1.461,-1.68425 1.3594,-2.74606 -0.1004,-1.0689 -0.509,-2.07283 -1.2248,-3.01181 -0.757,-0.99212 -1.6263,-1.59094 -2.6102,-1.79882 -0.978,-0.21141 -1.9181,0.0272 -2.8181,0.71457 -0.8728,0.66496 -1.3559,1.50945 -1.4492,2.53228 -0.096,1.01811 0.3023,2.11181 1.1941,3.2811 0.7134,0.93425 1.5508,1.54252 2.5122,1.82717 0.9637,0.27638 1.9759,0.0118 3.0366,-0.79842 m -6.1051,-7.83307 0,0 z" class="fil3" id="text1800"/>
      <g id="g1723">
        <path style="stroke: #002868; stroke-width: 4; fill: #ffffff;" inkscape:connector-curvature="0" d="m 1212.19,1036.01 397.043,0.5894 -42.3508,62.3492 c 0,0 -160.581,58.8213 -167.64,57.6437 -7.0583,-1.1752 -168.817,-58.8201 -168.817,-58.8201 l -18.235,-61.7622 z" class="fil1 str0" id="path1627"/>
        <polygon style="stroke: #002868; stroke-width: 4; fill: #ffffff;" points="1371.01,1057.78 1371.01,970.135 1362.18,971.311 1362.18,1060.13 " class="fil1 str0" id="path1634"/>
        <polygon style="stroke: #002868; stroke-width: 4; fill: #ffffff;" points="1452.77,1060.13 1451.59,970.135 1442.18,970.135 1443.94,1060.13 " class="fil1 str0" id="path1635"/>
        <polygon style="stroke: #002868; stroke-width: 4; fill: #ffffff;" points="1458.65,1073.66 1458.06,1058.37 1353.95,1058.37 1354.54,1073.66 " class="fil1 str0" id="path1630"/>
        <polygon style="stroke: #002868; stroke-width: 4; fill: #ffffff;" points="1462.77,1081.9 1462.18,1067.19 1348.65,1067.19 1348.65,1081.31 " class="fil1 str0" id="path1629"/>
        <g id="g1700">
          <polygon style="stroke: #002868; stroke-width: 4; fill: #ffffff;" points="1471.05,1129.47 1471.3,1099.16 1490.27,1105.81 1490.27,1131.19 " class="fil1 str0" id="path1653"/>
          <polygon style="stroke: #002868; stroke-width: 4; fill: #ffffff;" points="1321.75,1119.12 1323.72,1102.61 1339.49,1101.13 1338.75,1127.99 " class="fil1 str0" id="path1652"/>
          <path style="stroke: #002868; stroke-width: 4; fill: #ffffff;" inkscape:connector-curvature="0" d="m 1322.49,1112.47 c -0.985,-13.0583 3.9425,-19.7091 7.8839,-19.7091 3.9425,0 142.159,-0.4937 150.043,0 7.8838,0.4913 9.8539,8.1295 9.8539,12.3177 0,4.1882 0,14.0433 0,14.0433 0,0 -0.7972,-7.5992 -17.0587,-8.5854 -16.2602,-0.9851 -6.3461,3.411 -68.185,2.9197 -61.8413,-0.4937 -60.3626,-2.9115 -69.7252,-3.6508 -9.3614,-0.7394 -11.8252,0.2008 -12.8114,2.6645 z" class="fil1 str0" id="path1651"/>
          <path style="fill: #002868;" inkscape:connector-curvature="0" d="m 1471.68,1095.75 c 1.5555,0 2.6799,0.6402 3.3744,1.9205 0.5362,0.9909 0.8055,2.348 0.8055,4.0712 0,1.6335 -0.2445,2.9835 -0.7311,4.0524 -0.7039,1.5331 -1.8567,2.2996 -3.4571,2.2996 -1.4433,0 -2.5169,-0.626 -3.222,-1.8791 -0.587,-1.0465 -0.8811,-2.452 -0.8811,-4.213 0,-1.3654 0.176,-2.537 0.5279,-3.5162 0.6603,-1.8236 1.8555,-2.7354 3.5835,-2.7354 m -0.015,10.9677 c 0.7819,0 1.4067,-0.3472 1.8709,-1.0405 0.4642,-0.6945 0.6957,-1.9866 0.6957,-3.8764 0,-1.3654 -0.1677,-2.4874 -0.5032,-3.3662 -0.3354,-0.8834 -0.9874,-1.3252 -1.9547,-1.3252 -0.8905,0 -1.5413,0.4193 -1.9559,1.2591 -0.4087,0.8327 -0.613,2.0634 -0.613,3.6909 0,1.226 0.1323,2.2111 0.3945,2.954 0.4027,1.1362 1.0913,1.7043 2.0657,1.7043 z" class="fil3" id="text1660"/>
          <path style="fill: #002868;" inkscape:connector-curvature="0" d="m 1459.75,1104.86 c 0.045,0.8327 0.3673,1.4091 0.9661,1.7291 0.3071,0.1677 0.6544,0.2516 1.0394,0.2516 0.7228,0 1.337,-0.3 1.8461,-0.8988 0.509,-0.6036 0.8704,-1.826 1.083,-3.6662 -0.3354,0.5304 -0.7523,0.906 -1.2507,1.1233 -0.4926,0.2138 -1.0241,0.3189 -1.5945,0.3189 -1.1575,0 -2.0752,-0.3603 -2.752,-1.0819 -0.6709,-0.7217 -1.0063,-1.6512 -1.0063,-2.7862 0,-1.0902 0.3319,-2.0504 0.998,-2.8784 0.665,-0.8279 1.6477,-1.2413 2.9457,-1.2413 1.7504,0 2.9587,0.7889 3.6248,2.3657 0.3697,0.8681 0.5539,1.9524 0.5539,3.2551 0,1.4717 -0.2208,2.7756 -0.6626,3.9107 -0.7323,1.8921 -1.9759,2.837 -3.7263,2.837 -1.1741,0 -2.067,-0.3083 -2.6764,-0.9225 -0.6107,-0.6153 -0.9154,-1.3878 -0.9154,-2.3161 l 1.5272,0 m 2.2913,-2.4673 c 0.5988,0 1.1445,-0.1961 1.6359,-0.5882 0.4984,-0.3969 0.7476,-1.0878 0.7476,-2.0728 0,-0.8835 -0.2244,-1.5402 -0.6709,-1.9713 -0.4429,-0.437 -1.0074,-0.6543 -1.6948,-0.6543 -0.7394,0 -1.3276,0.248 -1.7634,0.7464 -0.43,0.4914 -0.6461,1.1528 -0.6461,1.9807 0,0.7831 0.1902,1.4067 0.5705,1.8709 0.3803,0.4595 0.9886,0.6886 1.8212,0.6886 z" class="fil3" id="path1677"/>
          <path style="fill: #002868;" inkscape:connector-curvature="0" d="m 1452.58,1100.78 c 0.6661,0 1.1858,-0.1843 1.5602,-0.5528 0.3756,-0.3755 0.5622,-0.8196 0.5622,-1.3346 0,-0.4476 -0.1795,-0.8587 -0.5374,-1.2331 -0.3566,-0.3756 -0.9023,-0.5634 -1.6358,-0.5634 -0.7275,0 -1.2531,0.1878 -1.5779,0.5634 -0.3237,0.3744 -0.4855,0.8138 -0.4855,1.317 0,0.5645 0.2091,1.0074 0.6284,1.3252 0.4204,0.32 0.9141,0.4783 1.4858,0.4783 m 0.092,5.9504 c 0.6992,0 1.278,-0.1878 1.7374,-0.5622 0.4642,-0.3803 0.6957,-0.9449 0.6957,-1.6949 0,-0.7772 -0.2374,-1.3689 -0.7134,-1.7705 -0.4748,-0.4027 -1.0854,-0.6047 -1.8283,-0.6047 -0.7229,0 -1.3122,0.2079 -1.7717,0.6213 -0.4523,0.4086 -0.6791,0.9767 -0.6791,1.7031 0,0.6272 0.2067,1.1693 0.6212,1.6288 0.4193,0.4535 1.0654,0.6791 1.9382,0.6791 m -2.1484,-5.3705 c -0.4205,-0.1795 -0.7465,-0.3886 -0.9815,-0.6295 -0.4417,-0.4476 -0.6626,-1.0287 -0.6626,-1.7457 0,-0.8952 0.3236,-1.663 0.9721,-2.3078 0.6496,-0.6426 1.5696,-0.965 2.7614,-0.965 1.1527,0 2.0563,0.3059 2.7106,0.9154 0.6543,0.6047 0.9827,1.3122 0.9827,2.1224 0,0.75 -0.1914,1.3571 -0.5717,1.8213 -0.2126,0.2633 -0.5421,0.5208 -0.9897,0.7724 0.4972,0.2291 0.8893,0.4913 1.174,0.789 0.5315,0.5586 0.7972,1.2862 0.7972,2.1815 0,1.0571 -0.3543,1.9547 -1.0653,2.6941 -0.7099,0.7322 -1.715,1.0984 -3.0118,1.0984 -1.1705,0 -2.1603,-0.3165 -2.9705,-0.9484 -0.8067,-0.6378 -1.2095,-1.5603 -1.2095,-2.7685 0,-0.7111 0.1737,-1.3229 0.5209,-1.8378 0.3473,-0.5209 0.8622,-0.9178 1.5437,-1.1918 z" class="fil3" id="path1675"/>
          <path style="fill: #002868;" inkscape:connector-curvature="0" d="m 1439.98,1099.26 0,-1.1575 c 1.0913,-0.1063 1.852,-0.2823 2.2831,-0.5279 0.4311,-0.2516 0.7523,-0.8422 0.9649,-1.7717 l 1.1918,0 0,11.9669 -1.6111,0 0,-8.5098 -2.8287,0 z" class="fil3" id="path1672"/>
          <path style="fill: #002868;" inkscape:connector-curvature="0" d="m 1368.41,1104.56 c 0.045,0.8339 0.3673,1.4102 0.965,1.728 0.3082,0.1688 0.6555,0.2539 1.0405,0.2539 0.7228,0 1.337,-0.3 1.8461,-0.8988 0.509,-0.6036 0.8704,-1.826 1.083,-3.6674 -0.3354,0.5315 -0.7523,0.9071 -1.2507,1.1245 -0.4926,0.2126 -1.0241,0.3189 -1.5945,0.3189 -1.1575,0 -2.0741,-0.3615 -2.752,-1.0819 -0.6709,-0.7229 -1.0063,-1.6512 -1.0063,-2.7863 0,-1.0901 0.3319,-2.0515 0.998,-2.8783 0.665,-0.828 1.6477,-1.2425 2.9457,-1.2425 1.7504,0 2.9587,0.789 3.6248,2.3669 0.3697,0.8669 0.5539,1.9524 0.5539,3.2551 0,1.4717 -0.2208,2.7756 -0.6626,3.9107 -0.7323,1.8909 -1.9759,2.837 -3.7263,2.837 -1.1741,0 -2.067,-0.3083 -2.6764,-0.9225 -0.6107,-0.6165 -0.9154,-1.3878 -0.9154,-2.3173 l 1.5272,0 m 2.2913,-2.4673 c 0.5988,0 1.1445,-0.1961 1.637,-0.587 0.4973,-0.3969 0.7465,-1.0878 0.7465,-2.0729 0,-0.8846 -0.2244,-1.5401 -0.6709,-1.9712 -0.4429,-0.437 -1.0086,-0.6543 -1.6949,-0.6543 -0.7393,0 -1.3275,0.248 -1.7633,0.7464 -0.43,0.4914 -0.6449,1.1528 -0.6449,1.9807 0,0.7831 0.189,1.4067 0.5693,1.8709 0.3803,0.4594 0.9885,0.6874 1.8212,0.6874 z" class="fil3" id="path1671"/>
          <path style="fill: #002868;" inkscape:connector-curvature="0" d="m 1361.59,1095.39 c 1.3429,0 2.2772,0.3496 2.8028,1.0488 0.5315,0.6933 0.7972,1.4103 0.7972,2.1485 l -1.4941,0 c -0.089,-0.4749 -0.2315,-0.8481 -0.4264,-1.1162 -0.3649,-0.5031 -0.9153,-0.7547 -1.6535,-0.7547 -0.8445,0 -1.5165,0.3909 -2.015,1.174 -0.4984,0.7772 -0.7748,1.8945 -0.8303,3.3484 0.3473,-0.509 0.7843,-0.8893 1.3087,-1.1409 0.4819,-0.2244 1.0181,-0.3366 1.611,-0.3366 1.0075,0 1.8862,0.3224 2.635,0.9649 0.75,0.6449 1.1256,1.604 1.1256,2.8796 0,1.0901 -0.3555,2.0575 -1.0665,2.9019 -0.711,0.8398 -1.7232,1.2591 -3.0378,1.2591 -1.1244,0 -2.0953,-0.4252 -2.9114,-1.2744 -0.8174,-0.8563 -1.226,-2.2937 -1.226,-4.3146 0,-1.4929 0.1831,-2.759 0.5457,-3.8008 0.6992,-1.9913 1.9771,-2.987 3.835,-2.987 m -0.1087,11.0339 c 0.7949,0 1.3878,-0.2645 1.7788,-0.796 0.398,-0.5374 0.5964,-1.1693 0.5964,-1.8969 0,-0.6153 -0.1771,-1.2 -0.5303,-1.7539 -0.3508,-0.5599 -0.9921,-0.8386 -1.9204,-0.8386 -0.6497,0 -1.2201,0.2149 -1.7115,0.646 -0.4866,0.4312 -0.7311,1.0796 -0.7311,1.9465 0,0.7618 0.2221,1.402 0.6638,1.9217 0.4465,0.5137 1.0654,0.7712 1.8543,0.7712 z" class="fil3" id="path1669"/>
          <path style="fill: #002868;" inkscape:connector-curvature="0" d="m 1351.67,1100.48 c 0.665,0 1.1858,-0.1843 1.5602,-0.5528 0.3744,-0.3755 0.5622,-0.8196 0.5622,-1.3346 0,-0.4476 -0.1795,-0.8587 -0.5374,-1.2343 -0.3578,-0.3744 -0.9023,-0.5622 -1.637,-0.5622 -0.7263,0 -1.2519,0.1878 -1.5767,0.5622 -0.3237,0.3756 -0.4867,0.815 -0.4867,1.3182 0,0.5645 0.2103,1.0063 0.6296,1.3252 0.4193,0.3189 0.9142,0.4783 1.4858,0.4783 m 0.091,5.9492 c 0.7003,0 1.2779,-0.1866 1.7374,-0.5622 0.4653,-0.3791 0.6968,-0.9437 0.6968,-1.6937 0,-0.7783 -0.2374,-1.3689 -0.7134,-1.7716 -0.476,-0.4016 -1.0854,-0.6036 -1.8295,-0.6036 -0.7217,0 -1.311,0.2067 -1.7705,0.6213 -0.4523,0.4075 -0.6791,0.9756 -0.6791,1.7031 0,0.6272 0.2055,1.1693 0.6201,1.6276 0.4204,0.4523 1.0653,0.6791 1.9382,0.6791 m -2.1485,-5.3693 c -0.4193,-0.1795 -0.7453,-0.3886 -0.9803,-0.6295 -0.4429,-0.4476 -0.6638,-1.0299 -0.6638,-1.7457 0,-0.8952 0.3248,-1.6641 0.9733,-2.3078 0.6496,-0.6426 1.5696,-0.965 2.7602,-0.965 1.1539,0 2.0563,0.3047 2.7118,0.9154 0.6543,0.6035 0.9815,1.3122 0.9815,2.1224 0,0.7488 -0.1902,1.3571 -0.5717,1.8213 -0.2114,0.2622 -0.5421,0.5196 -0.9897,0.7712 0.4984,0.2291 0.8905,0.4925 1.1752,0.7902 0.5315,0.5586 0.7972,1.285 0.7972,2.1815 0,1.0559 -0.3555,1.9547 -1.0665,2.6941 -0.7099,0.7322 -1.7138,1.0984 -3.0118,1.0984 -1.1693,0 -2.1591,-0.3165 -2.9705,-0.9484 -0.8055,-0.6378 -1.2083,-1.5615 -1.2083,-2.7697 0,-0.7099 0.1737,-1.3217 0.5209,-1.8366 0.3461,-0.5209 0.861,-0.9178 1.5425,-1.1918 z" class="fil3" id="path1667"/>
          <path style="fill: #002868;" inkscape:connector-curvature="0" d="m 1339.08,1098.95 0,-1.1575 c 1.0913,-0.1063 1.852,-0.2823 2.2819,-0.5279 0.4311,-0.2516 0.7535,-0.8433 0.965,-1.7717 l 1.1917,0 0,11.9669 -1.611,0 0,-8.5098 -2.8276,0 z" class="fil3" id="path1664"/>
        </g>
        <polygon style="stroke: #002868; stroke-width: 4; fill: #ffffff;" points="1563.94,1090.72 1258.66,1091.31 1243.95,1076.6 1569.23,1078.37 " class="fil1 str0" id="path1628"/>
        <polygon style="stroke: #002868; stroke-width: 4; fill: #ffffff;" points="1377.47,974.252 1378.06,967.194 1356.3,967.782 1356.89,974.252 " class="fil1 str0" id="path1631"/>
        <polygon style="stroke: #002868; stroke-width: 4; fill: #ffffff;" points="1455.71,974.252 1456.3,967.194 1437.47,967.194 1438.06,974.252 " class="fil1 str0" id="path1632"/>
        <polygon style="stroke: #002868; stroke-width: 4; fill: #ffffff;" points="1449.83,967.194 1449.83,958.371 1362.18,957.783 1361.59,967.194 " class="fil1 str0" id="path1633"/>
        <path style="stroke: #002868; stroke-width: 4; fill: #ffffff;" inkscape:connector-curvature="0" d="m 1416.89,1006.02 c -1.1764,-6.47126 -4.1185,-35.2925 -14.1177,-35.8819 -9.9992,-0.58819 -12.939,7.64764 -12.939,7.64764 0,0 14.1165,1.76339 12.939,7.64646 -1.1752,5.88071 -7.0583,20.5878 -9.9992,22.3512 -2.9398,1.7646 18.8232,-1.1764 24.1169,-1.7634 z" class="fil1 str0" id="path1638"/>
        <polygon style="stroke: #002868; stroke-width: 4; fill: #ffffff;" points="1422.77,1043.66 1421.59,1004.84 1396.89,1003.07 1394.53,1043.07 " class="fil1 str0" id="path1639"/>
        <path style="stroke: #002868; stroke-width: 4; fill: #ffffff;" inkscape:connector-curvature="0" d="m 1371.01,1033.48 c 0,0 -0.5197,-24.6969 1.1752,-31.5862 1.1776,-7.05827 5.2937,-11.7638 12.3531,-11.1756 7.0583,0.58701 19.4114,13.5283 19.4114,13.5283 0,0 18.8232,-17.0575 25.8815,-16.4693 8.0811,2.32559 12.2197,8.06339 12.9862,14.6575 0.1961,5.126 0.6142,31.3417 0.6142,31.3417 0,0 -14.6717,-16.5874 -19.4835,-18.3531 -4.1173,-1.1776 -12.352,-2.3528 -12.352,-2.3528 l -1.1233,31.9996 -6.5232,-0.2374 c 0,0 -0.5894,-15.2929 -1.1775,-21.1748 -0.5871,-5.8819 -2.9398,-11.1768 -2.9398,-11.1768 0,0 -10.5886,5.2949 -14.1177,9.4111 -4.2579,3.8811 -14.7047,11.5878 -14.7047,11.5878 z" class="fil1 str0" id="path1637"/>
        <g id="g1712">
          <path style="stroke: #002868; stroke-width: 4; fill: #ffffff;" inkscape:connector-curvature="0" d="m 1371.58,1035.78 70.6039,0.2303 c 0,0 0,8.2358 0,29.4106 -0.5539,25.8898 -35.6634,62.3728 -35.6646,62.374 0,0 -35.5382,-33.5421 -35.5087,-63.5504 -0.5894,-29.9988 0.5693,-28.4646 0.5693,-28.4646 z" class="fil1 str0" id="path1640"/>
          <polygon style="fill: #002868;" points="1386.52,1104.15 1386.5,1069.86 1381.5,1069.86 1381.51,1096.34 " class="fil3" id="path1641"/>
          <polygon style="fill: #002868;" points="1397.5,1118.22 1397.49,1069.86 1392.5,1069.86 1392.59,1112.31 " class="fil3" id="path1642"/>
          <polygon style="fill: #002868;" points="1409.48,1069.86 1403.49,1069.86 1403.51,1124.84 1406.51,1127.8 1409.48,1124.52 " class="fil3" id="path1643"/>
          <polygon style="fill: #002868;" points="1420.49,1111.25 1420.47,1069.86 1415.48,1069.86 1415.53,1117.51 " class="fil3" id="path1644"/>
          <polygon style="fill: #002868;" points="1431.46,1095.21 1431.47,1069.86 1426.47,1069.86 1426.54,1102.89 " class="fil3" id="path1645"/>
          <polygon style="fill: #002868;" points="1376.51,1069.86 1376.51,1085.67 1371.51,1069.86 " class="fil3" id="path1646"/>
          <polygon style="fill: #002868;" points="1436.53,1085.77 1441.88,1069.86 1436.51,1069.86 " class="fil3" id="path1647"/>
          <polygon style="stroke: #002868; stroke-width: 4; fill: #ffffff;" points="1442.18,1064.01 1371.01,1064.25 1371.01,1035.25 1442.18,1036.01 " class="fil1 str0" id="path1649"/>
        </g>
        <path style="fill: #002868;" inkscape:connector-curvature="0" d="m 1406.63,1038.49 2.9516,9.0815 9.548,0 -7.7256,5.6126 2.9516,9.0815 -7.7256,-5.6126 -7.7256,5.6126 2.9516,-9.0815 -7.7256,-5.6126 9.548,0 2.9516,-9.0815 z m 1.4752,4.5402 m 6.2504,4.5413 m 0.9118,2.8063 m -2.387,7.3465 m -2.387,1.735 m -7.7268,0 m -2.387,-1.735 m -2.387,-7.3465 m 0.9118,-2.8063 m 6.2504,-4.5413" class="fil3" id="_132303184"/>
      </g>
      <g id="g1566">
        <polygon style="stroke: #002868; stroke-width: 4; fill: #ffffff;" points="1594.07,924.79 1593.24,1021.45 1584.98,1020.62 1587.46,924.79 " class="fil1 str0" id="path1547"/>
        <path style="stroke: #002868; stroke-width: 4; fill: #ffffff;" inkscape:connector-curvature="0" d="m 1594.89,876.874 c 0,0 0,19.0004 0,26.4366 0,7.43504 -11.5665,18.1748 -10.7398,23.9587 0.8268,5.78268 8.2618,4.95591 10.7398,3.30354 2.4791,-1.65236 15.698,-23.9587 15.698,-37.1764 0,-13.2189 1.6512,-33.0461 -1.6524,-33.8717 -3.3059,-0.82677 -14.8713,12.3909 -14.8713,12.3909 l 0.8256,4.95827 z" class="fil1 str0" id="path1548"/>
        <path style="stroke: #002868; stroke-width: 4; fill: #ffffff;" inkscape:connector-curvature="0" d="m 1541.19,1004.1 c 0,0 -1.6535,31.3937 -1.6535,39.6555 0,8.2618 -0.8256,17.3492 -6.6095,22.3051 -5.7827,4.9571 -10.7398,3.3059 -12.3921,6.6095 -1.6512,3.3059 0.8268,5.7838 0.8268,5.7838 l 37.1776,-0.8268 c 0,0 -1.6536,-29.7402 -0.8268,-40.4811 0.8268,-10.7409 8.2606,-27.2634 4.1303,-30.5669 -4.1303,-3.3059 -17.3492,-3.3059 -20.6528,-2.4791 z" class="fil1 str0" id="path1543"/>
        <path style="stroke: #002868; stroke-width: 4; fill: #ffffff;" inkscape:connector-curvature="0" d="m 1502.36,995.014 c 0,0 19.8272,15.6969 19.0016,21.4795 -0.8268,5.7827 -9.9142,12.3921 -6.6094,15.6969 3.3047,3.3047 5.7826,2.4791 5.7826,2.4791 l 27.2646,-24.7854 -31.3949,-25.60977 -14.0445,10.7398 z" class="fil1 str0" id="path1544"/>
        <path style="stroke: #002868; stroke-width: 4; fill: #ffffff;" inkscape:connector-curvature="0" d="m 1566.8,1007.41 c 0,0 8.2618,11.5665 19.0016,11.5665 10.7398,0 24.7854,-29.7425 24.7854,-29.7425 0,0 -4.9583,40.4823 -23.9587,39.6555 -19.0016,-0.8256 -19.8283,-13.2189 -19.8283,-21.4795 z" class="fil1 str0" id="path1546"/>
        <path style="stroke: #002868; stroke-width: 4; fill: #ffffff;" inkscape:connector-curvature="0" d="m 1563.5,907.441 c 4.9571,-4.13031 6.6095,-28.089 6.6095,-28.089 l 7.435,-14.0445 c 0,0 12.3921,14.0445 18.176,13.2177 5.7827,-0.82677 14.0445,-0.82677 14.0445,-5.78268 0,-4.95709 2.4779,-12.3921 -1.6524,-16.5236 -4.1303,-4.13031 -25.6098,-21.4795 -29.7413,-23.9587 -4.1303,-2.47795 -47.0906,-7.43504 -50.3953,-7.43504 -3.3047,0 -16.5236,8.26181 -18.176,15.6969 -1.6511,7.43622 -4.9571,32.2205 -4.9571,38.8299 0,6.60945 0.7075,16.6594 0.7075,16.6594 l 12.5114,-8.39764 4.1303,11.5665 41.3079,8.26063 z" class="fil1 str0" id="path1545"/>
        <path style="stroke: #002868; stroke-width: 4; fill: #ffffff;" inkscape:connector-curvature="0" d="m 1519.71,828.13 c 9.0874,9.91299 11.5665,35.5252 11.5665,35.5252 0,0 2.478,-14.0457 9.0874,-19.0028 6.6094,-4.95591 22.3063,-5.78268 22.3063,-13.2177 0,-7.43504 -17.3492,-9.91417 -22.3063,-9.91417 -4.9571,0 -13.2189,0.82677 -20.6539,6.60945 z" class="fil1 str0" id="path1549"/>
        <path style="stroke: #002868; stroke-width: 4; fill: #ffffff;" inkscape:connector-curvature="0" d="m 1531.28,824 c 0,8.26063 3.3047,11.5665 7.435,12.3921 4.1304,0.82677 14.0445,-4.1315 13.2189,-8.26181 -0.8267,-4.13031 -20.6539,-4.13031 -20.6539,-4.13031 z" class="fil1 str0" id="path1550"/>
        <path style="stroke: #002868; stroke-width: 4; fill: #ffffff;" inkscape:connector-curvature="0" d="m 1534.59,823.173 c 0,0 0,9.91417 4.9559,9.0874 4.9571,-0.82559 9.0874,-10.7398 9.0874,-10.7398 l -14.0433,1.65236 z" class="fil1 str0" id="path1551"/>
        <path style="stroke: #002868; stroke-width: 4; fill: #ffffff;" inkscape:connector-curvature="0" d="m 1531.67,783.926 c -0.3059,5.8252 -0.9201,12.5728 -1.8402,13.7988 -0.92,1.22717 -3.9874,6.13346 -4.2933,8.58661 -0.3059,2.45315 2.7603,2.14724 2.7603,2.14724 0,0 -0.613,11.3469 -0.9201,13.4929 -0.3071,2.14606 4.9063,0.30591 7.0535,3.98622 2.1473,3.68031 2.1473,8.8937 3.3733,7.97362 1.2259,-0.92008 5.8263,-5.52047 8.2795,-8.28071 2.4531,-2.75906 6.1335,-0.61299 7.0535,-4.29213 0.9201,-3.68031 1.8402,-31.2803 1.8402,-31.2803 l -23.3067,-6.13228 z" class="fil1 str0" id="path1554"/>
        <path style="stroke: #002868; stroke-width: 4; fill: #ffffff;" inkscape:connector-curvature="0" d="m 1551.11,1004.93 c -9.0874,0.8268 -12.3921,-0.8256 -13.2189,-4.95591 -0.8256,-4.1315 -0.8256,-30.5693 -2.478,-39.6555 -1.6523,-9.0874 -4.1303,-13.2189 -4.1303,-13.2189 0,0 -21.4807,15.6969 -21.4807,23.1319 0,7.43622 6.6095,13.2189 6.6095,13.2189 l -13.2189,11.5665 c 0,0 -27.2634,-15.6969 -27.2634,-24.7854 0,-9.0874 28.0902,-39.6555 33.0461,-46.265 4.9583,-6.60945 6.6094,-25.6098 11.5665,-26.4366 4.9583,-0.82559 35.5252,1.65354 40.4823,5.78386 4.9559,4.13031 15.6969,22.3051 14.8713,33.8717 -0.8268,11.5665 -4.9571,9.91417 -5.7839,14.0457 -0.8256,4.13031 0,7.43386 -0.8256,13.2177 -0.8267,5.78268 -4.9571,1.65236 -4.9571,6.60945 0,4.95591 1.6512,26.4366 -0.8267,30.5681 -2.478,4.1303 -4.1303,3.3035 -12.3921,3.3035 z" class="fil1 str0" id="path1542"/>
        <path style="stroke: #002868; stroke-width: 4; fill: #ffffff;" inkscape:connector-curvature="0" d="m 1535.41,775.256 c -5.7827,4.95827 -9.0886,6.60945 -7.435,9.91535 1.6523,3.30354 14.8701,4.13031 16.5224,8.26063 1.6523,4.1315 0,10.7398 0,10.7398 l 6.6094,-1.65118 0,19.0004 c 0,0 16.5236,-13.2177 14.8701,-26.4366 -1.6512,-13.2189 -18.1736,-14.8701 -23.1319,-15.6969 -4.9571,-0.82559 -4.9571,-1.65236 -7.435,-4.1315 z" class="fil1 str0" id="path1552"/>
        <path style="stroke: #002868; stroke-width: 4; fill: #ffffff;" inkscape:connector-curvature="0" d="m 1504.68,897.391 c 0.3059,4.29213 1.2272,26.9858 -0.3071,30.3591 -1.5331,3.37323 -4.2933,8.8937 -0.6142,13.187 3.6815,4.29331 7.9737,6.13228 9.8138,2.75906 1.8402,-3.37323 -0.613,-19.0122 1.5331,-27.9059 2.1472,-8.8937 2.4543,-24.8398 0.9213,-26.9858 -1.5343,-2.14724 -10.7339,-1.22717 -11.3469,8.58661 z" class="fil1 str0" id="path1553"/>
        <path style="stroke: #002868; stroke-width: 4; fill: none;" inkscape:connector-curvature="0" d="m 1531.36,947.069 c -4.9075,-9.8126 -4.2945,-19.6252 -4.2945,-19.6252 m 4.2945,19.6252 0,0 0,0 z" class="fil4 str0" id="path1555"/>
        <path style="stroke: #002868; stroke-width: 4; fill: none;" inkscape:connector-curvature="0" d="m 1518.48,889.11 0.3071,-32.8134 m -0.3071,32.8134 0,0 0,0 z" class="fil4 str0" id="path1556"/>
        <path style="stroke: #002868; stroke-width: 4; fill: none;" inkscape:connector-curvature="0" d="m 1570.31,879.604 c 0,0 -4.9063,-3.67913 -6.4405,-5.51929 -1.5331,-1.84016 -3.3733,-4.60039 -3.3733,-4.60039 m 9.8138,10.1197 0,0 0,0 z" class="fil4 str0" id="path1557"/>
        <path style="stroke: #002868; stroke-width: 4; fill: none;" inkscape:connector-curvature="0" d="m 1589.32,876.23 c -0.3071,-15.639 19.6264,-18.7063 19.6264,-18.7063 m -19.6264,18.7063 0,0 0,0 z" class="fil4 str0" id="path1558"/>
        <path style="stroke: #002868; stroke-width: 4; fill: none;" inkscape:connector-curvature="0" d="m 1527.68,813.978 4.9063,0.30709 m -4.9063,-0.30709 0,0 0,0 z" class="fil4 str0" id="path1559"/>
        <path style="stroke: #002868; stroke-width: 4; fill: none;" inkscape:connector-curvature="0" d="m 1530.44,794.965 7.0535,6.13465 m -7.0535,-6.13465 0,0 0,0 z" class="fil4 str0" id="path1560"/>
      </g>
      <g id="g1607">
        <path style="stroke: #002868; stroke-width: 4; fill: #ffffff;" inkscape:connector-curvature="0" d="m 1251.25,800.79 c 0,0 -2.5878,-9.70512 -0.3236,-11.6457 2.2653,-1.94173 16.8224,-12.2953 21.0283,-11.9705 4.2071,0.32244 12.2941,12.2929 12.2941,12.2929 l -32.9988,11.3232 z" class="fil1 str0" id="path1603"/>
        <path style="stroke: #002868; stroke-width: 4; fill: #ffffff;" inkscape:connector-curvature="0" d="m 1259.51,831.295 c 0,0 -53.5087,39.2386 -54.1039,49.3465 -0.5941,10.1067 23.7827,39.2386 23.7827,39.2386 l 10.1067,-9.5126 c 0,0 -1.1882,-7.13386 -3.5669,-13.6748 -2.3776,-6.53858 -7.7292,-13.6736 -7.7292,-13.6736 0,0 1.1894,0.59528 7.1351,-1.78346 5.9457,-2.37756 10.1067,-5.35157 10.1067,-5.35157 0,0 -1.7835,11.8913 1.1894,18.4311 2.9716,6.54094 12.4854,22.5921 12.4854,22.5921 l 35.0776,-2.37756 c 0,0 1.1893,-46.3736 0.594,-57.0756 -0.594,-10.702 -13.6736,-30.9165 -13.6736,-30.9165 l -21.4039,4.75748 z" class="fil1 str0" id="path1588"/>
        <path style="stroke: #002868; stroke-width: 4; fill: #ffffff;" inkscape:connector-curvature="0" d="m 1267.84,1008.47 c 0,0 14.2701,10.1079 19.6205,14.8642 5.3504,4.7563 7.1339,7.1787 7.1339,7.1787 l 0.5763,5.3953 -14.8394,-0.051 -15.463,-17.8736 2.9717,-9.5137 z" class="fil1 str0" id="path1595"/>
        <path style="stroke: #002868; stroke-width: 4; fill: #ffffff;" inkscape:connector-curvature="0" d="m 1260.97,830.324 c -0.6461,2.58661 14.5925,11.6717 18.7547,16.428 4.1622,4.7563 13.0795,11.2972 13.0795,11.2972 0,0 0.5941,-7.73031 -4.7563,-17.837 -5.3504,-10.1079 -3.0862,-11.7248 -5.4638,-12.3189 -2.3775,-0.59528 -23.9138,-0.90945 -21.6142,2.43071 z" class="fil1 str0" id="path1592"/>
        <path style="stroke: #002868; stroke-width: 4; fill: #ffffff;" inkscape:connector-curvature="0" d="m 1255.95,923.448 c 0,0 -9.5126,39.2386 -10.702,70.7504 -1.1894,31.5106 6.5398,63.0201 6.5398,63.0201 l 22.5921,-2.9728 0,-37.4551 c 0,0 42.2126,-43.40083 42.2126,-49.94173 0,-6.53976 -23.1874,-38.0504 -21.998,-42.2114 1.1893,-4.16339 -0.5941,-10.1079 -0.5941,-10.1079 l -38.0504,8.9185 z" class="fil1 str0" id="path1590"/>
        <path style="stroke: #002868; stroke-width: 4; fill: #ffffff;" inkscape:connector-curvature="0" d="m 1274.97,990.631 c 0,0 6.1028,-18.972 7.8862,-24.3224 1.7835,-5.35157 2.3256,-9.51378 2.3256,-9.51378 0,0 7.0299,5.89252 6.4347,9.45945 -0.5941,3.56929 -8.9174,-1.18819 -16.6465,24.3768 z" class="fil1 str0" id="path1591"/>
        <path style="stroke: #002868; stroke-width: 4; fill: #002868;" inkscape:connector-curvature="0" d="m 1241.22,1004.6 c 0,0 -0.6472,-17.7933 -1.9405,-22.9689 -1.2957,-5.17795 -6.1465,-20.0587 -6.1465,-31.3819 0,-11.3232 2.2642,-19.0878 9.3815,-28.1457 7.1173,-9.05906 14.5583,-11.9705 14.5583,-11.9705 0,0 7.1173,0 17.7921,-0.32362 10.6772,-0.32244 20.3823,-0.96969 20.3823,-0.96969 l -0.3236,11.322 c 0,0 -13.5874,3.88228 -22.3228,3.88228 -8.7355,0 -18.1169,-1.94055 -18.1169,-1.94055 0,0 -14.8819,14.2346 -14.2346,27.822 0.6472,13.5886 4.5295,33.3224 4.2059,38.8228 -0.3225,5.49921 -3.2351,15.85158 -3.2351,15.85158 z" class="fil3 str0" id="path1605"/>
        <path style="stroke: #002868; stroke-width: 4; fill: #ffffff;" inkscape:connector-curvature="0" d="m 1258.65,831.67 c 0,0 -0.9177,-14.0492 0.2717,-19.9949 1.1893,-5.94567 6.5397,-20.2146 6.5397,-20.2146 l 20.8087,-0.59409 -0.5941,27.9425 -4.1622,-0.5941 1.7835,9.5126 c 0,0 -7.1339,3.56811 -13.6748,4.1622 -6.5386,0.5941 -10.9724,-0.21968 -10.9724,-0.21968 z" class="fil1 str0" id="path1593"/>
        <path style="stroke: #002868; stroke-width: 4; fill: #ffffff;" inkscape:connector-curvature="0" d="m 1262.71,810.058 c -13.0795,2.97165 -19.8461,8.75079 -24.0083,4.58976 -4.161,-4.16102 4.7563,-16.6476 23.7815,-24.3756 19.0252,-7.73031 36.8622,-3.56811 38.0516,0 1.1882,3.56693 -8.3244,10.1067 -13.0807,10.7008 -4.7563,0.59409 -13.6748,0 -17.2417,2.37756 -3.5669,2.37874 -7.5024,6.70748 -7.5024,6.70748 z" class="fil1 str0" id="path1586"/>
        <path style="stroke: #002868; stroke-width: 4; fill: #ffffff;" inkscape:connector-curvature="0" d="m 1258.39,824.864 c -7.35,0.36024 -8.8134,-6.90118 -5.413,-12 3.5681,-5.35157 10.1079,-14.8642 17.8358,-17.2417 7.7303,-2.37874 14.2701,0 14.8642,4.16102 1.415,4.37008 0.2457,7.49764 0.2457,7.49764 0,0 -10.9748,-8.54409 -15.7039,-3.93071 -4.1622,4.75748 -4.7563,13.6748 -8.3233,17.837 -1.1645,1.74567 -1.4799,3.58228 -3.5055,3.67677 z" class="fil1 str0" id="path1587"/>
        <path style="stroke: #002868; stroke-width: 4; fill: #ffffff;" inkscape:connector-curvature="0" d="m 1251.19,911.557 c 0.5941,-10.1067 9.3024,-12.4854 11.8913,-12.4854 2.2642,0 5.9445,11.2961 5.9445,19.0252 0,7.73031 -4.7563,23.1874 -8.9173,23.7815 -4.1622,0.59409 -2.9729,-20.2146 -2.9729,-20.2146 l -4.7574,0 -1.1882,-10.1067 z" class="fil1 str0" id="path1594"/>
        <path style="stroke: #002868; stroke-width: 4; fill: #ffffff;" inkscape:connector-curvature="0" d="m 1252.38,1056.62 -0.5941,21.4039 46.3736,-1.1894 c 0,0 1.1906,-3.5669 -1.7835,-6.5397 -2.9728,-2.9729 -16.0512,-4.1622 -18.4299,-8.3233 -2.3787,-4.1622 -2.9728,-6.5409 -2.9728,-6.5409 l -22.5933,1.1894 z" class="fil1 str0" id="path1596"/>
        <path style="stroke: #002868; stroke-width: 4; fill: none;" inkscape:connector-curvature="0" d="m 1272.6,831.201 c 8.7354,5.17559 19.0878,20.7035 19.735,23.2925 0.6461,2.5878 0.6461,3.55866 0.6461,3.55866 m -20.3811,-26.8512 0,0 0,0 z" class="fil4 str0" id="path1598"/>
        <path style="stroke: #002868; stroke-width: 4; fill: #ffffff;" inkscape:connector-curvature="0" d="m 1226.01,916.284 c 4.2047,-9.05787 12.2929,-8.73425 12.2929,-8.73425 0,0 11.3232,5.82402 10.9996,8.73425 -0.3248,2.9126 -9.0591,-0.32244 -9.7063,1.61811 -0.6472,1.94173 4.8531,8.08819 1.9417,10.9996 -2.9114,2.91142 -12.6177,-5.82283 -15.528,-12.6177 z" class="fil1 str0" id="path1599"/>
        <path style="stroke: #002868; stroke-width: 4; fill: none;" inkscape:connector-curvature="0" d="m 1282.4,822.954 -3.6567,-0.48898 m 4.8532,0.64725 0,0 0,0 z" class="fil4 str0" id="path1601"/>
        <path style="stroke: #002868; stroke-width: 4; fill: none;" inkscape:connector-curvature="0" d="m 1274.54,1016.9 c 0.215,-9.274 -1.1858,-19.1953 0.6472,-27.8232 m -0.6472,27.8232 0,0 0,0 z" class="fil4 str0" id="path1602"/>
        <path style="fill: #002868;" inkscape:connector-curvature="0" d="m 1281.66,809.687 c 0,-1.69724 -1.448,-3.07441 -3.235,-3.07441 -1.787,0 -3.2351,1.37717 -3.2351,3.07441 0,1.69724 1.4481,3.07205 3.2351,3.07205 1.787,0 3.235,-1.3748 3.235,-3.07205 z" class="fil3" id="path1604"/>
        <path style="stroke: #002868; stroke-width: 4; fill: none;" inkscape:connector-curvature="0" d="m 1285.22,956.725 c 1.9417,-11.9705 0.6461,-24.2634 0.6461,-24.2634 m -0.6461,24.2634 0,0 0,0 z" class="fil4 str0" id="path1606"/>
      </g>
      <path style="stroke: #002868; stroke-width: 4; fill: #ffffff;" inkscape:connector-curvature="0" d="m 1704.59,891.039 c 0,164.388 -133.604,297.804 -298.224,297.804 -164.617,0 -298.221,-133.416 -298.221,-297.804 0,-164.389 133.604,-297.806 298.221,-297.806 164.62,0 298.224,133.416 298.224,297.806 z m -59.2913,-0.94134 c 0,132.37904 -107.041,239.81804 -238.931,239.81804 -131.89,0 -238.932,-107.439 -238.932,-239.81804 0,-132.379 107.042,-239.817 238.932,-239.817 131.89,0 238.931,107.438 238.931,239.817 z" class="fil1 str0" id="path919"/>
      <path style="fill: #002868;" inkscape:connector-curvature="0" d="m 1482.86,612.633 c 3.124,1.14567 5.6031,2.74134 7.4374,4.78583 2.6681,2.94803 3.574,6.7311 2.7165,11.348 l -4.4574,-1.63701 c 0.3472,-2.62795 -0.1288,-4.80591 -1.4292,-6.53386 -1.2945,-1.74331 -3.2409,-3.09094 -5.8358,-4.04528 -3.078,-1.12913 -6.098,-0.92835 -9.0579,0.60472 -2.9456,1.53898 -5.2571,4.59449 -6.9366,9.16772 -1.4516,3.95315 -1.7657,7.49291 -0.9449,10.6205 0.8256,3.1122 3.202,5.38819 7.1244,6.82913 3.0036,1.10197 5.8052,1.14567 8.4036,0.12992 2.6185,-1.02402 4.6665,-3.4748 6.1405,-7.35118 l -10.4114,-3.82205 1.3713,-3.73583 14.5996,5.36103 -6.5315,17.7921 -2.8984,-1.06535 0.4854,-4.67598 c -2.1402,1.11496 -3.9165,1.7811 -5.3327,1.99843 -2.387,0.38976 -5.1035,0.026 -8.1531,-1.0937 -3.9378,-1.44567 -6.8575,-3.96496 -8.7591,-7.55669 -1.9181,-4.33465 -1.852,-9.29409 0.1973,-14.8772 2.0444,-5.5689 5.1803,-9.44291 9.4063,-11.62441 4.0192,-2.087 8.3078,-2.29251 12.8657,-0.61889 z" class="fil3" id="text1951"/>
      <polygon style="fill: #002868;" points="1273.65,638.692 1290.56,669.814 1285.84,672.381 1256.2,655.863 1269.89,681.053 1265.86,683.242 1248.95,652.119 1253.92,649.413 1283.35,666.079 1269.64,640.867 " class="fil3" id="path2004"/>
      <polygon style="fill: #002868;" points="1249.86,695.7 1246.27,698.957 1222.46,672.728 1226.05,669.47 " class="fil3" id="path2002"/>
      <path style="fill: #002868;" inkscape:connector-curvature="0" d="m 1174.2,721.372 4.2213,-5.42244 29.8831,10.3701 -17.4236,-26.3717 4.1775,-5.36575 27.9496,21.763 -2.8004,3.59528 -16.4953,-12.8433 c -0.5716,-0.44409 -1.5071,-1.19291 -2.8063,-2.24646 -1.2992,-1.05236 -2.7023,-2.16496 -4.2118,-3.34134 l 17.3657,26.3268 -2.9185,3.74764 -29.8252,-10.3252 0.8563,0.66732 c 0.6862,0.53268 1.7421,1.33583 3.1689,2.40591 1.4256,1.04882 2.4673,1.82835 3.1276,2.34213 l 16.4953,12.8433 -2.8146,3.61654 -27.9496,-21.7618 z" class="fil3" id="path2000"/>
      <path style="fill: #002868;" inkscape:connector-curvature="0" d="m 1151.4,757.874 c 2.5323,-5.7189 6.2445,-9.13819 11.1354,-10.2591 3.8161,-0.87638 7.9595,-0.32598 12.4276,1.65354 4.8354,2.14252 8.3114,5.14961 10.4291,9.02362 2.4874,4.54606 2.5488,9.4878 0.1854,14.824 -2.2063,4.98189 -5.5878,8.17087 -10.1421,9.56457 -4.3015,1.13504 -8.8771,0.62953 -13.728,-1.51772 -4.3795,-1.94055 -7.6464,-4.6878 -9.7984,-8.24291 -2.7614,-4.56378 -2.9315,-9.57874 -0.5091,-15.0461 m 30.4878,12.9744 c 1.7126,-3.86575 1.5674,-7.27087 -0.4334,-10.2142 -2.0103,-2.96457 -4.8166,-5.24409 -8.4166,-6.83858 -3.8078,-1.68661 -7.3145,-2.04331 -10.5224,-1.07362 -3.2007,0.95669 -5.5665,3.16063 -7.096,6.61417 -1.4847,3.35197 -1.5425,6.59646 -0.1713,9.73583 1.3547,3.1311 4.2744,5.69055 8.7579,7.67598 3.587,1.58858 7.0146,2.02441 10.2839,1.31102 3.2622,-0.73583 5.7957,-3.13937 7.598,-7.21063 z" class="fil3" id="path1999"/>
      <polygon style="fill: #002868;" points="1168.48,817.387 1154.59,814.091 1130.93,822.231 1132.22,816.789 1151.13,810.817 1136.91,796.988 1138.21,791.52 1155.7,809.422 1169.59,812.718 " class="fil3" id="path1996"/>
      <polygon style="fill: #002868;" points="1157.46,857.303 1127.73,864.05 1156.67,873.681 1156.43,878.715 1120.6,886.253 1120.85,881.05 1149.96,875.77 1121.56,866.383 1121.81,861.181 1150.98,854.576 1122.52,846.514 1122.78,841.263 1157.71,852.27 " class="fil3" id="path1994"/>
      <polygon style="fill: #002868;" points="1147.22,966.98 1142.28,950.313 1146.32,949.113 1151.26,965.78 1166.71,961.201 1168.07,965.802 1134.11,975.872 1127.12,952.315 1131.29,951.081 1136.91,970.038 " class="fil3" id="path1993"/>
      <path style="fill: #002868;" inkscape:connector-curvature="0" d="m 1149.96,1016.94 c -3.8043,-4.963 -5.0268,-9.8587 -3.6661,-14.6906 1.0594,-3.77008 3.5291,-7.14094 7.4067,-10.1138 4.1976,-3.21732 8.5039,-4.82717 12.9177,-4.82835 5.1826,-0.004 9.5492,2.31024 13.0996,6.94134 3.3165,4.32402 4.4929,8.82051 3.5326,13.48581 -1.063,4.3205 -3.6992,8.0929 -7.9098,11.3209 -3.802,2.915 -7.7787,4.4646 -11.9315,4.65 -5.328,0.2362 -9.8114,-2.0185 -13.4492,-6.7654 m 25.9996,-20.53936 c -2.5724,-3.35551 -5.6291,-4.86024 -9.1724,-4.51417 -3.5646,0.3437 -6.9107,1.71378 -10.0358,4.10906 -3.3048,2.53346 -5.2997,5.44017 -5.9859,8.72007 -0.6945,3.2669 0.1063,6.4004 2.4047,9.3992 2.2311,2.9079 5.0504,4.5142 8.4626,4.8154 3.3981,0.3106 7.0429,-1.0252 10.9346,-4.0087 3.1122,-2.3846 5.139,-5.185 6.0804,-8.3964 0.9165,-3.2162 0.021,-6.5906 -2.6882,-10.12445 z" class="fil3" id="path1992"/>
      <polygon style="fill: #002868;" points="1216.52,1051.85 1233.7,1071.61 1206.98,1094.86 1190.03,1075.38 1193.3,1072.53 1207.18,1088.48 1215.3,1081.42 1202.46,1066.67 1205.55,1063.98 1218.39,1078.73 1227.45,1070.85 1213.33,1054.62 " class="fil3" id="path1989"/>
      <polygon style="fill: #002868;" points="1234.24,1113.13 1251.79,1087.33 1255.81,1090.07 1238.27,1115.87 1248.14,1122.58 1245.76,1126.07 1222,1109.91 1224.37,1106.42 " class="fil3" id="path1987"/>
      <path style="fill: #002868;" inkscape:connector-curvature="0" d="m 1273.5,1119.64 -2.7874,16.3122 12.5197,-10.9902 -9.7323,-5.322 m -3.1086,22.1268 -4.7611,-2.6032 5.713,-37.2461 4.6134,2.5228 -1.937,11.0327 12.2917,6.7193 8.4543,-7.4693 4.3158,2.3587 -28.6902,24.685 z" class="fil3" id="path1986"/>
      <polygon style="fill: #002868;" points="1310.4,1156.01 1320.45,1126.47 1325.06,1128.04 1315.01,1157.58 1326.31,1161.42 1324.96,1165.42 1297.74,1156.16 1299.1,1152.17 " class="fil3" id="path1983"/>
      <path style="fill: #002868;" inkscape:connector-curvature="0" d="m 1362,1149.34 c 0.2067,-2.0031 0,-3.6874 -0.6307,-5.0587 -1.2012,-2.5677 -3.7866,-4.1704 -7.7551,-4.8047 -1.7776,-0.2834 -3.4382,-0.2893 -4.9784,-0.015 -2.9834,0.5326 -4.6771,2.0693 -5.0846,4.6086 -0.3036,1.9051 0.074,3.3579 1.135,4.3571 1.0795,0.9874 2.8583,1.9795 5.3362,2.9788 l 4.5674,1.8283 c 2.9834,1.1929 5.0515,2.3138 6.2019,3.3602 1.989,1.8166 2.7508,4.1752 2.2866,7.0808 -0.5019,3.1429 -2.0019,5.5488 -4.4988,7.2165 -2.498,1.6677 -5.739,2.1839 -9.7228,1.5472 -3.6673,-0.587 -6.6354,-1.9724 -8.9067,-4.1598 -2.2902,-2.1721 -3.1252,-5.2039 -2.5016,-9.0933 l 4.4516,0.7122 c -0.06,1.9122 0.2173,3.4287 0.835,4.5531 1.1528,2.0575 3.4595,3.3626 6.9201,3.9154 2.7933,0.4476 4.8945,0.1807 6.3047,-0.7984 1.4115,-0.9803 2.2394,-2.2465 2.4898,-3.802 0.2728,-1.715 -0.241,-3.0839 -1.5425,-4.1055 -0.8551,-0.6579 -2.8736,-1.6311 -6.052,-2.9209 l -4.7268,-1.9039 c -2.2783,-0.9177 -3.9862,-1.9477 -5.1224,-3.0898 -1.9606,-1.9901 -2.6929,-4.5413 -2.1957,-7.6523 0.6201,-3.8741 2.4756,-6.417 5.5677,-7.6323 3.0768,-1.2177 6.4784,-1.5284 10.2094,-0.9319 4.3489,0.6957 7.5768,2.3516 9.6815,4.9677 2.1083,2.5996 2.8359,5.7839 2.1839,9.5539 l -4.4528,-0.711 z" class="fil3" id="path1982"/>
      <polygon style="fill: #002868;" points="1431.3,1140.78 1457.08,1136.16 1463.33,1171.03 1437.91,1175.58 1437.14,1171.31 1457.96,1167.58 1456.06,1156.99 1436.81,1160.44 1436.09,1156.41 1455.34,1152.96 1453.22,1141.14 1432.05,1144.93 " class="fil3" id="path1980"/>
      <polygon style="fill: #002868;" points="1504.38,1121.81 1508.98,1120.29 1520.1,1153.92 1515.5,1155.44 1510.91,1141.54 1493.42,1147.32 1498.01,1161.22 1493.41,1162.74 1482.29,1129.11 1486.89,1127.59 1492.09,1143.32 1509.58,1137.54 " class="fil3" id="path1978"/>
      <polygon style="fill: #002868;" points="1552.95,1131.21 1536.34,1104.79 1540.46,1102.2 1557.07,1128.62 1567.18,1122.26 1569.42,1125.84 1545.09,1141.13 1542.84,1137.56 " class="fil3" id="path1977"/>
      <polygon style="fill: #002868;" points="1615.4,1064.67 1603.88,1077.68 1600.72,1074.88 1612.24,1061.87 1600.19,1051.19 1603.37,1047.6 1629.88,1071.08 1613.59,1089.47 1610.34,1086.6 1623.45,1071.79 " class="fil3" id="path1976"/>
      <path style="fill: #002868;" inkscape:connector-curvature="0" d="m 1653.18,1043.66 c -4.1468,4.6807 -8.7201,6.8138 -13.722,6.4004 -3.9024,-0.3225 -7.6831,-2.1024 -11.3421,-5.3433 -3.9591,-3.5067 -6.3591,-7.4268 -7.2024,-11.7591 -0.9921,-5.087 0.4465,-9.8138 4.3146,-14.1827 3.6142,-4.0795 7.8012,-6.0933 12.5646,-6.0402 4.4433,0.2197 8.6516,2.0882 12.6224,5.6055 3.5858,3.176 5.8666,6.7855 6.8386,10.8248 1.2484,5.1863 -0.1099,10.0169 -4.0736,14.4945 m -25.1232,-21.6059 c -2.8028,3.1642 -3.6957,6.4524 -2.6811,9.8646 1.0169,3.4347 3,6.4571 5.948,9.0685 3.1169,2.7614 6.3508,4.1646 9.7016,4.2118 3.3401,0.059 6.2634,-1.3252 8.7685,-4.1527 2.4295,-2.7437 3.4665,-5.8193 3.1122,-9.2256 -0.3425,-3.3957 -2.3481,-6.7193 -6.0189,-9.9685 -2.9362,-2.6008 -6.0721,-4.0571 -9.404,-4.3678 -3.3319,-0.287 -6.4736,1.2367 -9.4263,4.5697 z" class="fil3" id="path1975"/>
      <polygon style="fill: #002868;" points="1647.1,962.016 1653.17,940.104 1687.31,949.566 1686.03,954.191 1655.96,945.855 1651.17,963.143 " class="fil3" id="path1972"/>
      <path style="fill: #002868;" inkscape:connector-curvature="0" d="m 1671.5,917.131 16.1846,-3.44291 -14.8417,-7.56732 -1.3429,11.0102 m 21.7063,-5.29606 -0.6567,5.38465 -36.7169,8.47087 0.6366,-5.21811 10.9654,-2.28189 1.6961,-13.9063 -10.0665,-5.09055 0.5952,-4.88386 33.5469,17.5252 z" class="fil3" id="path1971"/>
      <polygon style="fill: #002868;" points="1656.55,882.092 1654.6,855.978 1689.92,853.339 1691.84,879.092 1687.51,879.416 1685.94,858.328 1675.22,859.129 1676.67,878.63 1672.58,878.936 1671.13,859.434 1659.15,860.328 1660.75,881.778 " class="fil3" id="path1968"/>
      <path style="fill: #002868;" inkscape:connector-curvature="0" d="m 1656.23,810.501 c -1.8496,0.78898 -3.2232,1.79055 -4.1173,3.00236 -1.6666,2.29488 -1.8154,5.33268 -0.4477,9.1122 0.6119,1.69252 1.4115,3.14646 2.3977,4.36299 1.911,2.35157 4.0748,3.08976 6.4949,2.21457 1.813,-0.65551 2.9008,-1.69134 3.2622,-3.10394 0.3401,-1.42205 0.3472,-3.45827 0.02,-6.10984 l -0.6118,-4.8815 c -0.4015,-3.18898 -0.4228,-5.53937 -0.065,-7.05354 0.6248,-2.61969 2.3208,-4.42913 5.087,-5.43071 2.9941,-1.08189 5.824,-0.93543 8.4933,0.44173 2.6693,1.3748 4.689,3.96142 6.0626,7.75512 1.2626,3.49252 1.4882,6.76181 0.6756,9.80669 -0.7925,3.05669 -3.0402,5.25472 -6.7429,6.59528 l -1.5343,-4.24134 c 1.702,-0.87165 2.8949,-1.85079 3.5799,-2.93504 1.2402,-2.00551 1.2638,-4.65472 0.072,-7.95118 -0.9626,-2.65984 -2.2134,-4.37008 -3.7524,-5.12953 -1.5401,-0.75945 -3.0508,-0.87047 -4.5319,-0.33425 -1.6334,0.58937 -2.5807,1.70197 -2.8452,3.33543 -0.1607,1.06772 -0.035,3.30472 0.3767,6.7122 l 0.6248,5.05512 c 0.3,2.43898 0.2256,4.4315 -0.2232,5.97874 -0.7913,2.67992 -2.6681,4.55551 -5.6315,5.62677 -3.6886,1.33465 -6.8138,0.94252 -9.3732,-1.17283 -2.5559,-2.10236 -4.4752,-4.92874 -5.7603,-8.4815 -1.4988,-4.14213 -1.6134,-7.76693 -0.3448,-10.8756 1.2531,-3.10394 3.6874,-5.28307 7.3015,-6.53858 l 1.5331,4.24016 z" class="fil3" id="path1966"/>
      <polygon style="fill: #002868;" points="1644.2,740.314 1617.51,756.47 1614.99,752.302 1641.68,736.147 1635.5,725.935 1639.11,723.75 1653.99,748.341 1650.38,750.526 " class="fil3" id="path1964"/>
      <path style="fill: #002868;" inkscape:connector-curvature="0" d="m 1604.23,717.069 8.7496,-14.0445 -15.7465,5.43898 6.9969,8.60551 m 11.2465,-19.3075 3.4216,4.20945 -19.3736,32.3197 -3.3165,-4.07835 5.9645,-9.48189 -8.8381,-10.8697 -10.65,3.71929 -3.104,-3.81614 35.8961,-12.0024 z" class="fil3" id="path1963"/>
      <polygon style="fill: #002868;" points="1566.18,698.513 1545.39,682.591 1566.92,654.469 1587.43,670.172 1584.79,673.617 1568,660.759 1561.46,669.296 1576.99,681.188 1574.49,684.442 1558.97,672.552 1551.67,682.084 1568.74,695.163 " class="fil3" id="path1960"/>
      <path style="fill: #002868;" inkscape:connector-curvature="0" d="m 1315.39,618.45 c 3.228,-0.81024 6.176,-0.88583 8.8429,-0.2315 3.8646,0.93662 6.7429,3.55394 8.6339,7.85197 l -4.6087,1.15748 c -1.1905,-2.36929 -2.8098,-3.90236 -4.8579,-4.59803 -2.0515,-0.71102 -4.4173,-0.72992 -7.0996,-0.0579 -3.1807,0.79843 -5.563,2.66457 -7.148,5.59724 -1.5673,2.93031 -1.7587,6.75709 -0.5728,11.4803 1.0252,4.08543 2.7567,7.18937 5.1956,9.31181 2.4355,2.10827 5.6788,2.65157 9.7323,1.63465 3.104,-0.77835 5.4437,-2.3185 7.0193,-4.62047 1.5886,-2.32205 1.9016,-5.49921 0.939,-9.53268 l -10.7575,2.69882 -0.9685,-3.85866 15.085,-3.78661 4.6134,18.3827 -2.9929,0.75236 -2.2335,-4.13858 c -1.1398,2.12598 -2.2347,3.67559 -3.2823,4.65236 -1.7527,1.66535 -4.2035,2.89488 -7.3523,3.68504 -4.0701,1.02165 -7.9016,0.58229 -11.4945,-1.31693 -4.0252,-2.50276 -6.7619,-6.63898 -8.2099,-12.4087 -1.4445,-5.75315 -1.0334,-10.7209 1.2307,-14.902 2.1496,-3.9874 5.5784,-6.57047 10.2862,-7.75276 z" class="fil3" id="path1956"/>
      <path style="fill: #002868;" inkscape:connector-curvature="0" d="m 1526.76,650.304 c 1.9937,1.04409 3.776,1.46929 5.3468,1.27559 1.5851,-0.1878 2.9221,-1.32047 4.0111,-3.40039 1.1693,-2.23583 1.1551,-4.18465 -0.045,-5.84646 -0.6449,-0.8811 -1.6937,-1.70197 -3.1477,-2.4626 l -10.3831,-5.43307 -5.6102,10.7256 9.828,5.14134 m -6.5587,-21.7441 14.5299,7.60039 c 2.3917,1.25197 4.1823,2.63386 5.3693,4.14331 2.2488,2.88189 2.4307,6.12402 0.5445,9.72756 -0.9827,1.88031 -2.1803,3.21378 -3.5894,4.00039 -1.3949,0.7937 -2.9799,1.18937 -4.7563,1.18465 0.9638,1.13976 1.5402,2.27598 1.728,3.40866 0.2007,1.13976 -0.1394,2.63976 -1.0205,4.5 l -2.0528,4.2874 c -0.5834,1.2189 -0.9508,2.16142 -1.0984,2.82638 -0.2658,1.1315 -0.1453,2.01142 0.3614,2.63858 l -0.3685,0.70512 -5.2134,-2.72717 c 0,-0.34488 0.067,-0.75354 0.2055,-1.2248 0.1382,-0.47362 0.4985,-1.33583 1.0819,-2.59134 l 2.4839,-5.36811 c 0.9732,-2.10354 0.9295,-3.87756 -0.1299,-5.31969 -0.6107,-0.80906 -1.7847,-1.6689 -3.5221,-2.57835 l -9.6791,-5.06339 -7.0417,13.461 -4.2508,-2.2252 16.4185,-31.3854 z" class="fil3" id="path2005"/>
    </g>
  </g>

	<metadata>
		<rdf:RDF xmlns:rdf="http://www.w3.org/1999/02/22-rdf-syntax-ns#" xmlns:rdfs="http://www.w3.org/2000/01/rdf-schema#" xmlns:dc="http://purl.org/dc/elements/1.1/">
			<rdf:Description about="https://iconscout.com/legal#licenses" dc:title="wyoming" dc:description="wyoming" dc:publisher="Iconscout" dc:date="2017-05-28" dc:format="image/svg+xml" dc:language="en">
				<dc:creator>
					<rdf:Bag>
						<rdf:li>Vignesh Oviyan</rdf:li>
					</rdf:Bag>
				</dc:creator>
			</rdf:Description>
		</rdf:RDF>
    </metadata></svg>
