<svg width="54" height="54" viewBox="0 0 54 54" fill="none" xmlns="http://www.w3.org/2000/svg">
<circle cx="27" cy="27" r="27" fill="white" fill-opacity="0.5"/>
<path fill-rule="evenodd" clip-rule="evenodd" d="M27 45C36.9411 45 45 36.9411 45 27C45 17.0589 36.9411 9 27 9C17.0589 9 9 17.0589 9 27C9 36.9411 17.0589 45 27 45ZM27.9232 36.4076C27.9232 36.4076 24.1305 38.9784 22.324 34.8135C22.324 34.8135 19.9347 29.8261 22.6344 20.8861C21.9525 18.5674 22.0528 16.9565 22.0552 16.918L22.0553 16.9173C25.1327 16.4162 27.571 18.7274 27.571 18.7274C31.244 16.9536 33.3482 20.2507 33.3482 20.2507C33.3482 20.2507 35.3199 22.7108 34.2887 26.6833C33.2592 30.6558 30.3144 31.373 30.3144 31.373C28.5238 32.0313 26.9171 30.9536 26.5602 30.7142C26.5451 30.7041 26.5322 30.6954 26.5216 30.6885C26.2638 30.516 26.2584 30.7085 26.2584 30.7085C26.1186 33.2013 27.9232 36.4076 27.9232 36.4076ZM28.5351 27.4894C29.4011 27.6329 30.3071 26.4564 30.5558 24.8623C30.8046 23.2682 30.3035 21.8611 29.4356 21.7195C28.5678 21.5761 27.6618 22.7526 27.4131 24.3466C27.1643 25.9389 27.6654 27.346 28.5351 27.4894Z" fill="#345BFF"/>
</svg>
