<svg width="376" height="532" viewBox="0 0 376 532" fill="none" xmlns="http://www.w3.org/2000/svg">
<g opacity="0.8" filter="url(#filter0_f_1263_15676)">
<ellipse cx="117.151" cy="117.151" rx="117.151" ry="117.151" transform="matrix(0.879976 -0.475017 -0.475017 -0.879976 93.5249 387.706)" fill="#2C4CFF" fill-opacity="0.3"/>
</g>
<g opacity="0.8" filter="url(#filter1_f_1263_15676)">
<ellipse cx="104.026" cy="103.745" rx="104.026" ry="103.745" transform="matrix(0.879976 -0.475017 -0.475017 -0.879976 222.927 456.913)" fill="#FFD8D1"/>
</g>
<path d="M51.0391 178.428C71.5214 266.602 171.391 292.6 214.902 306.619C245.384 316.44 308.056 331.282 355 378.56" stroke="url(#paint0_linear_1263_15676)" stroke-width="2"/>
<g filter="url(#filter2_b_1263_15676)">
<path d="M254.335 226.939C251.394 228.347 247.804 226.962 246.316 223.846C244.829 220.731 246.008 217.063 248.949 215.656C251.89 214.248 255.48 215.632 256.967 218.748C258.455 221.864 257.276 225.531 254.335 226.939Z" fill="url(#paint1_linear_1263_15676)"/>
<path d="M246.427 223.794C247.888 226.854 251.408 228.204 254.282 226.829C257.157 225.453 258.318 221.862 256.857 218.801C255.396 215.74 251.876 214.39 249.002 215.766C246.127 217.142 244.966 220.733 246.427 223.794Z" stroke="url(#paint2_linear_1263_15676)" stroke-width="0.244388"/>
</g>
<g filter="url(#filter3_b_1263_15676)">
<path d="M253.697 225.221C251.448 226.298 248.687 225.206 247.53 222.783C246.373 220.359 247.259 217.522 249.508 216.445C251.757 215.369 254.518 216.461 255.675 218.884C256.831 221.307 255.946 224.145 253.697 225.221Z" fill="url(#paint3_linear_1263_15676)"/>
<path d="M247.64 222.73C248.771 225.1 251.463 226.155 253.644 225.111C255.825 224.067 256.696 221.307 255.564 218.937C254.433 216.566 251.741 215.512 249.56 216.556C247.38 217.6 246.509 220.36 247.64 222.73Z" stroke="url(#paint4_linear_1263_15676)" stroke-width="0.244388"/>
</g>
<g filter="url(#filter4_b_1263_15676)">
<path fill-rule="evenodd" clip-rule="evenodd" d="M246.317 223.844C247.805 226.96 251.395 228.345 254.336 226.937C257.278 225.53 258.456 221.863 256.969 218.748C256.544 217.858 255.948 217.11 255.244 216.527C255.977 217.093 256.595 217.831 257.03 218.718C258.552 221.817 257.273 225.563 254.174 227.085C251.075 228.607 247.329 227.328 245.808 224.229C244.416 221.395 245.366 218.02 247.909 216.3C245.75 217.991 245.02 221.127 246.317 223.844Z" fill="url(#paint5_linear_1263_15676)"/>
</g>
<g filter="url(#filter5_b_1263_15676)">
<path d="M69.3349 325.939C66.3938 327.347 62.8038 325.962 61.3165 322.846C59.8292 319.731 61.0078 316.063 63.9489 314.656C66.8901 313.248 70.4801 314.632 71.9674 317.748C73.4547 320.864 72.2761 324.531 69.3349 325.939Z" fill="url(#paint6_linear_1263_15676)"/>
<path d="M61.4267 322.794C62.8878 325.854 66.4078 327.204 69.2823 325.829C72.1567 324.453 73.3183 320.862 71.8572 317.801C70.3961 314.74 66.876 313.39 64.0016 314.766C61.1271 316.142 59.9656 319.733 61.4267 322.794Z" stroke="url(#paint7_linear_1263_15676)" stroke-width="0.244388"/>
</g>
<g filter="url(#filter6_b_1263_15676)">
<path d="M68.6968 324.221C66.4476 325.298 63.6866 324.206 62.5298 321.783C61.373 319.359 62.2585 316.522 64.5077 315.445C66.7568 314.369 69.5178 315.461 70.6746 317.884C71.8314 320.307 70.9459 323.145 68.6968 324.221Z" fill="url(#paint8_linear_1263_15676)"/>
<path d="M62.64 321.73C63.7715 324.1 66.4634 325.155 68.6441 324.111C70.8248 323.067 71.6959 320.307 70.5644 317.937C69.433 315.566 66.741 314.512 64.5603 315.556C62.3796 316.6 61.5086 319.36 62.64 321.73Z" stroke="url(#paint9_linear_1263_15676)" stroke-width="0.244388"/>
</g>
<g filter="url(#filter7_b_1263_15676)">
<path fill-rule="evenodd" clip-rule="evenodd" d="M61.317 322.844C62.8047 325.96 66.3951 327.345 69.3365 325.937C72.2778 324.53 73.4562 320.863 71.9685 317.748C71.5438 316.858 70.9478 316.11 70.2444 315.527C70.977 316.093 71.5946 316.831 72.0301 317.718C73.5519 320.817 72.2733 324.563 69.1743 326.085C66.0753 327.607 62.3295 326.328 60.8077 323.229C59.4161 320.395 60.3664 317.02 62.909 315.3C60.7499 316.991 60.0195 320.127 61.317 322.844Z" fill="url(#paint10_linear_1263_15676)"/>
</g>
<path d="M238.163 181.5C266.722 217.884 314.807 237.752 355.5 250.095" stroke="url(#paint11_linear_1263_15676)" stroke-width="2"/>
<path d="M21.0273 313.938C45.0908 354.619 84.0333 378.067 116.819 393.047" stroke="url(#paint12_linear_1263_15676)" stroke-width="2"/>
<defs>
<filter id="filter0_f_1263_15676" x="-87.4575" y="0.542969" width="456.848" height="456.848" filterUnits="userSpaceOnUse" color-interpolation-filters="sRGB">
<feFlood flood-opacity="0" result="BackgroundImageFix"/>
<feBlend mode="normal" in="SourceGraphic" in2="BackgroundImageFix" result="shape"/>
<feGaussianBlur stdDeviation="55.625" result="effect1_foregroundBlur_1263_15676"/>
</filter>
<filter id="filter1_f_1263_15676" x="50.2041" y="101.378" width="429.966" height="429.656" filterUnits="userSpaceOnUse" color-interpolation-filters="sRGB">
<feFlood flood-opacity="0" result="BackgroundImageFix"/>
<feBlend mode="normal" in="SourceGraphic" in2="BackgroundImageFix" result="shape"/>
<feGaussianBlur stdDeviation="55.5" result="effect1_foregroundBlur_1263_15676"/>
</filter>
<filter id="filter2_b_1263_15676" x="244.858" y="214.29" width="13.5672" height="14.014" filterUnits="userSpaceOnUse" color-interpolation-filters="sRGB">
<feFlood flood-opacity="0" result="BackgroundImageFix"/>
<feGaussianBlur in="BackgroundImageFix" stdDeviation="0.407314"/>
<feComposite in2="SourceAlpha" operator="in" result="effect1_backgroundBlur_1263_15676"/>
<feBlend mode="normal" in="SourceGraphic" in2="effect1_backgroundBlur_1263_15676" result="shape"/>
</filter>
<filter id="filter3_b_1263_15676" x="246.207" y="215.216" width="10.7899" height="11.2347" filterUnits="userSpaceOnUse" color-interpolation-filters="sRGB">
<feFlood flood-opacity="0" result="BackgroundImageFix"/>
<feGaussianBlur in="BackgroundImageFix" stdDeviation="0.407314"/>
<feComposite in2="SourceAlpha" operator="in" result="effect1_backgroundBlur_1263_15676"/>
<feBlend mode="normal" in="SourceGraphic" in2="effect1_backgroundBlur_1263_15676" result="shape"/>
</filter>
<filter id="filter4_b_1263_15676" x="244.189" y="215.322" width="14.46" height="13.3819" filterUnits="userSpaceOnUse" color-interpolation-filters="sRGB">
<feFlood flood-opacity="0" result="BackgroundImageFix"/>
<feGaussianBlur in="BackgroundImageFix" stdDeviation="0.488776"/>
<feComposite in2="SourceAlpha" operator="in" result="effect1_backgroundBlur_1263_15676"/>
<feBlend mode="normal" in="SourceGraphic" in2="effect1_backgroundBlur_1263_15676" result="shape"/>
</filter>
<filter id="filter5_b_1263_15676" x="59.8582" y="313.29" width="13.5672" height="14.014" filterUnits="userSpaceOnUse" color-interpolation-filters="sRGB">
<feFlood flood-opacity="0" result="BackgroundImageFix"/>
<feGaussianBlur in="BackgroundImageFix" stdDeviation="0.407314"/>
<feComposite in2="SourceAlpha" operator="in" result="effect1_backgroundBlur_1263_15676"/>
<feBlend mode="normal" in="SourceGraphic" in2="effect1_backgroundBlur_1263_15676" result="shape"/>
</filter>
<filter id="filter6_b_1263_15676" x="61.2073" y="314.216" width="10.7899" height="11.2347" filterUnits="userSpaceOnUse" color-interpolation-filters="sRGB">
<feFlood flood-opacity="0" result="BackgroundImageFix"/>
<feGaussianBlur in="BackgroundImageFix" stdDeviation="0.407314"/>
<feComposite in2="SourceAlpha" operator="in" result="effect1_backgroundBlur_1263_15676"/>
<feBlend mode="normal" in="SourceGraphic" in2="effect1_backgroundBlur_1263_15676" result="shape"/>
</filter>
<filter id="filter7_b_1263_15676" x="59.189" y="314.322" width="14.46" height="13.3819" filterUnits="userSpaceOnUse" color-interpolation-filters="sRGB">
<feFlood flood-opacity="0" result="BackgroundImageFix"/>
<feGaussianBlur in="BackgroundImageFix" stdDeviation="0.488776"/>
<feComposite in2="SourceAlpha" operator="in" result="effect1_backgroundBlur_1263_15676"/>
<feBlend mode="normal" in="SourceGraphic" in2="effect1_backgroundBlur_1263_15676" result="shape"/>
</filter>
<linearGradient id="paint0_linear_1263_15676" x1="29.3863" y1="164.209" x2="389.882" y2="356.101" gradientUnits="userSpaceOnUse">
<stop stop-color="white" stop-opacity="0"/>
<stop offset="0.562547" stop-color="white"/>
<stop offset="1" stop-color="white" stop-opacity="0"/>
</linearGradient>
<linearGradient id="paint1_linear_1263_15676" x1="253.032" y1="215.282" x2="251.603" y2="227.432" gradientUnits="userSpaceOnUse">
<stop stop-color="white" stop-opacity="0.8"/>
<stop offset="1" stop-color="#F1F2F2" stop-opacity="0.1"/>
</linearGradient>
<linearGradient id="paint2_linear_1263_15676" x1="252.688" y1="215.208" x2="251.919" y2="227.37" gradientUnits="userSpaceOnUse">
<stop stop-color="white" stop-opacity="0.1"/>
<stop offset="1" stop-color="white" stop-opacity="0.8"/>
</linearGradient>
<linearGradient id="paint3_linear_1263_15676" x1="252.638" y1="216.176" x2="251.46" y2="225.572" gradientUnits="userSpaceOnUse">
<stop stop-color="white" stop-opacity="0.8"/>
<stop offset="1" stop-color="#F1F2F2" stop-opacity="0.1"/>
</linearGradient>
<linearGradient id="paint4_linear_1263_15676" x1="252.374" y1="216.118" x2="251.71" y2="225.533" gradientUnits="userSpaceOnUse">
<stop stop-color="white" stop-opacity="0.1"/>
<stop offset="1" stop-color="white" stop-opacity="0.8"/>
</linearGradient>
<linearGradient id="paint5_linear_1263_15676" x1="261.952" y1="211.054" x2="263.752" y2="225.229" gradientUnits="userSpaceOnUse">
<stop offset="0.240324" stop-color="white" stop-opacity="0.1"/>
<stop offset="1" stop-color="white" stop-opacity="0.8"/>
</linearGradient>
<linearGradient id="paint6_linear_1263_15676" x1="68.032" y1="314.282" x2="66.6034" y2="326.432" gradientUnits="userSpaceOnUse">
<stop stop-color="white" stop-opacity="0.8"/>
<stop offset="1" stop-color="#F1F2F2" stop-opacity="0.1"/>
</linearGradient>
<linearGradient id="paint7_linear_1263_15676" x1="67.6879" y1="314.208" x2="66.919" y2="326.37" gradientUnits="userSpaceOnUse">
<stop stop-color="white" stop-opacity="0.1"/>
<stop offset="1" stop-color="white" stop-opacity="0.8"/>
</linearGradient>
<linearGradient id="paint8_linear_1263_15676" x1="67.638" y1="315.176" x2="66.46" y2="324.572" gradientUnits="userSpaceOnUse">
<stop stop-color="white" stop-opacity="0.8"/>
<stop offset="1" stop-color="#F1F2F2" stop-opacity="0.1"/>
</linearGradient>
<linearGradient id="paint9_linear_1263_15676" x1="67.3737" y1="315.118" x2="66.7097" y2="324.533" gradientUnits="userSpaceOnUse">
<stop stop-color="white" stop-opacity="0.1"/>
<stop offset="1" stop-color="white" stop-opacity="0.8"/>
</linearGradient>
<linearGradient id="paint10_linear_1263_15676" x1="76.952" y1="310.054" x2="78.7523" y2="324.229" gradientUnits="userSpaceOnUse">
<stop offset="0.240324" stop-color="white" stop-opacity="0.1"/>
<stop offset="1" stop-color="white" stop-opacity="0.8"/>
</linearGradient>
<linearGradient id="paint11_linear_1263_15676" x1="169" y1="112" x2="364.053" y2="244.477" gradientUnits="userSpaceOnUse">
<stop offset="0.388081" stop-color="white" stop-opacity="0"/>
<stop offset="0.562547" stop-color="white"/>
<stop offset="1" stop-color="white" stop-opacity="0"/>
</linearGradient>
<linearGradient id="paint12_linear_1263_15676" x1="-36.5399" y1="235.674" x2="152.772" y2="325.013" gradientUnits="userSpaceOnUse">
<stop offset="0.388081" stop-color="white" stop-opacity="0"/>
<stop offset="0.562547" stop-color="white"/>
<stop offset="1" stop-color="white" stop-opacity="0"/>
</linearGradient>
</defs>
</svg>
