<svg width="1153" height="458" viewBox="0 0 1153 458" fill="none" xmlns="http://www.w3.org/2000/svg">
<g clip-path="url(#clip0_1250_917)">
<rect x="0.5" width="1152" height="458" rx="24" fill="#F5E4E1"/>
<g opacity="0.8" filter="url(#filter0_f_1250_917)">
<ellipse cx="217" cy="217" rx="217" ry="217" transform="matrix(0.879976 -0.475017 -0.475017 -0.879976 809.158 403.067)" fill="#2C4CFF" fill-opacity="0.3"/>
</g>
<g opacity="0.8" filter="url(#filter1_f_1250_917)">
<ellipse cx="185" cy="184.5" rx="185" ry="184.5" transform="matrix(0.879976 -0.475017 -0.475017 -0.879976 930.756 609.468)" fill="#FFD8D1"/>
</g>
<g clip-path="url(#clip1_1250_917)">
<path d="M894.066 -361.539C781.336 -333.335 538.309 -277.058 538.331 34.8984C538.348 274.897 807.781 323.018 921.897 355.411C1036.01 387.805 1272 464.205 1287.56 768.843" stroke="url(#paint0_linear_1250_917)" stroke-width="2"/>
<path d="M1153.28 -199.998C1093.87 -185.125 961.026 -166.511 961.027 -1.8876C961.027 128.219 1107.86 161.233 1168.01 178.336C1228.16 195.439 1389.24 225.829 1411 397C1426.39 501.067 1421 583 1381 727" stroke="url(#paint1_linear_1250_917)" stroke-width="2"/>
</g>
</g>
<defs>
<filter id="filter0_f_1250_917" x="481.992" y="-306.008" width="830.083" height="830.083" filterUnits="userSpaceOnUse" color-interpolation-filters="sRGB">
<feFlood flood-opacity="0" result="BackgroundImageFix"/>
<feBlend mode="normal" in="SourceGraphic" in2="BackgroundImageFix" result="shape"/>
<feGaussianBlur stdDeviation="99" result="effect1_foregroundBlur_1250_917"/>
</filter>
<filter id="filter1_f_1250_917" x="622.458" y="-23.9441" width="766.906" height="766.356" filterUnits="userSpaceOnUse" color-interpolation-filters="sRGB">
<feFlood flood-opacity="0" result="BackgroundImageFix"/>
<feBlend mode="normal" in="SourceGraphic" in2="BackgroundImageFix" result="shape"/>
<feGaussianBlur stdDeviation="99.265" result="effect1_foregroundBlur_1250_917"/>
</filter>
<linearGradient id="paint0_linear_1250_917" x1="694" y1="-875" x2="1588.4" y2="52.8972" gradientUnits="userSpaceOnUse">
<stop offset="0.388081" stop-color="white" stop-opacity="0"/>
<stop offset="0.562547" stop-color="white"/>
<stop offset="1" stop-color="white" stop-opacity="0"/>
</linearGradient>
<linearGradient id="paint1_linear_1250_917" x1="992" y1="-297" x2="1294.48" y2="-192.997" gradientUnits="userSpaceOnUse">
<stop offset="0.00632912" stop-color="white" stop-opacity="0"/>
<stop offset="0.562547" stop-color="white"/>
<stop offset="1" stop-color="white" stop-opacity="0"/>
</linearGradient>
<clipPath id="clip0_1250_917">
<rect x="0.5" width="1152" height="458" rx="24" fill="white"/>
</clipPath>
<clipPath id="clip1_1250_917">
<rect width="788" height="500" fill="white" transform="translate(508 -40)"/>
</clipPath>
</defs>
</svg>
