<svg width="17" height="18" viewBox="0 0 17 18" fill="none" xmlns="http://www.w3.org/2000/svg">
<rect y="0.230103" width="16.7699" height="17.0376" rx="8.38494" fill="white"/>
<path d="M11.6924 11.67C7.96219 13.4453 5.64717 11.9599 4.16526 11.0578C4.07356 11.0009 3.9177 11.0711 4.05293 11.2264C4.54663 11.825 6.16459 13.2679 8.2765 13.2679C10.3899 13.2679 11.6471 12.1147 11.8044 11.9136C11.9606 11.7141 11.8503 11.6041 11.6924 11.67H11.6924ZM12.74 11.0914C12.6399 10.961 12.1309 10.9367 11.8106 10.976C11.4898 11.0142 11.0083 11.2103 11.0502 11.328C11.0717 11.3721 11.1155 11.3523 11.3359 11.3325C11.5569 11.3104 12.1759 11.2323 12.3049 11.4009C12.4345 11.5707 12.1075 12.3796 12.0477 12.51C11.99 12.6404 12.0698 12.6741 12.1782 12.5872C12.2851 12.5004 12.4786 12.2754 12.6085 11.9572C12.7375 11.6372 12.8162 11.1907 12.74 11.0914Z" fill="#FF9900"/>
<path fill-rule="evenodd" clip-rule="evenodd" d="M9.18429 8.04742C9.18429 8.51322 9.19606 8.90168 8.96063 9.31534C8.7706 9.6517 8.46958 9.85853 8.13327 9.85853C7.67416 9.85853 7.40679 9.50874 7.40679 8.9925C7.40679 7.97341 8.31989 7.78845 9.18429 7.78845V8.04742ZM10.39 10.9617C10.311 11.0323 10.1966 11.0374 10.1075 10.9903C9.71064 10.6607 9.64 10.5077 9.4214 10.1932C8.76556 10.8625 8.30143 11.0626 7.45053 11.0626C6.44491 11.0626 5.66125 10.442 5.66125 9.19933C5.66125 8.22905 6.18764 7.56815 6.93592 7.2453C7.58505 6.95939 8.49146 6.90894 9.18429 6.82993V6.67521C9.18429 6.391 9.20613 6.05468 9.03967 5.80918C8.89335 5.58888 8.61421 5.49806 8.36867 5.49806C7.91297 5.49806 7.506 5.7318 7.40679 6.21611C7.38658 6.32376 7.30757 6.42971 7.19996 6.43474L6.03961 6.31032C5.9421 6.28842 5.83448 6.20941 5.86139 6.05971C6.12876 4.6539 7.39835 4.2301 8.53513 4.2301C9.11698 4.2301 9.87706 4.38483 10.3362 4.82543C10.918 5.36858 10.8625 6.09335 10.8625 6.88204V8.74529C10.8625 9.30528 11.0946 9.55078 11.3132 9.85349C11.3905 9.96111 11.4074 10.0906 11.3098 10.1713C11.066 10.3748 10.6321 10.7532 10.3933 10.9651L10.39 10.9617" fill="black"/>
<path d="M11.6924 11.67C7.96219 13.4453 5.64717 11.9599 4.16526 11.0578C4.07356 11.0009 3.9177 11.0711 4.05293 11.2264C4.54663 11.825 6.16459 13.2679 8.2765 13.2679C10.3899 13.2679 11.6471 12.1147 11.8044 11.9136C11.9606 11.7141 11.8503 11.6041 11.6924 11.67H11.6924ZM12.74 11.0914C12.6399 10.961 12.1309 10.9367 11.8106 10.976C11.4898 11.0142 11.0083 11.2103 11.0502 11.328C11.0717 11.3721 11.1155 11.3523 11.3359 11.3325C11.5569 11.3104 12.1759 11.2323 12.3049 11.4009C12.4345 11.5707 12.1075 12.3796 12.0477 12.51C11.99 12.6404 12.0698 12.6741 12.1782 12.5872C12.2851 12.5004 12.4786 12.2754 12.6085 11.9572C12.7375 11.6372 12.8162 11.1907 12.74 11.0914Z" fill="#FF9900"/>
<path fill-rule="evenodd" clip-rule="evenodd" d="M9.18429 8.04742C9.18429 8.51322 9.19606 8.90168 8.96063 9.31534C8.7706 9.6517 8.46958 9.85853 8.13327 9.85853C7.67416 9.85853 7.40679 9.50874 7.40679 8.9925C7.40679 7.97341 8.31989 7.78845 9.18429 7.78845V8.04742ZM10.39 10.9617C10.311 11.0323 10.1966 11.0374 10.1075 10.9903C9.71064 10.6607 9.64 10.5077 9.4214 10.1932C8.76556 10.8625 8.30143 11.0626 7.45053 11.0626C6.44491 11.0626 5.66125 10.442 5.66125 9.19933C5.66125 8.22905 6.18764 7.56815 6.93592 7.2453C7.58505 6.95939 8.49146 6.90894 9.18429 6.82993V6.67521C9.18429 6.391 9.20613 6.05468 9.03967 5.80918C8.89335 5.58888 8.61421 5.49806 8.36867 5.49806C7.91297 5.49806 7.506 5.7318 7.40679 6.21611C7.38658 6.32376 7.30757 6.42971 7.19996 6.43474L6.03961 6.31032C5.9421 6.28842 5.83448 6.20941 5.86139 6.05971C6.12876 4.6539 7.39835 4.2301 8.53513 4.2301C9.11698 4.2301 9.87706 4.38483 10.3362 4.82543C10.918 5.36858 10.8625 6.09335 10.8625 6.88204V8.74529C10.8625 9.30528 11.0946 9.55078 11.3132 9.85349C11.3905 9.96111 11.4074 10.0906 11.3098 10.1713C11.066 10.3748 10.6321 10.7532 10.3933 10.9651L10.39 10.9617" fill="black"/>
</svg>
