<svg width="485" height="128" viewBox="0 0 485 128" fill="none" xmlns="http://www.w3.org/2000/svg">
<path d="M157.073 100.529C158.435 100.776 159.641 100.962 160.696 101.084C161.749 101.207 162.649 101.27 163.394 101.27C166.067 101.27 168.373 100.276 170.313 98.2891C172.253 96.3031 173.224 93.7281 173.224 90.5681C173.224 88.3951 172.761 86.3771 171.837 84.5131C170.91 82.6501 169.6 81.2551 167.903 80.3281C166.207 79.4011 164.28 78.938 162.123 78.938C160.809 78.938 159.129 79.1731 157.072 79.6431V100.529H157.073ZM157.073 102.641V117.253C157.073 120.395 157.431 122.344 158.147 123.106C159.122 124.184 160.588 124.724 162.562 124.724H164.558V126.09H142.182V124.724H144.149C146.362 124.724 147.945 124.037 148.895 122.663C149.412 121.903 149.669 120.1 149.669 117.252V84.8011C149.669 81.6611 149.323 79.711 148.629 78.949C147.625 77.871 146.132 77.332 144.149 77.332H142.182V75.9661H161.367C166.05 75.9661 169.743 76.43 172.447 77.355C175.145 78.28 177.426 79.84 179.275 82.035C181.129 84.23 182.056 86.832 182.056 89.842C182.056 93.936 180.649 97.2651 177.828 99.8311C175.01 102.395 171.024 103.68 165.876 103.68C164.613 103.68 163.25 103.593 161.784 103.421C160.318 103.245 158.745 102.987 157.073 102.641Z" fill="white"/>
<path d="M229.447 77.8871V76.5381H246.746V77.8871H244.898C242.967 77.8871 241.481 78.7031 240.443 80.3311C239.937 81.0851 239.684 82.8371 239.684 85.5851V105.647C239.684 110.608 239.189 114.458 238.205 117.193C237.218 119.927 235.286 122.275 232.398 124.231C229.513 126.19 225.586 127.169 220.623 127.169C215.215 127.169 211.112 126.231 208.313 124.36C205.514 122.486 203.529 119.966 202.361 116.803C201.582 114.639 201.193 110.575 201.193 104.612V85.2671C201.193 82.2381 200.772 80.2501 199.929 79.3061C199.085 78.3611 197.722 77.8871 195.843 77.8871H193.972V76.5381H215.4V77.8871H213.492C211.441 77.8871 209.973 78.5301 209.094 79.8141C208.481 80.6861 208.177 82.5051 208.177 85.2671V106.819C208.177 108.74 208.354 110.94 208.707 113.42C209.065 115.899 209.705 117.832 210.639 119.218C211.564 120.605 212.905 121.746 214.655 122.645C216.402 123.546 218.55 123.996 221.095 123.996C224.349 123.996 227.257 123.29 229.826 121.881C232.397 120.47 234.151 118.665 235.094 116.465C236.036 114.265 236.508 110.54 236.508 105.286V85.2671C236.508 82.1901 236.171 80.2621 235.494 79.4871C234.552 78.4191 233.149 77.886 231.292 77.886H229.447V77.8871Z" fill="white"/>
<path d="M277.171 100.739C277.632 100.739 278.035 100.745 278.372 100.757C278.713 100.77 278.992 100.775 279.212 100.775C283.924 100.775 287.477 99.7481 289.875 97.6921C292.264 95.6351 293.464 93.017 293.464 89.834C293.464 86.726 292.497 84.1991 290.566 82.2521C288.632 80.3061 286.075 79.3331 282.893 79.3331C281.483 79.3331 279.576 79.5721 277.171 80.0521V100.739ZM312.51 126.376H299.174L282.263 103.056C281.044 103.104 280.05 103.13 279.284 103.13C278.974 103.13 278.638 103.123 278.281 103.111C277.922 103.099 277.55 103.079 277.169 103.056V117.591C277.169 120.713 277.507 122.653 278.19 123.409C279.112 124.482 280.499 125.018 282.345 125.018H284.277V126.376H263.033V125.018H264.892C266.982 125.018 268.477 124.336 269.377 122.97C269.887 122.212 270.141 120.421 270.141 117.591V85.3231C270.141 82.2021 269.801 80.2611 269.119 79.5051C268.172 78.4321 266.759 77.8961 264.891 77.8961H263.032V76.5381H281.156C286.437 76.5381 290.331 76.9251 292.84 77.6971C295.347 78.4691 297.474 79.8901 299.223 81.9611C300.974 84.0331 301.846 86.501 301.846 89.368C301.846 92.433 300.844 95.093 298.843 97.347C296.839 99.602 293.741 101.195 289.538 102.125L299.847 116.397C302.196 119.69 304.212 121.874 305.902 122.954C307.589 124.035 309.794 124.724 312.508 125.018V126.376H312.51Z" fill="white"/>
<path d="M348.044 125.018V126.376H326.8V125.018H328.558C330.611 125.018 332.099 124.42 333.028 123.226C333.616 122.444 333.91 120.567 333.91 117.591V85.3231C333.91 82.8111 333.748 81.152 333.432 80.347C333.186 79.738 332.687 79.2131 331.928 78.7751C330.857 78.1901 329.734 77.8961 328.558 77.8961H326.8V76.5381H348.044V77.8961H346.26C344.241 77.8961 342.77 78.494 341.849 79.688C341.239 80.47 340.937 82.3481 340.937 85.3231V117.591C340.937 120.104 341.093 121.762 341.408 122.567C341.652 123.177 342.161 123.702 342.939 124.139C343.987 124.726 345.092 125.018 346.259 125.018H348.044Z" fill="white"/>
<path d="M367.231 76.824H380.786L411.39 114.282V85.483C411.39 82.414 411.041 80.496 410.35 79.735C409.432 78.703 407.982 78.186 405.999 78.186H404.254V76.823H421.735V78.186H419.949C417.819 78.186 416.308 78.827 415.419 80.104C414.87 80.891 414.597 82.684 414.597 85.483V127.672H413.288L380.278 87.319V118.201C380.278 121.274 380.612 123.189 381.284 123.952C382.223 124.985 383.673 125.499 385.632 125.499H387.415V126.862H369.934V125.499H371.683C373.838 125.499 375.36 124.861 376.252 123.582C376.801 122.796 377.073 121.003 377.073 118.201V83.4C375.621 81.701 374.524 80.579 373.775 80.036C373.024 79.494 371.925 78.99 370.476 78.521C369.761 78.3 368.681 78.187 367.234 78.187V76.824H367.231Z" fill="white"/>
<path d="M463.31 106.61L454.634 85.749L445.622 106.61H463.31ZM464.482 109.428H444.407L440.92 117.525C440.056 119.529 439.624 121.028 439.624 122.017C439.624 122.805 440.001 123.498 440.745 124.093C441.497 124.689 443.112 125.077 445.604 125.255V126.663H429.342V125.255C431.498 124.873 432.896 124.378 433.528 123.768C434.824 122.548 436.257 120.071 437.829 116.336L456.156 73.797H457.368L475.306 116.801C476.75 120.253 478.062 122.493 479.243 123.522C480.423 124.55 482.067 125.128 484.176 125.254V126.662H463.806V125.254C465.861 125.153 467.25 124.808 467.974 124.224C468.698 123.64 469.06 122.929 469.06 122.089C469.06 120.974 468.551 119.207 467.536 116.792L464.482 109.428Z" fill="white"/>
<path d="M127.298 126.091H1.311H0V124.781V1.63901V0.328003H1.311H127.298H128.608V1.63901V124.78V126.09L127.298 126.091ZM2.623 123.469H125.987V2.95001H2.623V123.469Z" fill="white"/>
<path d="M45.719 46.0461H8.39697V8.72607H45.719V46.0461Z" fill="white"/>
<path d="M82.0949 81.949H44.7739V44.629H82.0949V81.949Z" fill="white"/>
<path d="M118 46.0461H80.678V8.72607H118V46.0461Z" fill="white"/>
<path d="M45.719 117.853H8.39697V80.5339H45.719V117.853Z" fill="white"/>
<path d="M118 117.853H80.678V80.5339H118V117.853Z" fill="white"/>
<path fill-rule="evenodd" clip-rule="evenodd" d="M331.735 5.57007C331.735 3.55607 330.099 1.90906 328.093 1.90906H322.717C320.672 1.90906 319.076 3.55607 319.076 5.57007V61.9731C319.076 63.9591 320.672 65.5981 322.717 65.5981H328.093C330.137 65.5981 331.735 63.9591 331.735 61.9361V5.57007Z" fill="white"/>
<path fill-rule="evenodd" clip-rule="evenodd" d="M338.6 7.05303V9.73403C338.6 10.854 339.522 11.756 340.642 11.756H377.815C379.512 11.756 380.879 10.369 380.879 8.69103V4.14403C380.879 2.46603 379.491 0.924021 377.797 1.07802C377.797 1.07802 341.854 4.59701 340.717 4.74401C339.369 4.87701 338.6 5.95503 338.6 7.05303Z" fill="white"/>
<path fill-rule="evenodd" clip-rule="evenodd" d="M308.514 65.6171C299.261 65.6171 293.443 58.5801 293.443 50.7731L293.425 28.2211H290.765C289.357 28.2211 288.238 27.0831 288.238 25.6761V21.8781C288.238 20.4801 289.357 19.3441 290.765 19.3441L293.425 19.3521V5.47205C293.425 3.50905 295.025 1.92505 296.971 1.92505H302.233C304.197 1.92505 305.777 3.52607 305.777 5.49207V19.3521L313.97 19.3441C315.376 19.3441 316.531 20.4791 316.531 21.8781V25.6761C316.531 27.0831 315.375 28.2211 313.97 28.2211H305.777V49.0781C305.777 53.1851 308.264 55.9601 312.717 55.9601H313.45C314.972 55.9601 316.225 57.1941 316.225 58.7361V62.8211C316.225 64.3641 314.972 65.6181 313.45 65.6181H308.514V65.6171Z" fill="white"/>
<path fill-rule="evenodd" clip-rule="evenodd" d="M245.193 41.753C245.193 29.734 238.083 17.713 221.895 17.713C206.919 17.713 198.556 29.415 198.556 41.753C198.556 54.908 207.556 66.484 221.973 66.484C231.877 66.484 241.63 61.242 243.478 52.701C243.73 51.545 242.957 50.033 241.321 50.033H234.248C232.954 50.033 231.915 50.659 231.298 51.565C229.255 54.532 226.307 56.122 221.933 56.122C215.747 56.122 211.43 51.239 211.103 45.821H241.186C243.943 45.821 245.193 44.326 245.193 41.753ZM211.219 36.616C211.701 31.295 216.382 27.37 221.896 27.37C227.407 27.37 232.187 31.294 232.649 36.616H211.219Z" fill="white"/>
<path fill-rule="evenodd" clip-rule="evenodd" d="M382.151 41.753C382.151 29.734 375.061 17.713 358.872 17.713C343.916 17.713 335.553 29.415 335.553 41.753C335.553 54.908 344.533 66.484 358.986 66.484C368.874 66.484 378.604 61.242 380.456 52.701C380.705 51.545 379.956 50.033 378.318 50.033H371.226C369.933 50.033 368.894 50.659 368.256 51.565C366.233 54.532 363.287 56.122 358.911 56.122C352.724 56.122 348.425 51.239 348.078 45.821H378.163C380.917 45.821 382.151 44.326 382.151 41.753ZM348.215 36.616C348.658 31.295 353.341 27.37 358.873 27.37C364.383 27.37 369.164 31.294 369.644 36.616H348.215Z" fill="white"/>
<path fill-rule="evenodd" clip-rule="evenodd" d="M283.326 2.5441H185.973C183.718 2.5441 181.925 4.33709 181.925 6.56409L182.253 44.8171C182.253 44.8171 161.302 6.90009 160.205 4.95209C159.183 3.14209 156.968 1.4751 153.905 1.4751H145.885C143.67 1.4751 141.897 3.2781 141.897 5.4921V61.6081C141.897 63.8051 143.708 65.5971 145.905 65.5971H151.031C153.267 65.5971 155.061 63.7841 155.061 61.5881L154.713 22.2431C154.713 22.2431 175.912 60.5481 176.799 62.0301C178.032 64.0831 180.093 65.5971 183.101 65.5971H190.462C192.661 65.5971 194.454 63.8051 194.454 61.6081V12.0461H283.326C284.831 12.0461 286.084 10.8411 286.084 9.32809V5.2901C286.084 3.7781 284.831 2.5441 283.326 2.5441Z" fill="white"/>
<path fill-rule="evenodd" clip-rule="evenodd" d="M267.562 26.907C271.782 26.907 274.943 28.442 276.102 31.112C276.64 32.364 277.717 32.636 279.163 32.636H284.983C285.946 32.636 287.045 31.77 287.045 30.552C287.045 23.767 278.968 17.713 267.561 17.713C255.735 17.713 247.972 23.341 247.972 32.326C247.972 39.198 253.405 43.286 260.052 45.031C263.072 45.821 268.274 47.102 270.819 47.769C273.536 48.471 275.963 49.332 275.963 51.64C275.963 55.322 272.088 56.595 267.849 56.595C263.821 56.595 259.839 54.802 258.701 51.931C258.045 50.253 256.851 50.033 255.102 50.033H249.182C248.144 50.033 246.948 50.906 246.948 52.28V53.012C246.948 59.573 255.736 66.426 267.85 66.426C276.467 66.426 288.452 62.871 288.452 51.332C288.452 44.663 283.964 40.018 276.677 38.179C273.846 37.452 267.021 35.718 265.54 35.331C262.9 34.638 260.417 33.771 260.417 31.515C260.417 28.067 263.574 26.907 267.562 26.907Z" fill="white"/>
</svg>
