<svg width="164" height="137" viewBox="0 0 164 137" fill="none" xmlns="http://www.w3.org/2000/svg">
<path d="M66.7724 118.21L66.7716 118.209C64.0418 116.637 61.327 115.068 58.6215 113.503C50.7418 108.947 42.9402 104.435 35.0706 100.048C33.7661 99.3211 32.8846 98.5804 32.3243 97.6781C31.7666 96.7801 31.4946 95.6695 31.5077 94.1421C31.6546 77.0652 31.6063 59.9867 31.5002 42.9117C31.493 41.7621 31.6866 40.9309 32.0908 40.2576C32.4964 39.5818 33.1461 39.0114 34.1505 38.4425C49.4 29.8046 64.5941 21.0691 79.7466 12.264C80.5978 11.7694 81.2981 11.5221 81.9588 11.5014C82.6102 11.481 83.2827 11.6791 84.0827 12.1891C85.9406 13.3737 87.859 14.4752 90.0513 15.7338C90.8292 16.1805 91.6417 16.647 92.4982 17.144L53.6345 39.6137L52.9897 39.9866L53.5789 40.4422C56.5301 42.7241 59.4455 44.3185 62.4299 45.7037C63.2678 46.0926 64.0326 45.865 64.6573 45.5279C64.9661 45.3612 65.2614 45.157 65.5285 44.9702C65.5466 44.9576 65.5645 44.9451 65.5823 44.9326C65.8365 44.7547 66.0636 44.5958 66.2864 44.4683C68.1764 43.3866 70.0673 42.306 71.9584 41.2253C81.297 35.8883 90.6398 30.549 99.9001 25.0722C101.153 24.3314 102.234 23.9113 103.264 23.8692C104.277 23.8279 105.3 24.1497 106.445 25.0161C107.27 25.64 108.186 26.146 109.106 26.6538C109.366 26.7978 109.627 26.9419 109.886 27.0889C110.912 27.6705 111.95 28.3166 112.962 29.2169L73.4191 52.1081L72.6769 52.5377L73.4164 52.972C75.1151 53.9696 76.7683 54.9415 78.3892 55.8944C82.503 58.3129 86.4085 60.6089 90.3215 62.8914C90.8053 63.1736 91.2754 63.2952 91.7327 63.288C92.1852 63.2808 92.5927 63.1482 92.9552 62.9715C93.3138 62.7967 93.6467 62.5692 93.9445 62.3597C93.9875 62.3295 94.0296 62.2998 94.0709 62.2706C94.3274 62.0894 94.5557 61.9281 94.7846 61.7977C101.36 58.0532 107.919 54.2741 114.476 50.4957C118.854 47.973 123.232 45.4506 127.613 42.939C127.92 42.7632 128.217 42.582 128.513 42.4021C129.67 41.6971 130.797 41.0107 132.343 40.7319C132.345 41.7328 132.35 42.719 132.355 43.6942C132.369 46.5585 132.383 49.3286 132.307 52.1001C132.292 52.6253 132.036 52.9561 131.603 53.2527C131.378 53.4067 131.118 53.5421 130.83 53.6837C130.779 53.709 130.726 53.7346 130.672 53.7607C130.437 53.8752 130.186 53.9975 129.957 54.1297C127.566 55.5079 125.177 56.8877 122.788 58.2674C112.984 63.9292 103.183 69.5893 93.3165 75.1344C92.0891 75.8242 91.094 76.5816 90.4586 77.5723C89.8132 78.5786 89.5728 79.7715 89.7509 81.2608C89.8677 82.2375 89.8451 83.2083 89.8208 84.2461C89.8098 84.7189 89.7984 85.2056 89.7998 85.7131C89.804 87.3034 89.9409 89.0072 90.6704 90.834L90.8834 91.3675L91.3825 91.0829L132.179 67.8104C132.643 71.9123 132.546 75.4492 132.253 78.973C132.21 79.4894 131.906 79.8445 131.386 80.1762C131.124 80.3436 130.826 80.4918 130.504 80.6464C130.465 80.6651 130.426 80.684 130.386 80.7029C130.108 80.8365 129.812 80.9781 129.544 81.1329C128.31 81.8443 127.077 82.5558 125.844 83.2673C114.791 89.6444 103.741 96.0204 92.6389 102.306C91.668 102.856 90.9091 103.465 90.4101 104.262C89.9066 105.066 89.6996 106.01 89.7376 107.169C89.8072 109.29 89.7959 111.415 89.7801 113.55L89.7774 113.911C89.7623 115.924 89.7472 117.947 89.797 119.969C89.8205 120.921 89.6663 121.67 89.329 122.272C88.9943 122.87 88.4537 123.368 87.6221 123.776C86.5932 124.28 85.518 124.833 84.5674 125.548C83.6671 126.226 82.8589 126.507 82.0662 126.5C81.2641 126.492 80.4111 126.189 79.4263 125.571C76.6018 123.799 73.6925 122.149 70.7275 120.467C69.4191 119.725 68.0999 118.977 66.7724 118.21ZM39.696 83.5863L39.6943 83.6064L39.6943 83.6266C39.6938 83.963 39.7092 84.3168 39.724 84.6564C39.7324 84.8476 39.7405 85.0343 39.7455 85.211C39.76 85.7231 39.7514 86.2018 39.671 86.6557C39.2968 88.7666 39.6084 90.4531 40.5069 91.8607C41.3935 93.2495 42.8176 94.3122 44.5612 95.2556C50.4021 98.4155 56.1503 101.736 61.9057 105.062C64.4494 106.531 66.9945 108.001 69.5496 109.459C69.6863 109.537 69.8132 109.619 69.9539 109.709C70.0267 109.755 70.1033 109.805 70.1868 109.857C70.419 110.002 70.6806 110.155 70.9805 110.28C71.5975 110.536 72.3356 110.658 73.3171 110.459L73.7179 110.378V109.969C73.7179 109.024 73.7092 108.072 73.7005 107.116C73.6798 104.855 73.6589 102.57 73.7524 100.282C73.7994 99.1327 73.5969 98.1757 73.0992 97.3562C72.6046 96.542 71.8477 95.9118 70.872 95.3621C65.7131 92.4554 60.5843 89.5075 55.4532 86.5583C51.6431 84.3683 47.8318 82.1776 44.006 80.0026C43.8262 79.9004 43.6483 79.7813 43.45 79.6484C43.4145 79.6246 43.3784 79.6004 43.3415 79.5758C43.1066 79.4191 42.8456 79.2494 42.5647 79.1096C41.9874 78.8221 41.302 78.6497 40.4887 78.9109L40.3172 78.966L40.2202 79.1178C39.7682 79.8253 39.6909 80.5548 39.6914 81.2798C39.6915 81.5338 39.7002 81.7795 39.7089 82.0267C39.7261 82.5151 39.7435 83.0095 39.696 83.5863ZM40.0397 55.6163L39.6916 55.7273V56.0927C39.6916 56.9028 39.7083 57.713 39.725 58.5234C39.7624 60.3425 39.7999 62.1624 39.6488 63.9829C39.5048 65.7171 39.7581 67.1772 40.4664 68.4275C41.1727 69.6743 42.3027 70.6618 43.8218 71.5041C49.3267 74.5564 54.7746 77.7013 60.227 80.8488C63.2559 82.5972 66.2861 84.3465 69.3282 86.0811C69.4587 86.1555 69.5945 86.2408 69.7376 86.3307C70.5505 86.8413 71.6015 87.5016 73.2777 87.1687L73.6803 87.0887V86.6782C73.6803 83.4604 73.6803 80.1781 73.6723 76.3395C73.7652 75.3082 73.5056 74.4972 72.9956 73.8313C72.498 73.1817 71.7837 72.6996 71.0327 72.2705C65.9522 69.3679 60.8894 66.4444 55.8254 63.5203C51.6857 61.1299 47.5451 58.739 43.3936 56.3587C43.2832 56.2954 43.1849 56.2332 43.0759 56.1641C43.0002 56.1161 42.9192 56.0648 42.8253 56.0076C42.615 55.8793 42.3751 55.7446 42.1025 55.6399C41.5373 55.4228 40.8724 55.3508 40.0397 55.6163Z" fill="white" stroke="black"/>
</svg>
