<svg width="381" height="137" viewBox="0 0 381 137" fill="none" xmlns="http://www.w3.org/2000/svg">
<path d="M191.2 42.8V95.3C191.2 95.7 190.9 96.1 190.4 96.1H184.9C182.4 96.1 180 94.8 178.6 92.7L153.8 54.4L154.6 73.5V95.4C154.6 95.8 154.3 96.2 153.8 96.2H146.6C146.2 96.2 145.8 95.9 145.8 95.4V42.8C145.8 42.4 146.1 42 146.6 42H152C154.5 42 156.9 43.3 158.3 45.4L183.1 83.6L182.3 64.5V42.8C182.3 42.4 182.6 42 183.1 42H190.3C190.9 42 191.2 42.3 191.2 42.8Z" fill="white"/>
<path d="M265 96H257.4C256.9 96 256.5 95.5 256.7 95L276.9 42.7C277.1 42.3 277.5 42 277.9 42H287.5C288 42 288.4 42.3 288.5 42.7L308.8 95C309 95.5 308.6 96 308.1 96H300.5C300.2 96 299.9 95.8 299.8 95.5L283.5 52.5C283.3 51.9 282.3 51.9 282.1 52.5L265.8 95.5C265.6 95.8 265.3 96 265 96Z" fill="white"/>
<path d="M361.8 94.8L346.6 75.4C355.2 73.8 360.2 68 360.2 59.1C360.2 48.9 353.6 42 341.8 42H320.6C320 42 319.5 42.5 319.5 43.1C319.5 47.1 322.7 50.3 326.7 50.3H341C348.1 50.3 351.5 53.9 351.5 59.2C351.5 64.5 348.2 68.1 341 68.1H320.8C320.2 68.1 319.7 68.6 319.7 69.2V95.2C319.7 95.6 320 96 320.5 96H327.7C328.1 96 328.5 95.7 328.5 95.2V75.9H336.8L350 93.1C351.4 95 353.6 96 356 96H361.5C361.9 96 362.2 95.3 361.8 94.8Z" fill="white"/>
<path d="M242.2 42H208.7C208.1 42 207.7 42.4 207.7 43C207.7 47 211 50.3 215 50.3H242.2C242.6 50.3 243 50 243 49.5V42.7C242.9 42.3 242.6 42 242.2 42ZM242.2 87.7H217.2C216.8 87.7 216.4 87.4 216.4 86.9V73.4C216.4 73 216.7 72.6 217.2 72.6H240.3C240.7 72.6 241.1 72.3 241.1 71.8V65C241.1 64.6 240.8 64.2 240.3 64.2H208.8C208.2 64.2 207.7 64.7 207.7 65.3V94.8C207.7 95.4 208.2 95.9 208.8 95.9H242.2C242.6 95.9 243 95.6 243 95.1V88.3C242.9 88 242.6 87.7 242.2 87.7Z" fill="white"/>
<path d="M92.2 28.6L73.4 56.5C72.1 58.4 74.6 60.7 76.4 59.1L94.9 43C95.4 42.6 96.1 42.9 96.1 43.6V93.9C96.1 94.6 95.2 94.9 94.8 94.4L38.8 27.4C37 25.2 34.4 24 31.5 24H29.5C24.3 24 20 28.3 20 33.6V104.4C20 109.7 24.3 114 29.6 114C32.9 114 36 112.3 37.8 109.4L56.6 81.5C57.9 79.6 55.4 77.3 53.6 78.9L35.1 94.9C34.6 95.3 33.9 95 33.9 94.3V44.1C33.9 43.4 34.8 43.1 35.2 43.6L91.2 110.6C93 112.8 95.7 114 98.5 114H100.5C105.8 114 110.1 109.7 110.1 104.4V33.6C110 28.3 105.7 24 100.4 24C97.1 24 94 25.7 92.2 28.6Z" fill="white"/>
</svg>
