<svg width="341" height="323" viewBox="0 0 341 323" fill="none" xmlns="http://www.w3.org/2000/svg">
<g clip-path="url(#clip0_127_726)">
<path d="M74.044 252.167C70.7298 252.167 67.9076 252.167 64.6911 252.167C64.6911 209.693 64.6911 167.498 64.6911 124.643C106.697 124.643 148.583 124.643 190.695 124.643C190.695 111.396 190.695 98.808 190.695 85.8485C167.253 85.8485 144.016 85.8485 120.149 85.8485C120.149 93.3382 120.149 100.89 120.149 108.806C101.315 108.806 83.1035 108.806 64.5952 108.806C64.5952 85.2649 64.5952 61.8547 64.5952 38.1382C72.3236 38.1382 79.8857 38.1382 87.9292 38.1382C87.9292 45.7214 87.9292 53.1355 87.9292 61.0097C94.7285 61.0097 101.057 61.0097 107.881 61.0097C107.881 53.3546 107.881 45.9353 107.881 38.1786C139.623 38.1786 170.878 38.1786 202.674 38.1786C202.674 45.6502 202.674 53.2232 202.674 61.3757C214.6 61.3757 226.005 61.3757 238.048 61.3757C238.048 109.16 238.048 156.36 238.048 204.278C247.881 204.278 257.09 204.278 266.51 204.278C266.51 220.432 266.51 235.864 266.51 251.685C250.803 251.685 235.277 251.685 219.314 251.685C219.314 236.121 219.314 220.691 219.314 204.812C209.868 204.812 200.848 204.812 191.328 204.812C191.328 220.504 191.328 236.071 191.328 252.167C152.07 252.167 113.303 252.167 74.044 252.167ZM150.076 180.618C149.006 178.569 148.135 176.383 146.834 174.494C140.788 165.714 128.892 162.346 118.928 166.463C108.799 170.647 102.634 181.386 104.433 191.713C106.89 205.817 119.193 214.446 132.735 211.561C146.32 208.667 153.961 195.526 150.076 180.618Z" fill="#FDFDFD"/>
<path d="M150.179 181C153.961 195.526 146.32 208.667 132.735 211.561C119.193 214.446 106.89 205.817 104.433 191.713C102.634 181.386 108.799 170.647 118.928 166.463C128.892 162.346 140.788 165.714 146.834 174.494C148.135 176.383 149.006 178.569 150.179 181Z" fill="#232323"/>
</g>
<defs>
<clipPath id="clip0_127_726">
<rect width="341" height="323" fill="white"/>
</clipPath>
</defs>
</svg>
