<svg width="398" height="272" viewBox="0 0 398 272" fill="none" xmlns="http://www.w3.org/2000/svg">
<path d="M41.6102 150.329C41.6102 129.127 41.6216 108.056 41.582 86.9863C41.5796 85.7059 41.9391 85.3708 43.2225 85.3723C72.0582 85.4073 100.894 85.3785 129.73 85.4206C134.25 85.4272 137.795 87.4236 139.74 91.5327C141.355 94.946 140.668 99.3957 137.614 102.408C135.322 104.668 132.791 105.488 129.678 105.481C107.562 105.439 85.4452 105.47 63.329 105.43C61.9984 105.427 61.5995 105.737 61.6043 107.098C61.6555 121.482 61.636 135.866 61.636 150.25C61.636 150.681 61.636 151.111 61.636 151.648C62.2085 151.648 62.6851 151.648 63.1618 151.648C72.3732 151.648 81.5846 151.65 90.796 151.648C95.1355 151.646 98.2408 153.668 100.164 157.42C101.902 160.812 101.363 165.416 98.5349 168.41C96.3496 170.723 93.7792 171.735 90.6292 171.722C81.0213 171.683 71.413 171.708 61.7205 171.708C61.7205 187.253 61.7205 202.756 61.7205 218.426C62.1461 218.426 62.6153 218.426 63.0846 218.426C85.8239 218.426 108.563 218.438 131.302 218.414C135.32 218.409 139.983 222.696 140.485 226.761C141.228 232.788 136.791 236.965 131.987 238.16C131.609 238.254 131.194 238.219 130.796 238.219C101.604 238.221 72.4125 238.213 43.2209 238.248C41.9346 238.25 41.5809 237.91 41.5825 236.632C41.6185 207.909 41.6102 179.185 41.6102 150.329Z" fill="white"/>
<path d="M156.03 135.23C155.675 134.13 155.259 133.154 154.991 132.139C154.733 131.159 154.479 130.139 154.476 129.135C154.44 117.875 154.443 106.615 154.458 95.3554C154.465 90.6661 158.007 86.3186 162.906 85.6076C168.271 84.8289 173.155 88.8465 174.098 93.5822C174.165 93.9209 174.113 94.284 174.113 94.6358C174.114 104.796 174.092 114.957 174.144 125.117C174.15 126.236 174.434 127.408 174.831 128.463C177.088 134.46 179.394 140.438 181.729 146.404C183.992 152.184 186.342 157.93 188.593 163.715C190.218 167.891 191.72 172.115 193.324 176.299C194.115 178.363 195.052 180.37 195.852 182.432C197.027 185.459 198.118 188.519 199.281 191.552C200.366 194.383 201.497 197.197 202.614 200.017C202.683 200.19 202.807 200.341 203.025 200.699C204.097 197.838 205.076 195.171 206.094 192.52C207.393 189.136 208.725 185.765 210.042 182.388C211.958 177.473 213.865 172.555 215.794 167.645C217.971 162.103 220.179 156.573 222.35 151.029C224.289 146.079 226.185 141.112 228.119 136.159C229.24 133.288 230.41 130.436 231.524 127.561C231.703 127.098 231.772 126.565 231.772 126.064C231.786 115.683 231.787 105.303 231.78 94.9227C231.778 91.7859 233.309 89.4537 235.607 87.5509C237.217 86.2178 239.166 85.659 241.193 85.4114C244.569 84.9988 249.078 87.9207 250.43 91.1159C251.209 92.9551 251.444 94.8128 251.444 96.755C251.442 107.707 251.41 118.659 251.473 129.611C251.484 131.608 250.498 133.2 249.854 134.927C248.263 139.199 246.557 143.427 244.895 147.673C244.018 149.914 243.14 152.156 242.258 154.396C241.129 157.261 239.989 160.122 238.868 162.99C236.577 168.847 234.29 174.706 232.011 180.568C230.789 183.713 229.597 186.87 228.372 190.014C227.513 192.218 226.614 194.407 225.747 196.608C224.696 199.276 223.661 201.951 222.617 204.622C220.955 208.869 219.288 213.113 217.629 217.361C216.14 221.172 214.62 224.973 213.186 228.805C212.193 231.457 211.1 234.022 208.965 235.984C206.098 238.618 201.718 238.879 198.39 237.156C195.037 235.419 193.715 232.168 192.455 228.869C190.3 223.23 188.083 217.616 185.903 211.986C184.411 208.133 182.947 204.268 181.453 200.415C180.597 198.21 179.687 196.026 178.832 193.82C177.336 189.966 175.871 186.099 174.378 182.244C173.433 179.805 172.443 177.384 171.503 174.943C169.305 169.24 167.136 163.525 164.933 157.823C163.822 154.949 162.655 152.097 161.53 149.228C160.299 146.086 159.098 142.931 157.864 139.79C157.277 138.296 156.645 136.821 156.03 135.23Z" fill="white"/>
<path d="M354.823 27.9101C353.589 32.1987 352.035 36.2081 349.966 40.0776C347.772 44.1811 344.926 47.7354 341.833 51.0983C338.673 54.5338 335.004 57.4213 330.933 59.7605C329.657 60.494 328.405 61.2698 327.038 62.0885C327.214 64.0822 327.613 66.1956 327.544 68.2936C327.38 73.3317 325.26 77.4274 321.227 80.5566C319.066 82.2333 317.132 84.2021 314.983 85.8959C312.871 87.5604 310.729 89.2452 308.395 90.5548C305.563 92.1436 302.901 91.0885 300.576 89.1699C298.134 87.1551 297.182 84.6353 297.889 81.4267C298.434 78.9557 298.658 76.4128 298.997 73.8981C299.086 73.2413 299.032 72.7515 298.092 72.6215C295.275 72.2319 293.067 70.7653 291.468 68.4122C287.536 62.6244 283.571 56.8579 279.712 51.0222C278.239 48.7951 277.418 46.3406 278.478 43.6249C278.566 43.3983 278.489 43.1073 278.489 42.8083C275.169 42.0538 271.865 41.3413 268.582 40.5446C266.015 39.9218 263.626 36.5377 263.391 33.7552C263.058 29.827 264.974 27.3521 268.144 25.463C271.682 23.3555 275.15 21.1323 278.662 18.9833C281.85 17.0334 285.228 15.6597 289.06 16.0327C291.991 16.3179 294.731 17.2275 297.182 18.9111C298.555 19.8539 299.338 19.7244 300.567 18.6618C304.639 15.1408 309.057 12.1826 314.005 9.96271C317.434 8.42418 320.984 7.39568 324.617 6.62575C326.501 6.22644 328.466 6.13702 330.401 6.06243C332.779 5.97072 335.18 5.86819 337.542 6.0851C340.359 6.34381 343.188 6.7626 345.934 7.4322C348.734 8.11498 351.442 9.17734 354.184 10.0914C355.565 10.5514 356.478 11.6183 356.415 12.9898C356.191 17.8741 356.322 22.7983 354.978 27.5729C354.955 27.6547 354.88 27.7217 354.823 27.9101ZM345.381 35.2846C348.362 28.9639 349.847 22.3045 349.967 15.3121C348.938 14.9482 347.984 14.5476 346.995 14.2718C342.283 12.9577 337.509 12.0139 332.584 12.258C330.784 12.3472 328.973 12.4947 327.201 12.8082C324.552 13.277 321.864 13.7013 319.315 14.5249C312.824 16.6221 307.058 20.1045 302.091 24.7429C298.608 27.9953 295.464 31.6114 292.173 35.0595C295.253 39.5583 298.315 43.8892 301.213 48.3267C302.603 50.4543 303.779 52.7383 304.876 55.0353C305.848 57.0683 304.207 59.7526 302.266 59.3827C301.495 59.2357 300.64 58.6093 300.171 57.9525C297.92 54.7973 295.797 51.5504 293.61 48.3491C291.756 45.6351 289.875 42.9391 287.959 40.1665C287.459 40.7763 287.03 41.2683 286.637 41.787C286.218 42.3404 285.859 42.9409 285.425 43.4824C284.21 45.0011 284.128 46.3049 285.186 47.9016C285.713 48.6983 286.221 49.5087 286.768 50.2921C289.906 54.7884 293.05 59.2807 296.198 63.7698C298.177 66.5917 298.913 66.942 301.641 66.0823C307.067 64.3725 312.484 62.5991 317.509 59.8911C321.929 57.5088 326.359 55.1063 330.562 52.3711C334.84 49.5874 338.464 45.9902 341.37 41.7502C342.769 39.7091 344.043 37.5825 345.381 35.2846ZM272.467 34.8972C275.502 35.5983 278.534 36.3161 281.578 36.9746C281.879 37.0396 282.351 36.8334 282.584 36.5965C283.58 35.5857 284.513 34.5124 285.476 33.4688C288.25 30.4623 291.028 27.4591 293.805 24.4546C291.376 22.224 286.795 21.9063 284.106 23.2823C282.224 24.2448 280.449 25.417 278.642 26.5218C276.016 28.1272 273.377 29.7136 270.811 31.4102C270.278 31.7626 269.789 32.5361 269.727 33.1598C269.643 34.0166 270.434 34.4311 271.239 34.6234C271.574 34.7034 271.905 34.8049 272.467 34.8972ZM305.735 84.3625C307.743 82.8844 309.773 81.4365 311.751 79.9192C313.566 78.5266 315.21 76.8804 317.131 75.6635C320.665 73.4248 321.842 68.877 320.788 65.1979C320.486 65.3458 320.191 65.5151 319.879 65.6385C315.112 67.5207 310.339 69.3867 305.583 71.2949C305.22 71.4403 304.794 71.8323 304.71 72.1844C304.508 73.0317 304.426 73.9223 304.412 74.7974C304.362 78.0094 304.623 81.2432 303.439 84.6844C304.301 84.6134 304.936 84.5612 305.735 84.3625Z" fill="white"/>
<path d="M251.572 50.3278C253.939 48.639 256.263 47.0603 258.527 45.3942C260.086 44.2459 261.704 43.5829 263.689 43.6901C265.954 43.8124 267.744 44.7897 268.998 46.5812C271.492 50.1437 273.836 53.8163 276.24 57.4447C277.413 59.2144 278.073 61.1878 278.367 63.2855C278.443 63.8334 278.311 64.4119 278.263 65.1588C281.773 66.0145 284.002 68.6448 285.889 71.8322C287.906 75.2388 290.255 78.4387 292.334 81.809C293.76 84.1196 292.879 87.6041 291.345 89.0141C289.578 90.6377 287.641 92.0839 285.689 93.4769C280.94 96.865 276.142 100.18 271.359 103.517C270.972 103.786 270.495 103.936 270.144 104.243C267.366 106.675 264.483 104.162 264.116 101.42C263.996 100.524 264.664 99.125 265.409 98.5685C268.692 96.1166 272.156 93.9201 275.513 91.5694C278.189 89.6958 280.797 87.7221 283.453 85.8187C284.032 85.4041 284.685 85.0993 285.41 84.6834C283.465 81.7986 281.582 78.9904 279.683 76.1934C278.996 75.1821 278.346 74.1301 277.547 73.2172C276.5 72.0203 275.028 71.9443 273.701 72.854C269.929 75.4415 266.161 78.0355 262.383 80.6139C260.636 81.806 258.437 81.4045 257.246 79.6124C256.201 78.0402 256.375 75.824 258.165 74.58C261.714 72.1133 265.188 69.5292 268.786 67.1408C271.154 65.5694 271.613 63.6394 269.953 61.3193C267.851 58.3808 265.871 55.3515 263.83 52.367C263.374 51.6988 262.902 51.4585 262.104 52.029C259.573 53.8393 256.979 55.5558 254.42 57.3255C250.759 59.8569 247.071 62.3484 243.47 64.9652C241.496 66.3995 239.454 65.6182 238.172 63.9106C237.151 62.5512 237.552 60.134 239.163 58.9779C243.234 56.0564 247.385 53.2519 251.572 50.3278Z" fill="white"/>
<path d="M273.869 35.7235C273.428 35.6355 273.102 35.5384 272.771 35.4619C271.977 35.278 271.196 34.8814 271.28 34.0619C271.341 33.4652 271.824 32.7253 272.349 32.3883C274.881 30.7653 277.484 29.2478 280.075 27.7122C281.857 26.6553 283.609 25.534 285.465 24.6133C288.119 23.2971 292.638 23.6009 295.035 25.7347C292.295 28.6087 289.554 31.4815 286.817 34.3574C285.867 35.3557 284.947 36.3825 283.964 37.3493C283.734 37.5759 283.268 37.7732 282.972 37.711C279.968 37.0811 276.977 36.3945 273.869 35.7235Z" fill="black"/>
<path d="M305.182 85.119C304.461 85.2468 303.823 85.3 302.955 85.3723C304.147 81.8661 303.883 78.5712 303.934 75.2985C303.948 74.407 304.03 73.4995 304.233 72.6361C304.318 72.2775 304.747 71.878 305.111 71.7299C309.894 69.7856 314.694 67.8844 319.488 65.9666C319.802 65.8408 320.098 65.6684 320.403 65.5183C321.462 69.2663 320.278 73.9 316.725 76.181C314.793 77.4209 313.139 79.0982 311.314 80.5172C309.325 82.0631 307.283 83.5383 305.182 85.119Z" fill="black"/>
<path d="M331.407 24.2227C333.139 25.776 334.7 27.3043 335.634 29.3549C337.477 33.4045 336.669 37.817 333.704 41.1664C331.702 43.4287 329.176 44.9589 325.948 45.4643C321.904 46.0975 318.356 45.2337 315.286 42.765C311.937 40.0718 310.527 36.5495 310.948 32.51C311.287 29.2525 312.97 26.5358 315.704 24.4286C318.52 22.2578 321.821 21.5783 325.351 21.9251C327.526 22.1389 329.547 22.9288 331.407 24.2227ZM327.694 38.4752C329.199 37.3227 330.043 35.83 330.146 34.0299C330.31 31.1419 328.41 28.9967 324.835 27.9197C322.731 27.286 319.89 28.4453 318.4 30.4368C316.494 32.9838 317.41 37.1099 320.069 38.7374C322.041 39.9436 325.377 40.1033 327.694 38.4752Z" fill="white"/>
<path d="M326.324 40.3497C324.25 42.1924 321.145 42.0063 319.311 40.6011C316.836 38.705 315.984 33.8979 317.757 30.9305C319.144 28.6104 321.787 27.2597 323.745 27.998C327.072 29.2528 328.84 31.7521 328.687 35.1167C328.592 37.2139 327.806 38.9529 326.324 40.3497Z" fill="black"/>
</svg>
