
<svg xmlns="http://www.w3.org/2000/svg" width="1362" height="798" viewBox="0 0 1362 798">
  <defs>
    <style>
      .cls-1, .cls-2 {
        fill-rule: evenodd;
      }

      .cls-2 {
        fill: #fff;
      }
    </style>
  </defs>
  <path id="Shape_3_copy_2" data-name="Shape 3 copy 2" class="cls-1" d="M438.429-7381.23c-49.054,0,0-.62,0-0.62-19.459-.28-108.607-1.71-108.607-105.28,0-21.9-.118-249.2-0.118-249.2l-147.671.07s0.215,143.67.215,158.85c0,123.35,106.835,84.89,106.835,84.89s0.855,23.33,6.16,43.64c7.764,29.75,25.188,47.18,25.188,47.18s-15.646,19.68-91,19.68c-57,0-158.745-45.28-158.745-196.81,0-8.03-.079-157.31-0.079-157.31l-100.23-.09L-30-7840.08H-12.33s66.524,1.25,93.88-50.24c17.408-32.77,17.821-80.22,17.821-80.22l83.067,0.37-0.423,130.3,260.327,0.13s0.448,275.42.448,310.08c0,34.12,11.949,46.55,31.46,46.55,18.526,0,30.318-12.03,30.318-44.46-0.095-11.27-.453-312.07-0.453-312.07l111,0.15v19.97c22.064-13.59,57.843-23.44,87.6-23.44,177.339,0,193.566,177.01,193.566,177.01,5.38,36.39,5.052,73.64,5.372,110.51,0.134,15.52.265,9.65,0.387,26.92,0,21.74-.068,45.41,30.373,45.41,32.189,0,28.169-51.4,28.169-51.4l-0.294-138.74L958.6-7838.67l111.322,0.07,0.26,222.74s0.59,43.62,7.91,77.09c13.02,57.38,89.25,68.11,133.32,40.43,34.97-28.75,33.06-59.11,33.06-98.24,0-89.41-.22-242.53-0.22-242.53l111.74-.37c-0.27,190.87-.53,320.43-0.53,466.67,0,96.09-65.33,177.84-150.54,178.77-40.37.45-72.11-11.44-86.47-18.6-1.21-.6-0.93-109.72-0.93-109.72s127.3,35.21,127.3-54.15v-16.17c-21.33,7.12-46.9,11.34-77.59,11.34-62.61,0-114.62-15.6-144.64-41.19-9.01,12.84-36.335,41.3-88.177,41.3-54.564,0-141.1-.66-141.1-0.66s-1.189-130.82-1.552-220.94c-0.116-28.8-3.008-52.69-11.975-83.1-19.3-63.31-102.968-66.69-137.1-32.56s-28.211,108.01-28.211,142.48,0.226,193.85.226,193.85m-228.159-485.4c-35.378,0-64.058-29.2-64.058-65.22s28.68-65.21,64.058-65.21,64.057,29.2,64.057,65.21S421.915-7867.56,386.538-7867.56Z"/>
  <path id="Shape_3_copy_4" data-name="Shape 3 copy 4" class="cls-1" d="M438.429-5291.23c-49.054,0,0-.62,0-0.62-19.459-.28-108.607-1.71-108.607-105.28,0-21.9-.118-249.2-0.118-249.2l-147.671.07s0.215,143.67.215,158.85c0,123.35,106.835,84.89,106.835,84.89s0.855,23.33,6.16,43.64c7.764,29.75,25.188,47.18,25.188,47.18s-15.646,19.68-91,19.68c-57,0-158.745-45.28-158.745-196.81,0-8.03-.079-157.31-0.079-157.31l-100.23-.09L-30-5750.08H-12.33s66.524,1.25,93.88-50.24c17.408-32.77,17.821-80.22,17.821-80.22l83.067,0.37-0.423,130.3,260.327,0.13s0.448,275.42.448,310.08c0,34.12,11.949,46.55,31.46,46.55,18.526,0,30.318-12.03,30.318-44.46-0.095-11.27-.453-312.07-0.453-312.07l111,0.15v19.97c22.064-13.59,57.843-23.44,87.6-23.44,177.339,0,193.566,177.01,193.566,177.01,5.38,36.39,5.052,73.64,5.372,110.51,0.134,15.52.265,9.65,0.387,26.92,0,21.74-.068,45.41,30.373,45.41,32.189,0,28.169-51.4,28.169-51.4l-0.294-138.74L958.6-5748.66l111.322,0.06,0.26,222.74s0.59,43.62,7.91,77.09c13.02,57.38,89.25,68.11,133.32,40.43,34.97-28.75,33.06-59.11,33.06-98.24,0-89.41-.22-242.53-0.22-242.53l111.74-.37c-0.27,190.87-.53,320.43-0.53,466.68,0,96.08-65.33,167.83-150.54,168.76-40.37.45-60.67-1.89-86.47-9.6-1.29-.39-0.93-108.72-0.93-108.72s127.3,35.21,127.3-54.15v-16.17c-21.33,7.12-46.9,11.34-77.59,11.34-62.61,0-114.62-15.6-144.64-41.19-9.01,12.84-36.335,41.3-88.177,41.3-54.564,0-141.1-.66-141.1-0.66s-1.189-130.82-1.552-220.94c-0.116-28.8-3.008-52.69-11.975-83.1-19.3-63.31-102.968-66.69-137.1-32.56S614.471-5520.48,614.471-5486s0.226,193.84.226,193.84m-228.159-485.4c-35.378,0-64.058-29.2-64.058-65.22s28.68-65.21,64.058-65.21,64.057,29.2,64.057,65.21S421.915-5777.56,386.538-5777.56Z"/>
  <path id="Shape_3_copy_8" data-name="Shape 3 copy 8" class="cls-1" d="M3016.43-5291.23c-49.06,0,0-.62,0-0.62-19.46-.28-108.61-1.71-108.61-105.28,0-21.9-.12-249.2-0.12-249.2l-128.67.07s0.22,143.67.22,158.85c0,132.45,85.83,84.89,85.83,84.89s2.09,35.67,9.99,58.81c7.55,22.1,17.93,31.71,17.93,31.71s-25.7,19.98-86.57,19.98c-56.99,0-138.74-40.11-138.74-196.81,0-8.03-.08-157.31-0.08-157.31l-100.23-.09L2567-5750.08h17.67s66.52,1.25,93.88-50.24c17.41-32.77,17.82-80.22,17.82-80.22l83.07,0.37-0.43,130.3,241.33,0.13s0.45,275.42.45,310.08c0,34.12,11.95,46.55,31.46,46.55,18.53,0,30.32-12.03,30.32-44.46-0.1-11.27-.46-312.07-0.46-312.07l111.01,0.15v19.97c22.06-13.59,57.84-23.44,87.6-23.44,177.33,0,193.56,177.01,193.56,177.01,5.38,36.39,5.05,73.64,5.37,110.51,0.14,15.52.27,9.65,0.39,26.92,0,21.74-.07,45.41,30.37,45.41,32.19,0,28.17-51.4,28.17-51.4l-0.29-138.74-1.69-165.41,111.32,0.06,0.26,222.74s0.59,43.62,7.91,77.09c13.02,57.38,89.25,68.11,133.32,40.43,34.97-28.75,33.06-59.11,33.06-98.24,0-89.41-.22-242.53-0.22-242.53l111.74-.37c-0.27,190.87-.53,320.43-0.53,466.68,0,96.08-65.33,167.83-150.54,168.76-40.37.45-60.67-1.89-86.47-9.6-1.29-.39-0.93-108.72-0.93-108.72s127.3,35.21,127.3-54.15v-16.17c-21.33,7.12-46.9,11.34-77.59,11.34-62.61,0-114.62-15.6-144.64-41.19-9.01,12.84-36.34,41.3-88.18,41.3-54.56,0-141.1-.66-141.1-0.66s-1.19-130.82-1.55-220.94c-0.12-28.8-3.01-52.69-11.97-83.1-19.3-63.31-102.97-66.69-137.11-32.56s-28.21,108.01-28.21,142.49,0.23,193.84.23,193.84m-228.16-485.4c-35.38,0-64.06-29.2-64.06-65.22s28.68-65.21,64.06-65.21,64.05,29.2,64.05,65.21S2999.92-5777.56,2964.54-5777.56Z"/>
  <path id="Shape_3_copy_10" data-name="Shape 3 copy 10" class="cls-1" d="M3016.43-1720.23c-49.06,0,0-.62,0-0.62-19.46-.28-108.61-1.71-108.61-105.28,0-21.9-.12-249.2-0.12-249.2l-128.67.07s0.22,143.67.22,158.85c0,132.45,85.83,84.89,85.83,84.89s2.09,35.67,9.99,58.81c7.55,22.1,17.93,31.71,17.93,31.71s-25.7,19.98-86.57,19.98c-56.99,0-138.74-40.11-138.74-196.81,0-8.03-.08-157.31-0.08-157.31l-100.23-.09L2567-2179.08h87.67l41.7-130.46,83.07,0.37-0.43,130.3,241.33,0.13s0.45,275.42.45,310.08c0,34.12,11.95,46.55,31.46,46.55,18.53,0,30.32-12.03,30.32-44.46-0.1-11.27-.46-312.07-0.46-312.07l111.01,0.15v19.97c22.06-13.59,57.84-23.44,87.6-23.44,177.33,0,193.56,177.01,193.56,177.01,5.38,36.39,5.05,73.64,5.37,110.51,0.14,15.52.27,9.65,0.39,26.92,0,21.74-.07,45.41,30.37,45.41,32.19,0,28.17-51.4,28.17-51.4l-0.29-138.74-1.69-165.41,111.32,0.06,0.26,222.74s0.59,43.62,7.91,77.09c13.02,57.38,89.25,68.11,133.32,40.43,34.97-28.75,33.06-59.11,33.06-98.24,0-89.41-.22-242.53-0.22-242.53l111.74-.37c-0.27,190.87-.53,320.43-0.53,466.67,0,96.09-65.33,167.84-150.54,168.77-40.37.45-60.67-1.89-86.47-9.6-1.29-.39-0.93-108.72-0.93-108.72s127.3,35.21,127.3-54.15v-16.17c-21.33,7.12-46.9,11.34-77.59,11.34-62.61,0-114.62-15.6-144.64-41.19-9.01,12.84-36.34,41.3-88.18,41.3-54.56,0-141.1-.66-141.1-0.66s-1.19-130.82-1.55-220.94c-0.12-28.8-3.01-52.69-11.97-83.1-19.3-63.31-102.97-66.69-137.11-32.56s-28.21,108.01-28.21,142.49,0.23,193.84.23,193.84m-228.16-485.4c-35.38,0-64.06-29.2-64.06-65.22s28.68-65.21,64.06-65.21,64.05,29.2,64.05,65.21S2999.92-2206.56,2964.54-2206.56Z"/>
  <path id="Shape_3_copy_11" data-name="Shape 3 copy 11" class="cls-1" d="M3016.43-580.233c-49.06,0,0-.621,0-0.621-19.46-.28-108.61-1.7-108.61-105.272,0-21.907-.12-249.209-0.12-249.209l-128.67.074s0.22,143.666.22,158.849c0,132.455,85.83,84.894,85.83,84.894s2.09,35.673,9.99,58.806C2882.62-610.61,2893-601,2893-601s-25.7,19.983-86.57,19.983c-56.99,0-138.74-40.112-138.74-196.815,0-8.025-.08-157.308-0.08-157.308l-100.23-.09L2567-1039.08h100.67l-0.3-130.46,112.07,0.37-0.43,130.3,241.33,0.13s0.45,275.422.45,310.08c0,34.122,11.95,46.55,31.46,46.55,18.53,0,30.32-12.027,30.32-44.459-0.1-11.271-.46-312.071-0.46-312.071l111.01,0.15v19.97c22.06-13.59,57.84-23.44,87.6-23.44,177.33,0,193.56,177.014,193.56,177.014,5.38,36.389,5.05,73.632,5.37,110.5,0.14,15.53.27,9.657,0.39,26.921,0,21.748-.07,45.414,30.37,45.414,32.19,0,28.17-51.4,28.17-51.4l-0.29-138.738-1.69-165.409,111.32,0.06,0.26,222.739s0.59,43.622,7.91,77.091c13.02,57.376,89.25,68.113,133.32,40.433,34.97-28.757,33.06-59.111,33.06-98.245,0-89.407-.22-242.528-0.22-242.528l111.74-.37c-0.27,190.871-.53,320.431-0.53,466.675,0,96.089-65.33,167.836-150.54,168.769-40.37.442-60.67-1.9-86.47-9.6-1.29-.388-0.93-108.724-0.93-108.724s127.3,35.216,127.3-54.142v-16.171c-21.33,7.12-46.9,11.337-77.59,11.337-62.61,0-114.62-15.6-144.64-41.2-9.01,12.843-36.34,41.3-88.18,41.3-54.56,0-141.1-.653-141.1-0.653s-1.19-130.828-1.55-220.948c-0.12-28.794-3.01-52.686-11.97-83.092-19.3-63.314-102.97-66.7-137.11-32.563S3192.47-809.482,3192.47-775s0.23,193.844.23,193.844m-228.16-485.4c-35.38,0-64.06-29.2-64.06-65.22s28.68-65.21,64.06-65.21,64.05,29.2,64.05,65.21S2999.92-1066.56,2964.54-1066.56Z"/>
  <path id="Shape_3_copy_12" data-name="Shape 3 copy 12" class="cls-1" d="M3016.43,522.767c-49.06,0,0-.621,0-0.621-19.46-.28-108.61-1.7-108.61-105.272,0-21.907-.12-249.208-0.12-249.208l-108.67.073L2799,516l-111.57-.017,0.18-348.123-100.23-.09L2587,63.916l100.67,0-0.3-130.462,112.07,0.376-0.43,130.293,221.33,0.135s0.45,275.422.45,310.08c0,34.122,11.95,46.55,31.46,46.55,18.53,0,30.32-12.027,30.32-44.459-0.1-11.271-.46-312.073-0.46-312.073l111.01,0.157V84.483c22.06-13.59,57.84-23.44,87.6-23.44,177.33,0,193.56,177.011,193.56,177.011,5.38,36.389,5.05,73.632,5.37,110.5,0.14,15.53.27,9.657,0.39,26.921,0,21.748-.07,45.414,30.37,45.414,32.19,0,28.17-51.4,28.17-51.4l-0.29-138.738L3536.6,65.335,3647.92,65.4l0.26,222.735s0.59,43.622,7.91,77.091c13.02,57.376,89.25,68.113,133.32,40.433,34.97-28.757,33.06-59.111,33.06-98.245,0-89.407-.22-242.531-0.22-242.531l111.74-.367c-0.27,190.871-.53,320.431-0.53,466.675,0,96.089-65.33,167.836-150.54,168.769-40.37.442-60.67-1.9-86.47-9.6-1.29-.388-0.93-108.724-0.93-108.724s127.3,35.216,127.3-54.142V511.324c-21.33,7.12-46.9,11.337-77.59,11.337-62.61,0-114.62-15.6-144.64-41.195-9.01,12.842-36.34,41.3-88.18,41.3-54.56,0-141.1-.653-141.1-0.653s-1.19-130.828-1.55-220.948c-0.12-28.794-3.01-52.686-11.97-83.092-19.3-63.313-102.97-66.7-137.11-32.563S3192.47,293.518,3192.47,328s0.23,193.844.23,193.844m-228.16-485.4c-35.38,0-64.06-29.2-64.06-65.212s28.68-65.212,64.06-65.212,64.05,29.2,64.05,65.212S2999.92,36.436,2964.54,36.436Z"/>
  <path id="Shape_3_copy_3" data-name="Shape 3 copy 3" class="cls-1" d="M438.429-6298.23v-0.62c-19.459-.28-108.607-1.71-108.607-105.28,0-21.9-.118-249.2-0.118-249.2l-117.671.07S212-6460.18,212-6445c0,39.63,23.064,44.41,41.3,44.9,12.841,0.35,40.784.58,40.784,0.58A88.573,88.573,0,0,1,295-6388c0,75.24,44.431,89.3,44.431,89.3s-97.92-.32-100-0.32c-56.995,0-138.434.16-138.434-107.98,0-8.03-.389-246.14-0.389-246.14l-100.23-.09L0-6757.08H17.67s66.524,1.25,93.88-50.24c17.409-32.77,17.821-80.22,17.821-80.22l83.067,0.37-0.423,130.3,230.327,0.13s0.448,275.42.448,310.08c0,34.12,11.949,46.55,31.46,46.55,18.526,0,30.318-12.03,30.318-44.46-0.095-11.27-.453-312.07-0.453-312.07l111,0.15v19.97c22.064-13.59,57.843-23.44,87.6-23.44,177.339,0,193.566,177.01,193.566,177.01,5.38,36.39,5.052,73.64,5.372,110.51,0.134,15.52.265,9.65,0.387,26.92,0,21.74-.068,45.41,30.373,45.41,32.189,0,28.169-51.4,28.169-51.4l-0.294-138.74L958.6-6755.66l111.322,0.06,0.26,222.74s0.59,43.62,7.91,77.09c13.02,57.38,89.25,68.11,133.32,40.43,34.97-28.75,33.06-59.11,33.06-98.24,0-89.41-.22-242.53-0.22-242.53l111.74-.37c-0.27,190.87-.53,365.43-0.53,511.67,0,96.09-65.33,111.84-150.54,112.77-40.37.45-86.47,0.4-86.47,0.4l-0.93-112.72h22.95c34.74,0,104.53,7.41,104.53-39.64,0-17.01-.18-21.03-0.18-25.68-21.33,7.12-46.9,11.34-77.59,11.34-62.61,0-114.62-15.6-144.64-41.19-9.01,12.84-36.335,41.3-88.177,41.3-54.564,0-141.1-.66-141.1-0.66s-1.189-130.82-1.552-220.94c-0.116-28.8-3.008-52.69-11.975-83.1-19.3-63.31-102.968-66.69-137.1-32.56s-28.211,108.01-28.211,142.48,0.226,193.85.226,193.85m-228.159-485.4c-35.378,0-64.058-29.2-64.058-65.22s28.68-65.21,64.058-65.21,64.057,29.2,64.057,65.21S421.915-6784.56,386.538-6784.56Z"/>
  <path id="Shape_3_copy_6" data-name="Shape 3 copy 6" class="cls-1" d="M3016.43-4181.23v-0.62c-19.46-.28-108.61-1.71-108.61-105.28,0-21.9-.12-249.2-0.12-249.2l-117.67.07S2790-4343.18,2790-4328c0,39.63,23.06,43.41,41.3,43.9,12.84,0.35,40.78.58,40.78,0.58l-0.65,100.82s-51.92.68-54,.68c-56.99,0-138.43-.84-138.43-108.98,0-8.03-.39-245.14-0.39-245.14l-100.23-.09L2578-4640.08h17.67s66.52,1.25,93.88-50.24c17.41-32.77,17.82-80.22,17.82-80.22l83.07,0.37-0.43,130.3,230.33,0.13s0.45,275.42.45,310.08c0,34.12,11.95,46.55,31.46,46.55,18.53,0,30.32-12.03,30.32-44.46-0.1-11.27-.46-312.07-0.46-312.07l111.01,0.15v19.97c22.06-13.59,57.84-23.44,87.6-23.44,177.33,0,193.56,177.01,193.56,177.01,5.38,36.39,5.05,73.64,5.37,110.51,0.14,15.52.27,9.65,0.39,26.92,0,21.74-.07,45.41,30.37,45.41,32.19,0,28.17-51.4,28.17-51.4l-0.29-138.74-1.69-165.41,111.32,0.06,0.26,222.74s0.59,43.62,7.91,77.09c13.02,57.38,89.25,68.11,133.32,40.43,34.97-28.75,33.06-59.11,33.06-98.24,0-89.41-.22-242.53-0.22-242.53l111.74-.37c-0.27,190.87-.53,365.43-0.53,511.67,0,96.09-65.33,111.84-150.54,112.77-40.37.45-86.47,0.4-86.47,0.4l0.07-110.72h21.95c64.25,0,104.53,7.63,104.53-41.64,0-17.01-.18-21.03-0.18-25.68-21.33,7.12-46.9,11.34-77.59,11.34-62.61,0-114.62-15.6-144.64-41.19-9.01,12.84-36.34,41.3-88.18,41.3-54.56,0-141.1-.66-141.1-0.66s-1.19-130.82-1.55-220.94c-0.12-28.8-3.01-52.69-11.97-83.1-19.3-63.31-102.97-66.69-137.11-32.56s-28.21,108.01-28.21,142.49,0.23,193.84.23,193.84m-228.16-485.4c-35.38,0-64.06-29.2-64.06-65.22s28.68-65.21,64.06-65.21,64.05,29.2,64.05,65.21S2999.92-4667.56,2964.54-4667.56Z"/>
  <path id="Shape_3_copy_9" data-name="Shape 3 copy 9" class="cls-1" d="M3016.43-2889.23v-0.62c-19.46-.28-108.61-1.71-108.61-105.28,0-21.9-.12-249.2-0.12-249.2l-117.67.07S2790-3051.18,2790-3036c0,39.63,23.06,43.41,41.3,43.9,12.84,0.35,40.78.58,40.78,0.58l-0.65,100.82s-51.92.68-54,.68c-56.99,0-138.43-.84-138.43-108.98,0-8.03-.39-245.14-0.39-245.14l-100.23-.09L2578-3348.08l100,0.08,0.37-130.54,112.07,0.37-0.43,130.3,230.33,0.13s0.45,275.42.45,310.08c0,34.12,11.95,46.55,31.46,46.55,18.53,0,30.32-12.03,30.32-44.46-0.1-11.27-.46-312.07-0.46-312.07l111.01,0.15v19.97c22.06-13.59,57.84-23.44,87.6-23.44,177.33,0,193.56,177.01,193.56,177.01,5.38,36.39,5.05,73.64,5.37,110.51,0.14,15.52.27,9.65,0.39,26.92,0,21.74-.07,45.41,30.37,45.41,32.19,0,28.17-51.4,28.17-51.4l-0.29-138.74-1.69-165.41,111.32,0.06,0.26,222.74s0.59,43.62,7.91,77.09c13.02,57.38,89.25,68.11,133.32,40.43,34.97-28.75,33.06-59.11,33.06-98.24,0-89.41-.22-242.53-0.22-242.53l111.74-.37c-0.27,190.87-.53,365.43-0.53,511.67,0,96.09-65.33,111.84-150.54,112.77-40.37.45-86.47,0.4-86.47,0.4l0.07-110.72h21.95c64.25,0,104.53,7.63,104.53-41.64,0-17.01-.18-21.03-0.18-25.68-21.33,7.12-46.9,11.34-77.59,11.34-62.61,0-114.62-15.6-144.64-41.19-9.01,12.84-36.34,41.3-88.18,41.3-54.56,0-141.1-.66-141.1-0.66s-1.19-130.82-1.55-220.94c-0.12-28.8-3.01-52.69-11.97-83.1-19.3-63.31-102.97-66.69-137.11-32.56s-28.21,108.01-28.21,142.48,0.23,193.85.23,193.85m-228.16-485.4c-35.38,0-64.06-29.2-64.06-65.22s28.68-65.21,64.06-65.21,64.05,29.2,64.05,65.21S2999.92-3375.56,2964.54-3375.56Z"/>
  <path id="Shape_3_copy_13" data-name="Shape 3 copy 13" class="cls-2" d="M438.429-2079.23v-0.62c-19.459-.28-108.607-1.71-108.607-105.28,0-21.9-.118-249.2-0.118-249.2l-117.671.07S212-2241.18,212-2226c0,39.63,23.064,43.41,41.3,43.9,12.841,0.35,40.784.58,40.784,0.58l-0.652,100.82s-51.92.68-54,.68C182.439-2080.02,101-2080.86,101-2189c0-8.03-.389-245.14-0.389-245.14l-100.23-.09L0-2538.08,100-2538l0.371-130.54,112.067,0.37-0.423,130.3,230.327,0.13s0.448,275.42.448,310.08c0,34.12,11.949,46.55,31.46,46.55,18.526,0,30.318-12.03,30.318-44.46-0.095-11.27-.453-312.07-0.453-312.07l111,0.15v19.97c22.064-13.59,57.843-23.44,87.6-23.44,177.339,0,193.566,177.01,193.566,177.01,5.38,36.39,5.052,73.64,5.372,110.51,0.134,15.52.265,9.65,0.387,26.92,0,21.74-.068,45.41,30.373,45.41,32.189,0,28.169-51.4,28.169-51.4l-0.294-138.74L958.6-2536.66l111.322,0.06,0.26,222.74s0.59,43.62,7.91,77.09c13.02,57.38,89.25,68.11,133.32,40.43,34.97-28.75,33.06-59.11,33.06-98.24,0-89.41-.22-242.53-0.22-242.53l111.74-.37c-0.27,190.87-.53,322.43-0.53,468.67,0,103.05-72.28,162.77-159.54,162.77-10.99,0-77.47-.6-77.47-0.6l0.07-112.72h41.95c56.43,0,84.53-15.83,84.53-45.64,0-17.01-.18-21.03-0.18-25.68-21.33,7.12-46.9,11.34-77.59,11.34-62.61,0-114.62-15.6-144.64-41.19-9.01,12.84-36.335,41.3-88.177,41.3-54.564,0-141.1-.66-141.1-0.66s-1.189-130.82-1.552-220.94c-0.116-28.8-3.008-52.69-11.975-83.1-19.3-63.31-102.968-66.69-137.1-32.56S614.471-2308.48,614.471-2274s0.226,193.84.226,193.84m-228.159-485.4c-35.378,0-64.058-29.2-64.058-65.22s28.68-65.21,64.058-65.21,64.057,29.2,64.057,65.21S421.915-2565.56,386.538-2565.56Z"/>
  <path id="Shape_3_copy_14" data-name="Shape 3 copy 14" class="cls-2" d="M438.429-632.233v-0.621c-19.459-.28-108.607-1.7-108.607-105.272,0-21.908-.118-249.208-0.118-249.208l-117.671.073S212-794.183,212-779c0,39.63,23.064,43.412,41.3,43.9,12.841,0.345,40.784.578,40.784,0.578L293.431-633.7s-51.92.686-54,.686C182.439-633.018,101-633.856,101-742c0-8.026-.389-245.14-0.389-245.14l-100.23-.09L0-1091.08,100-1091l0.371-130.54,112.067,0.37-0.423,130.3,230.327,0.13s0.448,275.421.448,310.08c0,34.122,11.949,46.55,31.46,46.55,33.407,0,30.75.11,30.75,0.11l-0.885-356.64,111,0.15v19.97c22.064-13.59,57.843-23.44,87.6-23.44,177.339,0,193.566,177.014,193.566,177.014,5.38,36.389,5.052,73.632,5.372,110.5C901.788-790.915,902-734,902-734s-0.027-.11,30.414-0.11c32.189,0,28.169-51.4,28.169-51.4l-0.294-138.739L958.6-1089.66l111.322,0.06,0.26,222.739s0.59,43.623,7.91,77.091c13.02,57.376,89.25,68.113,133.32,40.434,34.97-28.758,33.06-59.112,33.06-98.246,0-89.407-.22-242.528-0.22-242.528l111.74-.37c-0.27,190.871-.53,322.431-0.53,468.674,0,103.045-72.28,162.77-159.54,162.77-10.99,0-77.47-.6-77.47-0.6l0.07-112.724s24.04,0.006,41.95.006c56.43,0,84.53-15.829,84.53-45.643,0-17.014-.18-21.033-0.18-25.676-21.33,7.119-46.9,11.337-77.59,11.337-62.61,0-114.62-15.6-144.64-41.195-9.01,12.842-36.335,41.3-88.177,41.3-54.564,0-141.1-.653-141.1-0.653s-1.189-130.828-1.552-220.949c-0.116-28.793-3.008-52.685-11.975-83.091-19.3-63.314-102.968-66.694-137.1-32.563S614.471-861.482,614.471-827s0.226,193.843.226,193.843m-228.159-485.4c-35.378,0-64.058-29.2-64.058-65.22s28.68-65.21,64.058-65.21,64.057,29.2,64.057,65.21S421.915-1118.56,386.538-1118.56Z"/>
  <path id="Shape_3_copy_15" data-name="Shape 3 copy 15" class="cls-2" d="M438.429,621.767v-0.621c-19.459-.28-108.607-1.7-108.607-105.272,0-21.908-.118-249.208-0.118-249.208l-117.671.073S212,459.817,212,475c0,39.63,23.064,43.412,41.3,43.9,12.841,0.345,40.784.578,40.784,0.578L293.431,620.3s-51.92.686-54,.686C182.439,620.982,101,620.144,101,512c0-8.026-.389-245.14-0.389-245.14l-100.23-.09L0,162.916,18,163s105.985,0.937,105.985-113.41c0-15.11.386-17.134,0.386-17.134l88.067,0.377-0.423,130.292,230.327,0.135s0.448,275.421.448,310.08c0,34.122,11.949,46.55,31.46,46.55,33.407,0,30.75.11,30.75,0.11l-0.885-356.643,111,0.157v19.969c22.064-13.591,57.843-23.44,87.6-23.44,177.339,0,193.566,177.011,193.566,177.011,5.38,36.389,5.052,73.632,5.372,110.5C901.788,463.085,902,520,902,520s-0.027-.11,30.414-0.11c32.189,0,28.169-51.4,28.169-51.4l-0.294-138.739L958.6,164.335,1069.92,164.4l0.26,222.736s0.59,43.623,7.91,77.091c13.02,57.376,89.25,68.113,133.32,40.434,34.97-28.758,33.06-59.112,33.06-98.246,0-89.407-.22-242.531-0.22-242.531l111.74-.366c-0.27,190.87-.53,322.43-0.53,468.673,0,103.045-72.28,162.77-159.54,162.77-10.99,0-77.47-.6-77.47-0.6l0.07-112.724s24.04,0.007,41.95.007c56.43,0,84.53-15.83,84.53-45.644,0-17.014-.18-21.033-0.18-25.676-21.33,7.119-46.9,11.337-77.59,11.337-62.61,0-114.62-15.6-144.64-41.195-9.01,12.842-36.335,41.3-88.177,41.3-54.564,0-141.1-.653-141.1-0.653s-1.189-130.828-1.552-220.949c-0.116-28.793-3.008-52.685-11.975-83.091-19.3-63.313-102.968-66.7-137.1-32.563S614.471,392.518,614.471,427s0.226,193.843.226,193.843m-228.159-485.4c-35.378,0-64.058-29.2-64.058-65.212S351.16,5.012,386.538,5.012,450.6,34.208,450.6,70.224,421.915,135.436,386.538,135.436Z"/>
  <path id="Shape_3_copy_7" data-name="Shape 3 copy 7" class="cls-1" d="M438.429-3281.23v-0.62c-19.459-.28-108.607-1.71-108.607-105.28,0-21.9-.118-249.2-0.118-249.2l-77.671.07-0.6,354.56-111-.32,0.177-354.12-100.23-.09L40-3740.08H57.67s66.524,1.25,93.88-50.24c17.409-32.77,17.821-80.22,17.821-80.22l83.067,0.37-0.423,130.3,190.327,0.13s0.448,275.42.448,310.08c0,34.12,11.949,46.55,31.46,46.55,18.526,0,30.318-12.03,30.318-44.46-0.095-11.27-.453-312.07-0.453-312.07l111,0.15v19.97c22.064-13.59,57.843-23.44,87.6-23.44,177.339,0,193.566,177.01,193.566,177.01,5.38,36.39,5.052,73.64,5.372,110.51,0.134,15.52.265,9.65,0.387,26.92,0,21.74-.068,45.41,30.373,45.41,32.189,0,28.169-51.4,28.169-51.4l-0.294-138.74L958.6-3738.66l111.322,0.06,0.26,222.74s0.59,43.62,7.91,77.09c13.02,57.38,89.25,68.11,133.32,40.43,34.97-28.75,33.06-59.11,33.06-98.24,0-89.41-.22-242.53-0.22-242.53l111.74-.37c-0.27,190.87-.53,365.43-0.53,511.67,0,96.09-65.33,111.84-150.54,112.77-40.37.45-86.47,0.4-86.47,0.4l0.07-112.72h21.95c56.3,0,104.53,7.41,104.53-39.64,0-17.01-.18-21.03-0.18-25.68-21.33,7.12-46.9,11.34-77.59,11.34-62.61,0-114.62-15.6-144.64-41.19-9.01,12.84-36.335,41.3-88.177,41.3-54.564,0-141.1-.66-141.1-0.66s-1.189-130.82-1.552-220.94c-0.116-28.8-3.008-52.69-11.975-83.1-19.3-63.31-102.968-66.69-137.1-32.56s-28.211,108.01-28.211,142.48,0.226,193.85.226,193.85m-228.159-485.4c-35.378,0-64.058-29.2-64.058-65.22s28.68-65.21,64.058-65.21,64.057,29.2,64.057,65.21S421.915-3767.56,386.538-3767.56Z"/>
</svg>