<svg width="582" height="428" viewBox="0 0 582 428" fill="none" xmlns="http://www.w3.org/2000/svg">
<path d="M60.847 236.547C60.847 203.184 60.8638 170.03 60.8059 136.875C60.8024 134.861 61.328 134.333 63.2048 134.336C105.372 134.391 147.538 134.346 189.705 134.412C196.315 134.422 201.499 137.564 204.343 144.029C206.705 149.4 205.701 156.402 201.234 161.142C197.883 164.698 194.182 165.988 189.629 165.978C157.289 165.911 124.948 165.961 92.6068 165.897C90.661 165.893 90.0776 166.38 90.0847 168.522C90.1596 191.155 90.1311 213.789 90.1311 236.423C90.1311 237.1 90.1311 237.778 90.1311 238.623C90.9683 238.623 91.6652 238.623 92.3622 238.623C105.832 238.623 119.302 238.626 132.772 238.622C139.118 238.62 143.659 241.801 146.471 247.705C149.012 253.042 148.224 260.286 144.089 264.998C140.893 268.638 137.134 270.231 132.528 270.21C118.478 270.148 104.428 270.188 90.2546 270.188C90.2546 294.648 90.2546 319.042 90.2546 343.699C90.877 343.699 91.5632 343.699 92.2494 343.699C125.501 343.699 158.753 343.719 192.005 343.68C197.88 343.673 204.699 350.418 205.432 356.815C206.519 366.299 200.031 372.872 193.006 374.751C192.453 374.899 191.846 374.845 191.264 374.845C148.577 374.848 105.89 374.835 63.2024 374.891C61.3215 374.893 60.8042 374.358 60.8066 372.348C60.8593 327.15 60.847 281.952 60.847 236.547Z" fill="white"/>
<path d="M228.165 212.789C227.646 211.058 227.038 209.522 226.646 207.924C226.267 206.382 225.897 204.777 225.892 203.198C225.84 185.48 225.844 167.762 225.866 150.044C225.876 142.666 231.055 135.825 238.219 134.706C246.065 133.481 253.206 139.803 254.585 147.254C254.684 147.787 254.608 148.359 254.608 148.912C254.608 164.9 254.577 180.888 254.653 196.875C254.661 198.636 255.077 200.48 255.658 202.14C258.957 211.576 262.33 220.983 265.745 230.371C269.054 239.466 272.49 248.508 275.782 257.611C278.158 264.181 280.355 270.827 282.7 277.411C283.857 280.659 285.227 283.818 286.397 287.062C288.114 291.825 289.711 296.641 291.411 301.412C292.998 305.868 294.652 310.296 296.285 314.732C296.386 315.005 296.567 315.243 296.886 315.806C298.453 311.304 299.885 307.108 301.374 302.936C303.274 297.612 305.221 292.307 307.146 286.993C309.949 279.26 312.738 271.52 315.558 263.794C318.741 255.073 321.971 246.373 325.146 237.649C327.98 229.859 330.753 222.044 333.581 214.251C335.22 209.732 336.932 205.244 338.56 200.721C338.823 199.993 338.922 199.153 338.923 198.365C338.944 182.031 338.945 165.697 338.935 149.364C338.932 144.428 341.171 140.758 344.531 137.764C346.885 135.666 349.735 134.787 352.7 134.397C357.637 133.748 364.23 138.346 366.207 143.373C367.345 146.268 367.69 149.191 367.689 152.247C367.686 169.48 367.64 186.714 367.731 203.947C367.748 207.09 366.306 209.594 365.365 212.312C363.039 219.034 360.543 225.687 358.113 232.367C356.83 235.895 355.546 239.422 354.256 242.946C352.606 247.455 350.939 251.956 349.299 256.469C345.949 265.685 342.605 274.904 339.273 284.128C337.485 289.077 335.743 294.045 333.952 298.992C332.696 302.461 331.381 305.904 330.113 309.368C328.576 313.567 327.063 317.776 325.535 321.978C323.105 328.661 320.668 335.34 318.241 342.024C316.064 348.021 313.842 354.001 311.744 360.031C310.292 364.204 308.694 368.241 305.572 371.327C301.38 375.472 294.975 375.884 290.108 373.171C285.205 370.439 283.272 365.324 281.429 360.132C278.278 351.259 275.036 342.425 271.849 333.567C269.667 327.503 267.526 321.421 265.34 315.359C264.089 311.889 262.759 308.452 261.508 304.982C259.32 298.917 257.178 292.833 254.994 286.766C253.613 282.928 252.166 279.118 250.791 275.278C247.577 266.303 244.404 257.311 241.183 248.34C239.56 243.817 237.852 239.329 236.208 234.815C234.407 229.87 232.65 224.907 230.846 219.964C229.988 217.613 229.064 215.291 228.165 212.789Z" fill="white"/>
<path d="M518.862 43.9175C517.058 50.6657 514.785 56.9747 511.76 63.0633C508.551 69.5204 504.389 75.1132 499.866 80.4047C495.245 85.8106 489.88 90.3542 483.928 94.035C482.061 95.1892 480.23 96.4099 478.231 97.6983C478.489 100.835 479.072 104.161 478.972 107.462C478.731 115.39 475.631 121.834 469.734 126.758C466.574 129.397 463.746 132.495 460.604 135.16C457.515 137.779 454.383 140.43 450.97 142.491C446.829 144.991 442.936 143.33 439.536 140.312C435.965 137.141 434.572 133.176 435.607 128.127C436.404 124.239 436.731 120.238 437.227 116.281C437.356 115.247 437.278 114.477 435.904 114.272C431.783 113.659 428.555 111.351 426.217 107.649C420.467 98.5414 414.67 89.4678 409.026 80.285C406.872 76.7807 405.672 72.9184 407.221 68.6451C407.35 68.2886 407.238 67.8307 407.238 67.3602C402.383 66.173 397.552 65.0519 392.75 63.7983C388.997 62.8182 385.504 57.4932 385.159 53.1149C384.673 46.9337 387.474 43.0394 392.111 40.0669C397.283 36.7507 402.355 33.2525 407.491 29.8709C412.152 26.8027 417.092 24.6411 422.696 25.228C426.982 25.6768 430.988 27.1081 434.573 29.7573C436.581 31.2407 437.725 31.0371 439.522 29.365C445.477 23.8246 451.937 19.1697 459.173 15.6767C464.188 13.2558 469.379 11.6374 474.691 10.4259C477.447 9.79758 480.32 9.65688 483.149 9.53951C486.627 9.39519 490.137 9.23387 493.591 9.57518C497.711 9.98227 501.848 10.6412 505.863 11.6949C509.957 12.7692 513.918 14.4409 517.928 15.8792C519.946 16.6031 521.281 18.2818 521.19 20.44C520.863 28.1256 521.054 35.8738 519.089 43.3869C519.055 43.5156 518.944 43.621 518.862 43.9175ZM505.055 55.5214C509.414 45.5756 511.585 35.0969 511.761 24.0942C510.256 23.5215 508.861 22.8912 507.415 22.4573C500.524 20.3894 493.543 18.9043 486.341 19.2884C483.709 19.4287 481.061 19.6608 478.47 20.1542C474.596 20.8919 470.665 21.5596 466.938 22.8554C457.447 26.1554 449.015 31.6351 441.751 38.9338C436.657 44.0516 432.06 49.7416 427.249 55.1672C431.752 62.2462 436.229 69.061 440.468 76.0436C442.5 79.3914 444.219 82.9854 445.824 86.5997C447.244 89.7987 444.846 94.0226 442.008 93.4405C440.88 93.2092 439.629 92.2236 438.944 91.1901C435.652 86.2253 432.548 81.1161 429.349 76.0788C426.638 71.8083 423.888 67.566 421.085 63.2032C420.354 64.1629 419.728 64.937 419.153 65.7532C418.539 66.6239 418.015 67.5688 417.381 68.4209C415.604 70.8107 415.484 72.8623 417.03 75.3747C417.802 76.6284 418.544 77.9036 419.344 79.1362C423.933 86.2112 428.53 93.28 433.134 100.344C436.028 104.784 437.104 105.335 441.093 103.982C449.027 101.292 456.949 98.5016 464.297 94.2405C470.76 90.4919 477.238 86.7115 483.385 82.4076C489.641 78.0274 494.94 72.3671 499.189 65.6953C501.235 62.4835 503.098 59.1372 505.055 55.5214ZM398.431 54.9118C402.87 56.0151 407.303 57.1446 411.755 58.1808C412.195 58.283 412.885 57.9585 413.226 57.5857C414.683 55.9953 416.046 54.3064 417.455 52.6642C421.512 47.9334 425.574 43.2078 429.635 38.4801C426.083 34.9702 419.384 34.4703 415.451 36.6355C412.7 38.15 410.103 39.9945 407.461 41.733C403.622 44.2591 399.763 46.7553 396.01 49.425C395.231 49.9794 394.516 51.1966 394.425 52.1781C394.302 53.5262 395.458 54.1785 396.636 54.481C397.126 54.6069 397.609 54.7666 398.431 54.9118ZM447.08 132.747C450.016 130.421 452.985 128.143 455.877 125.755C458.531 123.564 460.936 120.974 463.745 119.059C468.912 115.536 470.633 108.38 469.093 102.591C468.65 102.824 468.219 103.09 467.762 103.284C460.792 106.246 453.812 109.182 446.857 112.185C446.327 112.414 445.703 113.03 445.581 113.584C445.285 114.918 445.166 116.319 445.146 117.696C445.071 122.75 445.454 127.839 443.722 133.253C444.983 133.142 445.912 133.06 447.08 132.747Z" fill="white"/>
<path d="M367.877 79.1923C371.338 76.535 374.737 74.0508 378.047 71.4292C380.328 69.6222 382.693 68.5791 385.596 68.7477C388.908 68.9402 391.525 70.478 393.359 73.2969C397.006 78.9027 400.434 84.6816 403.95 90.3909C405.664 93.1757 406.63 96.2808 407.059 99.5816C407.171 100.444 406.978 101.354 406.907 102.529C412.039 103.876 415.299 108.015 418.059 113.03C421.009 118.39 424.443 123.426 427.484 128.729C429.569 132.365 428.281 137.848 426.037 140.066C423.454 142.621 420.621 144.897 417.766 147.089C410.823 152.42 403.806 157.636 396.812 162.886C396.246 163.311 395.548 163.546 395.035 164.029C390.972 167.856 386.756 163.902 386.22 159.587C386.045 158.177 387.021 155.976 388.111 155.1C392.911 151.242 397.977 147.786 402.886 144.087C406.799 141.139 410.613 138.033 414.497 135.038C415.343 134.386 416.299 133.906 417.358 133.252C414.515 128.713 411.761 124.294 408.984 119.893C407.98 118.301 407.028 116.646 405.86 115.209C404.329 113.326 402.176 113.206 400.237 114.638C394.72 118.709 389.211 122.791 383.686 126.848C381.132 128.724 377.915 128.092 376.173 125.273C374.645 122.799 374.9 119.311 377.518 117.354C382.708 113.472 387.787 109.406 393.049 105.648C396.511 103.175 397.182 100.139 394.756 96.4877C391.682 91.8639 388.786 87.0973 385.802 82.4011C385.134 81.3497 384.445 80.9715 383.278 81.8692C379.577 84.7178 375.783 87.4187 372.041 90.2034C366.688 94.1867 361.294 98.107 356.028 102.225C353.142 104.482 350.157 103.252 348.282 100.565C346.789 98.4262 347.375 94.6227 349.731 92.8036C355.684 88.2065 361.754 83.7935 367.877 79.1923Z" fill="white"/>
<path d="M400.482 56.212C399.837 56.0735 399.36 55.9207 398.877 55.8002C397.715 55.5109 396.573 54.8869 396.696 53.5973C396.784 52.6585 397.491 51.4942 398.259 50.9638C401.961 48.4101 405.769 46.0223 409.556 43.6058C412.163 41.9429 414.725 40.1785 417.439 38.7297C421.319 36.6586 427.928 37.1367 431.433 40.4942C427.427 45.0166 423.419 49.537 419.416 54.0624C418.026 55.6332 416.681 57.2488 415.244 58.7701C414.907 59.1267 414.227 59.4372 413.793 59.3394C409.401 58.3482 405.027 57.2677 400.482 56.212Z" fill="black"/>
<path d="M446.271 133.937C445.217 134.138 444.283 134.222 443.015 134.336C444.757 128.819 444.372 123.634 444.446 118.484C444.467 117.081 444.587 115.653 444.884 114.295C445.007 113.731 445.635 113.102 446.168 112.869C453.162 109.81 460.181 106.818 467.19 103.8C467.65 103.602 468.083 103.331 468.528 103.095C470.077 108.992 468.346 116.284 463.15 119.873C460.325 121.824 457.907 124.463 455.238 126.696C452.33 129.129 449.344 131.45 446.271 133.937Z" fill="black"/>
<path d="M484.621 38.1152C487.153 40.5593 489.436 42.9642 490.801 46.191C493.497 52.5631 492.315 59.5064 487.979 64.7767C485.051 68.3364 481.358 70.7443 476.637 71.5395C470.724 72.5359 465.536 71.1767 461.047 67.2921C456.15 63.0542 454.087 57.5118 454.703 51.1555C455.199 46.0298 457.66 41.7549 461.657 38.4392C465.776 35.0234 470.603 33.9542 475.764 34.5C478.945 34.8363 481.9 36.0793 484.621 38.1152ZM479.191 60.542C481.391 58.7285 482.626 56.3797 482.776 53.5472C483.016 49.0028 480.238 45.6273 475.009 43.9325C471.933 42.9354 467.778 44.7597 465.6 47.8933C462.813 51.9011 464.152 58.3936 468.041 60.9545C470.924 62.8525 475.802 63.1038 479.191 60.542Z" fill="white"/>
<path d="M477.188 63.4913C474.154 66.3908 469.615 66.0981 466.932 63.8869C463.313 60.9033 462.067 53.3393 464.66 48.67C466.688 45.0192 470.554 42.8939 473.416 44.0556C478.282 46.03 480.867 49.9627 480.643 55.257C480.504 58.5571 479.355 61.2934 477.188 63.4913Z" fill="black"/>
</svg>
