<svg width="33" height="32" viewBox="0 0 33 32" fill="none" xmlns="http://www.w3.org/2000/svg">
<g clip-path="url(#clip0_1004_76873)">
<path d="M22.7468 9.69155C22.5865 9.23706 22.2891 8.84349 21.8957 8.56511C21.5022 8.28673 21.0322 8.13725 20.5502 8.13727H18.7445C18.2334 8.13998 17.7412 8.33078 17.3618 8.67327C16.9824 9.01576 16.7424 9.48594 16.6875 9.99411C16.6327 10.5023 16.7669 11.0128 17.0645 11.4284C17.3621 11.8439 17.8023 12.1353 18.3011 12.247L21.0485 12.8481C21.6092 12.9719 22.1044 13.2983 22.4394 13.7646C22.7743 14.231 22.9254 14.8045 22.8637 15.3753C22.8019 15.9462 22.5317 16.4742 22.1048 16.8581C21.6779 17.2421 21.1244 17.455 20.5502 17.4561H18.9959C18.5141 17.4558 18.0441 17.3062 17.6508 17.0279C17.2574 16.7495 16.96 16.3561 16.7994 15.9018" stroke="#1C1C1C" stroke-width="2.28571" stroke-linecap="round" stroke-linejoin="round"/>
<path d="M19.7732 8.13734V5.80591" stroke="#1C1C1C" stroke-width="2.28571" stroke-linecap="round" stroke-linejoin="round"/>
<path d="M19.7732 19.7853V17.4539" stroke="#1C1C1C" stroke-width="2.28571" stroke-linecap="round" stroke-linejoin="round"/>
<path d="M8.59351 12.7955C8.59351 15.7605 9.77133 18.604 11.8679 20.7006C13.9644 22.7971 16.808 23.9749 19.7729 23.9749C22.7379 23.9749 25.5814 22.7971 27.678 20.7006C29.7745 18.604 30.9524 15.7605 30.9524 12.7955C30.9524 9.83055 29.7745 6.98702 27.678 4.89047C25.5814 2.79392 22.7379 1.61609 19.7729 1.61609C16.808 1.61609 13.9644 2.79392 11.8679 4.89047C9.77133 6.98702 8.59351 9.83055 8.59351 12.7955Z" stroke="#1C1C1C" stroke-width="2.28571" stroke-linecap="round" stroke-linejoin="round"/>
<path d="M3.08285 14.0208C1.95335 16.1016 1.51382 18.4874 1.82762 20.8342C2.14141 23.181 3.19233 25.3675 4.82885 27.0785C6.46538 28.7895 8.60297 29.9366 10.9335 30.3545C13.2639 30.7724 15.6669 30.4394 17.796 29.4036" stroke="#1C1C1C" stroke-width="2.28571" stroke-linecap="round" stroke-linejoin="round"/>
</g>
<defs>
<clipPath id="clip0_1004_76873">
<rect width="32" height="32" fill="white" transform="translate(0.333496)"/>
</clipPath>
</defs>
</svg>
